  0
SECTION
  2
HEADER
  9
$ANGBASE
  50
0.0
  9
$ANGDIR
  70
1
  9
$MEASUREMENT
  70
1
  0
ENDSEC
  0
SECTION
  2
TABLES
  0
TABLE
  2
LTYPE
  70
4
  0
LTYPE
  5
40F
  2
CONTINUOUS
  70
0
  3
Solid line
  72
65
  73
0
  40
0.0
  0
LTYPE
  5
410
  2
DASHDOT
 70
0
  3
Dash Dot ____ _ ____ _
 72
65
 73
4
 40
2.0
 49
1.25
 49
-0.25
 49
0.25
 49
-0.25
  0
LTYPE
  5
411
  2
DASHED
 70
0
  3
Dashed __ __ __ __ __
 72
65
 73
2
 40
0.75
 49
0.5
 49
-0.25
  0
LTYPE
  5
43B
  2
DOTTED
 70
0
  3
Dotted .  .  .  .
 72
65
 73
2
 40
0.2
 49
0.0
 49
-0.2
  0
ENDTAB
  0
TABLE
  2
STYLE
  70
4
  0
STYLE
  2
KICAD
  70
0
  40
0
  41
1
  42
1
  50
0
  71
0
  3
isocp.shx
  0
STYLE
  2
KICADB
  70
0
  40
0
  41
1
  42
1
  50
0
  71
0
  3
isocp.shx
  0
STYLE
  2
KICADI
  70
0
  40
0
  41
1
  42
1
  50
15
  71
0
  3
isocp.shx
  0
STYLE
  2
KICADBI
  70
0
  40
0
  41
1
  42
1
  50
15
  71
0
  3
isocp.shx
  0
ENDTAB
  0
TABLE
  2
LAYER
  70
1
  0
LAYER
  2
BLACK
  70
0
  62
7
  6
CONTINUOUS
  0
ENDTAB
  0
ENDSEC
  0
SECTION
  2
ENTITIES
0
LINE
8
BLACK
6
CONTINUOUS
10
135.
20
-58.5
11
135.
21
-46.7621229999999954
0
LINE
8
BLACK
6
CONTINUOUS
10
84.8698380000000014
20
-40.5357950000000002
11
65.7348439999999954
21
-45.7979179999999957
0
ARC
8
BLACK
10
85.1349999999999909
20
-41.5
40
1.0000010841339122
50
90.00034377
51
105.37656200
0
ARC
8
BLACK
10
114.8649999999999949
20
-41.5
40
1.000000000018
50
74.62343800
51
89.99965623
0
ARC
8
BLACK
10
66.
20
-46.7620999999999967
40
1.0000000002645
50
-254.62342004
51
-179.99868220
0
ARC
8
BLACK
10
66.
20
-58.7904999999999944
40
1.0000174566621325
50
-179.99891138
51
-109.28967038
0
ARC
8
BLACK
10
104.7985999999999933
20
-69.0001999999999924
40
0.9997862762475788
50
-90.00435535
51
-67.21714199
0
LINE
8
BLACK
6
CONTINUOUS
10
114.8650059999999939
20
-40.5
11
100.
21
-40.5
0
LINE
8
BLACK
6
CONTINUOUS
10
100.
20
-40.5
11
85.1349939999999918
21
-40.5
0
LINE
8
BLACK
6
CONTINUOUS
10
134.2651559999999904
20
-45.7979179999999957
11
115.1301619999999986
21
-40.5357950000000002
0
LINE
8
BLACK
6
CONTINUOUS
10
65.
20
-46.7621229999999954
11
65.
21
-58.7905189999999962
0
LINE
8
BLACK
6
CONTINUOUS
10
95.1699459999999959
20
-70.
11
104.7985240000000005
21
-70.
0
ARC
8
BLACK
10
95.1698999999999984
20
-69.
40
1.0000000010579999
50
-109.28754232
51
-89.99736439
0
ARC
8
BLACK
10
134.
20
-46.7620999999999967
40
0.9999773164727288
50
-0.00131780
51
74.62342004
0
LINE
8
BLACK
6
CONTINUOUS
10
130.2014759999999853
20
-59.5
11
134.
21
-59.5
0
LINE
8
BLACK
6
CONTINUOUS
10
105.1857569999999953
20
-69.9219819999999999
11
129.8142430000000047
21
-59.5780180000000001
0
ARC
8
BLACK
10
134.
20
-58.5
40
1.
50
-90.00000000
51
-0.00000000
0
LINE
8
BLACK
6
CONTINUOUS
10
65.6696499999999901
20
-59.734376999999995
11
94.8395960000000002
21
-69.9438579999999916
0
ARC
8
BLACK
10
130.2014000000000067
20
-60.4998000000000005
40
0.9997862762475788
50
89.99564465
51
112.78285801
0
CIRCLE
8
BLACK
10
93.6749999999999972
20
-63.4749999999999943
40
0.5
0
CIRCLE
8
BLACK
10
96.2149999999999892
20
-63.4749999999999943
40
0.5
0
CIRCLE
8
BLACK
10
98.7549999999999955
20
-63.4749999999999943
40
0.5
0
CIRCLE
8
BLACK
10
101.2950000000000017
20
-63.4749999999999943
40
0.5
0
CIRCLE
8
BLACK
10
103.8349999999999937
20
-63.4749999999999943
40
0.5
0
CIRCLE
8
BLACK
10
106.375
20
-63.4749999999999943
40
0.5
0
LINE
8
BLACK
6
CONTINUOUS
10
98.6310119999999984
20
-56.1428229999999999
11
98.6310119999999984
21
-56.8928229999999999
0
ARC
8
BLACK
10
99.0060119999999984
20
-56.8928229999999999
40
0.375
50
180.00000000
51
360.00000000
0
LINE
8
BLACK
6
CONTINUOUS
10
99.3810119999999984
20
-56.8928229999999999
11
99.3810119999999984
21
-56.1428229999999999
0
ARC
8
BLACK
10
99.0060119999999984
20
-56.1428229999999999
40
0.375
50
360.00000000
51
540.00000000
0
LINE
8
BLACK
6
CONTINUOUS
10
100.6310119999999984
20
-56.1428229999999999
11
100.6310119999999984
21
-56.8928229999999999
0
ARC
8
BLACK
10
101.0060119999999984
20
-56.8928229999999999
40
0.375
50
180.00000000
51
360.00000000
0
LINE
8
BLACK
6
CONTINUOUS
10
101.3810119999999984
20
-56.8928229999999999
11
101.3810119999999984
21
-56.1428229999999999
0
ARC
8
BLACK
10
101.0060119999999984
20
-56.1428229999999999
40
0.375
50
360.00000000
51
540.00000000
0
CIRCLE
8
BLACK
10
98.5
20
-68.3299999999999983
40
0.449999
0
CIRCLE
8
BLACK
10
101.5
20
-68.3299999999999983
40
0.449999
  0
ENDSEC
  0
EOF
