%TF.GenerationSoftware,KiCad,Pcbnew,9.0.6*%
%TF.CreationDate,2025-12-30T17:46:59+00:00*%
%TF.ProjectId,cat-ears-controller,6361742d-6561-4727-932d-636f6e74726f,rev?*%
%TF.SameCoordinates,Original*%
%TF.FileFunction,Soldermask,Top*%
%TF.FilePolarity,Negative*%
%FSLAX46Y46*%
G04 Gerber Fmt 4.6, Leading zero omitted, Abs format (unit mm)*
G04 Created by KiCad (PCBNEW 9.0.6) date 2025-12-30 17:46:59*
%MOMM*%
%LPD*%
G01*
G04 APERTURE LIST*
G04 Aperture macros list*
%AMRoundRect*
0 Rectangle with rounded corners*
0 $1 Rounding radius*
0 $2 $3 $4 $5 $6 $7 $8 $9 X,Y pos of 4 corners*
0 Add a 4 corners polygon primitive as box body*
4,1,4,$2,$3,$4,$5,$6,$7,$8,$9,$2,$3,0*
0 Add four circle primitives for the rounded corners*
1,1,$1+$1,$2,$3*
1,1,$1+$1,$4,$5*
1,1,$1+$1,$6,$7*
1,1,$1+$1,$8,$9*
0 Add four rect primitives between the rounded corners*
20,1,$1+$1,$2,$3,$4,$5,0*
20,1,$1+$1,$4,$5,$6,$7,0*
20,1,$1+$1,$6,$7,$8,$9,0*
20,1,$1+$1,$8,$9,$2,$3,0*%
%AMFreePoly0*
4,1,15,-0.616000,0.142500,-0.283500,0.475000,0.521000,0.475000,0.557355,0.467769,0.588175,0.447175,0.608769,0.416355,0.616000,0.380000,0.616000,-0.380000,0.608769,-0.416355,0.588175,-0.447175,0.557355,-0.467769,0.521000,-0.475000,-0.283500,-0.475000,-0.616000,-0.142500,-0.616000,0.142500,-0.616000,0.142500,$1*%
G04 Aperture macros list end*
%ADD10RoundRect,0.200000X0.200000X0.275000X-0.200000X0.275000X-0.200000X-0.275000X0.200000X-0.275000X0*%
%ADD11RoundRect,0.150000X0.625000X-0.150000X0.625000X0.150000X-0.625000X0.150000X-0.625000X-0.150000X0*%
%ADD12RoundRect,0.250000X0.650000X-0.350000X0.650000X0.350000X-0.650000X0.350000X-0.650000X-0.350000X0*%
%ADD13RoundRect,0.125000X0.125000X-0.125000X0.125000X0.125000X-0.125000X0.125000X-0.125000X-0.125000X0*%
%ADD14R,0.900000X1.000000*%
%ADD15RoundRect,0.200000X-0.200000X-0.275000X0.200000X-0.275000X0.200000X0.275000X-0.200000X0.275000X0*%
%ADD16R,1.700000X1.700000*%
%ADD17C,1.700000*%
%ADD18RoundRect,0.095000X0.921000X0.380000X-0.921000X0.380000X-0.921000X-0.380000X0.921000X-0.380000X0*%
%ADD19RoundRect,0.095000X-0.921000X-0.380000X0.921000X-0.380000X0.921000X0.380000X-0.921000X0.380000X0*%
%ADD20FreePoly0,180.000000*%
%ADD21FreePoly0,0.000000*%
%ADD22RoundRect,0.110000X-0.440000X1.140000X-0.440000X-1.140000X0.440000X-1.140000X0.440000X1.140000X0*%
%ADD23RoundRect,0.150000X0.275000X-0.150000X0.275000X0.150000X-0.275000X0.150000X-0.275000X-0.150000X0*%
%ADD24RoundRect,0.175000X0.225000X-0.175000X0.225000X0.175000X-0.225000X0.175000X-0.225000X-0.175000X0*%
%ADD25RoundRect,0.150000X-0.625000X0.150000X-0.625000X-0.150000X0.625000X-0.150000X0.625000X0.150000X0*%
%ADD26RoundRect,0.250000X-0.650000X0.350000X-0.650000X-0.350000X0.650000X-0.350000X0.650000X0.350000X0*%
%ADD27R,1.000000X0.800000*%
%ADD28C,0.900000*%
%ADD29R,0.700000X1.500000*%
%ADD30RoundRect,0.150000X-0.275000X0.150000X-0.275000X-0.150000X0.275000X-0.150000X0.275000X0.150000X0*%
%ADD31RoundRect,0.175000X-0.225000X0.175000X-0.225000X-0.175000X0.225000X-0.175000X0.225000X0.175000X0*%
G04 APERTURE END LIST*
D10*
%TO.C,R2*%
X82325000Y-57500000D03*
X80675000Y-57500000D03*
%TD*%
%TO.C,R4*%
X118325000Y-60000000D03*
X116675000Y-60000000D03*
%TD*%
D11*
%TO.C,J5*%
X68825000Y-57500000D03*
X68825000Y-56500000D03*
D12*
X66300000Y-58800000D03*
X66300000Y-55200000D03*
%TD*%
D13*
%TO.C,D2*%
X111550000Y-50450000D03*
X112450000Y-50450000D03*
X112450000Y-49550000D03*
X111550000Y-49550000D03*
%TD*%
D14*
%TO.C,SW2*%
X79950000Y-46200000D03*
X84050000Y-46200000D03*
X79950000Y-47800000D03*
X84050000Y-47800000D03*
%TD*%
D15*
%TO.C,R5*%
X87375000Y-62000000D03*
X89025000Y-62000000D03*
%TD*%
%TO.C,R3*%
X116675000Y-58250000D03*
X118325000Y-58250000D03*
%TD*%
D14*
%TO.C,SW4*%
X115950000Y-46200000D03*
X120050000Y-46200000D03*
X115950000Y-47800000D03*
X120050000Y-47800000D03*
%TD*%
D15*
%TO.C,R6*%
X87350000Y-63800000D03*
X89000000Y-63800000D03*
%TD*%
D13*
%TO.C,D4*%
X74550000Y-50450000D03*
X75450000Y-50450000D03*
X75450000Y-49550000D03*
X74550000Y-49550000D03*
%TD*%
D16*
%TO.C,J4*%
X93675000Y-63475000D03*
D17*
X96215000Y-63475000D03*
X98755000Y-63475000D03*
X101295000Y-63475000D03*
X103835000Y-63475000D03*
X106375000Y-63475000D03*
%TD*%
D14*
%TO.C,SW5*%
X115900000Y-52200000D03*
X120000000Y-52200000D03*
X115900000Y-53800000D03*
X120000000Y-53800000D03*
%TD*%
D18*
%TO.C,U1*%
X91745000Y-43380000D03*
X91745000Y-45920000D03*
X91745000Y-48460000D03*
X91745000Y-51000000D03*
X91745000Y-53540000D03*
X91745000Y-56080000D03*
X91745000Y-58620000D03*
D19*
X108255000Y-58620000D03*
X108255000Y-56080000D03*
X108255000Y-53540000D03*
X108255000Y-51000000D03*
X108255000Y-48460000D03*
X108255000Y-45920000D03*
X108255000Y-43380000D03*
D20*
X91345000Y-44650000D03*
X91345000Y-47190000D03*
X91345000Y-49730000D03*
X91345000Y-52270000D03*
X91345000Y-54810000D03*
X91345000Y-57350000D03*
D21*
X108655000Y-57350000D03*
X108655000Y-54810000D03*
X108655000Y-52270000D03*
D17*
X98730000Y-42427500D03*
X101270000Y-42427500D03*
X98730000Y-44967500D03*
X101270000Y-44967500D03*
D22*
X99006012Y-56517823D03*
X101006012Y-56517823D03*
%TD*%
D13*
%TO.C,D1*%
X124550000Y-50450000D03*
X125450000Y-50450000D03*
X125450000Y-49550000D03*
X124550000Y-49550000D03*
%TD*%
%TO.C,D3*%
X87550000Y-50450000D03*
X88450000Y-50450000D03*
X88450000Y-49550000D03*
X87550000Y-49550000D03*
%TD*%
D14*
%TO.C,SW3*%
X79950000Y-52200000D03*
X84050000Y-52200000D03*
X79950000Y-53800000D03*
X84050000Y-53800000D03*
%TD*%
D23*
%TO.C,J2*%
X130625000Y-51800000D03*
X130625000Y-50600000D03*
X130625000Y-49400000D03*
X130625000Y-48200000D03*
D24*
X134400000Y-52950000D03*
X134400000Y-47050000D03*
%TD*%
D25*
%TO.C,J3*%
X131175000Y-56500000D03*
X131175000Y-57500000D03*
D26*
X133700000Y-55200000D03*
X133700000Y-58800000D03*
%TD*%
D15*
%TO.C,R1*%
X80675000Y-55750000D03*
X82325000Y-55750000D03*
%TD*%
D27*
%TO.C,SW1*%
X96350000Y-67220000D03*
X96350000Y-69430000D03*
D28*
X98500000Y-68330000D03*
X101500000Y-68330000D03*
D27*
X103650000Y-67220000D03*
X103650000Y-69430000D03*
D29*
X97750000Y-66570000D03*
X100750000Y-66570000D03*
X102250000Y-66570000D03*
%TD*%
D30*
%TO.C,J1*%
X69375000Y-48200000D03*
X69375000Y-49400000D03*
X69375000Y-50600000D03*
X69375000Y-51800000D03*
D31*
X65600000Y-47050000D03*
X65600000Y-52950000D03*
%TD*%
M02*
