%TF.GenerationSoftware,KiCad,Pcbnew,9.0.6*%
%TF.CreationDate,2025-12-30T17:46:59+00:00*%
%TF.ProjectId,cat-ears-controller,6361742d-6561-4727-932d-636f6e74726f,rev?*%
%TF.SameCoordinates,Original*%
%TF.FileFunction,Legend,Top*%
%TF.FilePolarity,Positive*%
%FSLAX46Y46*%
G04 Gerber Fmt 4.6, Leading zero omitted, Abs format (unit mm)*
G04 Created by KiCad (PCBNEW 9.0.6) date 2025-12-30 17:46:59*
%MOMM*%
%LPD*%
G01*
G04 APERTURE LIST*
%ADD10C,0.150000*%
%ADD11C,0.075000*%
%ADD12C,0.101600*%
%ADD13C,0.120000*%
%ADD14C,0.100000*%
%ADD15C,0.127000*%
%ADD16C,0.504000*%
G04 APERTURE END LIST*
D10*
X84008333Y-57914819D02*
X83675000Y-57438628D01*
X83436905Y-57914819D02*
X83436905Y-56914819D01*
X83436905Y-56914819D02*
X83817857Y-56914819D01*
X83817857Y-56914819D02*
X83913095Y-56962438D01*
X83913095Y-56962438D02*
X83960714Y-57010057D01*
X83960714Y-57010057D02*
X84008333Y-57105295D01*
X84008333Y-57105295D02*
X84008333Y-57248152D01*
X84008333Y-57248152D02*
X83960714Y-57343390D01*
X83960714Y-57343390D02*
X83913095Y-57391009D01*
X83913095Y-57391009D02*
X83817857Y-57438628D01*
X83817857Y-57438628D02*
X83436905Y-57438628D01*
X84389286Y-57010057D02*
X84436905Y-56962438D01*
X84436905Y-56962438D02*
X84532143Y-56914819D01*
X84532143Y-56914819D02*
X84770238Y-56914819D01*
X84770238Y-56914819D02*
X84865476Y-56962438D01*
X84865476Y-56962438D02*
X84913095Y-57010057D01*
X84913095Y-57010057D02*
X84960714Y-57105295D01*
X84960714Y-57105295D02*
X84960714Y-57200533D01*
X84960714Y-57200533D02*
X84913095Y-57343390D01*
X84913095Y-57343390D02*
X84341667Y-57914819D01*
X84341667Y-57914819D02*
X84960714Y-57914819D01*
X117333333Y-61884819D02*
X117000000Y-61408628D01*
X116761905Y-61884819D02*
X116761905Y-60884819D01*
X116761905Y-60884819D02*
X117142857Y-60884819D01*
X117142857Y-60884819D02*
X117238095Y-60932438D01*
X117238095Y-60932438D02*
X117285714Y-60980057D01*
X117285714Y-60980057D02*
X117333333Y-61075295D01*
X117333333Y-61075295D02*
X117333333Y-61218152D01*
X117333333Y-61218152D02*
X117285714Y-61313390D01*
X117285714Y-61313390D02*
X117238095Y-61361009D01*
X117238095Y-61361009D02*
X117142857Y-61408628D01*
X117142857Y-61408628D02*
X116761905Y-61408628D01*
X118190476Y-61218152D02*
X118190476Y-61884819D01*
X117952381Y-60837200D02*
X117714286Y-61551485D01*
X117714286Y-61551485D02*
X118333333Y-61551485D01*
X63654819Y-57333333D02*
X64369104Y-57333333D01*
X64369104Y-57333333D02*
X64511961Y-57380952D01*
X64511961Y-57380952D02*
X64607200Y-57476190D01*
X64607200Y-57476190D02*
X64654819Y-57619047D01*
X64654819Y-57619047D02*
X64654819Y-57714285D01*
X63654819Y-56380952D02*
X63654819Y-56857142D01*
X63654819Y-56857142D02*
X64131009Y-56904761D01*
X64131009Y-56904761D02*
X64083390Y-56857142D01*
X64083390Y-56857142D02*
X64035771Y-56761904D01*
X64035771Y-56761904D02*
X64035771Y-56523809D01*
X64035771Y-56523809D02*
X64083390Y-56428571D01*
X64083390Y-56428571D02*
X64131009Y-56380952D01*
X64131009Y-56380952D02*
X64226247Y-56333333D01*
X64226247Y-56333333D02*
X64464342Y-56333333D01*
X64464342Y-56333333D02*
X64559580Y-56380952D01*
X64559580Y-56380952D02*
X64607200Y-56428571D01*
X64607200Y-56428571D02*
X64654819Y-56523809D01*
X64654819Y-56523809D02*
X64654819Y-56761904D01*
X64654819Y-56761904D02*
X64607200Y-56857142D01*
X64607200Y-56857142D02*
X64559580Y-56904761D01*
X111261905Y-48704819D02*
X111261905Y-47704819D01*
X111261905Y-47704819D02*
X111500000Y-47704819D01*
X111500000Y-47704819D02*
X111642857Y-47752438D01*
X111642857Y-47752438D02*
X111738095Y-47847676D01*
X111738095Y-47847676D02*
X111785714Y-47942914D01*
X111785714Y-47942914D02*
X111833333Y-48133390D01*
X111833333Y-48133390D02*
X111833333Y-48276247D01*
X111833333Y-48276247D02*
X111785714Y-48466723D01*
X111785714Y-48466723D02*
X111738095Y-48561961D01*
X111738095Y-48561961D02*
X111642857Y-48657200D01*
X111642857Y-48657200D02*
X111500000Y-48704819D01*
X111500000Y-48704819D02*
X111261905Y-48704819D01*
X112214286Y-47800057D02*
X112261905Y-47752438D01*
X112261905Y-47752438D02*
X112357143Y-47704819D01*
X112357143Y-47704819D02*
X112595238Y-47704819D01*
X112595238Y-47704819D02*
X112690476Y-47752438D01*
X112690476Y-47752438D02*
X112738095Y-47800057D01*
X112738095Y-47800057D02*
X112785714Y-47895295D01*
X112785714Y-47895295D02*
X112785714Y-47990533D01*
X112785714Y-47990533D02*
X112738095Y-48133390D01*
X112738095Y-48133390D02*
X112166667Y-48704819D01*
X112166667Y-48704819D02*
X112785714Y-48704819D01*
D11*
X111192857Y-50907409D02*
X110907143Y-50907409D01*
X111050000Y-50907409D02*
X111050000Y-50407409D01*
X111050000Y-50407409D02*
X111002381Y-50478838D01*
X111002381Y-50478838D02*
X110954762Y-50526457D01*
X110954762Y-50526457D02*
X110907143Y-50550266D01*
D10*
X80666667Y-44957200D02*
X80809524Y-45004819D01*
X80809524Y-45004819D02*
X81047619Y-45004819D01*
X81047619Y-45004819D02*
X81142857Y-44957200D01*
X81142857Y-44957200D02*
X81190476Y-44909580D01*
X81190476Y-44909580D02*
X81238095Y-44814342D01*
X81238095Y-44814342D02*
X81238095Y-44719104D01*
X81238095Y-44719104D02*
X81190476Y-44623866D01*
X81190476Y-44623866D02*
X81142857Y-44576247D01*
X81142857Y-44576247D02*
X81047619Y-44528628D01*
X81047619Y-44528628D02*
X80857143Y-44481009D01*
X80857143Y-44481009D02*
X80761905Y-44433390D01*
X80761905Y-44433390D02*
X80714286Y-44385771D01*
X80714286Y-44385771D02*
X80666667Y-44290533D01*
X80666667Y-44290533D02*
X80666667Y-44195295D01*
X80666667Y-44195295D02*
X80714286Y-44100057D01*
X80714286Y-44100057D02*
X80761905Y-44052438D01*
X80761905Y-44052438D02*
X80857143Y-44004819D01*
X80857143Y-44004819D02*
X81095238Y-44004819D01*
X81095238Y-44004819D02*
X81238095Y-44052438D01*
X81571429Y-44004819D02*
X81809524Y-45004819D01*
X81809524Y-45004819D02*
X82000000Y-44290533D01*
X82000000Y-44290533D02*
X82190476Y-45004819D01*
X82190476Y-45004819D02*
X82428572Y-44004819D01*
X82761905Y-44100057D02*
X82809524Y-44052438D01*
X82809524Y-44052438D02*
X82904762Y-44004819D01*
X82904762Y-44004819D02*
X83142857Y-44004819D01*
X83142857Y-44004819D02*
X83238095Y-44052438D01*
X83238095Y-44052438D02*
X83285714Y-44100057D01*
X83285714Y-44100057D02*
X83333333Y-44195295D01*
X83333333Y-44195295D02*
X83333333Y-44290533D01*
X83333333Y-44290533D02*
X83285714Y-44433390D01*
X83285714Y-44433390D02*
X82714286Y-45004819D01*
X82714286Y-45004819D02*
X83333333Y-45004819D01*
X85033333Y-62454819D02*
X84700000Y-61978628D01*
X84461905Y-62454819D02*
X84461905Y-61454819D01*
X84461905Y-61454819D02*
X84842857Y-61454819D01*
X84842857Y-61454819D02*
X84938095Y-61502438D01*
X84938095Y-61502438D02*
X84985714Y-61550057D01*
X84985714Y-61550057D02*
X85033333Y-61645295D01*
X85033333Y-61645295D02*
X85033333Y-61788152D01*
X85033333Y-61788152D02*
X84985714Y-61883390D01*
X84985714Y-61883390D02*
X84938095Y-61931009D01*
X84938095Y-61931009D02*
X84842857Y-61978628D01*
X84842857Y-61978628D02*
X84461905Y-61978628D01*
X85938095Y-61454819D02*
X85461905Y-61454819D01*
X85461905Y-61454819D02*
X85414286Y-61931009D01*
X85414286Y-61931009D02*
X85461905Y-61883390D01*
X85461905Y-61883390D02*
X85557143Y-61835771D01*
X85557143Y-61835771D02*
X85795238Y-61835771D01*
X85795238Y-61835771D02*
X85890476Y-61883390D01*
X85890476Y-61883390D02*
X85938095Y-61931009D01*
X85938095Y-61931009D02*
X85985714Y-62026247D01*
X85985714Y-62026247D02*
X85985714Y-62264342D01*
X85985714Y-62264342D02*
X85938095Y-62359580D01*
X85938095Y-62359580D02*
X85890476Y-62407200D01*
X85890476Y-62407200D02*
X85795238Y-62454819D01*
X85795238Y-62454819D02*
X85557143Y-62454819D01*
X85557143Y-62454819D02*
X85461905Y-62407200D01*
X85461905Y-62407200D02*
X85414286Y-62359580D01*
X117333333Y-57274819D02*
X117000000Y-56798628D01*
X116761905Y-57274819D02*
X116761905Y-56274819D01*
X116761905Y-56274819D02*
X117142857Y-56274819D01*
X117142857Y-56274819D02*
X117238095Y-56322438D01*
X117238095Y-56322438D02*
X117285714Y-56370057D01*
X117285714Y-56370057D02*
X117333333Y-56465295D01*
X117333333Y-56465295D02*
X117333333Y-56608152D01*
X117333333Y-56608152D02*
X117285714Y-56703390D01*
X117285714Y-56703390D02*
X117238095Y-56751009D01*
X117238095Y-56751009D02*
X117142857Y-56798628D01*
X117142857Y-56798628D02*
X116761905Y-56798628D01*
X117666667Y-56274819D02*
X118285714Y-56274819D01*
X118285714Y-56274819D02*
X117952381Y-56655771D01*
X117952381Y-56655771D02*
X118095238Y-56655771D01*
X118095238Y-56655771D02*
X118190476Y-56703390D01*
X118190476Y-56703390D02*
X118238095Y-56751009D01*
X118238095Y-56751009D02*
X118285714Y-56846247D01*
X118285714Y-56846247D02*
X118285714Y-57084342D01*
X118285714Y-57084342D02*
X118238095Y-57179580D01*
X118238095Y-57179580D02*
X118190476Y-57227200D01*
X118190476Y-57227200D02*
X118095238Y-57274819D01*
X118095238Y-57274819D02*
X117809524Y-57274819D01*
X117809524Y-57274819D02*
X117714286Y-57227200D01*
X117714286Y-57227200D02*
X117666667Y-57179580D01*
X116666667Y-44957200D02*
X116809524Y-45004819D01*
X116809524Y-45004819D02*
X117047619Y-45004819D01*
X117047619Y-45004819D02*
X117142857Y-44957200D01*
X117142857Y-44957200D02*
X117190476Y-44909580D01*
X117190476Y-44909580D02*
X117238095Y-44814342D01*
X117238095Y-44814342D02*
X117238095Y-44719104D01*
X117238095Y-44719104D02*
X117190476Y-44623866D01*
X117190476Y-44623866D02*
X117142857Y-44576247D01*
X117142857Y-44576247D02*
X117047619Y-44528628D01*
X117047619Y-44528628D02*
X116857143Y-44481009D01*
X116857143Y-44481009D02*
X116761905Y-44433390D01*
X116761905Y-44433390D02*
X116714286Y-44385771D01*
X116714286Y-44385771D02*
X116666667Y-44290533D01*
X116666667Y-44290533D02*
X116666667Y-44195295D01*
X116666667Y-44195295D02*
X116714286Y-44100057D01*
X116714286Y-44100057D02*
X116761905Y-44052438D01*
X116761905Y-44052438D02*
X116857143Y-44004819D01*
X116857143Y-44004819D02*
X117095238Y-44004819D01*
X117095238Y-44004819D02*
X117238095Y-44052438D01*
X117571429Y-44004819D02*
X117809524Y-45004819D01*
X117809524Y-45004819D02*
X118000000Y-44290533D01*
X118000000Y-44290533D02*
X118190476Y-45004819D01*
X118190476Y-45004819D02*
X118428572Y-44004819D01*
X119238095Y-44338152D02*
X119238095Y-45004819D01*
X119000000Y-43957200D02*
X118761905Y-44671485D01*
X118761905Y-44671485D02*
X119380952Y-44671485D01*
X85008333Y-64254819D02*
X84675000Y-63778628D01*
X84436905Y-64254819D02*
X84436905Y-63254819D01*
X84436905Y-63254819D02*
X84817857Y-63254819D01*
X84817857Y-63254819D02*
X84913095Y-63302438D01*
X84913095Y-63302438D02*
X84960714Y-63350057D01*
X84960714Y-63350057D02*
X85008333Y-63445295D01*
X85008333Y-63445295D02*
X85008333Y-63588152D01*
X85008333Y-63588152D02*
X84960714Y-63683390D01*
X84960714Y-63683390D02*
X84913095Y-63731009D01*
X84913095Y-63731009D02*
X84817857Y-63778628D01*
X84817857Y-63778628D02*
X84436905Y-63778628D01*
X85865476Y-63254819D02*
X85675000Y-63254819D01*
X85675000Y-63254819D02*
X85579762Y-63302438D01*
X85579762Y-63302438D02*
X85532143Y-63350057D01*
X85532143Y-63350057D02*
X85436905Y-63492914D01*
X85436905Y-63492914D02*
X85389286Y-63683390D01*
X85389286Y-63683390D02*
X85389286Y-64064342D01*
X85389286Y-64064342D02*
X85436905Y-64159580D01*
X85436905Y-64159580D02*
X85484524Y-64207200D01*
X85484524Y-64207200D02*
X85579762Y-64254819D01*
X85579762Y-64254819D02*
X85770238Y-64254819D01*
X85770238Y-64254819D02*
X85865476Y-64207200D01*
X85865476Y-64207200D02*
X85913095Y-64159580D01*
X85913095Y-64159580D02*
X85960714Y-64064342D01*
X85960714Y-64064342D02*
X85960714Y-63826247D01*
X85960714Y-63826247D02*
X85913095Y-63731009D01*
X85913095Y-63731009D02*
X85865476Y-63683390D01*
X85865476Y-63683390D02*
X85770238Y-63635771D01*
X85770238Y-63635771D02*
X85579762Y-63635771D01*
X85579762Y-63635771D02*
X85484524Y-63683390D01*
X85484524Y-63683390D02*
X85436905Y-63731009D01*
X85436905Y-63731009D02*
X85389286Y-63826247D01*
X74261905Y-48704819D02*
X74261905Y-47704819D01*
X74261905Y-47704819D02*
X74500000Y-47704819D01*
X74500000Y-47704819D02*
X74642857Y-47752438D01*
X74642857Y-47752438D02*
X74738095Y-47847676D01*
X74738095Y-47847676D02*
X74785714Y-47942914D01*
X74785714Y-47942914D02*
X74833333Y-48133390D01*
X74833333Y-48133390D02*
X74833333Y-48276247D01*
X74833333Y-48276247D02*
X74785714Y-48466723D01*
X74785714Y-48466723D02*
X74738095Y-48561961D01*
X74738095Y-48561961D02*
X74642857Y-48657200D01*
X74642857Y-48657200D02*
X74500000Y-48704819D01*
X74500000Y-48704819D02*
X74261905Y-48704819D01*
X75690476Y-48038152D02*
X75690476Y-48704819D01*
X75452381Y-47657200D02*
X75214286Y-48371485D01*
X75214286Y-48371485D02*
X75833333Y-48371485D01*
D11*
X74192857Y-50907409D02*
X73907143Y-50907409D01*
X74050000Y-50907409D02*
X74050000Y-50407409D01*
X74050000Y-50407409D02*
X74002381Y-50478838D01*
X74002381Y-50478838D02*
X73954762Y-50526457D01*
X73954762Y-50526457D02*
X73907143Y-50550266D01*
D10*
X90359819Y-63808333D02*
X91074104Y-63808333D01*
X91074104Y-63808333D02*
X91216961Y-63855952D01*
X91216961Y-63855952D02*
X91312200Y-63951190D01*
X91312200Y-63951190D02*
X91359819Y-64094047D01*
X91359819Y-64094047D02*
X91359819Y-64189285D01*
X90693152Y-62903571D02*
X91359819Y-62903571D01*
X90312200Y-63141666D02*
X91026485Y-63379761D01*
X91026485Y-63379761D02*
X91026485Y-62760714D01*
X116616667Y-50957200D02*
X116759524Y-51004819D01*
X116759524Y-51004819D02*
X116997619Y-51004819D01*
X116997619Y-51004819D02*
X117092857Y-50957200D01*
X117092857Y-50957200D02*
X117140476Y-50909580D01*
X117140476Y-50909580D02*
X117188095Y-50814342D01*
X117188095Y-50814342D02*
X117188095Y-50719104D01*
X117188095Y-50719104D02*
X117140476Y-50623866D01*
X117140476Y-50623866D02*
X117092857Y-50576247D01*
X117092857Y-50576247D02*
X116997619Y-50528628D01*
X116997619Y-50528628D02*
X116807143Y-50481009D01*
X116807143Y-50481009D02*
X116711905Y-50433390D01*
X116711905Y-50433390D02*
X116664286Y-50385771D01*
X116664286Y-50385771D02*
X116616667Y-50290533D01*
X116616667Y-50290533D02*
X116616667Y-50195295D01*
X116616667Y-50195295D02*
X116664286Y-50100057D01*
X116664286Y-50100057D02*
X116711905Y-50052438D01*
X116711905Y-50052438D02*
X116807143Y-50004819D01*
X116807143Y-50004819D02*
X117045238Y-50004819D01*
X117045238Y-50004819D02*
X117188095Y-50052438D01*
X117521429Y-50004819D02*
X117759524Y-51004819D01*
X117759524Y-51004819D02*
X117950000Y-50290533D01*
X117950000Y-50290533D02*
X118140476Y-51004819D01*
X118140476Y-51004819D02*
X118378572Y-50004819D01*
X119235714Y-50004819D02*
X118759524Y-50004819D01*
X118759524Y-50004819D02*
X118711905Y-50481009D01*
X118711905Y-50481009D02*
X118759524Y-50433390D01*
X118759524Y-50433390D02*
X118854762Y-50385771D01*
X118854762Y-50385771D02*
X119092857Y-50385771D01*
X119092857Y-50385771D02*
X119188095Y-50433390D01*
X119188095Y-50433390D02*
X119235714Y-50481009D01*
X119235714Y-50481009D02*
X119283333Y-50576247D01*
X119283333Y-50576247D02*
X119283333Y-50814342D01*
X119283333Y-50814342D02*
X119235714Y-50909580D01*
X119235714Y-50909580D02*
X119188095Y-50957200D01*
X119188095Y-50957200D02*
X119092857Y-51004819D01*
X119092857Y-51004819D02*
X118854762Y-51004819D01*
X118854762Y-51004819D02*
X118759524Y-50957200D01*
X118759524Y-50957200D02*
X118711905Y-50909580D01*
D12*
X99441190Y-39428479D02*
X99441190Y-39942526D01*
X99441190Y-39942526D02*
X99471428Y-40003002D01*
X99471428Y-40003002D02*
X99501666Y-40033241D01*
X99501666Y-40033241D02*
X99562142Y-40063479D01*
X99562142Y-40063479D02*
X99683095Y-40063479D01*
X99683095Y-40063479D02*
X99743571Y-40033241D01*
X99743571Y-40033241D02*
X99773809Y-40003002D01*
X99773809Y-40003002D02*
X99804047Y-39942526D01*
X99804047Y-39942526D02*
X99804047Y-39428479D01*
X100439047Y-40063479D02*
X100076190Y-40063479D01*
X100257618Y-40063479D02*
X100257618Y-39428479D01*
X100257618Y-39428479D02*
X100197142Y-39519193D01*
X100197142Y-39519193D02*
X100136666Y-39579669D01*
X100136666Y-39579669D02*
X100076190Y-39609907D01*
D10*
X124261905Y-48704819D02*
X124261905Y-47704819D01*
X124261905Y-47704819D02*
X124500000Y-47704819D01*
X124500000Y-47704819D02*
X124642857Y-47752438D01*
X124642857Y-47752438D02*
X124738095Y-47847676D01*
X124738095Y-47847676D02*
X124785714Y-47942914D01*
X124785714Y-47942914D02*
X124833333Y-48133390D01*
X124833333Y-48133390D02*
X124833333Y-48276247D01*
X124833333Y-48276247D02*
X124785714Y-48466723D01*
X124785714Y-48466723D02*
X124738095Y-48561961D01*
X124738095Y-48561961D02*
X124642857Y-48657200D01*
X124642857Y-48657200D02*
X124500000Y-48704819D01*
X124500000Y-48704819D02*
X124261905Y-48704819D01*
X125785714Y-48704819D02*
X125214286Y-48704819D01*
X125500000Y-48704819D02*
X125500000Y-47704819D01*
X125500000Y-47704819D02*
X125404762Y-47847676D01*
X125404762Y-47847676D02*
X125309524Y-47942914D01*
X125309524Y-47942914D02*
X125214286Y-47990533D01*
D11*
X124192857Y-50907409D02*
X123907143Y-50907409D01*
X124050000Y-50907409D02*
X124050000Y-50407409D01*
X124050000Y-50407409D02*
X124002381Y-50478838D01*
X124002381Y-50478838D02*
X123954762Y-50526457D01*
X123954762Y-50526457D02*
X123907143Y-50550266D01*
D10*
X87261905Y-48704819D02*
X87261905Y-47704819D01*
X87261905Y-47704819D02*
X87500000Y-47704819D01*
X87500000Y-47704819D02*
X87642857Y-47752438D01*
X87642857Y-47752438D02*
X87738095Y-47847676D01*
X87738095Y-47847676D02*
X87785714Y-47942914D01*
X87785714Y-47942914D02*
X87833333Y-48133390D01*
X87833333Y-48133390D02*
X87833333Y-48276247D01*
X87833333Y-48276247D02*
X87785714Y-48466723D01*
X87785714Y-48466723D02*
X87738095Y-48561961D01*
X87738095Y-48561961D02*
X87642857Y-48657200D01*
X87642857Y-48657200D02*
X87500000Y-48704819D01*
X87500000Y-48704819D02*
X87261905Y-48704819D01*
X88166667Y-47704819D02*
X88785714Y-47704819D01*
X88785714Y-47704819D02*
X88452381Y-48085771D01*
X88452381Y-48085771D02*
X88595238Y-48085771D01*
X88595238Y-48085771D02*
X88690476Y-48133390D01*
X88690476Y-48133390D02*
X88738095Y-48181009D01*
X88738095Y-48181009D02*
X88785714Y-48276247D01*
X88785714Y-48276247D02*
X88785714Y-48514342D01*
X88785714Y-48514342D02*
X88738095Y-48609580D01*
X88738095Y-48609580D02*
X88690476Y-48657200D01*
X88690476Y-48657200D02*
X88595238Y-48704819D01*
X88595238Y-48704819D02*
X88309524Y-48704819D01*
X88309524Y-48704819D02*
X88214286Y-48657200D01*
X88214286Y-48657200D02*
X88166667Y-48609580D01*
D11*
X87192857Y-50907409D02*
X86907143Y-50907409D01*
X87050000Y-50907409D02*
X87050000Y-50407409D01*
X87050000Y-50407409D02*
X87002381Y-50478838D01*
X87002381Y-50478838D02*
X86954762Y-50526457D01*
X86954762Y-50526457D02*
X86907143Y-50550266D01*
D10*
X80666667Y-50957200D02*
X80809524Y-51004819D01*
X80809524Y-51004819D02*
X81047619Y-51004819D01*
X81047619Y-51004819D02*
X81142857Y-50957200D01*
X81142857Y-50957200D02*
X81190476Y-50909580D01*
X81190476Y-50909580D02*
X81238095Y-50814342D01*
X81238095Y-50814342D02*
X81238095Y-50719104D01*
X81238095Y-50719104D02*
X81190476Y-50623866D01*
X81190476Y-50623866D02*
X81142857Y-50576247D01*
X81142857Y-50576247D02*
X81047619Y-50528628D01*
X81047619Y-50528628D02*
X80857143Y-50481009D01*
X80857143Y-50481009D02*
X80761905Y-50433390D01*
X80761905Y-50433390D02*
X80714286Y-50385771D01*
X80714286Y-50385771D02*
X80666667Y-50290533D01*
X80666667Y-50290533D02*
X80666667Y-50195295D01*
X80666667Y-50195295D02*
X80714286Y-50100057D01*
X80714286Y-50100057D02*
X80761905Y-50052438D01*
X80761905Y-50052438D02*
X80857143Y-50004819D01*
X80857143Y-50004819D02*
X81095238Y-50004819D01*
X81095238Y-50004819D02*
X81238095Y-50052438D01*
X81571429Y-50004819D02*
X81809524Y-51004819D01*
X81809524Y-51004819D02*
X82000000Y-50290533D01*
X82000000Y-50290533D02*
X82190476Y-51004819D01*
X82190476Y-51004819D02*
X82428572Y-50004819D01*
X82714286Y-50004819D02*
X83333333Y-50004819D01*
X83333333Y-50004819D02*
X83000000Y-50385771D01*
X83000000Y-50385771D02*
X83142857Y-50385771D01*
X83142857Y-50385771D02*
X83238095Y-50433390D01*
X83238095Y-50433390D02*
X83285714Y-50481009D01*
X83285714Y-50481009D02*
X83333333Y-50576247D01*
X83333333Y-50576247D02*
X83333333Y-50814342D01*
X83333333Y-50814342D02*
X83285714Y-50909580D01*
X83285714Y-50909580D02*
X83238095Y-50957200D01*
X83238095Y-50957200D02*
X83142857Y-51004819D01*
X83142857Y-51004819D02*
X82857143Y-51004819D01*
X82857143Y-51004819D02*
X82761905Y-50957200D01*
X82761905Y-50957200D02*
X82714286Y-50909580D01*
X128454819Y-50333333D02*
X129169104Y-50333333D01*
X129169104Y-50333333D02*
X129311961Y-50380952D01*
X129311961Y-50380952D02*
X129407200Y-50476190D01*
X129407200Y-50476190D02*
X129454819Y-50619047D01*
X129454819Y-50619047D02*
X129454819Y-50714285D01*
X128550057Y-49904761D02*
X128502438Y-49857142D01*
X128502438Y-49857142D02*
X128454819Y-49761904D01*
X128454819Y-49761904D02*
X128454819Y-49523809D01*
X128454819Y-49523809D02*
X128502438Y-49428571D01*
X128502438Y-49428571D02*
X128550057Y-49380952D01*
X128550057Y-49380952D02*
X128645295Y-49333333D01*
X128645295Y-49333333D02*
X128740533Y-49333333D01*
X128740533Y-49333333D02*
X128883390Y-49380952D01*
X128883390Y-49380952D02*
X129454819Y-49952380D01*
X129454819Y-49952380D02*
X129454819Y-49333333D01*
X135254819Y-57333333D02*
X135969104Y-57333333D01*
X135969104Y-57333333D02*
X136111961Y-57380952D01*
X136111961Y-57380952D02*
X136207200Y-57476190D01*
X136207200Y-57476190D02*
X136254819Y-57619047D01*
X136254819Y-57619047D02*
X136254819Y-57714285D01*
X135254819Y-56952380D02*
X135254819Y-56333333D01*
X135254819Y-56333333D02*
X135635771Y-56666666D01*
X135635771Y-56666666D02*
X135635771Y-56523809D01*
X135635771Y-56523809D02*
X135683390Y-56428571D01*
X135683390Y-56428571D02*
X135731009Y-56380952D01*
X135731009Y-56380952D02*
X135826247Y-56333333D01*
X135826247Y-56333333D02*
X136064342Y-56333333D01*
X136064342Y-56333333D02*
X136159580Y-56380952D01*
X136159580Y-56380952D02*
X136207200Y-56428571D01*
X136207200Y-56428571D02*
X136254819Y-56523809D01*
X136254819Y-56523809D02*
X136254819Y-56809523D01*
X136254819Y-56809523D02*
X136207200Y-56904761D01*
X136207200Y-56904761D02*
X136159580Y-56952380D01*
X78658333Y-56244819D02*
X78325000Y-55768628D01*
X78086905Y-56244819D02*
X78086905Y-55244819D01*
X78086905Y-55244819D02*
X78467857Y-55244819D01*
X78467857Y-55244819D02*
X78563095Y-55292438D01*
X78563095Y-55292438D02*
X78610714Y-55340057D01*
X78610714Y-55340057D02*
X78658333Y-55435295D01*
X78658333Y-55435295D02*
X78658333Y-55578152D01*
X78658333Y-55578152D02*
X78610714Y-55673390D01*
X78610714Y-55673390D02*
X78563095Y-55721009D01*
X78563095Y-55721009D02*
X78467857Y-55768628D01*
X78467857Y-55768628D02*
X78086905Y-55768628D01*
X79610714Y-56244819D02*
X79039286Y-56244819D01*
X79325000Y-56244819D02*
X79325000Y-55244819D01*
X79325000Y-55244819D02*
X79229762Y-55387676D01*
X79229762Y-55387676D02*
X79134524Y-55482914D01*
X79134524Y-55482914D02*
X79039286Y-55530533D01*
X98666667Y-65207200D02*
X98809524Y-65254819D01*
X98809524Y-65254819D02*
X99047619Y-65254819D01*
X99047619Y-65254819D02*
X99142857Y-65207200D01*
X99142857Y-65207200D02*
X99190476Y-65159580D01*
X99190476Y-65159580D02*
X99238095Y-65064342D01*
X99238095Y-65064342D02*
X99238095Y-64969104D01*
X99238095Y-64969104D02*
X99190476Y-64873866D01*
X99190476Y-64873866D02*
X99142857Y-64826247D01*
X99142857Y-64826247D02*
X99047619Y-64778628D01*
X99047619Y-64778628D02*
X98857143Y-64731009D01*
X98857143Y-64731009D02*
X98761905Y-64683390D01*
X98761905Y-64683390D02*
X98714286Y-64635771D01*
X98714286Y-64635771D02*
X98666667Y-64540533D01*
X98666667Y-64540533D02*
X98666667Y-64445295D01*
X98666667Y-64445295D02*
X98714286Y-64350057D01*
X98714286Y-64350057D02*
X98761905Y-64302438D01*
X98761905Y-64302438D02*
X98857143Y-64254819D01*
X98857143Y-64254819D02*
X99095238Y-64254819D01*
X99095238Y-64254819D02*
X99238095Y-64302438D01*
X99571429Y-64254819D02*
X99809524Y-65254819D01*
X99809524Y-65254819D02*
X100000000Y-64540533D01*
X100000000Y-64540533D02*
X100190476Y-65254819D01*
X100190476Y-65254819D02*
X100428572Y-64254819D01*
X101333333Y-65254819D02*
X100761905Y-65254819D01*
X101047619Y-65254819D02*
X101047619Y-64254819D01*
X101047619Y-64254819D02*
X100952381Y-64397676D01*
X100952381Y-64397676D02*
X100857143Y-64492914D01*
X100857143Y-64492914D02*
X100761905Y-64540533D01*
X70454819Y-50333333D02*
X71169104Y-50333333D01*
X71169104Y-50333333D02*
X71311961Y-50380952D01*
X71311961Y-50380952D02*
X71407200Y-50476190D01*
X71407200Y-50476190D02*
X71454819Y-50619047D01*
X71454819Y-50619047D02*
X71454819Y-50714285D01*
X71454819Y-49333333D02*
X71454819Y-49904761D01*
X71454819Y-49619047D02*
X70454819Y-49619047D01*
X70454819Y-49619047D02*
X70597676Y-49714285D01*
X70597676Y-49714285D02*
X70692914Y-49809523D01*
X70692914Y-49809523D02*
X70740533Y-49904761D01*
D13*
%TO.C,R2*%
X81737258Y-56977500D02*
X81262742Y-56977500D01*
X81737258Y-58022500D02*
X81262742Y-58022500D01*
%TO.C,R4*%
X117737258Y-59477500D02*
X117262742Y-59477500D01*
X117737258Y-60522500D02*
X117262742Y-60522500D01*
%TO.C,J5*%
X65490000Y-57940000D02*
X65490000Y-56060000D01*
X67460000Y-54890000D02*
X68610000Y-54890000D01*
X67460000Y-59110000D02*
X68610000Y-59110000D01*
X68610000Y-54890000D02*
X68610000Y-55940000D01*
X68610000Y-58060000D02*
X69600000Y-58060000D01*
X68610000Y-59110000D02*
X68610000Y-58060000D01*
%TO.C,D2*%
X111040000Y-49040000D02*
X111040000Y-49690000D01*
X111690000Y-49040000D02*
X111040000Y-49040000D01*
%TO.C,SW2*%
X79800000Y-47050000D02*
X79800000Y-46950000D01*
X79800000Y-48550000D02*
X84200000Y-48550000D01*
X84200000Y-45450000D02*
X79800000Y-45450000D01*
X84200000Y-47050000D02*
X84200000Y-46950000D01*
%TO.C,R5*%
X87962742Y-61477500D02*
X88437258Y-61477500D01*
X87962742Y-62522500D02*
X88437258Y-62522500D01*
%TO.C,R3*%
X117262742Y-57727500D02*
X117737258Y-57727500D01*
X117262742Y-58772500D02*
X117737258Y-58772500D01*
%TO.C,SW4*%
X115800000Y-47050000D02*
X115800000Y-46950000D01*
X115800000Y-48550000D02*
X120200000Y-48550000D01*
X120200000Y-45450000D02*
X115800000Y-45450000D01*
X120200000Y-47050000D02*
X120200000Y-46950000D01*
%TO.C,R6*%
X87937742Y-63277500D02*
X88412258Y-63277500D01*
X87937742Y-64322500D02*
X88412258Y-64322500D01*
%TO.C,D4*%
X74040000Y-49040000D02*
X74040000Y-49690000D01*
X74690000Y-49040000D02*
X74040000Y-49040000D01*
%TO.C,J4*%
X92345000Y-62145000D02*
X93675000Y-62145000D01*
X92345000Y-63475000D02*
X92345000Y-62145000D01*
X94945000Y-62145000D02*
X107705000Y-62145000D01*
X94945000Y-64805000D02*
X94945000Y-62145000D01*
X94945000Y-64805000D02*
X107705000Y-64805000D01*
X107705000Y-64805000D02*
X107705000Y-62145000D01*
%TO.C,SW5*%
X115750000Y-53050000D02*
X115750000Y-52950000D01*
X115750000Y-54550000D02*
X120150000Y-54550000D01*
X120150000Y-51450000D02*
X115750000Y-51450000D01*
X120150000Y-53050000D02*
X120150000Y-52950000D01*
D14*
%TO.C,U1*%
X91110000Y-59509000D02*
X91110000Y-42364000D01*
X93015000Y-61414000D02*
X106985000Y-61414000D01*
D15*
X95505000Y-40459000D02*
X95508728Y-39448728D01*
X96008728Y-38949000D02*
X104004000Y-38949000D01*
X104504000Y-39449000D02*
X104504000Y-40459000D01*
D14*
X106985000Y-40459000D02*
X93015000Y-40459000D01*
X108890000Y-59509000D02*
X108890000Y-42364000D01*
X91110000Y-42360000D02*
G75*
G02*
X93015000Y-40455000I1905000J0D01*
G01*
X93015000Y-61414000D02*
G75*
G02*
X91110000Y-59509000I1J1905001D01*
G01*
D15*
X95508728Y-39448728D02*
G75*
G02*
X96008728Y-38949028I499972J-272D01*
G01*
X104004000Y-38949000D02*
G75*
G02*
X104504000Y-39449000I-100J-500100D01*
G01*
D14*
X106985000Y-40459000D02*
G75*
G02*
X108890000Y-42364000I-50J-1905050D01*
G01*
X108890000Y-59509000D02*
G75*
G02*
X106985000Y-61414000I-1905001J1D01*
G01*
D16*
X91152000Y-40875000D02*
G75*
G02*
X90648000Y-40875000I-252000J0D01*
G01*
X90648000Y-40875000D02*
G75*
G02*
X91152000Y-40875000I252000J0D01*
G01*
X92426000Y-41592000D02*
G75*
G02*
X91922000Y-41592000I-252000J0D01*
G01*
X91922000Y-41592000D02*
G75*
G02*
X92426000Y-41592000I252000J0D01*
G01*
D13*
%TO.C,D1*%
X124040000Y-49040000D02*
X124040000Y-49690000D01*
X124690000Y-49040000D02*
X124040000Y-49040000D01*
%TO.C,D3*%
X87040000Y-49040000D02*
X87040000Y-49690000D01*
X87690000Y-49040000D02*
X87040000Y-49040000D01*
%TO.C,SW3*%
X79800000Y-53050000D02*
X79800000Y-52950000D01*
X79800000Y-54550000D02*
X84200000Y-54550000D01*
X84200000Y-51450000D02*
X79800000Y-51450000D01*
X84200000Y-53050000D02*
X84200000Y-52950000D01*
%TO.C,J2*%
X130410000Y-46590000D02*
X130410000Y-47640000D01*
X130410000Y-52360000D02*
X130200000Y-52360000D01*
X130410000Y-53410000D02*
X130410000Y-52360000D01*
X133740000Y-46590000D02*
X130410000Y-46590000D01*
X133740000Y-53410000D02*
X130410000Y-53410000D01*
X134630000Y-48460000D02*
X135130000Y-48160000D01*
X134630000Y-51540000D02*
X134630000Y-48460000D01*
X135130000Y-48160000D02*
X135130000Y-47660000D01*
X135130000Y-51840000D02*
X134630000Y-51540000D01*
X135130000Y-52340000D02*
X135130000Y-51840000D01*
%TO.C,J3*%
X131390000Y-54890000D02*
X131390000Y-55940000D01*
X131390000Y-55940000D02*
X130400000Y-55940000D01*
X131390000Y-59110000D02*
X131390000Y-58060000D01*
X132540000Y-54890000D02*
X131390000Y-54890000D01*
X132540000Y-59110000D02*
X131390000Y-59110000D01*
X134510000Y-56060000D02*
X134510000Y-57940000D01*
%TO.C,R1*%
X81262742Y-55227500D02*
X81737258Y-55227500D01*
X81262742Y-56272500D02*
X81737258Y-56272500D01*
%TO.C,SW1*%
X96550000Y-67930000D02*
X96550000Y-68720000D01*
X97150000Y-69730000D02*
X102850000Y-69730000D01*
X98400000Y-66880000D02*
X100100000Y-66880000D01*
X98600000Y-69730000D02*
X98600000Y-71020000D01*
X98600000Y-71020000D02*
X98800000Y-71230000D01*
X98800000Y-71230000D02*
X99700000Y-71230000D01*
X99900000Y-71020000D02*
X99700000Y-71230000D01*
X99900000Y-71020000D02*
X99900000Y-69730000D01*
X101400000Y-66880000D02*
X101600000Y-66880000D01*
X103450000Y-68720000D02*
X103450000Y-67930000D01*
%TO.C,J1*%
X64870000Y-47660000D02*
X64870000Y-48160000D01*
X64870000Y-48160000D02*
X65370000Y-48460000D01*
X64870000Y-51840000D02*
X64870000Y-52340000D01*
X65370000Y-48460000D02*
X65370000Y-51540000D01*
X65370000Y-51540000D02*
X64870000Y-51840000D01*
X66260000Y-46590000D02*
X69590000Y-46590000D01*
X66260000Y-53410000D02*
X69590000Y-53410000D01*
X69590000Y-46590000D02*
X69590000Y-47640000D01*
X69590000Y-47640000D02*
X69800000Y-47640000D01*
X69590000Y-53410000D02*
X69590000Y-52360000D01*
%TD*%
M02*
