%TF.GenerationSoftware,KiCad,Pcbnew,9.0.6*%
%TF.CreationDate,2025-12-30T17:46:58+00:00*%
%TF.ProjectId,cat-ears-controller,6361742d-6561-4727-932d-636f6e74726f,rev?*%
%TF.SameCoordinates,Original*%
%TF.FileFunction,Copper,L1,Top*%
%TF.FilePolarity,Positive*%
%FSLAX46Y46*%
G04 Gerber Fmt 4.6, Leading zero omitted, Abs format (unit mm)*
G04 Created by KiCad (PCBNEW 9.0.6) date 2025-12-30 17:46:58*
%MOMM*%
%LPD*%
G01*
G04 APERTURE LIST*
G04 Aperture macros list*
%AMRoundRect*
0 Rectangle with rounded corners*
0 $1 Rounding radius*
0 $2 $3 $4 $5 $6 $7 $8 $9 X,Y pos of 4 corners*
0 Add a 4 corners polygon primitive as box body*
4,1,4,$2,$3,$4,$5,$6,$7,$8,$9,$2,$3,0*
0 Add four circle primitives for the rounded corners*
1,1,$1+$1,$2,$3*
1,1,$1+$1,$4,$5*
1,1,$1+$1,$6,$7*
1,1,$1+$1,$8,$9*
0 Add four rect primitives between the rounded corners*
20,1,$1+$1,$2,$3,$4,$5,0*
20,1,$1+$1,$4,$5,$6,$7,0*
20,1,$1+$1,$6,$7,$8,$9,0*
20,1,$1+$1,$8,$9,$2,$3,0*%
%AMFreePoly0*
4,1,15,-0.616000,0.142500,-0.283500,0.475000,0.521000,0.475000,0.557355,0.467769,0.588175,0.447175,0.608769,0.416355,0.616000,0.380000,0.616000,-0.380000,0.608769,-0.416355,0.588175,-0.447175,0.557355,-0.467769,0.521000,-0.475000,-0.283500,-0.475000,-0.616000,-0.142500,-0.616000,0.142500,-0.616000,0.142500,$1*%
G04 Aperture macros list end*
%TA.AperFunction,SMDPad,CuDef*%
%ADD10RoundRect,0.200000X0.200000X0.275000X-0.200000X0.275000X-0.200000X-0.275000X0.200000X-0.275000X0*%
%TD*%
%TA.AperFunction,SMDPad,CuDef*%
%ADD11RoundRect,0.150000X0.625000X-0.150000X0.625000X0.150000X-0.625000X0.150000X-0.625000X-0.150000X0*%
%TD*%
%TA.AperFunction,SMDPad,CuDef*%
%ADD12RoundRect,0.250000X0.650000X-0.350000X0.650000X0.350000X-0.650000X0.350000X-0.650000X-0.350000X0*%
%TD*%
%TA.AperFunction,SMDPad,CuDef*%
%ADD13RoundRect,0.125000X0.125000X-0.125000X0.125000X0.125000X-0.125000X0.125000X-0.125000X-0.125000X0*%
%TD*%
%TA.AperFunction,SMDPad,CuDef*%
%ADD14R,0.900000X1.000000*%
%TD*%
%TA.AperFunction,SMDPad,CuDef*%
%ADD15RoundRect,0.200000X-0.200000X-0.275000X0.200000X-0.275000X0.200000X0.275000X-0.200000X0.275000X0*%
%TD*%
%TA.AperFunction,ComponentPad*%
%ADD16R,1.700000X1.700000*%
%TD*%
%TA.AperFunction,ComponentPad*%
%ADD17C,1.700000*%
%TD*%
%TA.AperFunction,SMDPad,CuDef*%
%ADD18RoundRect,0.095000X0.921000X0.380000X-0.921000X0.380000X-0.921000X-0.380000X0.921000X-0.380000X0*%
%TD*%
%TA.AperFunction,SMDPad,CuDef*%
%ADD19RoundRect,0.095000X-0.921000X-0.380000X0.921000X-0.380000X0.921000X0.380000X-0.921000X0.380000X0*%
%TD*%
%TA.AperFunction,SMDPad,CuDef*%
%ADD20FreePoly0,180.000000*%
%TD*%
%TA.AperFunction,SMDPad,CuDef*%
%ADD21FreePoly0,0.000000*%
%TD*%
%TA.AperFunction,SMDPad,CuDef*%
%ADD22C,1.700000*%
%TD*%
%TA.AperFunction,ComponentPad*%
%ADD23RoundRect,0.110000X-0.440000X1.140000X-0.440000X-1.140000X0.440000X-1.140000X0.440000X1.140000X0*%
%TD*%
%TA.AperFunction,SMDPad,CuDef*%
%ADD24RoundRect,0.150000X0.275000X-0.150000X0.275000X0.150000X-0.275000X0.150000X-0.275000X-0.150000X0*%
%TD*%
%TA.AperFunction,SMDPad,CuDef*%
%ADD25RoundRect,0.175000X0.225000X-0.175000X0.225000X0.175000X-0.225000X0.175000X-0.225000X-0.175000X0*%
%TD*%
%TA.AperFunction,SMDPad,CuDef*%
%ADD26RoundRect,0.150000X-0.625000X0.150000X-0.625000X-0.150000X0.625000X-0.150000X0.625000X0.150000X0*%
%TD*%
%TA.AperFunction,SMDPad,CuDef*%
%ADD27RoundRect,0.250000X-0.650000X0.350000X-0.650000X-0.350000X0.650000X-0.350000X0.650000X0.350000X0*%
%TD*%
%TA.AperFunction,SMDPad,CuDef*%
%ADD28R,1.000000X0.800000*%
%TD*%
%TA.AperFunction,SMDPad,CuDef*%
%ADD29R,0.700000X1.500000*%
%TD*%
%TA.AperFunction,SMDPad,CuDef*%
%ADD30RoundRect,0.150000X-0.275000X0.150000X-0.275000X-0.150000X0.275000X-0.150000X0.275000X0.150000X0*%
%TD*%
%TA.AperFunction,SMDPad,CuDef*%
%ADD31RoundRect,0.175000X-0.225000X0.175000X-0.225000X-0.175000X0.225000X-0.175000X0.225000X0.175000X0*%
%TD*%
%TA.AperFunction,ViaPad*%
%ADD32C,0.600000*%
%TD*%
%TA.AperFunction,Conductor*%
%ADD33C,0.200000*%
%TD*%
%TA.AperFunction,Conductor*%
%ADD34C,0.500000*%
%TD*%
%TA.AperFunction,Conductor*%
%ADD35C,0.250000*%
%TD*%
%TA.AperFunction,Conductor*%
%ADD36C,0.400000*%
%TD*%
G04 APERTURE END LIST*
D10*
%TO.P,R2,1*%
%TO.N,/RXTX2*%
X82325000Y-57500000D03*
%TO.P,R2,2*%
%TO.N,Net-(J1-Pin_3)*%
X80675000Y-57500000D03*
%TD*%
%TO.P,R4,1*%
%TO.N,/RXTX1*%
X118325000Y-60000000D03*
%TO.P,R4,2*%
%TO.N,Net-(J2-Pin_3)*%
X116675000Y-60000000D03*
%TD*%
D11*
%TO.P,J5,1,Pin_1*%
%TO.N,Net-(J3-Pin_1)*%
X68825000Y-57500000D03*
%TO.P,J5,2,Pin_2*%
%TO.N,GND*%
X68825000Y-56500000D03*
D12*
%TO.P,J5,MP,MountPin*%
X66300000Y-58800000D03*
X66300000Y-55200000D03*
%TD*%
D13*
%TO.P,D2,1,DOUT*%
%TO.N,Net-(D2-DOUT)*%
X111550000Y-50450000D03*
%TO.P,D2,2,VSS*%
%TO.N,GND*%
X112450000Y-50450000D03*
%TO.P,D2,3,DIN*%
%TO.N,Net-(D1-DOUT)*%
X112450000Y-49550000D03*
%TO.P,D2,4,VDD*%
%TO.N,/VBAT*%
X111550000Y-49550000D03*
%TD*%
D14*
%TO.P,SW2,1,1*%
%TO.N,/BUTTON_1*%
X79950000Y-46200000D03*
X84050000Y-46200000D03*
%TO.P,SW2,2,2*%
%TO.N,GND*%
X79950000Y-47800000D03*
X84050000Y-47800000D03*
%TD*%
D15*
%TO.P,R5,1*%
%TO.N,/SDA*%
X87375000Y-62000000D03*
%TO.P,R5,2*%
%TO.N,+3V3*%
X89025000Y-62000000D03*
%TD*%
%TO.P,R3,1*%
%TO.N,/TXRX1*%
X116675000Y-58250000D03*
%TO.P,R3,2*%
%TO.N,Net-(J2-Pin_4)*%
X118325000Y-58250000D03*
%TD*%
D14*
%TO.P,SW4,1,1*%
%TO.N,/BUTTON_3*%
X115950000Y-46200000D03*
X120050000Y-46200000D03*
%TO.P,SW4,2,2*%
%TO.N,GND*%
X115950000Y-47800000D03*
X120050000Y-47800000D03*
%TD*%
D15*
%TO.P,R6,1*%
%TO.N,/SCL*%
X87350000Y-63800000D03*
%TO.P,R6,2*%
%TO.N,+3V3*%
X89000000Y-63800000D03*
%TD*%
D13*
%TO.P,D4,1,DOUT*%
%TO.N,unconnected-(D4-DOUT-Pad1)*%
X74550000Y-50450000D03*
%TO.P,D4,2,VSS*%
%TO.N,GND*%
X75450000Y-50450000D03*
%TO.P,D4,3,DIN*%
%TO.N,Net-(D3-DOUT)*%
X75450000Y-49550000D03*
%TO.P,D4,4,VDD*%
%TO.N,/VBAT*%
X74550000Y-49550000D03*
%TD*%
D16*
%TO.P,J4,1,Pin_1*%
%TO.N,+3V3*%
X93675000Y-63475000D03*
D17*
%TO.P,J4,2,Pin_2*%
%TO.N,GND*%
X96215000Y-63475000D03*
%TO.P,J4,3,Pin_3*%
%TO.N,/SDA*%
X98755000Y-63475000D03*
%TO.P,J4,4,Pin_4*%
%TO.N,/SCL*%
X101295000Y-63475000D03*
%TO.P,J4,5,Pin_5*%
%TO.N,/INT*%
X103835000Y-63475000D03*
%TO.P,J4,6,Pin_6*%
%TO.N,/SHUT*%
X106375000Y-63475000D03*
%TD*%
D14*
%TO.P,SW5,1,1*%
%TO.N,/BUTTON_4*%
X115900000Y-52200000D03*
X120000000Y-52200000D03*
%TO.P,SW5,2,2*%
%TO.N,GND*%
X115900000Y-53800000D03*
X120000000Y-53800000D03*
%TD*%
D18*
%TO.P,U1,1,P0.02_AIN0_LOW_A0_D0*%
%TO.N,/BUTTON_1*%
X91745000Y-43380000D03*
%TO.P,U1,2,P0.03_AIN1_LOW_A1_D1*%
%TO.N,/BUTTON_2*%
X91745000Y-45920000D03*
%TO.P,U1,3,P0.28_AIN4_LOW_A2_D2*%
%TO.N,/BUTTON_3*%
X91745000Y-48460000D03*
%TO.P,U1,4,P0.29_AIN5_LOW_A3_D3*%
%TO.N,/BUTTON_4*%
X91745000Y-51000000D03*
%TO.P,U1,5,P0.04_AIN2_A4_D4*%
%TO.N,/SHUT*%
X91745000Y-53540000D03*
%TO.P,U1,6,P0.05_AIN3_A5_D5*%
%TO.N,/INT*%
X91745000Y-56080000D03*
%TO.P,U1,7,P1.11_TX_D6*%
%TO.N,/RXTX1*%
X91745000Y-58620000D03*
D19*
%TO.P,U1,8,P1.12_RX_D7*%
%TO.N,/TXRX1*%
X108255000Y-58620000D03*
%TO.P,U1,9,P1.13_SCK_D8*%
%TO.N,unconnected-(U1-P1.13_SCK_D8-Pad9)*%
X108255000Y-56080000D03*
%TO.P,U1,10,P1.14_MISO_D9*%
%TO.N,unconnected-(U1-P1.14_MISO_D9-Pad10)*%
X108255000Y-53540000D03*
%TO.P,U1,11,P1.15_MOSI_D10*%
%TO.N,/WS2812*%
X108255000Y-51000000D03*
%TO.P,U1,12,3V3*%
%TO.N,+3V3*%
X108255000Y-48460000D03*
%TO.P,U1,13,GND*%
%TO.N,GND*%
X108255000Y-45920000D03*
%TO.P,U1,14,5V*%
%TO.N,unconnected-(U1-5V-Pad14)*%
X108255000Y-43380000D03*
D20*
%TO.P,U1,15,P0.15_I2S_SD_D11*%
%TO.N,/SDA*%
X91345000Y-44650000D03*
%TO.P,U1,16,P0.19_I2S_SCK_D12*%
%TO.N,/SCL*%
X91345000Y-47190000D03*
%TO.P,U1,17,P1.01_I2S_WS_D13*%
%TO.N,unconnected-(U1-P1.01_I2S_WS_D13-Pad17)*%
X91345000Y-49730000D03*
%TO.P,U1,18,P0.09/NFC1/RX1_D14*%
%TO.N,/TXRX2*%
X91345000Y-52270000D03*
%TO.P,U1,19,P0.10/NFC2/TX1_D15*%
%TO.N,/RXTX2*%
X91345000Y-54810000D03*
%TO.P,U1,20,P0.31_AIN7_BAT_D16*%
%TO.N,unconnected-(U1-P0.31_AIN7_BAT_D16-Pad20)*%
X91345000Y-57350000D03*
D21*
%TO.P,U1,21,P1.03_SCK1_D17*%
%TO.N,unconnected-(U1-P1.03_SCK1_D17-Pad21)*%
X108655000Y-57350000D03*
%TO.P,U1,22,P1.05_MISO1_D18*%
%TO.N,unconnected-(U1-P1.05_MISO1_D18-Pad22)*%
X108655000Y-54810000D03*
%TO.P,U1,23,P1.07_MOSI1_D19*%
%TO.N,unconnected-(U1-P1.07_MOSI1_D19-Pad23)*%
X108655000Y-52270000D03*
D22*
%TO.P,U1,24,SWDIO*%
%TO.N,unconnected-(U1-SWDIO-Pad24)*%
X98730000Y-42427500D03*
%TO.P,U1,25,SWDCLK*%
%TO.N,unconnected-(U1-SWDCLK-Pad25)*%
X101270000Y-42427500D03*
%TO.P,U1,26,REST*%
%TO.N,unconnected-(U1-REST-Pad26)*%
X98730000Y-44967500D03*
%TO.P,U1,27,GND*%
%TO.N,unconnected-(U1-GND-Pad27)*%
X101270000Y-44967500D03*
D23*
%TO.P,U1,32,VBAT*%
%TO.N,/VBAT*%
X99006012Y-56517823D03*
%TO.P,U1,33,GND*%
%TO.N,GND*%
X101006012Y-56517823D03*
%TD*%
D13*
%TO.P,D1,1,DOUT*%
%TO.N,Net-(D1-DOUT)*%
X124550000Y-50450000D03*
%TO.P,D1,2,VSS*%
%TO.N,GND*%
X125450000Y-50450000D03*
%TO.P,D1,3,DIN*%
%TO.N,/WS2812*%
X125450000Y-49550000D03*
%TO.P,D1,4,VDD*%
%TO.N,/VBAT*%
X124550000Y-49550000D03*
%TD*%
%TO.P,D3,1,DOUT*%
%TO.N,Net-(D3-DOUT)*%
X87550000Y-50450000D03*
%TO.P,D3,2,VSS*%
%TO.N,GND*%
X88450000Y-50450000D03*
%TO.P,D3,3,DIN*%
%TO.N,Net-(D2-DOUT)*%
X88450000Y-49550000D03*
%TO.P,D3,4,VDD*%
%TO.N,/VBAT*%
X87550000Y-49550000D03*
%TD*%
D14*
%TO.P,SW3,1,1*%
%TO.N,/BUTTON_2*%
X79950000Y-52200000D03*
X84050000Y-52200000D03*
%TO.P,SW3,2,2*%
%TO.N,GND*%
X79950000Y-53800000D03*
X84050000Y-53800000D03*
%TD*%
D24*
%TO.P,J2,1,Pin_1*%
%TO.N,/VBAT*%
X130625000Y-51800000D03*
%TO.P,J2,2,Pin_2*%
%TO.N,GND*%
X130625000Y-50600000D03*
%TO.P,J2,3,Pin_3*%
%TO.N,Net-(J2-Pin_3)*%
X130625000Y-49400000D03*
%TO.P,J2,4,Pin_4*%
%TO.N,Net-(J2-Pin_4)*%
X130625000Y-48200000D03*
D25*
%TO.P,J2,MP,MountPin*%
%TO.N,GND*%
X134400000Y-52950000D03*
X134400000Y-47050000D03*
%TD*%
D26*
%TO.P,J3,1,Pin_1*%
%TO.N,Net-(J3-Pin_1)*%
X131175000Y-56500000D03*
%TO.P,J3,2,Pin_2*%
%TO.N,GND*%
X131175000Y-57500000D03*
D27*
%TO.P,J3,MP,MountPin*%
X133700000Y-55200000D03*
X133700000Y-58800000D03*
%TD*%
D15*
%TO.P,R1,1*%
%TO.N,/TXRX2*%
X80675000Y-55750000D03*
%TO.P,R1,2*%
%TO.N,Net-(J1-Pin_4)*%
X82325000Y-55750000D03*
%TD*%
D28*
%TO.P,SW1,*%
%TO.N,*%
X96350000Y-67220000D03*
X96350000Y-69430000D03*
X103650000Y-67220000D03*
X103650000Y-69430000D03*
D29*
%TO.P,SW1,1,A*%
%TO.N,/VBAT*%
X97750000Y-66570000D03*
%TO.P,SW1,2,B*%
%TO.N,Net-(J3-Pin_1)*%
X100750000Y-66570000D03*
%TO.P,SW1,3,C*%
%TO.N,unconnected-(SW1-C-Pad3)*%
X102250000Y-66570000D03*
%TD*%
D30*
%TO.P,J1,1,Pin_1*%
%TO.N,/VBAT*%
X69375000Y-48200000D03*
%TO.P,J1,2,Pin_2*%
%TO.N,GND*%
X69375000Y-49400000D03*
%TO.P,J1,3,Pin_3*%
%TO.N,Net-(J1-Pin_3)*%
X69375000Y-50600000D03*
%TO.P,J1,4,Pin_4*%
%TO.N,Net-(J1-Pin_4)*%
X69375000Y-51800000D03*
D31*
%TO.P,J1,MP,MountPin*%
%TO.N,GND*%
X65600000Y-47050000D03*
X65600000Y-52950000D03*
%TD*%
D32*
%TO.N,GND*%
X75400000Y-59200000D03*
X77000000Y-45000000D03*
X78400000Y-60200000D03*
X113000000Y-57000000D03*
X127000000Y-45000000D03*
X73000000Y-45000000D03*
X75000000Y-45000000D03*
X73500000Y-53500000D03*
X115000000Y-55000000D03*
X72500000Y-52500000D03*
X128500000Y-58000000D03*
X114000000Y-56000000D03*
X78500000Y-52500000D03*
X129000000Y-57500000D03*
X77000000Y-47000000D03*
X126500000Y-59000000D03*
X78400000Y-58200000D03*
X114200000Y-50200000D03*
X74400000Y-60200000D03*
X128000000Y-46000000D03*
X78500000Y-54500000D03*
X76400000Y-58200000D03*
X115000000Y-50200000D03*
X126051472Y-50400000D03*
X76500000Y-52500000D03*
X123000000Y-47000000D03*
X77500000Y-53500000D03*
X74400000Y-58200000D03*
X127000000Y-58500000D03*
X128000000Y-57500000D03*
X76500000Y-54500000D03*
X74500000Y-52500000D03*
X113400000Y-50200000D03*
X115800000Y-50200000D03*
X73500000Y-51500000D03*
X125000000Y-45000000D03*
X76400000Y-60200000D03*
X115000000Y-57000000D03*
X124000000Y-46000000D03*
X126000000Y-46000000D03*
X73000000Y-47000000D03*
X74500000Y-54500000D03*
X123000000Y-45000000D03*
X73400000Y-59200000D03*
X72000000Y-46000000D03*
X74000000Y-46000000D03*
X128000000Y-58500000D03*
X76000000Y-46000000D03*
X113000000Y-55000000D03*
X129500000Y-58000000D03*
X125000000Y-47000000D03*
X75000000Y-47000000D03*
X75500000Y-53500000D03*
X77400000Y-59200000D03*
X127000000Y-47000000D03*
X127500000Y-58000000D03*
X130000000Y-57500000D03*
%TO.N,/VBAT*%
X93400000Y-57400000D03*
X93000000Y-67500000D03*
X87000000Y-48500000D03*
%TO.N,Net-(D2-DOUT)*%
X106000000Y-50300000D03*
X88500000Y-48500000D03*
%TO.N,+3V3*%
X94200000Y-52200000D03*
%TO.N,/INT*%
X96180000Y-56080000D03*
%TO.N,/SDA*%
X95000000Y-48600000D03*
%TO.N,/SCL*%
X95600000Y-49200000D03*
%TO.N,/SHUT*%
X96100000Y-54000000D03*
%TO.N,/BUTTON_4*%
X110300000Y-51850000D03*
X93500000Y-51000000D03*
%TD*%
D33*
%TO.N,Net-(D1-DOUT)*%
X124550000Y-50450000D02*
X118450000Y-50450000D01*
X118450000Y-50450000D02*
X117550000Y-49550000D01*
X117550000Y-49550000D02*
X112450000Y-49550000D01*
%TO.N,/WS2812*%
X126000000Y-49500000D02*
X125500000Y-49500000D01*
X126652472Y-50151057D02*
X126300415Y-49799000D01*
X126299000Y-49799000D02*
X126000000Y-49500000D01*
X125500000Y-49500000D02*
X125450000Y-49550000D01*
X126652472Y-50648943D02*
X126652472Y-50151057D01*
X126300415Y-49799000D02*
X126299000Y-49799000D01*
X126300415Y-51001000D02*
X126652472Y-50648943D01*
X108255000Y-51000000D02*
X125144082Y-51000000D01*
X125145082Y-51001000D02*
X126300415Y-51001000D01*
X125144082Y-51000000D02*
X125145082Y-51001000D01*
D34*
%TO.N,GND*%
X113400000Y-50200000D02*
X115800000Y-50200000D01*
X126001472Y-50450000D02*
X126051472Y-50400000D01*
X88699999Y-50450000D02*
X89500000Y-49649999D01*
X88450000Y-50450000D02*
X88699999Y-50450000D01*
X89500000Y-49649999D02*
X89500000Y-49000000D01*
X88450000Y-50450000D02*
X88450000Y-50699999D01*
X113150000Y-50450000D02*
X113400000Y-50200000D01*
X87831999Y-51318000D02*
X87000000Y-51318000D01*
X133700000Y-58800000D02*
X133700000Y-55200000D01*
X112450000Y-50450000D02*
X113150000Y-50450000D01*
X125450000Y-50450000D02*
X126001472Y-50450000D01*
X88450000Y-50699999D02*
X87831999Y-51318000D01*
%TO.N,/VBAT*%
X93000000Y-66000000D02*
X93000000Y-67500000D01*
X114163017Y-65336983D02*
X106632023Y-68500000D01*
X128722148Y-59222148D02*
X114163017Y-65336983D01*
X68391276Y-59891276D02*
X85844775Y-66000000D01*
X132500000Y-58000000D02*
X131500000Y-59000000D01*
X106632023Y-68500000D02*
X102674917Y-68500000D01*
X130625000Y-51800000D02*
X130625000Y-54320900D01*
X97500000Y-57500000D02*
X98023835Y-57500000D01*
X67946900Y-49203100D02*
X67946900Y-55749000D01*
X124400000Y-49400000D02*
X124550000Y-49550000D01*
X98023835Y-57500000D02*
X99006012Y-56517823D01*
X67651000Y-59151000D02*
X68391276Y-59891276D01*
X67946900Y-55749000D02*
X67599000Y-56096900D01*
X97500000Y-57500000D02*
X105450000Y-49550000D01*
X132500000Y-56195900D02*
X132500000Y-58000000D01*
X102674917Y-68500000D02*
X101893917Y-69281000D01*
X93000000Y-66000000D02*
X97180000Y-66000000D01*
X120400000Y-49400000D02*
X124400000Y-49400000D01*
X98395083Y-66570000D02*
X97750000Y-66570000D01*
X67599000Y-58100708D02*
X67651000Y-58152708D01*
X128944296Y-59000000D02*
X128722148Y-59222148D01*
X87000000Y-49000000D02*
X87550000Y-49550000D01*
X105450000Y-49550000D02*
X111550000Y-49550000D01*
X93400000Y-57400000D02*
X93500000Y-57500000D01*
X112001001Y-48849000D02*
X119849000Y-48849000D01*
X93500000Y-57500000D02*
X97500000Y-57500000D01*
X114163017Y-65336983D02*
X114086786Y-65369000D01*
X101106083Y-69281000D02*
X98395083Y-66570000D01*
X73200000Y-48200000D02*
X74550000Y-49550000D01*
X68950000Y-48200000D02*
X67946900Y-49203100D01*
X85844775Y-66000000D02*
X93000000Y-66000000D01*
X101893917Y-69281000D02*
X101106083Y-69281000D01*
X69375000Y-48200000D02*
X68950000Y-48200000D01*
X97180000Y-66000000D02*
X97750000Y-66570000D01*
X111550000Y-49550000D02*
X111550000Y-49300001D01*
X130625000Y-54320900D02*
X132500000Y-56195900D01*
X69375000Y-48200000D02*
X73200000Y-48200000D01*
X111550000Y-49300001D02*
X112001001Y-48849000D01*
X67651000Y-58152708D02*
X67651000Y-59151000D01*
X119849000Y-48849000D02*
X120400000Y-49400000D01*
X67599000Y-56096900D02*
X67599000Y-58100708D01*
X87000000Y-48500000D02*
X87000000Y-49000000D01*
X131500000Y-59000000D02*
X128944296Y-59000000D01*
D33*
%TO.N,Net-(D2-DOUT)*%
X106076000Y-50224000D02*
X111324000Y-50224000D01*
X88500000Y-49500000D02*
X88450000Y-49550000D01*
X106000000Y-50300000D02*
X106076000Y-50224000D01*
X111324000Y-50224000D02*
X111550000Y-50450000D01*
X88500000Y-48500000D02*
X88500000Y-49500000D01*
%TO.N,Net-(D3-DOUT)*%
X87550000Y-50450000D02*
X87100000Y-50000000D01*
X87100000Y-50000000D02*
X79000000Y-50000000D01*
X79000000Y-50000000D02*
X78550000Y-49550000D01*
X78550000Y-49550000D02*
X75450000Y-49550000D01*
%TO.N,/RXTX2*%
X85000000Y-57500000D02*
X82325000Y-57500000D01*
X87690000Y-54810000D02*
X85000000Y-57500000D01*
X91345000Y-54810000D02*
X87690000Y-54810000D01*
D35*
%TO.N,/TXRX2*%
X88460414Y-52270000D02*
X88435413Y-52295000D01*
X88435413Y-52295000D02*
X87955000Y-52295000D01*
X85301000Y-54949000D02*
X81476000Y-54949000D01*
X87955000Y-52295000D02*
X85301000Y-54949000D01*
X91345000Y-52270000D02*
X88460414Y-52270000D01*
X81476000Y-54949000D02*
X80675000Y-55750000D01*
D33*
%TO.N,/TXRX1*%
X116305000Y-58620000D02*
X116675000Y-58250000D01*
X108255000Y-58620000D02*
X116305000Y-58620000D01*
%TO.N,/RXTX1*%
X117549000Y-59224000D02*
X115372000Y-59224000D01*
X115200000Y-59396000D02*
X92521000Y-59396000D01*
X118325000Y-60000000D02*
X117549000Y-59224000D01*
X92521000Y-59396000D02*
X91745000Y-58620000D01*
X115372000Y-59224000D02*
X115200000Y-59396000D01*
D34*
%TO.N,Net-(J3-Pin_1)*%
X68825000Y-57500000D02*
X69106277Y-57500000D01*
X100750000Y-66068000D02*
X100750000Y-66570000D01*
X69106277Y-57500000D02*
X72027553Y-60421276D01*
X101600000Y-65000000D02*
X100800000Y-65800000D01*
X85963907Y-65299000D02*
X98299000Y-65299000D01*
X100800000Y-65800000D02*
X100800000Y-66018000D01*
X127718496Y-56500000D02*
X123609248Y-60609248D01*
X72027553Y-60421276D02*
X85963907Y-65299000D01*
X99570000Y-66570000D02*
X100750000Y-66570000D01*
X113155077Y-65000000D02*
X101600000Y-65000000D01*
X98299000Y-65299000D02*
X99570000Y-66570000D01*
X123609248Y-60609248D02*
X113155077Y-65000000D01*
X100800000Y-66018000D02*
X100750000Y-66068000D01*
X131175000Y-56500000D02*
X127718496Y-56500000D01*
D36*
%TO.N,+3V3*%
X105619346Y-48460000D02*
X108255000Y-48460000D01*
X89325000Y-63475000D02*
X89000000Y-63800000D01*
X101879346Y-52200000D02*
X105619346Y-48460000D01*
D34*
X89025000Y-63175000D02*
X89325000Y-63475000D01*
D36*
X93675000Y-63475000D02*
X89325000Y-63475000D01*
D34*
X89025000Y-62000000D02*
X89025000Y-63175000D01*
D36*
X94200000Y-52200000D02*
X101879346Y-52200000D01*
D33*
%TO.N,/INT*%
X96180000Y-56080000D02*
X91745000Y-56080000D01*
%TO.N,/SDA*%
X95000000Y-48600000D02*
X95000000Y-46500000D01*
D35*
X96479000Y-61199000D02*
X98755000Y-63475000D01*
X87375000Y-62000000D02*
X88176000Y-61199000D01*
D33*
X95000000Y-46500000D02*
X93150000Y-44650000D01*
D35*
X88176000Y-61199000D02*
X96479000Y-61199000D01*
D33*
X93150000Y-44650000D02*
X91345000Y-44650000D01*
D35*
%TO.N,/SCL*%
X87350000Y-63800000D02*
X86649000Y-63099000D01*
D33*
X92390000Y-47190000D02*
X91345000Y-47190000D01*
X95600000Y-49200000D02*
X94400000Y-49200000D01*
X94400000Y-49200000D02*
X92390000Y-47190000D01*
D35*
X86649000Y-63099000D02*
X86649000Y-61501582D01*
X87402582Y-60748000D02*
X98568000Y-60748000D01*
X86649000Y-61501582D02*
X87402582Y-60748000D01*
X98568000Y-60748000D02*
X101295000Y-63475000D01*
D33*
%TO.N,/SHUT*%
X95500000Y-54000000D02*
X95040000Y-53540000D01*
X95040000Y-53540000D02*
X91745000Y-53540000D01*
X96100000Y-54000000D02*
X95500000Y-54000000D01*
%TO.N,/BUTTON_1*%
X85800000Y-46200000D02*
X88620000Y-43380000D01*
X79950000Y-46200000D02*
X85800000Y-46200000D01*
X88620000Y-43380000D02*
X91745000Y-43380000D01*
%TO.N,/BUTTON_2*%
X90729000Y-45920000D02*
X91745000Y-45920000D01*
X88258959Y-51869000D02*
X90428000Y-49699959D01*
X90428000Y-49699959D02*
X90428000Y-46221000D01*
X79950000Y-52200000D02*
X84050000Y-52200000D01*
X90428000Y-46221000D02*
X90729000Y-45920000D01*
X84381000Y-51869000D02*
X88258959Y-51869000D01*
X84050000Y-52200000D02*
X84381000Y-51869000D01*
%TO.N,/BUTTON_3*%
X115950000Y-46200000D02*
X120050000Y-46200000D01*
X93085000Y-49800000D02*
X100200000Y-49800000D01*
X102800000Y-47200000D02*
X114950000Y-47200000D01*
X114950000Y-47200000D02*
X115950000Y-46200000D01*
X100200000Y-49800000D02*
X102800000Y-47200000D01*
X91745000Y-48460000D02*
X93085000Y-49800000D01*
%TO.N,/BUTTON_4*%
X110800000Y-52200000D02*
X115900000Y-52200000D01*
X110300000Y-51850000D02*
X110350000Y-51800000D01*
X115900000Y-52200000D02*
X120000000Y-52200000D01*
X110400000Y-51800000D02*
X110800000Y-52200000D01*
X91745000Y-51000000D02*
X93500000Y-51000000D01*
X110350000Y-51800000D02*
X110400000Y-51800000D01*
D35*
%TO.N,Net-(J1-Pin_3)*%
X68624000Y-51351000D02*
X68624000Y-52151322D01*
X68624000Y-52151322D02*
X73972678Y-57500000D01*
X69375000Y-50600000D02*
X68624000Y-51351000D01*
X73972678Y-57500000D02*
X80675000Y-57500000D01*
%TO.N,Net-(J1-Pin_4)*%
X69375000Y-51800000D02*
X74126000Y-56551000D01*
X81524000Y-56551000D02*
X82325000Y-55750000D01*
X74126000Y-56551000D02*
X81524000Y-56551000D01*
%TO.N,Net-(J2-Pin_4)*%
X129962190Y-48200000D02*
X130625000Y-48200000D01*
D33*
X130000000Y-48200000D02*
X130625000Y-48200000D01*
D35*
X119912190Y-58250000D02*
X129962190Y-48200000D01*
X118325000Y-58250000D02*
X119912190Y-58250000D01*
%TO.N,Net-(J2-Pin_3)*%
X129400000Y-49400000D02*
X119051000Y-59749000D01*
X130625000Y-49400000D02*
X129400000Y-49400000D01*
X117476000Y-60801000D02*
X116675000Y-60000000D01*
X119051000Y-59749000D02*
X119051000Y-60498418D01*
X119051000Y-60498418D02*
X118748418Y-60801000D01*
X118748418Y-60801000D02*
X117476000Y-60801000D01*
%TD*%
%TA.AperFunction,Conductor*%
%TO.N,GND*%
G36*
X68902603Y-53314961D02*
G01*
X68909081Y-53320993D01*
X73483694Y-57895606D01*
X73483723Y-57895637D01*
X73573941Y-57985855D01*
X73573949Y-57985861D01*
X73635070Y-58026701D01*
X73635073Y-58026702D01*
X73640487Y-58030320D01*
X73676393Y-58054312D01*
X73723727Y-58073918D01*
X73790226Y-58101463D01*
X73796871Y-58102784D01*
X73830069Y-58109389D01*
X73830099Y-58109394D01*
X73911068Y-58125499D01*
X73911070Y-58125500D01*
X73911071Y-58125500D01*
X73911072Y-58125500D01*
X79798398Y-58125500D01*
X79865437Y-58145185D01*
X79904514Y-58185349D01*
X79919528Y-58210185D01*
X79919531Y-58210189D01*
X80039811Y-58330469D01*
X80039813Y-58330470D01*
X80039815Y-58330472D01*
X80185394Y-58418478D01*
X80347804Y-58469086D01*
X80418384Y-58475500D01*
X80418387Y-58475500D01*
X80931613Y-58475500D01*
X80931616Y-58475500D01*
X81002196Y-58469086D01*
X81164606Y-58418478D01*
X81310185Y-58330472D01*
X81340157Y-58300500D01*
X81412319Y-58228339D01*
X81473642Y-58194854D01*
X81543334Y-58199838D01*
X81587681Y-58228339D01*
X81689811Y-58330469D01*
X81689813Y-58330470D01*
X81689815Y-58330472D01*
X81835394Y-58418478D01*
X81997804Y-58469086D01*
X82068384Y-58475500D01*
X82068387Y-58475500D01*
X82581613Y-58475500D01*
X82581616Y-58475500D01*
X82652196Y-58469086D01*
X82814606Y-58418478D01*
X82960185Y-58330472D01*
X83080472Y-58210185D01*
X83110598Y-58160349D01*
X83162126Y-58113162D01*
X83216715Y-58100500D01*
X84913331Y-58100500D01*
X84913347Y-58100501D01*
X84920943Y-58100501D01*
X85079054Y-58100501D01*
X85079057Y-58100501D01*
X85231785Y-58059577D01*
X85282459Y-58030320D01*
X85368716Y-57980520D01*
X85480520Y-57868716D01*
X85480520Y-57868714D01*
X85490724Y-57858511D01*
X85490727Y-57858506D01*
X87902416Y-55446819D01*
X87963739Y-55413334D01*
X87990097Y-55410500D01*
X90120080Y-55410500D01*
X90187119Y-55430185D01*
X90232874Y-55482989D01*
X90243018Y-55550683D01*
X90234093Y-55618484D01*
X90228500Y-55660965D01*
X90228500Y-56499037D01*
X90243825Y-56615453D01*
X90243826Y-56615456D01*
X90265403Y-56667549D01*
X90272870Y-56737019D01*
X90265403Y-56762451D01*
X90243827Y-56814541D01*
X90228500Y-56930964D01*
X90228500Y-57769037D01*
X90243825Y-57885453D01*
X90243826Y-57885456D01*
X90265403Y-57937549D01*
X90272870Y-58007019D01*
X90265403Y-58032451D01*
X90243827Y-58084541D01*
X90228500Y-58200964D01*
X90228500Y-59039037D01*
X90243824Y-59155448D01*
X90243828Y-59155460D01*
X90303829Y-59300318D01*
X90303831Y-59300321D01*
X90342453Y-59350653D01*
X90399284Y-59424716D01*
X90471855Y-59480402D01*
X90523678Y-59520168D01*
X90523681Y-59520170D01*
X90595283Y-59549828D01*
X90668543Y-59580173D01*
X90784965Y-59595500D01*
X91819901Y-59595499D01*
X91886940Y-59615183D01*
X91907582Y-59631818D01*
X92152284Y-59876520D01*
X92177559Y-59891112D01*
X92225775Y-59941679D01*
X92238999Y-60010286D01*
X92213031Y-60075151D01*
X92156118Y-60115680D01*
X92115560Y-60122500D01*
X87464189Y-60122500D01*
X87340975Y-60122500D01*
X87299087Y-60130832D01*
X87299086Y-60130831D01*
X87220136Y-60146535D01*
X87220123Y-60146539D01*
X87198913Y-60155325D01*
X87172979Y-60166067D01*
X87163506Y-60169991D01*
X87106295Y-60193688D01*
X87096139Y-60200475D01*
X87096031Y-60200547D01*
X87003850Y-60262140D01*
X86960287Y-60305703D01*
X86916724Y-60349267D01*
X86252715Y-61013275D01*
X86252706Y-61013284D01*
X86250270Y-61015721D01*
X86250267Y-61015724D01*
X86163142Y-61102849D01*
X86140060Y-61137394D01*
X86135207Y-61144655D01*
X86135203Y-61144661D01*
X86094690Y-61205291D01*
X86094685Y-61205300D01*
X86047540Y-61319120D01*
X86047535Y-61319136D01*
X86030961Y-61402464D01*
X86023500Y-61439971D01*
X86023500Y-63160611D01*
X86047535Y-63281444D01*
X86047540Y-63281461D01*
X86094685Y-63395280D01*
X86094687Y-63395283D01*
X86094688Y-63395286D01*
X86128915Y-63446509D01*
X86163142Y-63497733D01*
X86250267Y-63584858D01*
X86250269Y-63584859D01*
X86260232Y-63594822D01*
X86413181Y-63747771D01*
X86446666Y-63809094D01*
X86449500Y-63835452D01*
X86449500Y-64131613D01*
X86455913Y-64202192D01*
X86455913Y-64202194D01*
X86455914Y-64202196D01*
X86506522Y-64364606D01*
X86506523Y-64364608D01*
X86506524Y-64364610D01*
X86509600Y-64371445D01*
X86507165Y-64372540D01*
X86521787Y-64427887D01*
X86500278Y-64494364D01*
X86446244Y-64538659D01*
X86397833Y-64548500D01*
X86112524Y-64548500D01*
X86071561Y-64541538D01*
X72463840Y-59778835D01*
X72417122Y-59749478D01*
X70136819Y-57469174D01*
X70103334Y-57407851D01*
X70100500Y-57381493D01*
X70100500Y-57284313D01*
X70100499Y-57284298D01*
X70098062Y-57253334D01*
X70097598Y-57247431D01*
X70074092Y-57166525D01*
X70051745Y-57089606D01*
X70051745Y-57089605D01*
X70051744Y-57089604D01*
X70051744Y-57089602D01*
X70035791Y-57062628D01*
X70018611Y-56994905D01*
X70035794Y-56936386D01*
X70051281Y-56910199D01*
X70097100Y-56752486D01*
X70097295Y-56750001D01*
X70097295Y-56750000D01*
X69734050Y-56750000D01*
X69699455Y-56745076D01*
X69552573Y-56702402D01*
X69552567Y-56702401D01*
X69515701Y-56699500D01*
X69515694Y-56699500D01*
X68949000Y-56699500D01*
X68881961Y-56679815D01*
X68836206Y-56627011D01*
X68825000Y-56575500D01*
X68825000Y-56500000D01*
X68699000Y-56500000D01*
X68690314Y-56497449D01*
X68681353Y-56498738D01*
X68657312Y-56487759D01*
X68631961Y-56480315D01*
X68626033Y-56473474D01*
X68617797Y-56469713D01*
X68603507Y-56447478D01*
X68586206Y-56427511D01*
X68583918Y-56416996D01*
X68580023Y-56410935D01*
X68575000Y-56376000D01*
X68575000Y-56250000D01*
X69075000Y-56250000D01*
X70097295Y-56250000D01*
X70097295Y-56249998D01*
X70097100Y-56247513D01*
X70051281Y-56089801D01*
X69967685Y-55948447D01*
X69967678Y-55948438D01*
X69851561Y-55832321D01*
X69851552Y-55832314D01*
X69710196Y-55748717D01*
X69710193Y-55748716D01*
X69552495Y-55702900D01*
X69552489Y-55702899D01*
X69515649Y-55700000D01*
X69075000Y-55700000D01*
X69075000Y-56250000D01*
X68575000Y-56250000D01*
X68575000Y-56197460D01*
X68594685Y-56130421D01*
X68595872Y-56128607D01*
X68611984Y-56104495D01*
X68668558Y-55967913D01*
X68692710Y-55846498D01*
X68697400Y-55822920D01*
X68697400Y-53408674D01*
X68717085Y-53341635D01*
X68769889Y-53295880D01*
X68839047Y-53285936D01*
X68902603Y-53314961D01*
G37*
%TD.AperFunction*%
%TA.AperFunction,Conductor*%
G36*
X97330270Y-64236717D02*
G01*
X97330270Y-64236716D01*
X97369622Y-64182555D01*
X97374232Y-64173507D01*
X97422205Y-64122709D01*
X97490025Y-64105912D01*
X97556161Y-64128447D01*
X97595204Y-64173504D01*
X97599949Y-64182817D01*
X97722587Y-64351615D01*
X97746067Y-64417421D01*
X97730241Y-64485475D01*
X97680135Y-64534170D01*
X97622269Y-64548500D01*
X96986308Y-64548500D01*
X96919269Y-64528815D01*
X96898627Y-64512181D01*
X96344408Y-63957962D01*
X96407993Y-63940925D01*
X96522007Y-63875099D01*
X96615099Y-63782007D01*
X96680925Y-63667993D01*
X96697962Y-63604408D01*
X97330270Y-64236717D01*
G37*
%TD.AperFunction*%
%TA.AperFunction,Conductor*%
G36*
X114867772Y-40750624D02*
G01*
X114874247Y-40750913D01*
X114926437Y-40753249D01*
X114937442Y-40754236D01*
X114992886Y-40761721D01*
X115003790Y-40763694D01*
X115025539Y-40768640D01*
X115061088Y-40776726D01*
X115066386Y-40778056D01*
X115106328Y-40789040D01*
X115106328Y-40789039D01*
X115165519Y-40805317D01*
X115165525Y-40805318D01*
X133518125Y-45852284D01*
X133997481Y-45984107D01*
X134056902Y-46020862D01*
X134087018Y-46083909D01*
X134078267Y-46153228D01*
X134033429Y-46206813D01*
X134001493Y-46222053D01*
X133895937Y-46254945D01*
X133895935Y-46254946D01*
X133755662Y-46339743D01*
X133755657Y-46339747D01*
X133639747Y-46455657D01*
X133639743Y-46455662D01*
X133554947Y-46595934D01*
X133506178Y-46752441D01*
X133501857Y-46799999D01*
X133501857Y-46800000D01*
X134276000Y-46800000D01*
X134343039Y-46819685D01*
X134388794Y-46872489D01*
X134400000Y-46924000D01*
X134400000Y-47050000D01*
X134526000Y-47050000D01*
X134593039Y-47069685D01*
X134638794Y-47122489D01*
X134650000Y-47174000D01*
X134650000Y-47899999D01*
X134660184Y-47910183D01*
X134692539Y-47919684D01*
X134738294Y-47972488D01*
X134749500Y-48023999D01*
X134749500Y-51976000D01*
X134729815Y-52043039D01*
X134677011Y-52088794D01*
X134656811Y-52093188D01*
X134650000Y-52100000D01*
X134650000Y-53799999D01*
X134658083Y-53808082D01*
X134667187Y-53812239D01*
X134692539Y-53819684D01*
X134698466Y-53826524D01*
X134706703Y-53830286D01*
X134720992Y-53852520D01*
X134738294Y-53872488D01*
X134740581Y-53883002D01*
X134744477Y-53889064D01*
X134749500Y-53923997D01*
X134749500Y-54020556D01*
X134729815Y-54087595D01*
X134677011Y-54133350D01*
X134607853Y-54143294D01*
X134586497Y-54138262D01*
X134502701Y-54110495D01*
X134502690Y-54110493D01*
X134399986Y-54100000D01*
X133950000Y-54100000D01*
X133950000Y-56299999D01*
X134399972Y-56299999D01*
X134399986Y-56299998D01*
X134502695Y-56289506D01*
X134586495Y-56261737D01*
X134656324Y-56259335D01*
X134716366Y-56295066D01*
X134747559Y-56357587D01*
X134749500Y-56379443D01*
X134749500Y-57620556D01*
X134729815Y-57687595D01*
X134677011Y-57733350D01*
X134607853Y-57743294D01*
X134586497Y-57738262D01*
X134502701Y-57710495D01*
X134502690Y-57710493D01*
X134399986Y-57700000D01*
X133950000Y-57700000D01*
X133950000Y-58676000D01*
X133930315Y-58743039D01*
X133877511Y-58788794D01*
X133826000Y-58800000D01*
X133574000Y-58800000D01*
X133506961Y-58780315D01*
X133461206Y-58727511D01*
X133450000Y-58676000D01*
X133450000Y-57700000D01*
X133374500Y-57700000D01*
X133307461Y-57680315D01*
X133261706Y-57627511D01*
X133250500Y-57576000D01*
X133250500Y-56423999D01*
X133270185Y-56356960D01*
X133322989Y-56311205D01*
X133374500Y-56299999D01*
X133450000Y-56299999D01*
X133450000Y-54100000D01*
X133000028Y-54100000D01*
X133000012Y-54100001D01*
X132897302Y-54110494D01*
X132730880Y-54165641D01*
X132730875Y-54165643D01*
X132581654Y-54257684D01*
X132457684Y-54381654D01*
X132365643Y-54530875D01*
X132365642Y-54530878D01*
X132312072Y-54692541D01*
X132272299Y-54749985D01*
X132207783Y-54776808D01*
X132139007Y-54764493D01*
X132106685Y-54741217D01*
X131411819Y-54046351D01*
X131378334Y-53985028D01*
X131375500Y-53958670D01*
X131375500Y-53200000D01*
X133501857Y-53200000D01*
X133506178Y-53247558D01*
X133554947Y-53404065D01*
X133639743Y-53544337D01*
X133639747Y-53544342D01*
X133755657Y-53660252D01*
X133755662Y-53660256D01*
X133895934Y-53745052D01*
X134052436Y-53793820D01*
X134120434Y-53799999D01*
X134150000Y-53799998D01*
X134150000Y-53200000D01*
X133501857Y-53200000D01*
X131375500Y-53200000D01*
X131375500Y-52699999D01*
X133501857Y-52699999D01*
X133501857Y-52700000D01*
X134150000Y-52700000D01*
X134150000Y-52099999D01*
X134120445Y-52100000D01*
X134120440Y-52100001D01*
X134052438Y-52106178D01*
X134052427Y-52106181D01*
X133895939Y-52154944D01*
X133895935Y-52154946D01*
X133755662Y-52239743D01*
X133755657Y-52239747D01*
X133639747Y-52355657D01*
X133639743Y-52355662D01*
X133554947Y-52495934D01*
X133506178Y-52652441D01*
X133501857Y-52699999D01*
X131375500Y-52699999D01*
X131375500Y-52445808D01*
X131395185Y-52378769D01*
X131411817Y-52358128D01*
X131418081Y-52351865D01*
X131501744Y-52210398D01*
X131547598Y-52052569D01*
X131550500Y-52015694D01*
X131550500Y-51584306D01*
X131547598Y-51547431D01*
X131544119Y-51535457D01*
X131501745Y-51389606D01*
X131501744Y-51389603D01*
X131501744Y-51389602D01*
X131426652Y-51262629D01*
X131409470Y-51194906D01*
X131426653Y-51136388D01*
X131501281Y-51010198D01*
X131547100Y-50852486D01*
X131547295Y-50850001D01*
X131547295Y-50850000D01*
X129702705Y-50850000D01*
X129702704Y-50850001D01*
X129702899Y-50852486D01*
X129748718Y-51010198D01*
X129823346Y-51136388D01*
X129840529Y-51204112D01*
X129823346Y-51262629D01*
X129748257Y-51389599D01*
X129748254Y-51389606D01*
X129702402Y-51547426D01*
X129702401Y-51547432D01*
X129699500Y-51584298D01*
X129699500Y-52015701D01*
X129702401Y-52052567D01*
X129702402Y-52052573D01*
X129748254Y-52210393D01*
X129748255Y-52210396D01*
X129748256Y-52210398D01*
X129831919Y-52351865D01*
X129838179Y-52358125D01*
X129871665Y-52419445D01*
X129874500Y-52445808D01*
X129874500Y-54394818D01*
X129874500Y-54394820D01*
X129874499Y-54394820D01*
X129903340Y-54539807D01*
X129903343Y-54539817D01*
X129959914Y-54676391D01*
X129959916Y-54676395D01*
X129981965Y-54709394D01*
X129981964Y-54709394D01*
X130042046Y-54799314D01*
X130042052Y-54799321D01*
X130730551Y-55487819D01*
X130764036Y-55549142D01*
X130759052Y-55618833D01*
X130717181Y-55674767D01*
X130651716Y-55699184D01*
X130642870Y-55699500D01*
X130484298Y-55699500D01*
X130447432Y-55702401D01*
X130447426Y-55702402D01*
X130302267Y-55744576D01*
X130267672Y-55749500D01*
X127644576Y-55749500D01*
X127499588Y-55778340D01*
X127499578Y-55778343D01*
X127363007Y-55834912D01*
X127362994Y-55834919D01*
X127240080Y-55917048D01*
X127240076Y-55917051D01*
X123199980Y-59957146D01*
X123160316Y-59983791D01*
X113026903Y-64239826D01*
X112978886Y-64249500D01*
X107698424Y-64249500D01*
X107631385Y-64229815D01*
X107585630Y-64177011D01*
X107575686Y-64107853D01*
X107587939Y-64069206D01*
X107626554Y-63993417D01*
X107626557Y-63993412D01*
X107692246Y-63791243D01*
X107725500Y-63581287D01*
X107725500Y-63368713D01*
X107692246Y-63158757D01*
X107626557Y-62956588D01*
X107530051Y-62767184D01*
X107530049Y-62767181D01*
X107530048Y-62767179D01*
X107405109Y-62595213D01*
X107254786Y-62444890D01*
X107082820Y-62319951D01*
X106893414Y-62223444D01*
X106893413Y-62223443D01*
X106893412Y-62223443D01*
X106691243Y-62157754D01*
X106691241Y-62157753D01*
X106691240Y-62157753D01*
X106529957Y-62132208D01*
X106481287Y-62124500D01*
X106268713Y-62124500D01*
X106220042Y-62132208D01*
X106058760Y-62157753D01*
X105856585Y-62223444D01*
X105667179Y-62319951D01*
X105495213Y-62444890D01*
X105344890Y-62595213D01*
X105219949Y-62767182D01*
X105215484Y-62775946D01*
X105167509Y-62826742D01*
X105099688Y-62843536D01*
X105033553Y-62820998D01*
X104994516Y-62775946D01*
X104990050Y-62767182D01*
X104865109Y-62595213D01*
X104714786Y-62444890D01*
X104542820Y-62319951D01*
X104353414Y-62223444D01*
X104353413Y-62223443D01*
X104353412Y-62223443D01*
X104151243Y-62157754D01*
X104151241Y-62157753D01*
X104151240Y-62157753D01*
X103989957Y-62132208D01*
X103941287Y-62124500D01*
X103728713Y-62124500D01*
X103680042Y-62132208D01*
X103518760Y-62157753D01*
X103316585Y-62223444D01*
X103127179Y-62319951D01*
X102955213Y-62444890D01*
X102804890Y-62595213D01*
X102679949Y-62767182D01*
X102675484Y-62775946D01*
X102627509Y-62826742D01*
X102559688Y-62843536D01*
X102493553Y-62820998D01*
X102454516Y-62775946D01*
X102450050Y-62767182D01*
X102325109Y-62595213D01*
X102174786Y-62444890D01*
X102002820Y-62319951D01*
X101813414Y-62223444D01*
X101813413Y-62223443D01*
X101813412Y-62223443D01*
X101611243Y-62157754D01*
X101611241Y-62157753D01*
X101611240Y-62157753D01*
X101449957Y-62132208D01*
X101401287Y-62124500D01*
X101188713Y-62124500D01*
X101148255Y-62130908D01*
X100978753Y-62157754D01*
X100963160Y-62162821D01*
X100893319Y-62164816D01*
X100837162Y-62132571D01*
X99064021Y-60359431D01*
X99053859Y-60349269D01*
X99053858Y-60349267D01*
X98966733Y-60262142D01*
X98915509Y-60227915D01*
X98902555Y-60219259D01*
X98896656Y-60214138D01*
X98881844Y-60191043D01*
X98864250Y-60169991D01*
X98863253Y-60162056D01*
X98858936Y-60155325D01*
X98858961Y-60127890D01*
X98855541Y-60100666D01*
X98858992Y-60093451D01*
X98859000Y-60085455D01*
X98873854Y-60062387D01*
X98885696Y-60037638D01*
X98892499Y-60033435D01*
X98896829Y-60026712D01*
X98921797Y-60015337D01*
X98945138Y-60000919D01*
X98956933Y-59999330D01*
X98960411Y-59997746D01*
X98964404Y-59998323D01*
X98977945Y-59996500D01*
X115113331Y-59996500D01*
X115113347Y-59996501D01*
X115120943Y-59996501D01*
X115279054Y-59996501D01*
X115279057Y-59996501D01*
X115431785Y-59955577D01*
X115491772Y-59920943D01*
X115568716Y-59876520D01*
X115573624Y-59871611D01*
X115586518Y-59863845D01*
X115613836Y-59856677D01*
X115640179Y-59846493D01*
X115647183Y-59847929D01*
X115654100Y-59846115D01*
X115680954Y-59854854D01*
X115708624Y-59860529D01*
X115713740Y-59865525D01*
X115720540Y-59867738D01*
X115738408Y-59889611D01*
X115758615Y-59909342D01*
X115760541Y-59916705D01*
X115764742Y-59921848D01*
X115766956Y-59941227D01*
X115774500Y-59970063D01*
X115774500Y-60331613D01*
X115780913Y-60402192D01*
X115780913Y-60402194D01*
X115780914Y-60402196D01*
X115831522Y-60564606D01*
X115919528Y-60710185D01*
X115919530Y-60710187D01*
X115919531Y-60710189D01*
X116039811Y-60830469D01*
X116039813Y-60830470D01*
X116039815Y-60830472D01*
X116185394Y-60918478D01*
X116347804Y-60969086D01*
X116418384Y-60975500D01*
X116714548Y-60975500D01*
X116781587Y-60995185D01*
X116802229Y-61011819D01*
X116990139Y-61199729D01*
X116990142Y-61199733D01*
X117077267Y-61286858D01*
X117125565Y-61319130D01*
X117132313Y-61323639D01*
X117132320Y-61323645D01*
X117170588Y-61349214D01*
X117179714Y-61355312D01*
X117242823Y-61381452D01*
X117293548Y-61402463D01*
X117353971Y-61414481D01*
X117414393Y-61426500D01*
X118810025Y-61426500D01*
X118870447Y-61414481D01*
X118930870Y-61402463D01*
X118981595Y-61381452D01*
X119044704Y-61355312D01*
X119098853Y-61319130D01*
X119147151Y-61286858D01*
X119234276Y-61199733D01*
X119234276Y-61199731D01*
X119244484Y-61189524D01*
X119244484Y-61189522D01*
X119536858Y-60897151D01*
X119605312Y-60794703D01*
X119640320Y-60710185D01*
X119652463Y-60680870D01*
X119664859Y-60618549D01*
X119676501Y-60560024D01*
X119676501Y-60436811D01*
X119676501Y-60431701D01*
X119676500Y-60431675D01*
X119676500Y-60059452D01*
X119696185Y-59992413D01*
X119712819Y-59971771D01*
X124607040Y-55077550D01*
X129511208Y-50173381D01*
X129572529Y-50139898D01*
X129642221Y-50144882D01*
X129698154Y-50186754D01*
X129722571Y-50252218D01*
X129717964Y-50295658D01*
X129702899Y-50347511D01*
X129702704Y-50349998D01*
X129702705Y-50350000D01*
X131547295Y-50350000D01*
X131547295Y-50349998D01*
X131547100Y-50347513D01*
X131501281Y-50189801D01*
X131426653Y-50063611D01*
X131409470Y-49995887D01*
X131426652Y-49937371D01*
X131501744Y-49810398D01*
X131547598Y-49652569D01*
X131550500Y-49615694D01*
X131550500Y-49184306D01*
X131547598Y-49147431D01*
X131544961Y-49138355D01*
X131504067Y-48997598D01*
X131501744Y-48989602D01*
X131426942Y-48863119D01*
X131409760Y-48795397D01*
X131426942Y-48736881D01*
X131501744Y-48610398D01*
X131547598Y-48452569D01*
X131550500Y-48415694D01*
X131550500Y-47984306D01*
X131547598Y-47947431D01*
X131540948Y-47924543D01*
X131510399Y-47819393D01*
X131501744Y-47789602D01*
X131418081Y-47648135D01*
X131418079Y-47648133D01*
X131418076Y-47648129D01*
X131301870Y-47531923D01*
X131301862Y-47531917D01*
X131223681Y-47485681D01*
X131160398Y-47448256D01*
X131160397Y-47448255D01*
X131160396Y-47448255D01*
X131160393Y-47448254D01*
X131002573Y-47402402D01*
X131002567Y-47402401D01*
X130965701Y-47399500D01*
X130965694Y-47399500D01*
X130284306Y-47399500D01*
X130284298Y-47399500D01*
X130247432Y-47402401D01*
X130247426Y-47402402D01*
X130089606Y-47448254D01*
X130089603Y-47448255D01*
X129948137Y-47531917D01*
X129948127Y-47531924D01*
X129933383Y-47546669D01*
X129916789Y-47555729D01*
X129903181Y-47568861D01*
X129873677Y-47579269D01*
X129872059Y-47580153D01*
X129869897Y-47580603D01*
X129853668Y-47583831D01*
X129840161Y-47586518D01*
X129796933Y-47595116D01*
X129779736Y-47598537D01*
X129665906Y-47645687D01*
X129665897Y-47645692D01*
X129563458Y-47714140D01*
X129519895Y-47757703D01*
X129476332Y-47801267D01*
X129476329Y-47801270D01*
X127379858Y-49897740D01*
X127318535Y-49931225D01*
X127248843Y-49926241D01*
X127192910Y-49884369D01*
X127184794Y-49872066D01*
X127132992Y-49782341D01*
X126780936Y-49430285D01*
X126780935Y-49430284D01*
X126669131Y-49318480D01*
X126666007Y-49316676D01*
X126657800Y-49308563D01*
X126657735Y-49308445D01*
X126657294Y-49308059D01*
X126487590Y-49138355D01*
X126487588Y-49138352D01*
X126368717Y-49019481D01*
X126368709Y-49019475D01*
X126251394Y-48951744D01*
X126251394Y-48951743D01*
X126251389Y-48951742D01*
X126244548Y-48947792D01*
X126231786Y-48940423D01*
X126181056Y-48926830D01*
X126079057Y-48899499D01*
X125949128Y-48899499D01*
X125886008Y-48882231D01*
X125825390Y-48846382D01*
X125825385Y-48846380D01*
X125673633Y-48802292D01*
X125673620Y-48802290D01*
X125638163Y-48799500D01*
X125261849Y-48799500D01*
X125261824Y-48799501D01*
X125226372Y-48802291D01*
X125074614Y-48846380D01*
X125074608Y-48846382D01*
X125063118Y-48853178D01*
X125053999Y-48855491D01*
X125046633Y-48861341D01*
X125020677Y-48863943D01*
X124995393Y-48870358D01*
X124984623Y-48867559D01*
X124977112Y-48868313D01*
X124953870Y-48859569D01*
X124943705Y-48856928D01*
X124940218Y-48855151D01*
X124925390Y-48846382D01*
X124919846Y-48844771D01*
X124909401Y-48839449D01*
X124897392Y-48828107D01*
X124883818Y-48820078D01*
X124883131Y-48820917D01*
X124878414Y-48817046D01*
X124784806Y-48754500D01*
X124784805Y-48754500D01*
X124755500Y-48734919D01*
X124755488Y-48734912D01*
X124618917Y-48678343D01*
X124618907Y-48678340D01*
X124473920Y-48649500D01*
X124473918Y-48649500D01*
X121081885Y-48649500D01*
X121014846Y-48629815D01*
X120969091Y-48577011D01*
X120959147Y-48507853D01*
X120965703Y-48482167D01*
X120993596Y-48407379D01*
X120993598Y-48407372D01*
X120999999Y-48347844D01*
X121000000Y-48347827D01*
X121000000Y-48050000D01*
X119100000Y-48050000D01*
X119087819Y-48062181D01*
X119026496Y-48095666D01*
X119000138Y-48098500D01*
X116999862Y-48098500D01*
X116932823Y-48078815D01*
X116912181Y-48062181D01*
X116900000Y-48050000D01*
X116074000Y-48050000D01*
X116006961Y-48030315D01*
X115961206Y-47977511D01*
X115950000Y-47926000D01*
X115950000Y-47674000D01*
X115969685Y-47606961D01*
X116022489Y-47561206D01*
X116074000Y-47550000D01*
X116900000Y-47550000D01*
X116900000Y-47252172D01*
X116899999Y-47252155D01*
X116893598Y-47192627D01*
X116893597Y-47192623D01*
X116840253Y-47049602D01*
X116841767Y-47049037D01*
X116836882Y-47025083D01*
X116829616Y-46991674D01*
X116829853Y-46990615D01*
X116829742Y-46990069D01*
X116830664Y-46987000D01*
X116837693Y-46955683D01*
X116841878Y-46944892D01*
X116843796Y-46942331D01*
X116866893Y-46880403D01*
X116867183Y-46879657D01*
X116887993Y-46852598D01*
X116908479Y-46825233D01*
X116909266Y-46824939D01*
X116909779Y-46824273D01*
X116941939Y-46812752D01*
X116973943Y-46800816D01*
X116975409Y-46800763D01*
X116975556Y-46800711D01*
X116975733Y-46800752D01*
X116982790Y-46800500D01*
X119017209Y-46800500D01*
X119084248Y-46820185D01*
X119130003Y-46872989D01*
X119133391Y-46881167D01*
X119159303Y-46950641D01*
X119157733Y-46951226D01*
X119170383Y-47009367D01*
X119158687Y-47049206D01*
X119159746Y-47049601D01*
X119106403Y-47192620D01*
X119106401Y-47192627D01*
X119100000Y-47252155D01*
X119100000Y-47550000D01*
X121000000Y-47550000D01*
X121000000Y-47300000D01*
X133501857Y-47300000D01*
X133506178Y-47347558D01*
X133554947Y-47504065D01*
X133639743Y-47644337D01*
X133639747Y-47644342D01*
X133755657Y-47760252D01*
X133755662Y-47760256D01*
X133895934Y-47845052D01*
X134052436Y-47893820D01*
X134120434Y-47899999D01*
X134150000Y-47899998D01*
X134150000Y-47300000D01*
X133501857Y-47300000D01*
X121000000Y-47300000D01*
X121000000Y-47252172D01*
X120999999Y-47252155D01*
X120993598Y-47192627D01*
X120993597Y-47192623D01*
X120940253Y-47049602D01*
X120942067Y-47048925D01*
X120929616Y-46991674D01*
X120941570Y-46950966D01*
X120940696Y-46950640D01*
X120943794Y-46942333D01*
X120943796Y-46942331D01*
X120994091Y-46807483D01*
X121000500Y-46747873D01*
X121000499Y-45652128D01*
X120994091Y-45592517D01*
X120992011Y-45586941D01*
X120943797Y-45457671D01*
X120943793Y-45457664D01*
X120857547Y-45342455D01*
X120857544Y-45342452D01*
X120742335Y-45256206D01*
X120742328Y-45256202D01*
X120607482Y-45205908D01*
X120607483Y-45205908D01*
X120547883Y-45199501D01*
X120547881Y-45199500D01*
X120547873Y-45199500D01*
X120547864Y-45199500D01*
X119552129Y-45199500D01*
X119552123Y-45199501D01*
X119492516Y-45205908D01*
X119357671Y-45256202D01*
X119357664Y-45256206D01*
X119242455Y-45342452D01*
X119242452Y-45342455D01*
X119156206Y-45457664D01*
X119156202Y-45457671D01*
X119133391Y-45518833D01*
X119091520Y-45574767D01*
X119026056Y-45599184D01*
X119017209Y-45599500D01*
X116982791Y-45599500D01*
X116915752Y-45579815D01*
X116869997Y-45527011D01*
X116866609Y-45518833D01*
X116843797Y-45457671D01*
X116843793Y-45457664D01*
X116757547Y-45342455D01*
X116757544Y-45342452D01*
X116642335Y-45256206D01*
X116642328Y-45256202D01*
X116507482Y-45205908D01*
X116507483Y-45205908D01*
X116447883Y-45199501D01*
X116447881Y-45199500D01*
X116447873Y-45199500D01*
X116447864Y-45199500D01*
X115452129Y-45199500D01*
X115452123Y-45199501D01*
X115392516Y-45205908D01*
X115257671Y-45256202D01*
X115257664Y-45256206D01*
X115142455Y-45342452D01*
X115142452Y-45342455D01*
X115056206Y-45457664D01*
X115056202Y-45457671D01*
X115005908Y-45592517D01*
X114999501Y-45652116D01*
X114999501Y-45652123D01*
X114999500Y-45652135D01*
X114999500Y-46249900D01*
X114979815Y-46316939D01*
X114963182Y-46337581D01*
X114737584Y-46563181D01*
X114676261Y-46596666D01*
X114649902Y-46599500D01*
X109878099Y-46599500D01*
X109811060Y-46579815D01*
X109765305Y-46527011D01*
X109755160Y-46459315D01*
X109770998Y-46339007D01*
X109770999Y-46338990D01*
X109770999Y-45501001D01*
X109755686Y-45384681D01*
X109755684Y-45384673D01*
X109695731Y-45239933D01*
X109600358Y-45115641D01*
X109494294Y-45034255D01*
X108519456Y-46009094D01*
X108458133Y-46042579D01*
X108388441Y-46037595D01*
X108344094Y-46009094D01*
X108255000Y-45920000D01*
X108165905Y-46009095D01*
X108104582Y-46042580D01*
X108034890Y-46037596D01*
X107990543Y-46009095D01*
X107015704Y-45034256D01*
X106909639Y-45115642D01*
X106814268Y-45239933D01*
X106754315Y-45384673D01*
X106754315Y-45384674D01*
X106739000Y-45500995D01*
X106739000Y-46338999D01*
X106754839Y-46459317D01*
X106744072Y-46528352D01*
X106697692Y-46580607D01*
X106631900Y-46599500D01*
X102720942Y-46599500D01*
X102568214Y-46640423D01*
X102568213Y-46640423D01*
X102543757Y-46654542D01*
X102543758Y-46654543D01*
X102431287Y-46719477D01*
X102431282Y-46719481D01*
X102374593Y-46776171D01*
X102319480Y-46831284D01*
X102319478Y-46831286D01*
X101138584Y-48012181D01*
X99987584Y-49163181D01*
X99926261Y-49196666D01*
X99899903Y-49199500D01*
X96517848Y-49199500D01*
X96450809Y-49179815D01*
X96405054Y-49127011D01*
X96396231Y-49099692D01*
X96369738Y-48966508D01*
X96369737Y-48966507D01*
X96369737Y-48966503D01*
X96363623Y-48951742D01*
X96309397Y-48820827D01*
X96309390Y-48820814D01*
X96221789Y-48689711D01*
X96221786Y-48689707D01*
X96110292Y-48578213D01*
X96110288Y-48578210D01*
X95979185Y-48490609D01*
X95979172Y-48490602D01*
X95835864Y-48431243D01*
X95781460Y-48387402D01*
X95768761Y-48364147D01*
X95709394Y-48220821D01*
X95709392Y-48220818D01*
X95709390Y-48220814D01*
X95621398Y-48089125D01*
X95600520Y-48022447D01*
X95600500Y-48020234D01*
X95600500Y-46420945D01*
X95600500Y-46420943D01*
X95559577Y-46268216D01*
X95559577Y-46268215D01*
X95532925Y-46222053D01*
X95528564Y-46214499D01*
X95528564Y-46214498D01*
X95480524Y-46131290D01*
X95480521Y-46131286D01*
X95480520Y-46131284D01*
X95368716Y-46019480D01*
X95368715Y-46019479D01*
X95364385Y-46015149D01*
X95364374Y-46015139D01*
X93637590Y-44288355D01*
X93637588Y-44288352D01*
X93518717Y-44169481D01*
X93518716Y-44169480D01*
X93502059Y-44159863D01*
X93438674Y-44123268D01*
X93438670Y-44123266D01*
X93431904Y-44119360D01*
X93381785Y-44090423D01*
X93322918Y-44074649D01*
X93315139Y-44071382D01*
X93294323Y-44054437D01*
X93271402Y-44040466D01*
X93267636Y-44032713D01*
X93260953Y-44027273D01*
X93252603Y-44001765D01*
X93240874Y-43977619D01*
X93241860Y-43968949D01*
X93239216Y-43960870D01*
X93245545Y-43936571D01*
X93246966Y-43924084D01*
X93244069Y-43923308D01*
X93246171Y-43915460D01*
X93246173Y-43915457D01*
X93261500Y-43799035D01*
X93261499Y-42960966D01*
X93261499Y-42960964D01*
X93261499Y-42960962D01*
X93246175Y-42844551D01*
X93246173Y-42844544D01*
X93246173Y-42844543D01*
X93210060Y-42757358D01*
X93186170Y-42699681D01*
X93186168Y-42699678D01*
X93152913Y-42656340D01*
X93090716Y-42575284D01*
X92966320Y-42479831D01*
X92844337Y-42429304D01*
X92821460Y-42419828D01*
X92821455Y-42419826D01*
X92705035Y-42404500D01*
X90784962Y-42404500D01*
X90668551Y-42419824D01*
X90668539Y-42419828D01*
X90523681Y-42479829D01*
X90523678Y-42479831D01*
X90399284Y-42575284D01*
X90303831Y-42699678D01*
X90303831Y-42699679D01*
X90302474Y-42702956D01*
X90300589Y-42705294D01*
X90299767Y-42706719D01*
X90299544Y-42706590D01*
X90258631Y-42757358D01*
X90192336Y-42779421D01*
X90187914Y-42779500D01*
X88699057Y-42779500D01*
X88540942Y-42779500D01*
X88388215Y-42820423D01*
X88388214Y-42820423D01*
X88388212Y-42820424D01*
X88388209Y-42820425D01*
X88338096Y-42849359D01*
X88338095Y-42849360D01*
X88294689Y-42874420D01*
X88251285Y-42899479D01*
X88251282Y-42899481D01*
X88189802Y-42960962D01*
X88139480Y-43011284D01*
X88139478Y-43011286D01*
X86862410Y-44288355D01*
X85587584Y-45563181D01*
X85526261Y-45596666D01*
X85499903Y-45599500D01*
X85082791Y-45599500D01*
X85015752Y-45579815D01*
X84969997Y-45527011D01*
X84966609Y-45518833D01*
X84943797Y-45457671D01*
X84943793Y-45457664D01*
X84857547Y-45342455D01*
X84857544Y-45342452D01*
X84742335Y-45256206D01*
X84742328Y-45256202D01*
X84607482Y-45205908D01*
X84607483Y-45205908D01*
X84547883Y-45199501D01*
X84547881Y-45199500D01*
X84547873Y-45199500D01*
X84547864Y-45199500D01*
X83552129Y-45199500D01*
X83552123Y-45199501D01*
X83492516Y-45205908D01*
X83357671Y-45256202D01*
X83357664Y-45256206D01*
X83242455Y-45342452D01*
X83242452Y-45342455D01*
X83156206Y-45457664D01*
X83156202Y-45457671D01*
X83133391Y-45518833D01*
X83091520Y-45574767D01*
X83026056Y-45599184D01*
X83017209Y-45599500D01*
X80982791Y-45599500D01*
X80915752Y-45579815D01*
X80869997Y-45527011D01*
X80866609Y-45518833D01*
X80843797Y-45457671D01*
X80843793Y-45457664D01*
X80757547Y-45342455D01*
X80757544Y-45342452D01*
X80642335Y-45256206D01*
X80642328Y-45256202D01*
X80507482Y-45205908D01*
X80507483Y-45205908D01*
X80447883Y-45199501D01*
X80447881Y-45199500D01*
X80447873Y-45199500D01*
X80447864Y-45199500D01*
X79452129Y-45199500D01*
X79452123Y-45199501D01*
X79392516Y-45205908D01*
X79257671Y-45256202D01*
X79257664Y-45256206D01*
X79142455Y-45342452D01*
X79142452Y-45342455D01*
X79056206Y-45457664D01*
X79056202Y-45457671D01*
X79005908Y-45592517D01*
X78999501Y-45652116D01*
X78999501Y-45652123D01*
X78999500Y-45652135D01*
X78999500Y-46747870D01*
X78999501Y-46747876D01*
X79005908Y-46807483D01*
X79059303Y-46950641D01*
X79057733Y-46951226D01*
X79070383Y-47009367D01*
X79058687Y-47049206D01*
X79059746Y-47049601D01*
X79006403Y-47192620D01*
X79006401Y-47192627D01*
X79000000Y-47252155D01*
X79000000Y-47550000D01*
X80900000Y-47550000D01*
X80900000Y-47252172D01*
X80899999Y-47252155D01*
X80893598Y-47192627D01*
X80893597Y-47192623D01*
X80840253Y-47049602D01*
X80841767Y-47049037D01*
X80836882Y-47025083D01*
X80829616Y-46991674D01*
X80829853Y-46990615D01*
X80829742Y-46990069D01*
X80830664Y-46987000D01*
X80837693Y-46955683D01*
X80841878Y-46944892D01*
X80843796Y-46942331D01*
X80866893Y-46880403D01*
X80867183Y-46879657D01*
X80887993Y-46852598D01*
X80908479Y-46825233D01*
X80909266Y-46824939D01*
X80909779Y-46824273D01*
X80941939Y-46812752D01*
X80973943Y-46800816D01*
X80975409Y-46800763D01*
X80975556Y-46800711D01*
X80975733Y-46800752D01*
X80982790Y-46800500D01*
X83017209Y-46800500D01*
X83084248Y-46820185D01*
X83130003Y-46872989D01*
X83133391Y-46881167D01*
X83159303Y-46950641D01*
X83157733Y-46951226D01*
X83170383Y-47009367D01*
X83158687Y-47049206D01*
X83159746Y-47049601D01*
X83106403Y-47192620D01*
X83106401Y-47192627D01*
X83100000Y-47252155D01*
X83100000Y-47550000D01*
X85000000Y-47550000D01*
X85000000Y-47252172D01*
X84999999Y-47252155D01*
X84993598Y-47192627D01*
X84993597Y-47192623D01*
X84940253Y-47049602D01*
X84941767Y-47049037D01*
X84936882Y-47025083D01*
X84929616Y-46991674D01*
X84929853Y-46990615D01*
X84929742Y-46990069D01*
X84930664Y-46987000D01*
X84937693Y-46955683D01*
X84941878Y-46944892D01*
X84943796Y-46942331D01*
X84966893Y-46880403D01*
X84967183Y-46879657D01*
X84987993Y-46852598D01*
X85008479Y-46825233D01*
X85009266Y-46824939D01*
X85009779Y-46824273D01*
X85041939Y-46812752D01*
X85073943Y-46800816D01*
X85075409Y-46800763D01*
X85075556Y-46800711D01*
X85075733Y-46800752D01*
X85082790Y-46800500D01*
X85713331Y-46800500D01*
X85713347Y-46800501D01*
X85720943Y-46800501D01*
X85879054Y-46800501D01*
X85879057Y-46800501D01*
X86031785Y-46759577D01*
X86081904Y-46730639D01*
X86168716Y-46680520D01*
X86280520Y-46568716D01*
X86280520Y-46568714D01*
X86290728Y-46558507D01*
X86290729Y-46558504D01*
X88832416Y-44016819D01*
X88893739Y-43983334D01*
X88920097Y-43980500D01*
X90120080Y-43980500D01*
X90187119Y-44000185D01*
X90232874Y-44052989D01*
X90243018Y-44120683D01*
X90234589Y-44184715D01*
X90228500Y-44230965D01*
X90228500Y-45069037D01*
X90243825Y-45185453D01*
X90243826Y-45185456D01*
X90265403Y-45237549D01*
X90272870Y-45307019D01*
X90272496Y-45309000D01*
X90270112Y-45321083D01*
X90243827Y-45384543D01*
X90228500Y-45500965D01*
X90228500Y-45532015D01*
X90226155Y-45543902D01*
X90215382Y-45564576D01*
X90208815Y-45586941D01*
X90194420Y-45604804D01*
X90193868Y-45605864D01*
X90193308Y-45606183D01*
X90192181Y-45607583D01*
X89947481Y-45852282D01*
X89947479Y-45852285D01*
X89912783Y-45912382D01*
X89912782Y-45912384D01*
X89868423Y-45989214D01*
X89861474Y-46015149D01*
X89827499Y-46141943D01*
X89827499Y-46141945D01*
X89827499Y-46310046D01*
X89827500Y-46310059D01*
X89827500Y-49399861D01*
X89807815Y-49466900D01*
X89791181Y-49487542D01*
X89409120Y-49869602D01*
X89347797Y-49903087D01*
X89278105Y-49898103D01*
X89222172Y-49856231D01*
X89197755Y-49790767D01*
X89197820Y-49772204D01*
X89200500Y-49738163D01*
X89200499Y-49361838D01*
X89197709Y-49326373D01*
X89153618Y-49174610D01*
X89137541Y-49147426D01*
X89126833Y-49129319D01*
X89109650Y-49061595D01*
X89130463Y-48997307D01*
X89131699Y-48995457D01*
X89209394Y-48879179D01*
X89269737Y-48733497D01*
X89300500Y-48578842D01*
X89300500Y-48421158D01*
X89300500Y-48421155D01*
X89300499Y-48421153D01*
X89269738Y-48266510D01*
X89269737Y-48266503D01*
X89213554Y-48130863D01*
X89209397Y-48120827D01*
X89209390Y-48120814D01*
X89121789Y-47989711D01*
X89121786Y-47989707D01*
X89010292Y-47878213D01*
X89010288Y-47878210D01*
X88879185Y-47790609D01*
X88879172Y-47790602D01*
X88733501Y-47730264D01*
X88733489Y-47730261D01*
X88578845Y-47699500D01*
X88578842Y-47699500D01*
X88421158Y-47699500D01*
X88421155Y-47699500D01*
X88266510Y-47730261D01*
X88266498Y-47730264D01*
X88120827Y-47790602D01*
X88120814Y-47790609D01*
X87989711Y-47878210D01*
X87989707Y-47878213D01*
X87878213Y-47989707D01*
X87853102Y-48027289D01*
X87799489Y-48072093D01*
X87730164Y-48080800D01*
X87667137Y-48050645D01*
X87646898Y-48027289D01*
X87636803Y-48012181D01*
X87621789Y-47989711D01*
X87621788Y-47989710D01*
X87621786Y-47989707D01*
X87510292Y-47878213D01*
X87510288Y-47878210D01*
X87379185Y-47790609D01*
X87379172Y-47790602D01*
X87233501Y-47730264D01*
X87233489Y-47730261D01*
X87078845Y-47699500D01*
X87078842Y-47699500D01*
X86921158Y-47699500D01*
X86921155Y-47699500D01*
X86766510Y-47730261D01*
X86766498Y-47730264D01*
X86620827Y-47790602D01*
X86620814Y-47790609D01*
X86489711Y-47878210D01*
X86489707Y-47878213D01*
X86378213Y-47989707D01*
X86378210Y-47989711D01*
X86290609Y-48120814D01*
X86290602Y-48120827D01*
X86230264Y-48266498D01*
X86230261Y-48266510D01*
X86199500Y-48421153D01*
X86199500Y-48578846D01*
X86230261Y-48733489D01*
X86230263Y-48733497D01*
X86240061Y-48757151D01*
X86249500Y-48804604D01*
X86249500Y-49073918D01*
X86249500Y-49073920D01*
X86249499Y-49073920D01*
X86278340Y-49218907D01*
X86278342Y-49218913D01*
X86282125Y-49228045D01*
X86289595Y-49297514D01*
X86258322Y-49359994D01*
X86198234Y-49395648D01*
X86167565Y-49399500D01*
X79300097Y-49399500D01*
X79270656Y-49390855D01*
X79240670Y-49384332D01*
X79235654Y-49380577D01*
X79233058Y-49379815D01*
X79212416Y-49363181D01*
X79037590Y-49188355D01*
X79037588Y-49188352D01*
X78918717Y-49069481D01*
X78918709Y-49069475D01*
X78823781Y-49014669D01*
X78823779Y-49014668D01*
X78781790Y-48990425D01*
X78781789Y-48990424D01*
X78758512Y-48984187D01*
X78629057Y-48949499D01*
X78470943Y-48949499D01*
X78463347Y-48949499D01*
X78463331Y-48949500D01*
X76033101Y-48949500D01*
X75968325Y-48930479D01*
X75968135Y-48930801D01*
X75966867Y-48930051D01*
X75966062Y-48929815D01*
X75963985Y-48928346D01*
X75825390Y-48846382D01*
X75825385Y-48846380D01*
X75673633Y-48802292D01*
X75673620Y-48802290D01*
X75638163Y-48799500D01*
X75261849Y-48799500D01*
X75261824Y-48799501D01*
X75226372Y-48802291D01*
X75074614Y-48846380D01*
X75074608Y-48846382D01*
X75063118Y-48853178D01*
X75053999Y-48855491D01*
X75046633Y-48861341D01*
X75020677Y-48863943D01*
X74995393Y-48870358D01*
X74984622Y-48867559D01*
X74977112Y-48868313D01*
X74953877Y-48859571D01*
X74943705Y-48856929D01*
X74940230Y-48855158D01*
X74925390Y-48846382D01*
X74919842Y-48844770D01*
X74909397Y-48839448D01*
X74897389Y-48828107D01*
X74878011Y-48816644D01*
X74409212Y-48347844D01*
X79000000Y-48347844D01*
X79006401Y-48407372D01*
X79006403Y-48407379D01*
X79056645Y-48542086D01*
X79056649Y-48542093D01*
X79142809Y-48657187D01*
X79142812Y-48657190D01*
X79257906Y-48743350D01*
X79257913Y-48743354D01*
X79392620Y-48793596D01*
X79392627Y-48793598D01*
X79452155Y-48799999D01*
X79452172Y-48800000D01*
X79700000Y-48800000D01*
X80200000Y-48800000D01*
X80447828Y-48800000D01*
X80447844Y-48799999D01*
X80507372Y-48793598D01*
X80507379Y-48793596D01*
X80642086Y-48743354D01*
X80642093Y-48743350D01*
X80757187Y-48657190D01*
X80757190Y-48657187D01*
X80843350Y-48542093D01*
X80843354Y-48542086D01*
X80893596Y-48407379D01*
X80893598Y-48407372D01*
X80899999Y-48347844D01*
X83100000Y-48347844D01*
X83106401Y-48407372D01*
X83106403Y-48407379D01*
X83156645Y-48542086D01*
X83156649Y-48542093D01*
X83242809Y-48657187D01*
X83242812Y-48657190D01*
X83357906Y-48743350D01*
X83357913Y-48743354D01*
X83492620Y-48793596D01*
X83492627Y-48793598D01*
X83552155Y-48799999D01*
X83552172Y-48800000D01*
X83800000Y-48800000D01*
X84300000Y-48800000D01*
X84547828Y-48800000D01*
X84547844Y-48799999D01*
X84607372Y-48793598D01*
X84607379Y-48793596D01*
X84742086Y-48743354D01*
X84742093Y-48743350D01*
X84857187Y-48657190D01*
X84857190Y-48657187D01*
X84943350Y-48542093D01*
X84943354Y-48542086D01*
X84993596Y-48407379D01*
X84993598Y-48407372D01*
X84999999Y-48347844D01*
X85000000Y-48347827D01*
X85000000Y-48050000D01*
X84300000Y-48050000D01*
X84300000Y-48800000D01*
X83800000Y-48800000D01*
X83800000Y-48050000D01*
X83100000Y-48050000D01*
X83100000Y-48347844D01*
X80899999Y-48347844D01*
X80900000Y-48347827D01*
X80900000Y-48050000D01*
X80200000Y-48050000D01*
X80200000Y-48800000D01*
X79700000Y-48800000D01*
X79700000Y-48050000D01*
X79000000Y-48050000D01*
X79000000Y-48347844D01*
X74409212Y-48347844D01*
X74147687Y-48086319D01*
X73678421Y-47617052D01*
X73678420Y-47617051D01*
X73678414Y-47617047D01*
X73591114Y-47558716D01*
X73555495Y-47534916D01*
X73555493Y-47534915D01*
X73555490Y-47534913D01*
X73418917Y-47478343D01*
X73418907Y-47478340D01*
X73273920Y-47449500D01*
X73273918Y-47449500D01*
X69932328Y-47449500D01*
X69897733Y-47444576D01*
X69752573Y-47402402D01*
X69752567Y-47402401D01*
X69715701Y-47399500D01*
X69715694Y-47399500D01*
X69034306Y-47399500D01*
X69034298Y-47399500D01*
X68997432Y-47402401D01*
X68997426Y-47402402D01*
X68839607Y-47448254D01*
X68839594Y-47448259D01*
X68836130Y-47450308D01*
X68797212Y-47465187D01*
X68731094Y-47478339D01*
X68731090Y-47478340D01*
X68731088Y-47478341D01*
X68651080Y-47511481D01*
X68651078Y-47511481D01*
X68594505Y-47534915D01*
X68543923Y-47568713D01*
X68517275Y-47586519D01*
X68512372Y-47589795D01*
X68471585Y-47617047D01*
X68471581Y-47617050D01*
X67363952Y-48724678D01*
X67363946Y-48724685D01*
X67326260Y-48781087D01*
X67326261Y-48781088D01*
X67281813Y-48847608D01*
X67225243Y-48984182D01*
X67225240Y-48984192D01*
X67196400Y-49129179D01*
X67196400Y-53982753D01*
X67176715Y-54049792D01*
X67123911Y-54095547D01*
X67059798Y-54106111D01*
X66999988Y-54100000D01*
X66550000Y-54100000D01*
X66550000Y-56299999D01*
X66724500Y-56299999D01*
X66791539Y-56319684D01*
X66837294Y-56372488D01*
X66848500Y-56423999D01*
X66848500Y-57576000D01*
X66828815Y-57643039D01*
X66776011Y-57688794D01*
X66724500Y-57700000D01*
X66550000Y-57700000D01*
X66550000Y-58676000D01*
X66530315Y-58743039D01*
X66477511Y-58788794D01*
X66426000Y-58800000D01*
X66174000Y-58800000D01*
X66106961Y-58780315D01*
X66061206Y-58727511D01*
X66050000Y-58676000D01*
X66050000Y-57700000D01*
X65600028Y-57700000D01*
X65600012Y-57700001D01*
X65497302Y-57710494D01*
X65413504Y-57738262D01*
X65343675Y-57740664D01*
X65283633Y-57704932D01*
X65252441Y-57642411D01*
X65250500Y-57620556D01*
X65250500Y-56379443D01*
X65270185Y-56312404D01*
X65322989Y-56266649D01*
X65392147Y-56256705D01*
X65413504Y-56261737D01*
X65497302Y-56289505D01*
X65497309Y-56289506D01*
X65600019Y-56299999D01*
X66049999Y-56299999D01*
X66050000Y-56299998D01*
X66050000Y-54100000D01*
X65600028Y-54100000D01*
X65600012Y-54100001D01*
X65497302Y-54110494D01*
X65413504Y-54138262D01*
X65385039Y-54139241D01*
X65356853Y-54143294D01*
X65350574Y-54140426D01*
X65343675Y-54140664D01*
X65319199Y-54126098D01*
X65293297Y-54114269D01*
X65289565Y-54108462D01*
X65283633Y-54104932D01*
X65270918Y-54079446D01*
X65255523Y-54055491D01*
X65254128Y-54045793D01*
X65252441Y-54042411D01*
X65250500Y-54020556D01*
X65250500Y-53923997D01*
X65270185Y-53856958D01*
X65322989Y-53811203D01*
X65343191Y-53806808D01*
X65350000Y-53799999D01*
X65850000Y-53799999D01*
X65879565Y-53799999D01*
X65947561Y-53793821D01*
X65947572Y-53793818D01*
X66104060Y-53745055D01*
X66104064Y-53745053D01*
X66244337Y-53660256D01*
X66244342Y-53660252D01*
X66360252Y-53544342D01*
X66360256Y-53544337D01*
X66445052Y-53404065D01*
X66493821Y-53247558D01*
X66498142Y-53200000D01*
X65850000Y-53200000D01*
X65850000Y-53799999D01*
X65350000Y-53799999D01*
X65350000Y-52700000D01*
X65850000Y-52700000D01*
X66498143Y-52700000D01*
X66498142Y-52699999D01*
X66493821Y-52652441D01*
X66445052Y-52495934D01*
X66360256Y-52355662D01*
X66360252Y-52355657D01*
X66244342Y-52239747D01*
X66244337Y-52239743D01*
X66104065Y-52154947D01*
X65947562Y-52106179D01*
X65879556Y-52100000D01*
X65850000Y-52100000D01*
X65850000Y-52700000D01*
X65350000Y-52700000D01*
X65350000Y-52111640D01*
X65301385Y-52076149D01*
X65282261Y-52051231D01*
X65261706Y-52027509D01*
X65260776Y-52023236D01*
X65258846Y-52020721D01*
X65257983Y-52010395D01*
X65250500Y-51975998D01*
X65250500Y-48023997D01*
X65270185Y-47956958D01*
X65322989Y-47911203D01*
X65343191Y-47906808D01*
X65350000Y-47899999D01*
X65850000Y-47899999D01*
X65879565Y-47899999D01*
X65947561Y-47893821D01*
X65947572Y-47893818D01*
X66104060Y-47845055D01*
X66104064Y-47845053D01*
X66244337Y-47760256D01*
X66244342Y-47760252D01*
X66360252Y-47644342D01*
X66360256Y-47644337D01*
X66445052Y-47504065D01*
X66493821Y-47347558D01*
X66498142Y-47300000D01*
X65850000Y-47300000D01*
X65850000Y-47899999D01*
X65350000Y-47899999D01*
X65350000Y-47174000D01*
X65369685Y-47106961D01*
X65422489Y-47061206D01*
X65474000Y-47050000D01*
X65600000Y-47050000D01*
X65600000Y-46924000D01*
X65619685Y-46856961D01*
X65672489Y-46811206D01*
X65724000Y-46800000D01*
X66498143Y-46800000D01*
X66498142Y-46799999D01*
X66493821Y-46752441D01*
X66445052Y-46595934D01*
X66360256Y-46455662D01*
X66360252Y-46455657D01*
X66244342Y-46339747D01*
X66244337Y-46339743D01*
X66104064Y-46254946D01*
X66104060Y-46254944D01*
X65998506Y-46222053D01*
X65940358Y-46183316D01*
X65912384Y-46119291D01*
X65923466Y-46050305D01*
X65970084Y-45998262D01*
X66002513Y-45984108D01*
X79322130Y-42321213D01*
X97379500Y-42321213D01*
X97379500Y-42533786D01*
X97412753Y-42743739D01*
X97412753Y-42743741D01*
X97412754Y-42743743D01*
X97469564Y-42918586D01*
X97478444Y-42945914D01*
X97574951Y-43135320D01*
X97699890Y-43307286D01*
X97850213Y-43457609D01*
X98022182Y-43582550D01*
X98030946Y-43587016D01*
X98081742Y-43634991D01*
X98098536Y-43702812D01*
X98075998Y-43768947D01*
X98030946Y-43807984D01*
X98022182Y-43812449D01*
X97850213Y-43937390D01*
X97699890Y-44087713D01*
X97574951Y-44259679D01*
X97478444Y-44449085D01*
X97412753Y-44651260D01*
X97379500Y-44861213D01*
X97379500Y-45073786D01*
X97408392Y-45256206D01*
X97412754Y-45283743D01*
X97469266Y-45457669D01*
X97478444Y-45485914D01*
X97574951Y-45675320D01*
X97699890Y-45847286D01*
X97850213Y-45997609D01*
X98022179Y-46122548D01*
X98022181Y-46122549D01*
X98022184Y-46122551D01*
X98211588Y-46219057D01*
X98413757Y-46284746D01*
X98623713Y-46318000D01*
X98623714Y-46318000D01*
X98836286Y-46318000D01*
X98836287Y-46318000D01*
X99046243Y-46284746D01*
X99248412Y-46219057D01*
X99437816Y-46122551D01*
X99537255Y-46050305D01*
X99609786Y-45997609D01*
X99609788Y-45997606D01*
X99609792Y-45997604D01*
X99760104Y-45847292D01*
X99760106Y-45847288D01*
X99760109Y-45847286D01*
X99885048Y-45675320D01*
X99885047Y-45675320D01*
X99885051Y-45675316D01*
X99889514Y-45666554D01*
X99937488Y-45615759D01*
X100005308Y-45598963D01*
X100071444Y-45621499D01*
X100110484Y-45666554D01*
X100114591Y-45674615D01*
X100114951Y-45675320D01*
X100239890Y-45847286D01*
X100390213Y-45997609D01*
X100562179Y-46122548D01*
X100562181Y-46122549D01*
X100562184Y-46122551D01*
X100751588Y-46219057D01*
X100953757Y-46284746D01*
X101163713Y-46318000D01*
X101163714Y-46318000D01*
X101376286Y-46318000D01*
X101376287Y-46318000D01*
X101586243Y-46284746D01*
X101788412Y-46219057D01*
X101977816Y-46122551D01*
X102077255Y-46050305D01*
X102149786Y-45997609D01*
X102149788Y-45997606D01*
X102149792Y-45997604D01*
X102300104Y-45847292D01*
X102300106Y-45847288D01*
X102300109Y-45847286D01*
X102425048Y-45675320D01*
X102425047Y-45675320D01*
X102425051Y-45675316D01*
X102521557Y-45485912D01*
X102587246Y-45283743D01*
X102620500Y-45073787D01*
X102620500Y-44945000D01*
X107633551Y-44945000D01*
X108255000Y-45566448D01*
X108255001Y-45566448D01*
X108876447Y-44945000D01*
X107633551Y-44945000D01*
X102620500Y-44945000D01*
X102620500Y-44861213D01*
X102587246Y-44651257D01*
X102521557Y-44449088D01*
X102425051Y-44259684D01*
X102425049Y-44259681D01*
X102425048Y-44259679D01*
X102300109Y-44087713D01*
X102149786Y-43937390D01*
X101977820Y-43812451D01*
X101977115Y-43812091D01*
X101969054Y-43807985D01*
X101918259Y-43760012D01*
X101901463Y-43692192D01*
X101923999Y-43626056D01*
X101969054Y-43587015D01*
X101977816Y-43582551D01*
X101999789Y-43566586D01*
X102149786Y-43457609D01*
X102149788Y-43457606D01*
X102149792Y-43457604D01*
X102300104Y-43307292D01*
X102300106Y-43307288D01*
X102300109Y-43307286D01*
X102425048Y-43135320D01*
X102425047Y-43135320D01*
X102425051Y-43135316D01*
X102513888Y-42960964D01*
X106738500Y-42960964D01*
X106738500Y-43799037D01*
X106753824Y-43915448D01*
X106753828Y-43915460D01*
X106813829Y-44060318D01*
X106813831Y-44060321D01*
X106836930Y-44090423D01*
X106909284Y-44184716D01*
X106990340Y-44246913D01*
X107033678Y-44280168D01*
X107033681Y-44280170D01*
X107125028Y-44318006D01*
X107178543Y-44340173D01*
X107294965Y-44355500D01*
X109215034Y-44355499D01*
X109215037Y-44355499D01*
X109331448Y-44340175D01*
X109331452Y-44340173D01*
X109331457Y-44340173D01*
X109456557Y-44288355D01*
X109476318Y-44280170D01*
X109476321Y-44280168D01*
X109600716Y-44184716D01*
X109696169Y-44060320D01*
X109756173Y-43915457D01*
X109771500Y-43799035D01*
X109771499Y-42960966D01*
X109771499Y-42960964D01*
X109771499Y-42960962D01*
X109756175Y-42844551D01*
X109756173Y-42844544D01*
X109756173Y-42844543D01*
X109720060Y-42757358D01*
X109696170Y-42699681D01*
X109696168Y-42699678D01*
X109662913Y-42656340D01*
X109600716Y-42575284D01*
X109538518Y-42527557D01*
X109476321Y-42479831D01*
X109476318Y-42479829D01*
X109331460Y-42419828D01*
X109331455Y-42419826D01*
X109215035Y-42404500D01*
X107294962Y-42404500D01*
X107178551Y-42419824D01*
X107178539Y-42419828D01*
X107033681Y-42479829D01*
X107033678Y-42479831D01*
X106909284Y-42575284D01*
X106813831Y-42699678D01*
X106813829Y-42699681D01*
X106753828Y-42844539D01*
X106753826Y-42844544D01*
X106738500Y-42960964D01*
X102513888Y-42960964D01*
X102521557Y-42945912D01*
X102587246Y-42743743D01*
X102620500Y-42533787D01*
X102620500Y-42321213D01*
X102587246Y-42111257D01*
X102521557Y-41909088D01*
X102425051Y-41719684D01*
X102425049Y-41719681D01*
X102425048Y-41719679D01*
X102300109Y-41547713D01*
X102149786Y-41397390D01*
X101977820Y-41272451D01*
X101788414Y-41175944D01*
X101788413Y-41175943D01*
X101788412Y-41175943D01*
X101586243Y-41110254D01*
X101586241Y-41110253D01*
X101586240Y-41110253D01*
X101424957Y-41084708D01*
X101376287Y-41077000D01*
X101163713Y-41077000D01*
X101115042Y-41084708D01*
X100953760Y-41110253D01*
X100751585Y-41175944D01*
X100562179Y-41272451D01*
X100390213Y-41397390D01*
X100239890Y-41547713D01*
X100114949Y-41719682D01*
X100110484Y-41728446D01*
X100062509Y-41779242D01*
X99994688Y-41796036D01*
X99928553Y-41773498D01*
X99889516Y-41728446D01*
X99885050Y-41719682D01*
X99760109Y-41547713D01*
X99609786Y-41397390D01*
X99437820Y-41272451D01*
X99248414Y-41175944D01*
X99248413Y-41175943D01*
X99248412Y-41175943D01*
X99046243Y-41110254D01*
X99046241Y-41110253D01*
X99046240Y-41110253D01*
X98884957Y-41084708D01*
X98836287Y-41077000D01*
X98623713Y-41077000D01*
X98575042Y-41084708D01*
X98413760Y-41110253D01*
X98211585Y-41175944D01*
X98022179Y-41272451D01*
X97850213Y-41397390D01*
X97699890Y-41547713D01*
X97574951Y-41719679D01*
X97478444Y-41909085D01*
X97412753Y-42111260D01*
X97379500Y-42321213D01*
X79322130Y-42321213D01*
X84893671Y-40789039D01*
X84893672Y-40789040D01*
X84933643Y-40778047D01*
X84938923Y-40776722D01*
X84996209Y-40763692D01*
X85007109Y-40761721D01*
X85062558Y-40754235D01*
X85073562Y-40753248D01*
X85123390Y-40751018D01*
X85132207Y-40750624D01*
X85137749Y-40750500D01*
X99950172Y-40750500D01*
X114862229Y-40750500D01*
X114867772Y-40750624D01*
G37*
%TD.AperFunction*%
%TA.AperFunction,Conductor*%
G36*
X96235587Y-61844185D02*
G01*
X96256229Y-61860819D01*
X96308729Y-61913319D01*
X96342214Y-61974642D01*
X96337230Y-62044334D01*
X96295358Y-62100267D01*
X96229894Y-62124684D01*
X96221048Y-62125000D01*
X96108754Y-62125000D01*
X95898872Y-62158242D01*
X95898869Y-62158242D01*
X95696782Y-62223904D01*
X95507439Y-62320380D01*
X95453282Y-62359727D01*
X95453282Y-62359728D01*
X96085591Y-62992037D01*
X96022007Y-63009075D01*
X95907993Y-63074901D01*
X95814901Y-63167993D01*
X95749075Y-63282007D01*
X95732037Y-63345591D01*
X95061818Y-62675372D01*
X95028333Y-62614049D01*
X95025499Y-62587691D01*
X95025499Y-62577129D01*
X95025498Y-62577123D01*
X95025497Y-62577116D01*
X95019091Y-62517517D01*
X94968796Y-62382669D01*
X94968795Y-62382668D01*
X94968793Y-62382664D01*
X94882547Y-62267455D01*
X94882544Y-62267452D01*
X94767335Y-62181206D01*
X94767328Y-62181202D01*
X94632482Y-62130908D01*
X94632483Y-62130908D01*
X94572883Y-62124501D01*
X94572881Y-62124500D01*
X94572873Y-62124500D01*
X94572864Y-62124500D01*
X92777129Y-62124500D01*
X92777123Y-62124501D01*
X92717516Y-62130908D01*
X92582671Y-62181202D01*
X92582664Y-62181206D01*
X92467455Y-62267452D01*
X92467452Y-62267455D01*
X92381206Y-62382664D01*
X92381202Y-62382671D01*
X92330908Y-62517517D01*
X92325846Y-62564606D01*
X92324501Y-62577123D01*
X92324500Y-62577135D01*
X92324500Y-62650500D01*
X92304815Y-62717539D01*
X92252011Y-62763294D01*
X92200500Y-62774500D01*
X89961450Y-62774500D01*
X89894411Y-62754815D01*
X89848656Y-62702011D01*
X89838712Y-62632853D01*
X89855333Y-62586350D01*
X89868478Y-62564606D01*
X89919086Y-62402196D01*
X89925500Y-62331616D01*
X89925500Y-61948500D01*
X89945185Y-61881461D01*
X89997989Y-61835706D01*
X90049500Y-61824500D01*
X96168548Y-61824500D01*
X96235587Y-61844185D01*
G37*
%TD.AperFunction*%
%TA.AperFunction,Conductor*%
G36*
X130302267Y-57255424D02*
G01*
X130447426Y-57297597D01*
X130447429Y-57297597D01*
X130447431Y-57297598D01*
X130484306Y-57300500D01*
X131051000Y-57300500D01*
X131059685Y-57303050D01*
X131068647Y-57301762D01*
X131092687Y-57312740D01*
X131118039Y-57320185D01*
X131123966Y-57327025D01*
X131132203Y-57330787D01*
X131146492Y-57353021D01*
X131163794Y-57372989D01*
X131166081Y-57383503D01*
X131169977Y-57389565D01*
X131175000Y-57424500D01*
X131175000Y-57626000D01*
X131155315Y-57693039D01*
X131102511Y-57738794D01*
X131051000Y-57750000D01*
X129902705Y-57750000D01*
X129902704Y-57750001D01*
X129902899Y-57752486D01*
X129948718Y-57910198D01*
X130036288Y-58058271D01*
X130034566Y-58059288D01*
X130056257Y-58114545D01*
X130042572Y-58183062D01*
X129994017Y-58233303D01*
X129932742Y-58249500D01*
X128870372Y-58249500D01*
X128841538Y-58255234D01*
X128841539Y-58255235D01*
X128725389Y-58278339D01*
X128725385Y-58278340D01*
X128660672Y-58305146D01*
X128588799Y-58334916D01*
X128539566Y-58367811D01*
X128539567Y-58367812D01*
X128465881Y-58417047D01*
X128312880Y-58570047D01*
X128273216Y-58596691D01*
X126114009Y-59503558D01*
X126044577Y-59511369D01*
X125981945Y-59480402D01*
X125945996Y-59420490D01*
X125948146Y-59350653D01*
X125978311Y-59301551D01*
X126801448Y-58478415D01*
X127993044Y-57286819D01*
X128054367Y-57253334D01*
X128080725Y-57250500D01*
X130267672Y-57250500D01*
X130302267Y-57255424D01*
G37*
%TD.AperFunction*%
%TA.AperFunction,Conductor*%
G36*
X105357978Y-50805903D02*
G01*
X105402325Y-50834404D01*
X105489707Y-50921786D01*
X105489711Y-50921789D01*
X105620814Y-51009390D01*
X105620827Y-51009397D01*
X105735316Y-51056819D01*
X105766503Y-51069737D01*
X105921153Y-51100499D01*
X105921156Y-51100500D01*
X105921158Y-51100500D01*
X106078844Y-51100500D01*
X106078845Y-51100499D01*
X106233497Y-51069737D01*
X106379179Y-51009394D01*
X106510289Y-50921789D01*
X106526817Y-50905261D01*
X106588139Y-50871774D01*
X106657831Y-50876757D01*
X106713765Y-50918627D01*
X106738184Y-50984091D01*
X106738500Y-50992940D01*
X106738500Y-51419037D01*
X106753824Y-51535448D01*
X106753828Y-51535460D01*
X106813829Y-51680318D01*
X106813831Y-51680321D01*
X106861557Y-51742518D01*
X106909284Y-51804716D01*
X106990340Y-51866913D01*
X107033678Y-51900168D01*
X107033681Y-51900170D01*
X107125028Y-51938006D01*
X107178543Y-51960173D01*
X107294965Y-51975500D01*
X107414500Y-51975499D01*
X107481539Y-51995183D01*
X107527294Y-52047987D01*
X107538500Y-52099499D01*
X107538500Y-52440500D01*
X107518815Y-52507539D01*
X107466011Y-52553294D01*
X107414501Y-52564500D01*
X107294963Y-52564500D01*
X107178551Y-52579824D01*
X107178539Y-52579828D01*
X107033681Y-52639829D01*
X107033678Y-52639831D01*
X106909284Y-52735284D01*
X106813831Y-52859678D01*
X106813829Y-52859681D01*
X106753828Y-53004539D01*
X106753826Y-53004544D01*
X106738500Y-53120964D01*
X106738500Y-53959037D01*
X106753824Y-54075448D01*
X106753828Y-54075460D01*
X106813829Y-54220317D01*
X106813831Y-54220320D01*
X106909284Y-54344716D01*
X106990340Y-54406913D01*
X107033678Y-54440168D01*
X107033681Y-54440170D01*
X107125028Y-54478006D01*
X107178543Y-54500173D01*
X107294965Y-54515500D01*
X107414500Y-54515499D01*
X107481539Y-54535183D01*
X107527294Y-54587987D01*
X107538500Y-54639499D01*
X107538500Y-54980500D01*
X107518815Y-55047539D01*
X107466011Y-55093294D01*
X107414501Y-55104500D01*
X107294963Y-55104500D01*
X107178551Y-55119824D01*
X107178539Y-55119828D01*
X107033681Y-55179829D01*
X107033678Y-55179831D01*
X106909284Y-55275284D01*
X106813831Y-55399678D01*
X106813829Y-55399681D01*
X106753828Y-55544539D01*
X106753826Y-55544544D01*
X106738500Y-55660964D01*
X106738500Y-56499037D01*
X106753824Y-56615448D01*
X106753828Y-56615460D01*
X106813829Y-56760318D01*
X106813831Y-56760321D01*
X106836463Y-56789815D01*
X106909284Y-56884716D01*
X106969558Y-56930966D01*
X107033678Y-56980168D01*
X107033681Y-56980170D01*
X107125028Y-57018006D01*
X107178543Y-57040173D01*
X107294965Y-57055500D01*
X107414500Y-57055499D01*
X107481539Y-57075183D01*
X107527294Y-57127987D01*
X107538500Y-57179499D01*
X107538500Y-57520500D01*
X107518815Y-57587539D01*
X107466011Y-57633294D01*
X107414501Y-57644500D01*
X107294963Y-57644500D01*
X107178551Y-57659824D01*
X107178539Y-57659828D01*
X107033681Y-57719829D01*
X107033678Y-57719831D01*
X106909284Y-57815284D01*
X106813831Y-57939678D01*
X106813829Y-57939681D01*
X106753828Y-58084539D01*
X106753826Y-58084544D01*
X106738648Y-58199838D01*
X106738500Y-58200965D01*
X106738500Y-58478415D01*
X106738501Y-58671500D01*
X106718817Y-58738539D01*
X106666013Y-58784294D01*
X106614501Y-58795500D01*
X93385500Y-58795500D01*
X93318461Y-58775815D01*
X93272706Y-58723011D01*
X93261500Y-58671500D01*
X93261499Y-58368857D01*
X93281183Y-58301818D01*
X93333987Y-58256063D01*
X93403146Y-58246119D01*
X93409691Y-58247240D01*
X93426079Y-58250500D01*
X93426082Y-58250500D01*
X98097755Y-58250500D01*
X98184206Y-58233303D01*
X98242748Y-58221658D01*
X98242762Y-58221651D01*
X98244561Y-58221107D01*
X98245565Y-58221097D01*
X98248722Y-58220470D01*
X98248841Y-58221068D01*
X98314428Y-58220476D01*
X98315164Y-58220688D01*
X98469745Y-58265598D01*
X98469748Y-58265598D01*
X98469750Y-58265599D01*
X98504362Y-58268323D01*
X98504370Y-58268323D01*
X99507654Y-58268323D01*
X99507662Y-58268323D01*
X99542274Y-58265599D01*
X99542276Y-58265598D01*
X99542278Y-58265598D01*
X99581335Y-58254250D01*
X99690398Y-58222565D01*
X99823166Y-58144046D01*
X99918685Y-58048526D01*
X99980006Y-58015043D01*
X100049698Y-58020027D01*
X100094046Y-58048528D01*
X100189161Y-58143643D01*
X100189170Y-58143650D01*
X100321825Y-58222102D01*
X100469829Y-58265100D01*
X100469834Y-58265101D01*
X100504408Y-58267822D01*
X100504420Y-58267823D01*
X101507604Y-58267823D01*
X101507615Y-58267822D01*
X101542189Y-58265101D01*
X101542194Y-58265100D01*
X101690198Y-58222102D01*
X101822853Y-58143650D01*
X101822862Y-58143643D01*
X101931832Y-58034673D01*
X101931839Y-58034664D01*
X102010291Y-57902009D01*
X102021947Y-57861885D01*
X101973212Y-57833065D01*
X101948649Y-57814012D01*
X101281901Y-57147264D01*
X101306087Y-57123078D01*
X101355456Y-57037568D01*
X101381012Y-56942193D01*
X101381012Y-56539271D01*
X102056011Y-57214271D01*
X102056012Y-57214270D01*
X102056012Y-55821375D01*
X102056011Y-55821374D01*
X101381012Y-56496373D01*
X101381012Y-56093453D01*
X101355456Y-55998078D01*
X101306087Y-55912568D01*
X101281900Y-55888381D01*
X101948650Y-55221632D01*
X101973211Y-55202580D01*
X102021947Y-55173758D01*
X102010291Y-55133636D01*
X101931839Y-55000981D01*
X101931832Y-55000972D01*
X101822862Y-54892002D01*
X101822853Y-54891995D01*
X101690198Y-54813543D01*
X101690193Y-54813541D01*
X101548759Y-54772451D01*
X101489873Y-54734845D01*
X101460667Y-54671373D01*
X101470413Y-54602186D01*
X101495671Y-54565696D01*
X105226963Y-50834403D01*
X105288286Y-50800919D01*
X105357978Y-50805903D01*
G37*
%TD.AperFunction*%
%TA.AperFunction,Conductor*%
G36*
X125065558Y-51601500D02*
G01*
X125066024Y-51601500D01*
X125066025Y-51601500D01*
X125376738Y-51601500D01*
X125443777Y-51621185D01*
X125489532Y-51673989D01*
X125499476Y-51743147D01*
X125470451Y-51806703D01*
X125464419Y-51813181D01*
X119689419Y-57588181D01*
X119628096Y-57621666D01*
X119601738Y-57624500D01*
X119201602Y-57624500D01*
X119134563Y-57604815D01*
X119095486Y-57564651D01*
X119080471Y-57539814D01*
X119080468Y-57539810D01*
X118960188Y-57419530D01*
X118900592Y-57383503D01*
X118814606Y-57331522D01*
X118652196Y-57280914D01*
X118652194Y-57280913D01*
X118652192Y-57280913D01*
X118602778Y-57276423D01*
X118581616Y-57274500D01*
X118068384Y-57274500D01*
X118049145Y-57276248D01*
X117997807Y-57280913D01*
X117835393Y-57331522D01*
X117689811Y-57419530D01*
X117689810Y-57419531D01*
X117587681Y-57521661D01*
X117526358Y-57555146D01*
X117456666Y-57550162D01*
X117412319Y-57521661D01*
X117310188Y-57419530D01*
X117250592Y-57383503D01*
X117164606Y-57331522D01*
X117002196Y-57280914D01*
X117002194Y-57280913D01*
X117002192Y-57280913D01*
X116952778Y-57276423D01*
X116931616Y-57274500D01*
X116418384Y-57274500D01*
X116399145Y-57276248D01*
X116347807Y-57280913D01*
X116185393Y-57331522D01*
X116039811Y-57419530D01*
X115919530Y-57539811D01*
X115831522Y-57685393D01*
X115780913Y-57847807D01*
X115775560Y-57906722D01*
X115749889Y-57971705D01*
X115693161Y-58012493D01*
X115652069Y-58019500D01*
X109879920Y-58019500D01*
X109812881Y-57999815D01*
X109767126Y-57947011D01*
X109756981Y-57879316D01*
X109771500Y-57769035D01*
X109771499Y-56930966D01*
X109771499Y-56930964D01*
X109771499Y-56930962D01*
X109756175Y-56814551D01*
X109756173Y-56814547D01*
X109756173Y-56814543D01*
X109734595Y-56762450D01*
X109727127Y-56692984D01*
X109734594Y-56667552D01*
X109756173Y-56615457D01*
X109771500Y-56499035D01*
X109771499Y-55660966D01*
X109771499Y-55660964D01*
X109771499Y-55660962D01*
X109756175Y-55544551D01*
X109756173Y-55544547D01*
X109756173Y-55544543D01*
X109734595Y-55492450D01*
X109727127Y-55422984D01*
X109734594Y-55397552D01*
X109756173Y-55345457D01*
X109771500Y-55229035D01*
X109771499Y-54390966D01*
X109771499Y-54390962D01*
X109765823Y-54347844D01*
X114950000Y-54347844D01*
X114956401Y-54407372D01*
X114956403Y-54407379D01*
X115006645Y-54542086D01*
X115006649Y-54542093D01*
X115092809Y-54657187D01*
X115092812Y-54657190D01*
X115207906Y-54743350D01*
X115207913Y-54743354D01*
X115342620Y-54793596D01*
X115342627Y-54793598D01*
X115402155Y-54799999D01*
X115402172Y-54800000D01*
X115650000Y-54800000D01*
X116150000Y-54800000D01*
X116397828Y-54800000D01*
X116397844Y-54799999D01*
X116457372Y-54793598D01*
X116457379Y-54793596D01*
X116592086Y-54743354D01*
X116592093Y-54743350D01*
X116707187Y-54657190D01*
X116707190Y-54657187D01*
X116793350Y-54542093D01*
X116793354Y-54542086D01*
X116843596Y-54407379D01*
X116843598Y-54407372D01*
X116849999Y-54347844D01*
X119050000Y-54347844D01*
X119056401Y-54407372D01*
X119056403Y-54407379D01*
X119106645Y-54542086D01*
X119106649Y-54542093D01*
X119192809Y-54657187D01*
X119192812Y-54657190D01*
X119307906Y-54743350D01*
X119307913Y-54743354D01*
X119442620Y-54793596D01*
X119442627Y-54793598D01*
X119502155Y-54799999D01*
X119502172Y-54800000D01*
X119750000Y-54800000D01*
X120250000Y-54800000D01*
X120497828Y-54800000D01*
X120497844Y-54799999D01*
X120557372Y-54793598D01*
X120557379Y-54793596D01*
X120692086Y-54743354D01*
X120692093Y-54743350D01*
X120807187Y-54657190D01*
X120807190Y-54657187D01*
X120893350Y-54542093D01*
X120893354Y-54542086D01*
X120943596Y-54407379D01*
X120943598Y-54407372D01*
X120949999Y-54347844D01*
X120950000Y-54347827D01*
X120950000Y-54050000D01*
X120250000Y-54050000D01*
X120250000Y-54800000D01*
X119750000Y-54800000D01*
X119750000Y-54050000D01*
X119050000Y-54050000D01*
X119050000Y-54347844D01*
X116849999Y-54347844D01*
X116850000Y-54347827D01*
X116850000Y-54050000D01*
X116150000Y-54050000D01*
X116150000Y-54800000D01*
X115650000Y-54800000D01*
X115650000Y-54050000D01*
X114950000Y-54050000D01*
X114950000Y-54347844D01*
X109765823Y-54347844D01*
X109756175Y-54274551D01*
X109756173Y-54274547D01*
X109756173Y-54274543D01*
X109734595Y-54222450D01*
X109727127Y-54152984D01*
X109728561Y-54146144D01*
X109730841Y-54136612D01*
X109756173Y-54075457D01*
X109771500Y-53959035D01*
X109771499Y-53120966D01*
X109771499Y-53120964D01*
X109771499Y-53120962D01*
X109756175Y-53004551D01*
X109756173Y-53004547D01*
X109756173Y-53004543D01*
X109734595Y-52952450D01*
X109727127Y-52882984D01*
X109727776Y-52879648D01*
X109730149Y-52868282D01*
X109756173Y-52805457D01*
X109771500Y-52689035D01*
X109771499Y-52670304D01*
X109774118Y-52657770D01*
X109784802Y-52637811D01*
X109791177Y-52616093D01*
X109800973Y-52607602D01*
X109807093Y-52596171D01*
X109826870Y-52585157D01*
X109843976Y-52570333D01*
X109856810Y-52568486D01*
X109868137Y-52562179D01*
X109890725Y-52563606D01*
X109913134Y-52560382D01*
X109935112Y-52566410D01*
X109937867Y-52566585D01*
X109939127Y-52567512D01*
X109942951Y-52568561D01*
X110066498Y-52619735D01*
X110066503Y-52619737D01*
X110221153Y-52650499D01*
X110221156Y-52650500D01*
X110350069Y-52650500D01*
X110417108Y-52670185D01*
X110425557Y-52676125D01*
X110431281Y-52680517D01*
X110431284Y-52680520D01*
X110431287Y-52680521D01*
X110431290Y-52680524D01*
X110547942Y-52747872D01*
X110568216Y-52759577D01*
X110680019Y-52789534D01*
X110720942Y-52800500D01*
X110720943Y-52800500D01*
X114867209Y-52800500D01*
X114887702Y-52806517D01*
X114909025Y-52807764D01*
X114920557Y-52816165D01*
X114934248Y-52820185D01*
X114948233Y-52836325D01*
X114965500Y-52848903D01*
X114976817Y-52869313D01*
X114980003Y-52872989D01*
X114982816Y-52879657D01*
X114983131Y-52880470D01*
X115006204Y-52942331D01*
X115008119Y-52944889D01*
X115012306Y-52955683D01*
X115014599Y-52982786D01*
X115020383Y-53009367D01*
X115017640Y-53018710D01*
X115018198Y-53025303D01*
X115012598Y-53035883D01*
X115008687Y-53049206D01*
X115009746Y-53049601D01*
X114956403Y-53192620D01*
X114956401Y-53192627D01*
X114950000Y-53252155D01*
X114950000Y-53550000D01*
X116850000Y-53550000D01*
X116850000Y-53252172D01*
X116849999Y-53252155D01*
X116843598Y-53192627D01*
X116843597Y-53192623D01*
X116790253Y-53049602D01*
X116791767Y-53049037D01*
X116786882Y-53025083D01*
X116779616Y-52991674D01*
X116779853Y-52990615D01*
X116779742Y-52990069D01*
X116780664Y-52987000D01*
X116787693Y-52955683D01*
X116791878Y-52944892D01*
X116793796Y-52942331D01*
X116816893Y-52880403D01*
X116817183Y-52879657D01*
X116837993Y-52852598D01*
X116858479Y-52825233D01*
X116859266Y-52824939D01*
X116859779Y-52824273D01*
X116891939Y-52812752D01*
X116923943Y-52800816D01*
X116925409Y-52800763D01*
X116925556Y-52800711D01*
X116925733Y-52800752D01*
X116932790Y-52800500D01*
X118967209Y-52800500D01*
X119034248Y-52820185D01*
X119080003Y-52872989D01*
X119083391Y-52881167D01*
X119109303Y-52950641D01*
X119107733Y-52951226D01*
X119120383Y-53009367D01*
X119108687Y-53049206D01*
X119109746Y-53049601D01*
X119056403Y-53192620D01*
X119056401Y-53192627D01*
X119050000Y-53252155D01*
X119050000Y-53550000D01*
X120950000Y-53550000D01*
X120950000Y-53252172D01*
X120949999Y-53252155D01*
X120943598Y-53192627D01*
X120943597Y-53192623D01*
X120890253Y-53049602D01*
X120892067Y-53048925D01*
X120879616Y-52991674D01*
X120891570Y-52950966D01*
X120890696Y-52950640D01*
X120893794Y-52942333D01*
X120893796Y-52942331D01*
X120944091Y-52807483D01*
X120950500Y-52747873D01*
X120950499Y-51724499D01*
X120970183Y-51657461D01*
X121022987Y-51611706D01*
X121074499Y-51600500D01*
X125050302Y-51600500D01*
X125065558Y-51601500D01*
G37*
%TD.AperFunction*%
%TA.AperFunction,Conductor*%
G36*
X72904809Y-48970185D02*
G01*
X72925451Y-48986819D01*
X73816644Y-49878011D01*
X73817636Y-49879688D01*
X73819112Y-49880550D01*
X73839448Y-49909397D01*
X73844770Y-49919842D01*
X73846382Y-49925390D01*
X73855158Y-49940230D01*
X73856929Y-49943705D01*
X73862688Y-49974372D01*
X73870358Y-50004607D01*
X73869082Y-50008420D01*
X73869825Y-50012374D01*
X73853178Y-50063118D01*
X73846382Y-50074608D01*
X73846380Y-50074614D01*
X73802292Y-50226366D01*
X73802290Y-50226379D01*
X73799500Y-50261829D01*
X73799500Y-50638150D01*
X73799501Y-50638175D01*
X73802291Y-50673627D01*
X73846380Y-50825385D01*
X73846382Y-50825390D01*
X73926827Y-50961416D01*
X73926834Y-50961425D01*
X74038574Y-51073165D01*
X74038583Y-51073172D01*
X74084791Y-51100499D01*
X74174610Y-51153618D01*
X74326373Y-51197709D01*
X74361837Y-51200500D01*
X74738162Y-51200499D01*
X74773627Y-51197709D01*
X74925390Y-51153618D01*
X74937370Y-51146532D01*
X75005090Y-51129349D01*
X75063613Y-51146533D01*
X75074807Y-51153153D01*
X75074814Y-51153156D01*
X75199999Y-51189525D01*
X75200000Y-51189525D01*
X75700000Y-51189525D01*
X75825185Y-51153156D01*
X75825191Y-51153154D01*
X75961108Y-51072773D01*
X75961116Y-51072767D01*
X76072767Y-50961116D01*
X76072773Y-50961108D01*
X76153154Y-50825191D01*
X76153156Y-50825185D01*
X76189525Y-50700000D01*
X75700000Y-50700000D01*
X75700000Y-51189525D01*
X75200000Y-51189525D01*
X75200000Y-50949975D01*
X75217267Y-50886855D01*
X75253618Y-50825390D01*
X75297709Y-50673627D01*
X75300500Y-50638163D01*
X75300499Y-50573637D01*
X75300502Y-50573267D01*
X75310474Y-50540030D01*
X75320185Y-50506961D01*
X75320471Y-50506712D01*
X75320582Y-50506345D01*
X75346975Y-50483747D01*
X75372989Y-50461206D01*
X75373408Y-50461114D01*
X75373656Y-50460903D01*
X75375634Y-50460630D01*
X75424500Y-50450000D01*
X75450000Y-50450000D01*
X75450000Y-50424499D01*
X75469685Y-50357460D01*
X75522489Y-50311705D01*
X75574000Y-50300499D01*
X75638150Y-50300499D01*
X75638162Y-50300499D01*
X75673627Y-50297709D01*
X75825390Y-50253618D01*
X75886854Y-50217267D01*
X75949975Y-50200000D01*
X76189554Y-50200000D01*
X76245481Y-50158257D01*
X76288650Y-50150500D01*
X78249903Y-50150500D01*
X78316942Y-50170185D01*
X78337584Y-50186819D01*
X78515139Y-50364374D01*
X78515149Y-50364385D01*
X78519479Y-50368715D01*
X78519480Y-50368716D01*
X78631284Y-50480520D01*
X78631286Y-50480521D01*
X78631290Y-50480524D01*
X78715352Y-50529057D01*
X78715353Y-50529057D01*
X78768215Y-50559577D01*
X78920943Y-50600500D01*
X79079057Y-50600500D01*
X86687944Y-50600500D01*
X86754983Y-50620185D01*
X86800738Y-50672989D01*
X86807020Y-50689905D01*
X86846380Y-50825385D01*
X86846382Y-50825390D01*
X86926827Y-50961416D01*
X86926834Y-50961425D01*
X87022228Y-51056819D01*
X87055713Y-51118142D01*
X87050729Y-51187834D01*
X87008857Y-51243767D01*
X86943393Y-51268184D01*
X86934547Y-51268500D01*
X84796499Y-51268500D01*
X84751495Y-51257011D01*
X84750641Y-51259303D01*
X84607482Y-51205908D01*
X84607483Y-51205908D01*
X84547883Y-51199501D01*
X84547881Y-51199500D01*
X84547873Y-51199500D01*
X84547864Y-51199500D01*
X83552129Y-51199500D01*
X83552123Y-51199501D01*
X83492516Y-51205908D01*
X83357671Y-51256202D01*
X83357664Y-51256206D01*
X83242455Y-51342452D01*
X83242452Y-51342455D01*
X83156206Y-51457664D01*
X83156202Y-51457671D01*
X83133391Y-51518833D01*
X83091520Y-51574767D01*
X83026056Y-51599184D01*
X83017209Y-51599500D01*
X80982791Y-51599500D01*
X80915752Y-51579815D01*
X80869997Y-51527011D01*
X80866609Y-51518833D01*
X80843797Y-51457671D01*
X80843793Y-51457664D01*
X80757547Y-51342455D01*
X80757544Y-51342452D01*
X80642335Y-51256206D01*
X80642328Y-51256202D01*
X80507482Y-51205908D01*
X80507483Y-51205908D01*
X80447883Y-51199501D01*
X80447881Y-51199500D01*
X80447873Y-51199500D01*
X80447864Y-51199500D01*
X79452129Y-51199500D01*
X79452123Y-51199501D01*
X79392516Y-51205908D01*
X79257671Y-51256202D01*
X79257664Y-51256206D01*
X79142455Y-51342452D01*
X79142452Y-51342455D01*
X79056206Y-51457664D01*
X79056202Y-51457671D01*
X79005908Y-51592517D01*
X78999501Y-51652116D01*
X78999500Y-51652135D01*
X78999500Y-52747870D01*
X78999501Y-52747876D01*
X79005908Y-52807483D01*
X79059303Y-52950641D01*
X79057733Y-52951226D01*
X79070383Y-53009367D01*
X79058687Y-53049206D01*
X79059746Y-53049601D01*
X79006403Y-53192620D01*
X79006401Y-53192627D01*
X79000000Y-53252155D01*
X79000000Y-53550000D01*
X80900000Y-53550000D01*
X80900000Y-53252172D01*
X80899999Y-53252155D01*
X80893598Y-53192627D01*
X80893597Y-53192623D01*
X80840253Y-53049602D01*
X80841767Y-53049037D01*
X80836882Y-53025083D01*
X80829616Y-52991674D01*
X80829853Y-52990615D01*
X80829742Y-52990069D01*
X80830664Y-52987000D01*
X80837693Y-52955683D01*
X80841878Y-52944892D01*
X80843796Y-52942331D01*
X80866893Y-52880403D01*
X80867183Y-52879657D01*
X80887993Y-52852598D01*
X80908479Y-52825233D01*
X80909266Y-52824939D01*
X80909779Y-52824273D01*
X80941939Y-52812752D01*
X80973943Y-52800816D01*
X80975409Y-52800763D01*
X80975556Y-52800711D01*
X80975733Y-52800752D01*
X80982790Y-52800500D01*
X83017209Y-52800500D01*
X83084248Y-52820185D01*
X83130003Y-52872989D01*
X83133391Y-52881167D01*
X83159303Y-52950641D01*
X83157733Y-52951226D01*
X83170383Y-53009367D01*
X83158687Y-53049206D01*
X83159746Y-53049601D01*
X83106403Y-53192620D01*
X83106401Y-53192627D01*
X83100000Y-53252155D01*
X83100000Y-53550000D01*
X85000000Y-53550000D01*
X85000000Y-53252172D01*
X84999999Y-53252155D01*
X84993598Y-53192627D01*
X84993597Y-53192623D01*
X84940253Y-53049602D01*
X84942067Y-53048925D01*
X84929616Y-52991674D01*
X84941570Y-52950966D01*
X84940696Y-52950640D01*
X84943794Y-52942333D01*
X84943796Y-52942331D01*
X84994091Y-52807483D01*
X85000500Y-52747873D01*
X85000500Y-52593500D01*
X85020185Y-52526461D01*
X85072989Y-52480706D01*
X85124500Y-52469500D01*
X86596548Y-52469500D01*
X86663587Y-52489185D01*
X86709342Y-52541989D01*
X86719286Y-52611147D01*
X86690261Y-52674703D01*
X86684229Y-52681181D01*
X85211681Y-54153729D01*
X85150358Y-54187214D01*
X85080666Y-54182230D01*
X85024733Y-54140358D01*
X85000316Y-54074894D01*
X85000000Y-54066048D01*
X85000000Y-54050000D01*
X83100000Y-54050000D01*
X83100000Y-54199500D01*
X83080315Y-54266539D01*
X83027511Y-54312294D01*
X82976000Y-54323500D01*
X81414389Y-54323500D01*
X81353971Y-54335518D01*
X81316259Y-54343019D01*
X81293550Y-54347536D01*
X81288666Y-54349558D01*
X81260207Y-54361347D01*
X81179719Y-54394684D01*
X81179705Y-54394692D01*
X81128495Y-54428911D01*
X81128493Y-54428912D01*
X81128490Y-54428915D01*
X81092890Y-54452702D01*
X81026215Y-54473580D01*
X80958834Y-54455096D01*
X80912144Y-54403118D01*
X80900000Y-54349600D01*
X80900000Y-54050000D01*
X80200000Y-54050000D01*
X80200000Y-54752756D01*
X80180315Y-54819795D01*
X80140151Y-54858872D01*
X80039814Y-54919528D01*
X80039810Y-54919531D01*
X79919530Y-55039811D01*
X79831522Y-55185393D01*
X79780913Y-55347807D01*
X79776200Y-55399678D01*
X79775217Y-55410500D01*
X79774500Y-55418386D01*
X79774500Y-55801500D01*
X79754815Y-55868539D01*
X79702011Y-55914294D01*
X79650500Y-55925500D01*
X74436453Y-55925500D01*
X74369414Y-55905815D01*
X74348772Y-55889181D01*
X72807435Y-54347844D01*
X79000000Y-54347844D01*
X79006401Y-54407372D01*
X79006403Y-54407379D01*
X79056645Y-54542086D01*
X79056649Y-54542093D01*
X79142809Y-54657187D01*
X79142812Y-54657190D01*
X79257906Y-54743350D01*
X79257913Y-54743354D01*
X79392620Y-54793596D01*
X79392627Y-54793598D01*
X79452155Y-54799999D01*
X79452172Y-54800000D01*
X79700000Y-54800000D01*
X79700000Y-54050000D01*
X79000000Y-54050000D01*
X79000000Y-54347844D01*
X72807435Y-54347844D01*
X70336819Y-51877228D01*
X70303334Y-51815905D01*
X70300500Y-51789547D01*
X70300500Y-51584313D01*
X70300499Y-51584298D01*
X70300146Y-51579815D01*
X70297598Y-51547431D01*
X70294119Y-51535457D01*
X70251745Y-51389606D01*
X70251744Y-51389603D01*
X70251744Y-51389602D01*
X70176942Y-51263119D01*
X70159760Y-51195397D01*
X70176942Y-51136881D01*
X70251744Y-51010398D01*
X70285505Y-50894191D01*
X70297597Y-50852573D01*
X70297598Y-50852567D01*
X70300500Y-50815694D01*
X70300500Y-50384306D01*
X70297598Y-50347431D01*
X70291665Y-50327011D01*
X70259782Y-50217268D01*
X70251744Y-50189602D01*
X70176652Y-50062629D01*
X70159470Y-49994906D01*
X70176653Y-49936388D01*
X70251281Y-49810198D01*
X70297100Y-49652486D01*
X70297295Y-49650001D01*
X70297295Y-49650000D01*
X69499000Y-49650000D01*
X69431961Y-49630315D01*
X69386206Y-49577511D01*
X69375000Y-49526000D01*
X69375000Y-49274000D01*
X69394685Y-49206961D01*
X69447489Y-49161206D01*
X69499000Y-49150000D01*
X70297295Y-49150000D01*
X70297295Y-49149998D01*
X70297100Y-49147513D01*
X70285939Y-49109095D01*
X70286139Y-49039225D01*
X70324082Y-48980555D01*
X70387720Y-48951712D01*
X70405016Y-48950500D01*
X72837770Y-48950500D01*
X72904809Y-48970185D01*
G37*
%TD.AperFunction*%
%TA.AperFunction,Conductor*%
G36*
X117279343Y-50159144D02*
G01*
X117309330Y-50165668D01*
X117314345Y-50169422D01*
X117316942Y-50170185D01*
X117337584Y-50186819D01*
X117338584Y-50187819D01*
X117372069Y-50249142D01*
X117367085Y-50318834D01*
X117325213Y-50374767D01*
X117259749Y-50399184D01*
X117250903Y-50399500D01*
X113324000Y-50399500D01*
X113256961Y-50379815D01*
X113211206Y-50327011D01*
X113200000Y-50275500D01*
X113200000Y-50274500D01*
X113219685Y-50207461D01*
X113272489Y-50161706D01*
X113324000Y-50150500D01*
X117249903Y-50150500D01*
X117279343Y-50159144D01*
G37*
%TD.AperFunction*%
%TD*%
M02*
