%TF.GenerationSoftware,KiCad,Pcbnew,9.0.7-1.fc42*%
%TF.CreationDate,2026-02-18T22:12:25+00:00*%
%TF.ProjectId,cat-ears-controller,6361742d-6561-4727-932d-636f6e74726f,rev?*%
%TF.SameCoordinates,Original*%
%TF.FileFunction,Soldermask,Top*%
%TF.FilePolarity,Negative*%
%FSLAX46Y46*%
G04 Gerber Fmt 4.6, Leading zero omitted, Abs format (unit mm)*
G04 Created by KiCad (PCBNEW 9.0.7-1.fc42) date 2026-02-18 22:12:25*
%MOMM*%
%LPD*%
G01*
G04 APERTURE LIST*
%ADD10R,0.900000X1.000000*%
%ADD11R,1.700000X1.700000*%
%ADD12C,1.700000*%
%ADD13R,1.000000X0.800000*%
%ADD14C,0.900000*%
%ADD15R,0.700000X1.500000*%
G04 APERTURE END LIST*
%TO.C,R2*%
G36*
G01*
X82725000Y-57225000D02*
X82725000Y-57775000D01*
G75*
G02*
X82525000Y-57975000I-200000J0D01*
G01*
X82125000Y-57975000D01*
G75*
G02*
X81925000Y-57775000I0J200000D01*
G01*
X81925000Y-57225000D01*
G75*
G02*
X82125000Y-57025000I200000J0D01*
G01*
X82525000Y-57025000D01*
G75*
G02*
X82725000Y-57225000I0J-200000D01*
G01*
G37*
G36*
G01*
X81075000Y-57225000D02*
X81075000Y-57775000D01*
G75*
G02*
X80875000Y-57975000I-200000J0D01*
G01*
X80475000Y-57975000D01*
G75*
G02*
X80275000Y-57775000I0J200000D01*
G01*
X80275000Y-57225000D01*
G75*
G02*
X80475000Y-57025000I200000J0D01*
G01*
X80875000Y-57025000D01*
G75*
G02*
X81075000Y-57225000I0J-200000D01*
G01*
G37*
%TD*%
%TO.C,R4*%
G36*
G01*
X118725000Y-59725000D02*
X118725000Y-60275000D01*
G75*
G02*
X118525000Y-60475000I-200000J0D01*
G01*
X118125000Y-60475000D01*
G75*
G02*
X117925000Y-60275000I0J200000D01*
G01*
X117925000Y-59725000D01*
G75*
G02*
X118125000Y-59525000I200000J0D01*
G01*
X118525000Y-59525000D01*
G75*
G02*
X118725000Y-59725000I0J-200000D01*
G01*
G37*
G36*
G01*
X117075000Y-59725000D02*
X117075000Y-60275000D01*
G75*
G02*
X116875000Y-60475000I-200000J0D01*
G01*
X116475000Y-60475000D01*
G75*
G02*
X116275000Y-60275000I0J200000D01*
G01*
X116275000Y-59725000D01*
G75*
G02*
X116475000Y-59525000I200000J0D01*
G01*
X116875000Y-59525000D01*
G75*
G02*
X117075000Y-59725000I0J-200000D01*
G01*
G37*
%TD*%
%TO.C,J5*%
G36*
G01*
X69450000Y-57800000D02*
X68200000Y-57800000D01*
G75*
G02*
X68050000Y-57650000I0J150000D01*
G01*
X68050000Y-57350000D01*
G75*
G02*
X68200000Y-57200000I150000J0D01*
G01*
X69450000Y-57200000D01*
G75*
G02*
X69600000Y-57350000I0J-150000D01*
G01*
X69600000Y-57650000D01*
G75*
G02*
X69450000Y-57800000I-150000J0D01*
G01*
G37*
G36*
G01*
X69450000Y-56800000D02*
X68200000Y-56800000D01*
G75*
G02*
X68050000Y-56650000I0J150000D01*
G01*
X68050000Y-56350000D01*
G75*
G02*
X68200000Y-56200000I150000J0D01*
G01*
X69450000Y-56200000D01*
G75*
G02*
X69600000Y-56350000I0J-150000D01*
G01*
X69600000Y-56650000D01*
G75*
G02*
X69450000Y-56800000I-150000J0D01*
G01*
G37*
G36*
G01*
X66950000Y-59400000D02*
X65650000Y-59400000D01*
G75*
G02*
X65400000Y-59150000I0J250000D01*
G01*
X65400000Y-58450000D01*
G75*
G02*
X65650000Y-58200000I250000J0D01*
G01*
X66950000Y-58200000D01*
G75*
G02*
X67200000Y-58450000I0J-250000D01*
G01*
X67200000Y-59150000D01*
G75*
G02*
X66950000Y-59400000I-250000J0D01*
G01*
G37*
G36*
G01*
X66950000Y-55800000D02*
X65650000Y-55800000D01*
G75*
G02*
X65400000Y-55550000I0J250000D01*
G01*
X65400000Y-54850000D01*
G75*
G02*
X65650000Y-54600000I250000J0D01*
G01*
X66950000Y-54600000D01*
G75*
G02*
X67200000Y-54850000I0J-250000D01*
G01*
X67200000Y-55550000D01*
G75*
G02*
X66950000Y-55800000I-250000J0D01*
G01*
G37*
%TD*%
%TO.C,D2*%
G36*
G01*
X111675000Y-50700000D02*
X111425000Y-50700000D01*
G75*
G02*
X111300000Y-50575000I0J125000D01*
G01*
X111300000Y-50325000D01*
G75*
G02*
X111425000Y-50200000I125000J0D01*
G01*
X111675000Y-50200000D01*
G75*
G02*
X111800000Y-50325000I0J-125000D01*
G01*
X111800000Y-50575000D01*
G75*
G02*
X111675000Y-50700000I-125000J0D01*
G01*
G37*
G36*
G01*
X112575000Y-50700000D02*
X112325000Y-50700000D01*
G75*
G02*
X112200000Y-50575000I0J125000D01*
G01*
X112200000Y-50325000D01*
G75*
G02*
X112325000Y-50200000I125000J0D01*
G01*
X112575000Y-50200000D01*
G75*
G02*
X112700000Y-50325000I0J-125000D01*
G01*
X112700000Y-50575000D01*
G75*
G02*
X112575000Y-50700000I-125000J0D01*
G01*
G37*
G36*
G01*
X112575000Y-49800000D02*
X112325000Y-49800000D01*
G75*
G02*
X112200000Y-49675000I0J125000D01*
G01*
X112200000Y-49425000D01*
G75*
G02*
X112325000Y-49300000I125000J0D01*
G01*
X112575000Y-49300000D01*
G75*
G02*
X112700000Y-49425000I0J-125000D01*
G01*
X112700000Y-49675000D01*
G75*
G02*
X112575000Y-49800000I-125000J0D01*
G01*
G37*
G36*
G01*
X111675000Y-49800000D02*
X111425000Y-49800000D01*
G75*
G02*
X111300000Y-49675000I0J125000D01*
G01*
X111300000Y-49425000D01*
G75*
G02*
X111425000Y-49300000I125000J0D01*
G01*
X111675000Y-49300000D01*
G75*
G02*
X111800000Y-49425000I0J-125000D01*
G01*
X111800000Y-49675000D01*
G75*
G02*
X111675000Y-49800000I-125000J0D01*
G01*
G37*
%TD*%
D10*
%TO.C,SW2*%
X79950000Y-46200000D03*
X84050000Y-46200000D03*
X79950000Y-47800000D03*
X84050000Y-47800000D03*
%TD*%
%TO.C,R5*%
G36*
G01*
X86975000Y-62275000D02*
X86975000Y-61725000D01*
G75*
G02*
X87175000Y-61525000I200000J0D01*
G01*
X87575000Y-61525000D01*
G75*
G02*
X87775000Y-61725000I0J-200000D01*
G01*
X87775000Y-62275000D01*
G75*
G02*
X87575000Y-62475000I-200000J0D01*
G01*
X87175000Y-62475000D01*
G75*
G02*
X86975000Y-62275000I0J200000D01*
G01*
G37*
G36*
G01*
X88625000Y-62275000D02*
X88625000Y-61725000D01*
G75*
G02*
X88825000Y-61525000I200000J0D01*
G01*
X89225000Y-61525000D01*
G75*
G02*
X89425000Y-61725000I0J-200000D01*
G01*
X89425000Y-62275000D01*
G75*
G02*
X89225000Y-62475000I-200000J0D01*
G01*
X88825000Y-62475000D01*
G75*
G02*
X88625000Y-62275000I0J200000D01*
G01*
G37*
%TD*%
%TO.C,R3*%
G36*
G01*
X116275000Y-58525000D02*
X116275000Y-57975000D01*
G75*
G02*
X116475000Y-57775000I200000J0D01*
G01*
X116875000Y-57775000D01*
G75*
G02*
X117075000Y-57975000I0J-200000D01*
G01*
X117075000Y-58525000D01*
G75*
G02*
X116875000Y-58725000I-200000J0D01*
G01*
X116475000Y-58725000D01*
G75*
G02*
X116275000Y-58525000I0J200000D01*
G01*
G37*
G36*
G01*
X117925000Y-58525000D02*
X117925000Y-57975000D01*
G75*
G02*
X118125000Y-57775000I200000J0D01*
G01*
X118525000Y-57775000D01*
G75*
G02*
X118725000Y-57975000I0J-200000D01*
G01*
X118725000Y-58525000D01*
G75*
G02*
X118525000Y-58725000I-200000J0D01*
G01*
X118125000Y-58725000D01*
G75*
G02*
X117925000Y-58525000I0J200000D01*
G01*
G37*
%TD*%
%TO.C,J6*%
G36*
G01*
X77875000Y-55850000D02*
X74525000Y-55850000D01*
G75*
G02*
X74350000Y-55675000I0J175000D01*
G01*
X74350000Y-55325000D01*
G75*
G02*
X74525000Y-55150000I175000J0D01*
G01*
X77875000Y-55150000D01*
G75*
G02*
X78050000Y-55325000I0J-175000D01*
G01*
X78050000Y-55675000D01*
G75*
G02*
X77875000Y-55850000I-175000J0D01*
G01*
G37*
G36*
G01*
X77875000Y-54350000D02*
X74525000Y-54350000D01*
G75*
G02*
X74350000Y-54175000I0J175000D01*
G01*
X74350000Y-53825000D01*
G75*
G02*
X74525000Y-53650000I175000J0D01*
G01*
X77875000Y-53650000D01*
G75*
G02*
X78050000Y-53825000I0J-175000D01*
G01*
X78050000Y-54175000D01*
G75*
G02*
X77875000Y-54350000I-175000J0D01*
G01*
G37*
G36*
G01*
X77875000Y-52850000D02*
X74525000Y-52850000D01*
G75*
G02*
X74350000Y-52675000I0J175000D01*
G01*
X74350000Y-52325000D01*
G75*
G02*
X74525000Y-52150000I175000J0D01*
G01*
X77875000Y-52150000D01*
G75*
G02*
X78050000Y-52325000I0J-175000D01*
G01*
X78050000Y-52675000D01*
G75*
G02*
X77875000Y-52850000I-175000J0D01*
G01*
G37*
G36*
G01*
X74999999Y-58300000D02*
X73200001Y-58300000D01*
G75*
G02*
X72950000Y-58049999I0J250001D01*
G01*
X72950000Y-57050001D01*
G75*
G02*
X73200001Y-56800000I250001J0D01*
G01*
X74999999Y-56800000D01*
G75*
G02*
X75250000Y-57050001I0J-250001D01*
G01*
X75250000Y-58049999D01*
G75*
G02*
X74999999Y-58300000I-250001J0D01*
G01*
G37*
G36*
G01*
X74999999Y-51200000D02*
X73200001Y-51200000D01*
G75*
G02*
X72950000Y-50949999I0J250001D01*
G01*
X72950000Y-49950001D01*
G75*
G02*
X73200001Y-49700000I250001J0D01*
G01*
X74999999Y-49700000D01*
G75*
G02*
X75250000Y-49950001I0J-250001D01*
G01*
X75250000Y-50949999D01*
G75*
G02*
X74999999Y-51200000I-250001J0D01*
G01*
G37*
%TD*%
%TO.C,SW4*%
X115950000Y-46200000D03*
X120050000Y-46200000D03*
X115950000Y-47800000D03*
X120050000Y-47800000D03*
%TD*%
%TO.C,R6*%
G36*
G01*
X86950000Y-64075000D02*
X86950000Y-63525000D01*
G75*
G02*
X87150000Y-63325000I200000J0D01*
G01*
X87550000Y-63325000D01*
G75*
G02*
X87750000Y-63525000I0J-200000D01*
G01*
X87750000Y-64075000D01*
G75*
G02*
X87550000Y-64275000I-200000J0D01*
G01*
X87150000Y-64275000D01*
G75*
G02*
X86950000Y-64075000I0J200000D01*
G01*
G37*
G36*
G01*
X88600000Y-64075000D02*
X88600000Y-63525000D01*
G75*
G02*
X88800000Y-63325000I200000J0D01*
G01*
X89200000Y-63325000D01*
G75*
G02*
X89400000Y-63525000I0J-200000D01*
G01*
X89400000Y-64075000D01*
G75*
G02*
X89200000Y-64275000I-200000J0D01*
G01*
X88800000Y-64275000D01*
G75*
G02*
X88600000Y-64075000I0J200000D01*
G01*
G37*
%TD*%
%TO.C,D4*%
G36*
G01*
X74675000Y-48450000D02*
X74425000Y-48450000D01*
G75*
G02*
X74300000Y-48325000I0J125000D01*
G01*
X74300000Y-48075000D01*
G75*
G02*
X74425000Y-47950000I125000J0D01*
G01*
X74675000Y-47950000D01*
G75*
G02*
X74800000Y-48075000I0J-125000D01*
G01*
X74800000Y-48325000D01*
G75*
G02*
X74675000Y-48450000I-125000J0D01*
G01*
G37*
G36*
G01*
X75575000Y-48450000D02*
X75325000Y-48450000D01*
G75*
G02*
X75200000Y-48325000I0J125000D01*
G01*
X75200000Y-48075000D01*
G75*
G02*
X75325000Y-47950000I125000J0D01*
G01*
X75575000Y-47950000D01*
G75*
G02*
X75700000Y-48075000I0J-125000D01*
G01*
X75700000Y-48325000D01*
G75*
G02*
X75575000Y-48450000I-125000J0D01*
G01*
G37*
G36*
G01*
X75575000Y-47550000D02*
X75325000Y-47550000D01*
G75*
G02*
X75200000Y-47425000I0J125000D01*
G01*
X75200000Y-47175000D01*
G75*
G02*
X75325000Y-47050000I125000J0D01*
G01*
X75575000Y-47050000D01*
G75*
G02*
X75700000Y-47175000I0J-125000D01*
G01*
X75700000Y-47425000D01*
G75*
G02*
X75575000Y-47550000I-125000J0D01*
G01*
G37*
G36*
G01*
X74675000Y-47550000D02*
X74425000Y-47550000D01*
G75*
G02*
X74300000Y-47425000I0J125000D01*
G01*
X74300000Y-47175000D01*
G75*
G02*
X74425000Y-47050000I125000J0D01*
G01*
X74675000Y-47050000D01*
G75*
G02*
X74800000Y-47175000I0J-125000D01*
G01*
X74800000Y-47425000D01*
G75*
G02*
X74675000Y-47550000I-125000J0D01*
G01*
G37*
%TD*%
D11*
%TO.C,J4*%
X93675000Y-63475000D03*
D12*
X96215000Y-63475000D03*
X98755000Y-63475000D03*
X101295000Y-63475000D03*
X103835000Y-63475000D03*
X106375000Y-63475000D03*
%TD*%
D10*
%TO.C,SW5*%
X115900000Y-52200000D03*
X120000000Y-52200000D03*
X115900000Y-53800000D03*
X120000000Y-53800000D03*
%TD*%
%TO.C,U1*%
G36*
G01*
X92761000Y-43000000D02*
X92761000Y-43760000D01*
G75*
G02*
X92666000Y-43855000I-95000J0D01*
G01*
X90824000Y-43855000D01*
G75*
G02*
X90729000Y-43760000I0J95000D01*
G01*
X90729000Y-43000000D01*
G75*
G02*
X90824000Y-42905000I95000J0D01*
G01*
X92666000Y-42905000D01*
G75*
G02*
X92761000Y-43000000I0J-95000D01*
G01*
G37*
G36*
G01*
X92761000Y-45540000D02*
X92761000Y-46300000D01*
G75*
G02*
X92666000Y-46395000I-95000J0D01*
G01*
X90824000Y-46395000D01*
G75*
G02*
X90729000Y-46300000I0J95000D01*
G01*
X90729000Y-45540000D01*
G75*
G02*
X90824000Y-45445000I95000J0D01*
G01*
X92666000Y-45445000D01*
G75*
G02*
X92761000Y-45540000I0J-95000D01*
G01*
G37*
G36*
G01*
X92761000Y-48080000D02*
X92761000Y-48840000D01*
G75*
G02*
X92666000Y-48935000I-95000J0D01*
G01*
X90824000Y-48935000D01*
G75*
G02*
X90729000Y-48840000I0J95000D01*
G01*
X90729000Y-48080000D01*
G75*
G02*
X90824000Y-47985000I95000J0D01*
G01*
X92666000Y-47985000D01*
G75*
G02*
X92761000Y-48080000I0J-95000D01*
G01*
G37*
G36*
G01*
X92761000Y-50620000D02*
X92761000Y-51380000D01*
G75*
G02*
X92666000Y-51475000I-95000J0D01*
G01*
X90824000Y-51475000D01*
G75*
G02*
X90729000Y-51380000I0J95000D01*
G01*
X90729000Y-50620000D01*
G75*
G02*
X90824000Y-50525000I95000J0D01*
G01*
X92666000Y-50525000D01*
G75*
G02*
X92761000Y-50620000I0J-95000D01*
G01*
G37*
G36*
G01*
X92761000Y-53160000D02*
X92761000Y-53920000D01*
G75*
G02*
X92666000Y-54015000I-95000J0D01*
G01*
X90824000Y-54015000D01*
G75*
G02*
X90729000Y-53920000I0J95000D01*
G01*
X90729000Y-53160000D01*
G75*
G02*
X90824000Y-53065000I95000J0D01*
G01*
X92666000Y-53065000D01*
G75*
G02*
X92761000Y-53160000I0J-95000D01*
G01*
G37*
G36*
G01*
X92761000Y-55700000D02*
X92761000Y-56460000D01*
G75*
G02*
X92666000Y-56555000I-95000J0D01*
G01*
X90824000Y-56555000D01*
G75*
G02*
X90729000Y-56460000I0J95000D01*
G01*
X90729000Y-55700000D01*
G75*
G02*
X90824000Y-55605000I95000J0D01*
G01*
X92666000Y-55605000D01*
G75*
G02*
X92761000Y-55700000I0J-95000D01*
G01*
G37*
G36*
G01*
X92761000Y-58240000D02*
X92761000Y-59000000D01*
G75*
G02*
X92666000Y-59095000I-95000J0D01*
G01*
X90824000Y-59095000D01*
G75*
G02*
X90729000Y-59000000I0J95000D01*
G01*
X90729000Y-58240000D01*
G75*
G02*
X90824000Y-58145000I95000J0D01*
G01*
X92666000Y-58145000D01*
G75*
G02*
X92761000Y-58240000I0J-95000D01*
G01*
G37*
G36*
G01*
X107239000Y-59000000D02*
X107239000Y-58240000D01*
G75*
G02*
X107334000Y-58145000I95000J0D01*
G01*
X109176000Y-58145000D01*
G75*
G02*
X109271000Y-58240000I0J-95000D01*
G01*
X109271000Y-59000000D01*
G75*
G02*
X109176000Y-59095000I-95000J0D01*
G01*
X107334000Y-59095000D01*
G75*
G02*
X107239000Y-59000000I0J95000D01*
G01*
G37*
G36*
G01*
X107239000Y-56460000D02*
X107239000Y-55700000D01*
G75*
G02*
X107334000Y-55605000I95000J0D01*
G01*
X109176000Y-55605000D01*
G75*
G02*
X109271000Y-55700000I0J-95000D01*
G01*
X109271000Y-56460000D01*
G75*
G02*
X109176000Y-56555000I-95000J0D01*
G01*
X107334000Y-56555000D01*
G75*
G02*
X107239000Y-56460000I0J95000D01*
G01*
G37*
G36*
G01*
X107239000Y-53920000D02*
X107239000Y-53160000D01*
G75*
G02*
X107334000Y-53065000I95000J0D01*
G01*
X109176000Y-53065000D01*
G75*
G02*
X109271000Y-53160000I0J-95000D01*
G01*
X109271000Y-53920000D01*
G75*
G02*
X109176000Y-54015000I-95000J0D01*
G01*
X107334000Y-54015000D01*
G75*
G02*
X107239000Y-53920000I0J95000D01*
G01*
G37*
G36*
G01*
X107239000Y-51380000D02*
X107239000Y-50620000D01*
G75*
G02*
X107334000Y-50525000I95000J0D01*
G01*
X109176000Y-50525000D01*
G75*
G02*
X109271000Y-50620000I0J-95000D01*
G01*
X109271000Y-51380000D01*
G75*
G02*
X109176000Y-51475000I-95000J0D01*
G01*
X107334000Y-51475000D01*
G75*
G02*
X107239000Y-51380000I0J95000D01*
G01*
G37*
G36*
G01*
X107239000Y-48840000D02*
X107239000Y-48080000D01*
G75*
G02*
X107334000Y-47985000I95000J0D01*
G01*
X109176000Y-47985000D01*
G75*
G02*
X109271000Y-48080000I0J-95000D01*
G01*
X109271000Y-48840000D01*
G75*
G02*
X109176000Y-48935000I-95000J0D01*
G01*
X107334000Y-48935000D01*
G75*
G02*
X107239000Y-48840000I0J95000D01*
G01*
G37*
G36*
G01*
X107239000Y-46300000D02*
X107239000Y-45540000D01*
G75*
G02*
X107334000Y-45445000I95000J0D01*
G01*
X109176000Y-45445000D01*
G75*
G02*
X109271000Y-45540000I0J-95000D01*
G01*
X109271000Y-46300000D01*
G75*
G02*
X109176000Y-46395000I-95000J0D01*
G01*
X107334000Y-46395000D01*
G75*
G02*
X107239000Y-46300000I0J95000D01*
G01*
G37*
G36*
G01*
X107239000Y-43760000D02*
X107239000Y-43000000D01*
G75*
G02*
X107334000Y-42905000I95000J0D01*
G01*
X109176000Y-42905000D01*
G75*
G02*
X109271000Y-43000000I0J-95000D01*
G01*
X109271000Y-43760000D01*
G75*
G02*
X109176000Y-43855000I-95000J0D01*
G01*
X107334000Y-43855000D01*
G75*
G02*
X107239000Y-43760000I0J95000D01*
G01*
G37*
G36*
X91961000Y-44792500D02*
G01*
X91628500Y-45125000D01*
X90824000Y-45125000D01*
X90787645Y-45117769D01*
X90756825Y-45097175D01*
X90736231Y-45066355D01*
X90729000Y-45030000D01*
X90729000Y-44270000D01*
X90736231Y-44233645D01*
X90756825Y-44202825D01*
X90787645Y-44182231D01*
X90824000Y-44175000D01*
X91628500Y-44175000D01*
X91961000Y-44507500D01*
X91961000Y-44792500D01*
G37*
G36*
X91961000Y-47332500D02*
G01*
X91628500Y-47665000D01*
X90824000Y-47665000D01*
X90787645Y-47657769D01*
X90756825Y-47637175D01*
X90736231Y-47606355D01*
X90729000Y-47570000D01*
X90729000Y-46810000D01*
X90736231Y-46773645D01*
X90756825Y-46742825D01*
X90787645Y-46722231D01*
X90824000Y-46715000D01*
X91628500Y-46715000D01*
X91961000Y-47047500D01*
X91961000Y-47332500D01*
G37*
G36*
X91961000Y-49872500D02*
G01*
X91628500Y-50205000D01*
X90824000Y-50205000D01*
X90787645Y-50197769D01*
X90756825Y-50177175D01*
X90736231Y-50146355D01*
X90729000Y-50110000D01*
X90729000Y-49350000D01*
X90736231Y-49313645D01*
X90756825Y-49282825D01*
X90787645Y-49262231D01*
X90824000Y-49255000D01*
X91628500Y-49255000D01*
X91961000Y-49587500D01*
X91961000Y-49872500D01*
G37*
G36*
X91961000Y-52412500D02*
G01*
X91628500Y-52745000D01*
X90824000Y-52745000D01*
X90787645Y-52737769D01*
X90756825Y-52717175D01*
X90736231Y-52686355D01*
X90729000Y-52650000D01*
X90729000Y-51890000D01*
X90736231Y-51853645D01*
X90756825Y-51822825D01*
X90787645Y-51802231D01*
X90824000Y-51795000D01*
X91628500Y-51795000D01*
X91961000Y-52127500D01*
X91961000Y-52412500D01*
G37*
G36*
X91961000Y-54952500D02*
G01*
X91628500Y-55285000D01*
X90824000Y-55285000D01*
X90787645Y-55277769D01*
X90756825Y-55257175D01*
X90736231Y-55226355D01*
X90729000Y-55190000D01*
X90729000Y-54430000D01*
X90736231Y-54393645D01*
X90756825Y-54362825D01*
X90787645Y-54342231D01*
X90824000Y-54335000D01*
X91628500Y-54335000D01*
X91961000Y-54667500D01*
X91961000Y-54952500D01*
G37*
G36*
X91961000Y-57492500D02*
G01*
X91628500Y-57825000D01*
X90824000Y-57825000D01*
X90787645Y-57817769D01*
X90756825Y-57797175D01*
X90736231Y-57766355D01*
X90729000Y-57730000D01*
X90729000Y-56970000D01*
X90736231Y-56933645D01*
X90756825Y-56902825D01*
X90787645Y-56882231D01*
X90824000Y-56875000D01*
X91628500Y-56875000D01*
X91961000Y-57207500D01*
X91961000Y-57492500D01*
G37*
G36*
X108039000Y-57207500D02*
G01*
X108371500Y-56875000D01*
X109176000Y-56875000D01*
X109212355Y-56882231D01*
X109243175Y-56902825D01*
X109263769Y-56933645D01*
X109271000Y-56970000D01*
X109271000Y-57730000D01*
X109263769Y-57766355D01*
X109243175Y-57797175D01*
X109212355Y-57817769D01*
X109176000Y-57825000D01*
X108371500Y-57825000D01*
X108039000Y-57492500D01*
X108039000Y-57207500D01*
G37*
G36*
X108039000Y-54667500D02*
G01*
X108371500Y-54335000D01*
X109176000Y-54335000D01*
X109212355Y-54342231D01*
X109243175Y-54362825D01*
X109263769Y-54393645D01*
X109271000Y-54430000D01*
X109271000Y-55190000D01*
X109263769Y-55226355D01*
X109243175Y-55257175D01*
X109212355Y-55277769D01*
X109176000Y-55285000D01*
X108371500Y-55285000D01*
X108039000Y-54952500D01*
X108039000Y-54667500D01*
G37*
G36*
X108039000Y-52127500D02*
G01*
X108371500Y-51795000D01*
X109176000Y-51795000D01*
X109212355Y-51802231D01*
X109243175Y-51822825D01*
X109263769Y-51853645D01*
X109271000Y-51890000D01*
X109271000Y-52650000D01*
X109263769Y-52686355D01*
X109243175Y-52717175D01*
X109212355Y-52737769D01*
X109176000Y-52745000D01*
X108371500Y-52745000D01*
X108039000Y-52412500D01*
X108039000Y-52127500D01*
G37*
D12*
X98730000Y-42427500D03*
X101270000Y-42427500D03*
X98730000Y-44967500D03*
X101270000Y-44967500D03*
G36*
G01*
X98566012Y-55267823D02*
X99446012Y-55267823D01*
G75*
G02*
X99556012Y-55377823I0J-110000D01*
G01*
X99556012Y-57657823D01*
G75*
G02*
X99446012Y-57767823I-110000J0D01*
G01*
X98566012Y-57767823D01*
G75*
G02*
X98456012Y-57657823I0J110000D01*
G01*
X98456012Y-55377823D01*
G75*
G02*
X98566012Y-55267823I110000J0D01*
G01*
G37*
G36*
G01*
X100566012Y-55267823D02*
X101446012Y-55267823D01*
G75*
G02*
X101556012Y-55377823I0J-110000D01*
G01*
X101556012Y-57657823D01*
G75*
G02*
X101446012Y-57767823I-110000J0D01*
G01*
X100566012Y-57767823D01*
G75*
G02*
X100456012Y-57657823I0J110000D01*
G01*
X100456012Y-55377823D01*
G75*
G02*
X100566012Y-55267823I110000J0D01*
G01*
G37*
%TD*%
%TO.C,D1*%
G36*
G01*
X124675000Y-48450000D02*
X124425000Y-48450000D01*
G75*
G02*
X124300000Y-48325000I0J125000D01*
G01*
X124300000Y-48075000D01*
G75*
G02*
X124425000Y-47950000I125000J0D01*
G01*
X124675000Y-47950000D01*
G75*
G02*
X124800000Y-48075000I0J-125000D01*
G01*
X124800000Y-48325000D01*
G75*
G02*
X124675000Y-48450000I-125000J0D01*
G01*
G37*
G36*
G01*
X125575000Y-48450000D02*
X125325000Y-48450000D01*
G75*
G02*
X125200000Y-48325000I0J125000D01*
G01*
X125200000Y-48075000D01*
G75*
G02*
X125325000Y-47950000I125000J0D01*
G01*
X125575000Y-47950000D01*
G75*
G02*
X125700000Y-48075000I0J-125000D01*
G01*
X125700000Y-48325000D01*
G75*
G02*
X125575000Y-48450000I-125000J0D01*
G01*
G37*
G36*
G01*
X125575000Y-47550000D02*
X125325000Y-47550000D01*
G75*
G02*
X125200000Y-47425000I0J125000D01*
G01*
X125200000Y-47175000D01*
G75*
G02*
X125325000Y-47050000I125000J0D01*
G01*
X125575000Y-47050000D01*
G75*
G02*
X125700000Y-47175000I0J-125000D01*
G01*
X125700000Y-47425000D01*
G75*
G02*
X125575000Y-47550000I-125000J0D01*
G01*
G37*
G36*
G01*
X124675000Y-47550000D02*
X124425000Y-47550000D01*
G75*
G02*
X124300000Y-47425000I0J125000D01*
G01*
X124300000Y-47175000D01*
G75*
G02*
X124425000Y-47050000I125000J0D01*
G01*
X124675000Y-47050000D01*
G75*
G02*
X124800000Y-47175000I0J-125000D01*
G01*
X124800000Y-47425000D01*
G75*
G02*
X124675000Y-47550000I-125000J0D01*
G01*
G37*
%TD*%
%TO.C,D3*%
G36*
G01*
X87675000Y-50700000D02*
X87425000Y-50700000D01*
G75*
G02*
X87300000Y-50575000I0J125000D01*
G01*
X87300000Y-50325000D01*
G75*
G02*
X87425000Y-50200000I125000J0D01*
G01*
X87675000Y-50200000D01*
G75*
G02*
X87800000Y-50325000I0J-125000D01*
G01*
X87800000Y-50575000D01*
G75*
G02*
X87675000Y-50700000I-125000J0D01*
G01*
G37*
G36*
G01*
X88575000Y-50700000D02*
X88325000Y-50700000D01*
G75*
G02*
X88200000Y-50575000I0J125000D01*
G01*
X88200000Y-50325000D01*
G75*
G02*
X88325000Y-50200000I125000J0D01*
G01*
X88575000Y-50200000D01*
G75*
G02*
X88700000Y-50325000I0J-125000D01*
G01*
X88700000Y-50575000D01*
G75*
G02*
X88575000Y-50700000I-125000J0D01*
G01*
G37*
G36*
G01*
X88575000Y-49800000D02*
X88325000Y-49800000D01*
G75*
G02*
X88200000Y-49675000I0J125000D01*
G01*
X88200000Y-49425000D01*
G75*
G02*
X88325000Y-49300000I125000J0D01*
G01*
X88575000Y-49300000D01*
G75*
G02*
X88700000Y-49425000I0J-125000D01*
G01*
X88700000Y-49675000D01*
G75*
G02*
X88575000Y-49800000I-125000J0D01*
G01*
G37*
G36*
G01*
X87675000Y-49800000D02*
X87425000Y-49800000D01*
G75*
G02*
X87300000Y-49675000I0J125000D01*
G01*
X87300000Y-49425000D01*
G75*
G02*
X87425000Y-49300000I125000J0D01*
G01*
X87675000Y-49300000D01*
G75*
G02*
X87800000Y-49425000I0J-125000D01*
G01*
X87800000Y-49675000D01*
G75*
G02*
X87675000Y-49800000I-125000J0D01*
G01*
G37*
%TD*%
D10*
%TO.C,SW3*%
X79950000Y-52200000D03*
X84050000Y-52200000D03*
X79950000Y-53800000D03*
X84050000Y-53800000D03*
%TD*%
%TO.C,J2*%
G36*
G01*
X130900000Y-52100000D02*
X130350000Y-52100000D01*
G75*
G02*
X130200000Y-51950000I0J150000D01*
G01*
X130200000Y-51650000D01*
G75*
G02*
X130350000Y-51500000I150000J0D01*
G01*
X130900000Y-51500000D01*
G75*
G02*
X131050000Y-51650000I0J-150000D01*
G01*
X131050000Y-51950000D01*
G75*
G02*
X130900000Y-52100000I-150000J0D01*
G01*
G37*
G36*
G01*
X130900000Y-50900000D02*
X130350000Y-50900000D01*
G75*
G02*
X130200000Y-50750000I0J150000D01*
G01*
X130200000Y-50450000D01*
G75*
G02*
X130350000Y-50300000I150000J0D01*
G01*
X130900000Y-50300000D01*
G75*
G02*
X131050000Y-50450000I0J-150000D01*
G01*
X131050000Y-50750000D01*
G75*
G02*
X130900000Y-50900000I-150000J0D01*
G01*
G37*
G36*
G01*
X130900000Y-49700000D02*
X130350000Y-49700000D01*
G75*
G02*
X130200000Y-49550000I0J150000D01*
G01*
X130200000Y-49250000D01*
G75*
G02*
X130350000Y-49100000I150000J0D01*
G01*
X130900000Y-49100000D01*
G75*
G02*
X131050000Y-49250000I0J-150000D01*
G01*
X131050000Y-49550000D01*
G75*
G02*
X130900000Y-49700000I-150000J0D01*
G01*
G37*
G36*
G01*
X130900000Y-48500000D02*
X130350000Y-48500000D01*
G75*
G02*
X130200000Y-48350000I0J150000D01*
G01*
X130200000Y-48050000D01*
G75*
G02*
X130350000Y-47900000I150000J0D01*
G01*
X130900000Y-47900000D01*
G75*
G02*
X131050000Y-48050000I0J-150000D01*
G01*
X131050000Y-48350000D01*
G75*
G02*
X130900000Y-48500000I-150000J0D01*
G01*
G37*
G36*
G01*
X134625000Y-53300000D02*
X134175000Y-53300000D01*
G75*
G02*
X134000000Y-53125000I0J175000D01*
G01*
X134000000Y-52775000D01*
G75*
G02*
X134175000Y-52600000I175000J0D01*
G01*
X134625000Y-52600000D01*
G75*
G02*
X134800000Y-52775000I0J-175000D01*
G01*
X134800000Y-53125000D01*
G75*
G02*
X134625000Y-53300000I-175000J0D01*
G01*
G37*
G36*
G01*
X134625000Y-47400000D02*
X134175000Y-47400000D01*
G75*
G02*
X134000000Y-47225000I0J175000D01*
G01*
X134000000Y-46875000D01*
G75*
G02*
X134175000Y-46700000I175000J0D01*
G01*
X134625000Y-46700000D01*
G75*
G02*
X134800000Y-46875000I0J-175000D01*
G01*
X134800000Y-47225000D01*
G75*
G02*
X134625000Y-47400000I-175000J0D01*
G01*
G37*
%TD*%
%TO.C,J3*%
G36*
G01*
X130550000Y-56200000D02*
X131800000Y-56200000D01*
G75*
G02*
X131950000Y-56350000I0J-150000D01*
G01*
X131950000Y-56650000D01*
G75*
G02*
X131800000Y-56800000I-150000J0D01*
G01*
X130550000Y-56800000D01*
G75*
G02*
X130400000Y-56650000I0J150000D01*
G01*
X130400000Y-56350000D01*
G75*
G02*
X130550000Y-56200000I150000J0D01*
G01*
G37*
G36*
G01*
X130550000Y-57200000D02*
X131800000Y-57200000D01*
G75*
G02*
X131950000Y-57350000I0J-150000D01*
G01*
X131950000Y-57650000D01*
G75*
G02*
X131800000Y-57800000I-150000J0D01*
G01*
X130550000Y-57800000D01*
G75*
G02*
X130400000Y-57650000I0J150000D01*
G01*
X130400000Y-57350000D01*
G75*
G02*
X130550000Y-57200000I150000J0D01*
G01*
G37*
G36*
G01*
X133050000Y-54600000D02*
X134350000Y-54600000D01*
G75*
G02*
X134600000Y-54850000I0J-250000D01*
G01*
X134600000Y-55550000D01*
G75*
G02*
X134350000Y-55800000I-250000J0D01*
G01*
X133050000Y-55800000D01*
G75*
G02*
X132800000Y-55550000I0J250000D01*
G01*
X132800000Y-54850000D01*
G75*
G02*
X133050000Y-54600000I250000J0D01*
G01*
G37*
G36*
G01*
X133050000Y-58200000D02*
X134350000Y-58200000D01*
G75*
G02*
X134600000Y-58450000I0J-250000D01*
G01*
X134600000Y-59150000D01*
G75*
G02*
X134350000Y-59400000I-250000J0D01*
G01*
X133050000Y-59400000D01*
G75*
G02*
X132800000Y-59150000I0J250000D01*
G01*
X132800000Y-58450000D01*
G75*
G02*
X133050000Y-58200000I250000J0D01*
G01*
G37*
%TD*%
%TO.C,J7*%
G36*
G01*
X122625000Y-52150000D02*
X125975000Y-52150000D01*
G75*
G02*
X126150000Y-52325000I0J-175000D01*
G01*
X126150000Y-52675000D01*
G75*
G02*
X125975000Y-52850000I-175000J0D01*
G01*
X122625000Y-52850000D01*
G75*
G02*
X122450000Y-52675000I0J175000D01*
G01*
X122450000Y-52325000D01*
G75*
G02*
X122625000Y-52150000I175000J0D01*
G01*
G37*
G36*
G01*
X122625000Y-53650000D02*
X125975000Y-53650000D01*
G75*
G02*
X126150000Y-53825000I0J-175000D01*
G01*
X126150000Y-54175000D01*
G75*
G02*
X125975000Y-54350000I-175000J0D01*
G01*
X122625000Y-54350000D01*
G75*
G02*
X122450000Y-54175000I0J175000D01*
G01*
X122450000Y-53825000D01*
G75*
G02*
X122625000Y-53650000I175000J0D01*
G01*
G37*
G36*
G01*
X122625000Y-55150000D02*
X125975000Y-55150000D01*
G75*
G02*
X126150000Y-55325000I0J-175000D01*
G01*
X126150000Y-55675000D01*
G75*
G02*
X125975000Y-55850000I-175000J0D01*
G01*
X122625000Y-55850000D01*
G75*
G02*
X122450000Y-55675000I0J175000D01*
G01*
X122450000Y-55325000D01*
G75*
G02*
X122625000Y-55150000I175000J0D01*
G01*
G37*
G36*
G01*
X125500001Y-49700000D02*
X127299999Y-49700000D01*
G75*
G02*
X127550000Y-49950001I0J-250001D01*
G01*
X127550000Y-50949999D01*
G75*
G02*
X127299999Y-51200000I-250001J0D01*
G01*
X125500001Y-51200000D01*
G75*
G02*
X125250000Y-50949999I0J250001D01*
G01*
X125250000Y-49950001D01*
G75*
G02*
X125500001Y-49700000I250001J0D01*
G01*
G37*
G36*
G01*
X125500001Y-56800000D02*
X127299999Y-56800000D01*
G75*
G02*
X127550000Y-57050001I0J-250001D01*
G01*
X127550000Y-58049999D01*
G75*
G02*
X127299999Y-58300000I-250001J0D01*
G01*
X125500001Y-58300000D01*
G75*
G02*
X125250000Y-58049999I0J250001D01*
G01*
X125250000Y-57050001D01*
G75*
G02*
X125500001Y-56800000I250001J0D01*
G01*
G37*
%TD*%
%TO.C,R1*%
G36*
G01*
X80275000Y-56025000D02*
X80275000Y-55475000D01*
G75*
G02*
X80475000Y-55275000I200000J0D01*
G01*
X80875000Y-55275000D01*
G75*
G02*
X81075000Y-55475000I0J-200000D01*
G01*
X81075000Y-56025000D01*
G75*
G02*
X80875000Y-56225000I-200000J0D01*
G01*
X80475000Y-56225000D01*
G75*
G02*
X80275000Y-56025000I0J200000D01*
G01*
G37*
G36*
G01*
X81925000Y-56025000D02*
X81925000Y-55475000D01*
G75*
G02*
X82125000Y-55275000I200000J0D01*
G01*
X82525000Y-55275000D01*
G75*
G02*
X82725000Y-55475000I0J-200000D01*
G01*
X82725000Y-56025000D01*
G75*
G02*
X82525000Y-56225000I-200000J0D01*
G01*
X82125000Y-56225000D01*
G75*
G02*
X81925000Y-56025000I0J200000D01*
G01*
G37*
%TD*%
D13*
%TO.C,SW1*%
X96350000Y-67220000D03*
X96350000Y-69430000D03*
D14*
X98500000Y-68330000D03*
X101500000Y-68330000D03*
D13*
X103650000Y-67220000D03*
X103650000Y-69430000D03*
D15*
X97750000Y-66570000D03*
X100750000Y-66570000D03*
X102250000Y-66570000D03*
%TD*%
%TO.C,J1*%
G36*
G01*
X69100000Y-47900000D02*
X69650000Y-47900000D01*
G75*
G02*
X69800000Y-48050000I0J-150000D01*
G01*
X69800000Y-48350000D01*
G75*
G02*
X69650000Y-48500000I-150000J0D01*
G01*
X69100000Y-48500000D01*
G75*
G02*
X68950000Y-48350000I0J150000D01*
G01*
X68950000Y-48050000D01*
G75*
G02*
X69100000Y-47900000I150000J0D01*
G01*
G37*
G36*
G01*
X69100000Y-49100000D02*
X69650000Y-49100000D01*
G75*
G02*
X69800000Y-49250000I0J-150000D01*
G01*
X69800000Y-49550000D01*
G75*
G02*
X69650000Y-49700000I-150000J0D01*
G01*
X69100000Y-49700000D01*
G75*
G02*
X68950000Y-49550000I0J150000D01*
G01*
X68950000Y-49250000D01*
G75*
G02*
X69100000Y-49100000I150000J0D01*
G01*
G37*
G36*
G01*
X69100000Y-50300000D02*
X69650000Y-50300000D01*
G75*
G02*
X69800000Y-50450000I0J-150000D01*
G01*
X69800000Y-50750000D01*
G75*
G02*
X69650000Y-50900000I-150000J0D01*
G01*
X69100000Y-50900000D01*
G75*
G02*
X68950000Y-50750000I0J150000D01*
G01*
X68950000Y-50450000D01*
G75*
G02*
X69100000Y-50300000I150000J0D01*
G01*
G37*
G36*
G01*
X69100000Y-51500000D02*
X69650000Y-51500000D01*
G75*
G02*
X69800000Y-51650000I0J-150000D01*
G01*
X69800000Y-51950000D01*
G75*
G02*
X69650000Y-52100000I-150000J0D01*
G01*
X69100000Y-52100000D01*
G75*
G02*
X68950000Y-51950000I0J150000D01*
G01*
X68950000Y-51650000D01*
G75*
G02*
X69100000Y-51500000I150000J0D01*
G01*
G37*
G36*
G01*
X65375000Y-46700000D02*
X65825000Y-46700000D01*
G75*
G02*
X66000000Y-46875000I0J-175000D01*
G01*
X66000000Y-47225000D01*
G75*
G02*
X65825000Y-47400000I-175000J0D01*
G01*
X65375000Y-47400000D01*
G75*
G02*
X65200000Y-47225000I0J175000D01*
G01*
X65200000Y-46875000D01*
G75*
G02*
X65375000Y-46700000I175000J0D01*
G01*
G37*
G36*
G01*
X65375000Y-52600000D02*
X65825000Y-52600000D01*
G75*
G02*
X66000000Y-52775000I0J-175000D01*
G01*
X66000000Y-53125000D01*
G75*
G02*
X65825000Y-53300000I-175000J0D01*
G01*
X65375000Y-53300000D01*
G75*
G02*
X65200000Y-53125000I0J175000D01*
G01*
X65200000Y-52775000D01*
G75*
G02*
X65375000Y-52600000I175000J0D01*
G01*
G37*
%TD*%
M02*
