M48
; DRILL file {KiCad 9.0.7-1.fc42} date 2026-02-18T22:12:25+0000
; FORMAT={-:-/ absolute / metric / decimal}
; #@! TF.CreationDate,2026-02-18T22:12:25+00:00
; #@! TF.GenerationSoftware,Kicad,Pcbnew,9.0.7-1.fc42
; #@! TF.FileFunction,Plated,1,2,PTH
FMAT,2
METRIC
; #@! TA.AperFunction,Plated,PTH,ViaDrill
T1C0.300
; #@! TA.AperFunction,Plated,PTH,ComponentDrill
T2C0.750
; #@! TA.AperFunction,Plated,PTH,ComponentDrill
T3C1.000
%
G90
G05
T1
X69.0Y-55.5
X70.5Y-56.5
X71.0Y-49.5
X71.0Y-51.5
X71.5Y-52.5
X72.0Y-46.0
X72.0Y-50.5
X72.5Y-51.5
X72.5Y-53.5
X73.0Y-45.0
X73.0Y-47.0
X73.0Y-52.5
X74.0Y-46.0
X74.4Y-60.2
X75.0Y-45.0
X75.0Y-46.25
X76.0Y-46.0
X76.0Y-48.75
X76.4Y-58.2
X76.4Y-60.2
X76.75Y-57.25
X77.0Y-45.0
X77.0Y-47.0
X77.4Y-59.2
X78.25Y-50.5
X78.4Y-58.2
X78.4Y-60.2
X78.75Y-54.0
X85.5Y-53.75
X87.0Y-48.5
X88.5Y-48.5
X93.0Y-67.5
X93.4Y-57.4
X93.5Y-51.0
X94.2Y-52.2
X95.0Y-48.6
X95.6Y-49.2
X96.1Y-54.0
X96.18Y-56.08
X106.0Y-50.3
X110.3Y-51.85
X113.0Y-55.0
X113.0Y-57.0
X113.4Y-50.2
X114.0Y-56.0
X114.2Y-50.2
X115.0Y-50.2
X115.0Y-55.0
X115.0Y-57.0
X115.8Y-50.2
X122.0Y-59.0
X122.75Y-56.75
X122.75Y-57.5
X122.75Y-58.25
X122.75Y-59.0
X123.0Y-45.0
X123.0Y-47.0
X123.5Y-51.25
X123.5Y-56.75
X123.5Y-57.5
X123.5Y-58.25
X123.5Y-59.0
X124.0Y-46.0
X125.0Y-45.0
X125.0Y-46.5
X125.9Y-48.0
X126.0Y-46.0
X126.5Y-59.0
X127.0Y-45.0
X127.0Y-47.0
X127.0Y-58.5
X127.25Y-55.25
X127.5Y-58.0
X128.0Y-46.0
X128.0Y-55.25
X128.0Y-57.5
X128.0Y-58.5
X128.5Y-58.0
X128.75Y-55.25
X129.0Y-57.5
X129.5Y-58.0
X130.0Y-57.5
T3
X93.675Y-63.475
X96.215Y-63.475
X98.755Y-63.475
X101.295Y-63.475
X103.835Y-63.475
X106.375Y-63.475
T2
G00X99.006Y-56.143
M15
G01X99.006Y-56.893
M16
G05
G00X101.006Y-56.143
M15
G01X101.006Y-56.893
M16
G05
M30
