%TF.GenerationSoftware,KiCad,Pcbnew,9.0.7-1.fc42*%
%TF.CreationDate,2026-02-18T22:12:25+00:00*%
%TF.ProjectId,cat-ears-controller,6361742d-6561-4727-932d-636f6e74726f,rev?*%
%TF.SameCoordinates,Original*%
%TF.FileFunction,Copper,L1,Top*%
%TF.FilePolarity,Positive*%
%FSLAX46Y46*%
G04 Gerber Fmt 4.6, Leading zero omitted, Abs format (unit mm)*
G04 Created by KiCad (PCBNEW 9.0.7-1.fc42) date 2026-02-18 22:12:25*
%MOMM*%
%LPD*%
G01*
G04 APERTURE LIST*
%TA.AperFunction,SMDPad,CuDef*%
%ADD10R,0.900000X1.000000*%
%TD*%
%TA.AperFunction,ComponentPad*%
%ADD11R,1.700000X1.700000*%
%TD*%
%TA.AperFunction,ComponentPad*%
%ADD12C,1.700000*%
%TD*%
%TA.AperFunction,SMDPad,CuDef*%
%ADD13C,1.700000*%
%TD*%
%TA.AperFunction,SMDPad,CuDef*%
%ADD14R,1.000000X0.800000*%
%TD*%
%TA.AperFunction,SMDPad,CuDef*%
%ADD15R,0.700000X1.500000*%
%TD*%
%TA.AperFunction,ViaPad*%
%ADD16C,0.600000*%
%TD*%
%TA.AperFunction,Conductor*%
%ADD17C,0.200000*%
%TD*%
%TA.AperFunction,Conductor*%
%ADD18C,0.500000*%
%TD*%
%TA.AperFunction,Conductor*%
%ADD19C,1.000000*%
%TD*%
%TA.AperFunction,Conductor*%
%ADD20C,0.250000*%
%TD*%
%TA.AperFunction,Conductor*%
%ADD21C,0.400000*%
%TD*%
G04 APERTURE END LIST*
%TO.P,R2,1*%
%TO.N,/RXTX2*%
%TA.AperFunction,SMDPad,CuDef*%
G36*
G01*
X82725000Y-57225000D02*
X82725000Y-57775000D01*
G75*
G02*
X82525000Y-57975000I-200000J0D01*
G01*
X82125000Y-57975000D01*
G75*
G02*
X81925000Y-57775000I0J200000D01*
G01*
X81925000Y-57225000D01*
G75*
G02*
X82125000Y-57025000I200000J0D01*
G01*
X82525000Y-57025000D01*
G75*
G02*
X82725000Y-57225000I0J-200000D01*
G01*
G37*
%TD.AperFunction*%
%TO.P,R2,2*%
%TO.N,Net-(J1-Pin_3)*%
%TA.AperFunction,SMDPad,CuDef*%
G36*
G01*
X81075000Y-57225000D02*
X81075000Y-57775000D01*
G75*
G02*
X80875000Y-57975000I-200000J0D01*
G01*
X80475000Y-57975000D01*
G75*
G02*
X80275000Y-57775000I0J200000D01*
G01*
X80275000Y-57225000D01*
G75*
G02*
X80475000Y-57025000I200000J0D01*
G01*
X80875000Y-57025000D01*
G75*
G02*
X81075000Y-57225000I0J-200000D01*
G01*
G37*
%TD.AperFunction*%
%TD*%
%TO.P,R4,1*%
%TO.N,/RXTX1*%
%TA.AperFunction,SMDPad,CuDef*%
G36*
G01*
X118725000Y-59725000D02*
X118725000Y-60275000D01*
G75*
G02*
X118525000Y-60475000I-200000J0D01*
G01*
X118125000Y-60475000D01*
G75*
G02*
X117925000Y-60275000I0J200000D01*
G01*
X117925000Y-59725000D01*
G75*
G02*
X118125000Y-59525000I200000J0D01*
G01*
X118525000Y-59525000D01*
G75*
G02*
X118725000Y-59725000I0J-200000D01*
G01*
G37*
%TD.AperFunction*%
%TO.P,R4,2*%
%TO.N,Net-(J2-Pin_3)*%
%TA.AperFunction,SMDPad,CuDef*%
G36*
G01*
X117075000Y-59725000D02*
X117075000Y-60275000D01*
G75*
G02*
X116875000Y-60475000I-200000J0D01*
G01*
X116475000Y-60475000D01*
G75*
G02*
X116275000Y-60275000I0J200000D01*
G01*
X116275000Y-59725000D01*
G75*
G02*
X116475000Y-59525000I200000J0D01*
G01*
X116875000Y-59525000D01*
G75*
G02*
X117075000Y-59725000I0J-200000D01*
G01*
G37*
%TD.AperFunction*%
%TD*%
%TO.P,J5,1,Pin_1*%
%TO.N,Net-(J3-Pin_1)*%
%TA.AperFunction,SMDPad,CuDef*%
G36*
G01*
X69450000Y-57800000D02*
X68200000Y-57800000D01*
G75*
G02*
X68050000Y-57650000I0J150000D01*
G01*
X68050000Y-57350000D01*
G75*
G02*
X68200000Y-57200000I150000J0D01*
G01*
X69450000Y-57200000D01*
G75*
G02*
X69600000Y-57350000I0J-150000D01*
G01*
X69600000Y-57650000D01*
G75*
G02*
X69450000Y-57800000I-150000J0D01*
G01*
G37*
%TD.AperFunction*%
%TO.P,J5,2,Pin_2*%
%TO.N,GND*%
%TA.AperFunction,SMDPad,CuDef*%
G36*
G01*
X69450000Y-56800000D02*
X68200000Y-56800000D01*
G75*
G02*
X68050000Y-56650000I0J150000D01*
G01*
X68050000Y-56350000D01*
G75*
G02*
X68200000Y-56200000I150000J0D01*
G01*
X69450000Y-56200000D01*
G75*
G02*
X69600000Y-56350000I0J-150000D01*
G01*
X69600000Y-56650000D01*
G75*
G02*
X69450000Y-56800000I-150000J0D01*
G01*
G37*
%TD.AperFunction*%
%TO.P,J5,MP,MountPin*%
%TA.AperFunction,SMDPad,CuDef*%
G36*
G01*
X66950000Y-59400000D02*
X65650000Y-59400000D01*
G75*
G02*
X65400000Y-59150000I0J250000D01*
G01*
X65400000Y-58450000D01*
G75*
G02*
X65650000Y-58200000I250000J0D01*
G01*
X66950000Y-58200000D01*
G75*
G02*
X67200000Y-58450000I0J-250000D01*
G01*
X67200000Y-59150000D01*
G75*
G02*
X66950000Y-59400000I-250000J0D01*
G01*
G37*
%TD.AperFunction*%
%TA.AperFunction,SMDPad,CuDef*%
G36*
G01*
X66950000Y-55800000D02*
X65650000Y-55800000D01*
G75*
G02*
X65400000Y-55550000I0J250000D01*
G01*
X65400000Y-54850000D01*
G75*
G02*
X65650000Y-54600000I250000J0D01*
G01*
X66950000Y-54600000D01*
G75*
G02*
X67200000Y-54850000I0J-250000D01*
G01*
X67200000Y-55550000D01*
G75*
G02*
X66950000Y-55800000I-250000J0D01*
G01*
G37*
%TD.AperFunction*%
%TD*%
%TO.P,D2,1,DOUT*%
%TO.N,Net-(D2-DOUT)*%
%TA.AperFunction,SMDPad,CuDef*%
G36*
G01*
X111675000Y-50700000D02*
X111425000Y-50700000D01*
G75*
G02*
X111300000Y-50575000I0J125000D01*
G01*
X111300000Y-50325000D01*
G75*
G02*
X111425000Y-50200000I125000J0D01*
G01*
X111675000Y-50200000D01*
G75*
G02*
X111800000Y-50325000I0J-125000D01*
G01*
X111800000Y-50575000D01*
G75*
G02*
X111675000Y-50700000I-125000J0D01*
G01*
G37*
%TD.AperFunction*%
%TO.P,D2,2,VSS*%
%TO.N,GND*%
%TA.AperFunction,SMDPad,CuDef*%
G36*
G01*
X112575000Y-50700000D02*
X112325000Y-50700000D01*
G75*
G02*
X112200000Y-50575000I0J125000D01*
G01*
X112200000Y-50325000D01*
G75*
G02*
X112325000Y-50200000I125000J0D01*
G01*
X112575000Y-50200000D01*
G75*
G02*
X112700000Y-50325000I0J-125000D01*
G01*
X112700000Y-50575000D01*
G75*
G02*
X112575000Y-50700000I-125000J0D01*
G01*
G37*
%TD.AperFunction*%
%TO.P,D2,3,DIN*%
%TO.N,Net-(D1-DOUT)*%
%TA.AperFunction,SMDPad,CuDef*%
G36*
G01*
X112575000Y-49800000D02*
X112325000Y-49800000D01*
G75*
G02*
X112200000Y-49675000I0J125000D01*
G01*
X112200000Y-49425000D01*
G75*
G02*
X112325000Y-49300000I125000J0D01*
G01*
X112575000Y-49300000D01*
G75*
G02*
X112700000Y-49425000I0J-125000D01*
G01*
X112700000Y-49675000D01*
G75*
G02*
X112575000Y-49800000I-125000J0D01*
G01*
G37*
%TD.AperFunction*%
%TO.P,D2,4,VDD*%
%TO.N,/VBAT*%
%TA.AperFunction,SMDPad,CuDef*%
G36*
G01*
X111675000Y-49800000D02*
X111425000Y-49800000D01*
G75*
G02*
X111300000Y-49675000I0J125000D01*
G01*
X111300000Y-49425000D01*
G75*
G02*
X111425000Y-49300000I125000J0D01*
G01*
X111675000Y-49300000D01*
G75*
G02*
X111800000Y-49425000I0J-125000D01*
G01*
X111800000Y-49675000D01*
G75*
G02*
X111675000Y-49800000I-125000J0D01*
G01*
G37*
%TD.AperFunction*%
%TD*%
D10*
%TO.P,SW2,1,1*%
%TO.N,/BUTTON_1*%
X79950000Y-46200000D03*
X84050000Y-46200000D03*
%TO.P,SW2,2,2*%
%TO.N,GND*%
X79950000Y-47800000D03*
X84050000Y-47800000D03*
%TD*%
%TO.P,R5,1*%
%TO.N,/SDA*%
%TA.AperFunction,SMDPad,CuDef*%
G36*
G01*
X86975000Y-62275000D02*
X86975000Y-61725000D01*
G75*
G02*
X87175000Y-61525000I200000J0D01*
G01*
X87575000Y-61525000D01*
G75*
G02*
X87775000Y-61725000I0J-200000D01*
G01*
X87775000Y-62275000D01*
G75*
G02*
X87575000Y-62475000I-200000J0D01*
G01*
X87175000Y-62475000D01*
G75*
G02*
X86975000Y-62275000I0J200000D01*
G01*
G37*
%TD.AperFunction*%
%TO.P,R5,2*%
%TO.N,+3V3*%
%TA.AperFunction,SMDPad,CuDef*%
G36*
G01*
X88625000Y-62275000D02*
X88625000Y-61725000D01*
G75*
G02*
X88825000Y-61525000I200000J0D01*
G01*
X89225000Y-61525000D01*
G75*
G02*
X89425000Y-61725000I0J-200000D01*
G01*
X89425000Y-62275000D01*
G75*
G02*
X89225000Y-62475000I-200000J0D01*
G01*
X88825000Y-62475000D01*
G75*
G02*
X88625000Y-62275000I0J200000D01*
G01*
G37*
%TD.AperFunction*%
%TD*%
%TO.P,R3,1*%
%TO.N,/TXRX1*%
%TA.AperFunction,SMDPad,CuDef*%
G36*
G01*
X116275000Y-58525000D02*
X116275000Y-57975000D01*
G75*
G02*
X116475000Y-57775000I200000J0D01*
G01*
X116875000Y-57775000D01*
G75*
G02*
X117075000Y-57975000I0J-200000D01*
G01*
X117075000Y-58525000D01*
G75*
G02*
X116875000Y-58725000I-200000J0D01*
G01*
X116475000Y-58725000D01*
G75*
G02*
X116275000Y-58525000I0J200000D01*
G01*
G37*
%TD.AperFunction*%
%TO.P,R3,2*%
%TO.N,Net-(J2-Pin_4)*%
%TA.AperFunction,SMDPad,CuDef*%
G36*
G01*
X117925000Y-58525000D02*
X117925000Y-57975000D01*
G75*
G02*
X118125000Y-57775000I200000J0D01*
G01*
X118525000Y-57775000D01*
G75*
G02*
X118725000Y-57975000I0J-200000D01*
G01*
X118725000Y-58525000D01*
G75*
G02*
X118525000Y-58725000I-200000J0D01*
G01*
X118125000Y-58725000D01*
G75*
G02*
X117925000Y-58525000I0J200000D01*
G01*
G37*
%TD.AperFunction*%
%TD*%
%TO.P,J6,1,Pin_1*%
%TO.N,/SERVO1*%
%TA.AperFunction,SMDPad,CuDef*%
G36*
G01*
X77875000Y-55850000D02*
X74525000Y-55850000D01*
G75*
G02*
X74350000Y-55675000I0J175000D01*
G01*
X74350000Y-55325000D01*
G75*
G02*
X74525000Y-55150000I175000J0D01*
G01*
X77875000Y-55150000D01*
G75*
G02*
X78050000Y-55325000I0J-175000D01*
G01*
X78050000Y-55675000D01*
G75*
G02*
X77875000Y-55850000I-175000J0D01*
G01*
G37*
%TD.AperFunction*%
%TO.P,J6,2,Pin_2*%
%TO.N,/VBAT*%
%TA.AperFunction,SMDPad,CuDef*%
G36*
G01*
X77875000Y-54350000D02*
X74525000Y-54350000D01*
G75*
G02*
X74350000Y-54175000I0J175000D01*
G01*
X74350000Y-53825000D01*
G75*
G02*
X74525000Y-53650000I175000J0D01*
G01*
X77875000Y-53650000D01*
G75*
G02*
X78050000Y-53825000I0J-175000D01*
G01*
X78050000Y-54175000D01*
G75*
G02*
X77875000Y-54350000I-175000J0D01*
G01*
G37*
%TD.AperFunction*%
%TO.P,J6,3,Pin_3*%
%TO.N,GND*%
%TA.AperFunction,SMDPad,CuDef*%
G36*
G01*
X77875000Y-52850000D02*
X74525000Y-52850000D01*
G75*
G02*
X74350000Y-52675000I0J175000D01*
G01*
X74350000Y-52325000D01*
G75*
G02*
X74525000Y-52150000I175000J0D01*
G01*
X77875000Y-52150000D01*
G75*
G02*
X78050000Y-52325000I0J-175000D01*
G01*
X78050000Y-52675000D01*
G75*
G02*
X77875000Y-52850000I-175000J0D01*
G01*
G37*
%TD.AperFunction*%
%TO.P,J6,MP,MountPin*%
%TA.AperFunction,SMDPad,CuDef*%
G36*
G01*
X74999999Y-58300000D02*
X73200001Y-58300000D01*
G75*
G02*
X72950000Y-58049999I0J250001D01*
G01*
X72950000Y-57050001D01*
G75*
G02*
X73200001Y-56800000I250001J0D01*
G01*
X74999999Y-56800000D01*
G75*
G02*
X75250000Y-57050001I0J-250001D01*
G01*
X75250000Y-58049999D01*
G75*
G02*
X74999999Y-58300000I-250001J0D01*
G01*
G37*
%TD.AperFunction*%
%TA.AperFunction,SMDPad,CuDef*%
G36*
G01*
X74999999Y-51200000D02*
X73200001Y-51200000D01*
G75*
G02*
X72950000Y-50949999I0J250001D01*
G01*
X72950000Y-49950001D01*
G75*
G02*
X73200001Y-49700000I250001J0D01*
G01*
X74999999Y-49700000D01*
G75*
G02*
X75250000Y-49950001I0J-250001D01*
G01*
X75250000Y-50949999D01*
G75*
G02*
X74999999Y-51200000I-250001J0D01*
G01*
G37*
%TD.AperFunction*%
%TD*%
%TO.P,SW4,1,1*%
%TO.N,/BUTTON_3*%
X115950000Y-46200000D03*
X120050000Y-46200000D03*
%TO.P,SW4,2,2*%
%TO.N,GND*%
X115950000Y-47800000D03*
X120050000Y-47800000D03*
%TD*%
%TO.P,R6,1*%
%TO.N,/SCL*%
%TA.AperFunction,SMDPad,CuDef*%
G36*
G01*
X86950000Y-64075000D02*
X86950000Y-63525000D01*
G75*
G02*
X87150000Y-63325000I200000J0D01*
G01*
X87550000Y-63325000D01*
G75*
G02*
X87750000Y-63525000I0J-200000D01*
G01*
X87750000Y-64075000D01*
G75*
G02*
X87550000Y-64275000I-200000J0D01*
G01*
X87150000Y-64275000D01*
G75*
G02*
X86950000Y-64075000I0J200000D01*
G01*
G37*
%TD.AperFunction*%
%TO.P,R6,2*%
%TO.N,+3V3*%
%TA.AperFunction,SMDPad,CuDef*%
G36*
G01*
X88600000Y-64075000D02*
X88600000Y-63525000D01*
G75*
G02*
X88800000Y-63325000I200000J0D01*
G01*
X89200000Y-63325000D01*
G75*
G02*
X89400000Y-63525000I0J-200000D01*
G01*
X89400000Y-64075000D01*
G75*
G02*
X89200000Y-64275000I-200000J0D01*
G01*
X88800000Y-64275000D01*
G75*
G02*
X88600000Y-64075000I0J200000D01*
G01*
G37*
%TD.AperFunction*%
%TD*%
%TO.P,D4,1,DOUT*%
%TO.N,unconnected-(D4-DOUT-Pad1)*%
%TA.AperFunction,SMDPad,CuDef*%
G36*
G01*
X74675000Y-48450000D02*
X74425000Y-48450000D01*
G75*
G02*
X74300000Y-48325000I0J125000D01*
G01*
X74300000Y-48075000D01*
G75*
G02*
X74425000Y-47950000I125000J0D01*
G01*
X74675000Y-47950000D01*
G75*
G02*
X74800000Y-48075000I0J-125000D01*
G01*
X74800000Y-48325000D01*
G75*
G02*
X74675000Y-48450000I-125000J0D01*
G01*
G37*
%TD.AperFunction*%
%TO.P,D4,2,VSS*%
%TO.N,GND*%
%TA.AperFunction,SMDPad,CuDef*%
G36*
G01*
X75575000Y-48450000D02*
X75325000Y-48450000D01*
G75*
G02*
X75200000Y-48325000I0J125000D01*
G01*
X75200000Y-48075000D01*
G75*
G02*
X75325000Y-47950000I125000J0D01*
G01*
X75575000Y-47950000D01*
G75*
G02*
X75700000Y-48075000I0J-125000D01*
G01*
X75700000Y-48325000D01*
G75*
G02*
X75575000Y-48450000I-125000J0D01*
G01*
G37*
%TD.AperFunction*%
%TO.P,D4,3,DIN*%
%TO.N,Net-(D3-DOUT)*%
%TA.AperFunction,SMDPad,CuDef*%
G36*
G01*
X75575000Y-47550000D02*
X75325000Y-47550000D01*
G75*
G02*
X75200000Y-47425000I0J125000D01*
G01*
X75200000Y-47175000D01*
G75*
G02*
X75325000Y-47050000I125000J0D01*
G01*
X75575000Y-47050000D01*
G75*
G02*
X75700000Y-47175000I0J-125000D01*
G01*
X75700000Y-47425000D01*
G75*
G02*
X75575000Y-47550000I-125000J0D01*
G01*
G37*
%TD.AperFunction*%
%TO.P,D4,4,VDD*%
%TO.N,/VBAT*%
%TA.AperFunction,SMDPad,CuDef*%
G36*
G01*
X74675000Y-47550000D02*
X74425000Y-47550000D01*
G75*
G02*
X74300000Y-47425000I0J125000D01*
G01*
X74300000Y-47175000D01*
G75*
G02*
X74425000Y-47050000I125000J0D01*
G01*
X74675000Y-47050000D01*
G75*
G02*
X74800000Y-47175000I0J-125000D01*
G01*
X74800000Y-47425000D01*
G75*
G02*
X74675000Y-47550000I-125000J0D01*
G01*
G37*
%TD.AperFunction*%
%TD*%
D11*
%TO.P,J4,1,Pin_1*%
%TO.N,+3V3*%
X93675000Y-63475000D03*
D12*
%TO.P,J4,2,Pin_2*%
%TO.N,GND*%
X96215000Y-63475000D03*
%TO.P,J4,3,Pin_3*%
%TO.N,/SDA*%
X98755000Y-63475000D03*
%TO.P,J4,4,Pin_4*%
%TO.N,/SCL*%
X101295000Y-63475000D03*
%TO.P,J4,5,Pin_5*%
%TO.N,/INT*%
X103835000Y-63475000D03*
%TO.P,J4,6,Pin_6*%
%TO.N,/SHUT*%
X106375000Y-63475000D03*
%TD*%
D10*
%TO.P,SW5,1,1*%
%TO.N,/BUTTON_4*%
X115900000Y-52200000D03*
X120000000Y-52200000D03*
%TO.P,SW5,2,2*%
%TO.N,GND*%
X115900000Y-53800000D03*
X120000000Y-53800000D03*
%TD*%
%TO.P,U1,1,P0.02_AIN0_LOW_A0_D0*%
%TO.N,/BUTTON_1*%
%TA.AperFunction,SMDPad,CuDef*%
G36*
G01*
X92761000Y-43000000D02*
X92761000Y-43760000D01*
G75*
G02*
X92666000Y-43855000I-95000J0D01*
G01*
X90824000Y-43855000D01*
G75*
G02*
X90729000Y-43760000I0J95000D01*
G01*
X90729000Y-43000000D01*
G75*
G02*
X90824000Y-42905000I95000J0D01*
G01*
X92666000Y-42905000D01*
G75*
G02*
X92761000Y-43000000I0J-95000D01*
G01*
G37*
%TD.AperFunction*%
%TO.P,U1,2,P0.03_AIN1_LOW_A1_D1*%
%TO.N,/BUTTON_2*%
%TA.AperFunction,SMDPad,CuDef*%
G36*
G01*
X92761000Y-45540000D02*
X92761000Y-46300000D01*
G75*
G02*
X92666000Y-46395000I-95000J0D01*
G01*
X90824000Y-46395000D01*
G75*
G02*
X90729000Y-46300000I0J95000D01*
G01*
X90729000Y-45540000D01*
G75*
G02*
X90824000Y-45445000I95000J0D01*
G01*
X92666000Y-45445000D01*
G75*
G02*
X92761000Y-45540000I0J-95000D01*
G01*
G37*
%TD.AperFunction*%
%TO.P,U1,3,P0.28_AIN4_LOW_A2_D2*%
%TO.N,/BUTTON_3*%
%TA.AperFunction,SMDPad,CuDef*%
G36*
G01*
X92761000Y-48080000D02*
X92761000Y-48840000D01*
G75*
G02*
X92666000Y-48935000I-95000J0D01*
G01*
X90824000Y-48935000D01*
G75*
G02*
X90729000Y-48840000I0J95000D01*
G01*
X90729000Y-48080000D01*
G75*
G02*
X90824000Y-47985000I95000J0D01*
G01*
X92666000Y-47985000D01*
G75*
G02*
X92761000Y-48080000I0J-95000D01*
G01*
G37*
%TD.AperFunction*%
%TO.P,U1,4,P0.29_AIN5_LOW_A3_D3*%
%TO.N,/BUTTON_4*%
%TA.AperFunction,SMDPad,CuDef*%
G36*
G01*
X92761000Y-50620000D02*
X92761000Y-51380000D01*
G75*
G02*
X92666000Y-51475000I-95000J0D01*
G01*
X90824000Y-51475000D01*
G75*
G02*
X90729000Y-51380000I0J95000D01*
G01*
X90729000Y-50620000D01*
G75*
G02*
X90824000Y-50525000I95000J0D01*
G01*
X92666000Y-50525000D01*
G75*
G02*
X92761000Y-50620000I0J-95000D01*
G01*
G37*
%TD.AperFunction*%
%TO.P,U1,5,P0.04_AIN2_A4_D4*%
%TO.N,/SHUT*%
%TA.AperFunction,SMDPad,CuDef*%
G36*
G01*
X92761000Y-53160000D02*
X92761000Y-53920000D01*
G75*
G02*
X92666000Y-54015000I-95000J0D01*
G01*
X90824000Y-54015000D01*
G75*
G02*
X90729000Y-53920000I0J95000D01*
G01*
X90729000Y-53160000D01*
G75*
G02*
X90824000Y-53065000I95000J0D01*
G01*
X92666000Y-53065000D01*
G75*
G02*
X92761000Y-53160000I0J-95000D01*
G01*
G37*
%TD.AperFunction*%
%TO.P,U1,6,P0.05_AIN3_A5_D5*%
%TO.N,/INT*%
%TA.AperFunction,SMDPad,CuDef*%
G36*
G01*
X92761000Y-55700000D02*
X92761000Y-56460000D01*
G75*
G02*
X92666000Y-56555000I-95000J0D01*
G01*
X90824000Y-56555000D01*
G75*
G02*
X90729000Y-56460000I0J95000D01*
G01*
X90729000Y-55700000D01*
G75*
G02*
X90824000Y-55605000I95000J0D01*
G01*
X92666000Y-55605000D01*
G75*
G02*
X92761000Y-55700000I0J-95000D01*
G01*
G37*
%TD.AperFunction*%
%TO.P,U1,7,P1.11_TX_D6*%
%TO.N,/RXTX1*%
%TA.AperFunction,SMDPad,CuDef*%
G36*
G01*
X92761000Y-58240000D02*
X92761000Y-59000000D01*
G75*
G02*
X92666000Y-59095000I-95000J0D01*
G01*
X90824000Y-59095000D01*
G75*
G02*
X90729000Y-59000000I0J95000D01*
G01*
X90729000Y-58240000D01*
G75*
G02*
X90824000Y-58145000I95000J0D01*
G01*
X92666000Y-58145000D01*
G75*
G02*
X92761000Y-58240000I0J-95000D01*
G01*
G37*
%TD.AperFunction*%
%TO.P,U1,8,P1.12_RX_D7*%
%TO.N,/TXRX1*%
%TA.AperFunction,SMDPad,CuDef*%
G36*
G01*
X107239000Y-59000000D02*
X107239000Y-58240000D01*
G75*
G02*
X107334000Y-58145000I95000J0D01*
G01*
X109176000Y-58145000D01*
G75*
G02*
X109271000Y-58240000I0J-95000D01*
G01*
X109271000Y-59000000D01*
G75*
G02*
X109176000Y-59095000I-95000J0D01*
G01*
X107334000Y-59095000D01*
G75*
G02*
X107239000Y-59000000I0J95000D01*
G01*
G37*
%TD.AperFunction*%
%TO.P,U1,9,P1.13_SCK_D8*%
%TO.N,unconnected-(U1-P1.13_SCK_D8-Pad9)*%
%TA.AperFunction,SMDPad,CuDef*%
G36*
G01*
X107239000Y-56460000D02*
X107239000Y-55700000D01*
G75*
G02*
X107334000Y-55605000I95000J0D01*
G01*
X109176000Y-55605000D01*
G75*
G02*
X109271000Y-55700000I0J-95000D01*
G01*
X109271000Y-56460000D01*
G75*
G02*
X109176000Y-56555000I-95000J0D01*
G01*
X107334000Y-56555000D01*
G75*
G02*
X107239000Y-56460000I0J95000D01*
G01*
G37*
%TD.AperFunction*%
%TO.P,U1,10,P1.14_MISO_D9*%
%TO.N,unconnected-(U1-P1.14_MISO_D9-Pad10)*%
%TA.AperFunction,SMDPad,CuDef*%
G36*
G01*
X107239000Y-53920000D02*
X107239000Y-53160000D01*
G75*
G02*
X107334000Y-53065000I95000J0D01*
G01*
X109176000Y-53065000D01*
G75*
G02*
X109271000Y-53160000I0J-95000D01*
G01*
X109271000Y-53920000D01*
G75*
G02*
X109176000Y-54015000I-95000J0D01*
G01*
X107334000Y-54015000D01*
G75*
G02*
X107239000Y-53920000I0J95000D01*
G01*
G37*
%TD.AperFunction*%
%TO.P,U1,11,P1.15_MOSI_D10*%
%TO.N,/WS2812*%
%TA.AperFunction,SMDPad,CuDef*%
G36*
G01*
X107239000Y-51380000D02*
X107239000Y-50620000D01*
G75*
G02*
X107334000Y-50525000I95000J0D01*
G01*
X109176000Y-50525000D01*
G75*
G02*
X109271000Y-50620000I0J-95000D01*
G01*
X109271000Y-51380000D01*
G75*
G02*
X109176000Y-51475000I-95000J0D01*
G01*
X107334000Y-51475000D01*
G75*
G02*
X107239000Y-51380000I0J95000D01*
G01*
G37*
%TD.AperFunction*%
%TO.P,U1,12,3V3*%
%TO.N,+3V3*%
%TA.AperFunction,SMDPad,CuDef*%
G36*
G01*
X107239000Y-48840000D02*
X107239000Y-48080000D01*
G75*
G02*
X107334000Y-47985000I95000J0D01*
G01*
X109176000Y-47985000D01*
G75*
G02*
X109271000Y-48080000I0J-95000D01*
G01*
X109271000Y-48840000D01*
G75*
G02*
X109176000Y-48935000I-95000J0D01*
G01*
X107334000Y-48935000D01*
G75*
G02*
X107239000Y-48840000I0J95000D01*
G01*
G37*
%TD.AperFunction*%
%TO.P,U1,13,GND*%
%TO.N,GND*%
%TA.AperFunction,SMDPad,CuDef*%
G36*
G01*
X107239000Y-46300000D02*
X107239000Y-45540000D01*
G75*
G02*
X107334000Y-45445000I95000J0D01*
G01*
X109176000Y-45445000D01*
G75*
G02*
X109271000Y-45540000I0J-95000D01*
G01*
X109271000Y-46300000D01*
G75*
G02*
X109176000Y-46395000I-95000J0D01*
G01*
X107334000Y-46395000D01*
G75*
G02*
X107239000Y-46300000I0J95000D01*
G01*
G37*
%TD.AperFunction*%
%TO.P,U1,14,5V*%
%TO.N,unconnected-(U1-5V-Pad14)*%
%TA.AperFunction,SMDPad,CuDef*%
G36*
G01*
X107239000Y-43760000D02*
X107239000Y-43000000D01*
G75*
G02*
X107334000Y-42905000I95000J0D01*
G01*
X109176000Y-42905000D01*
G75*
G02*
X109271000Y-43000000I0J-95000D01*
G01*
X109271000Y-43760000D01*
G75*
G02*
X109176000Y-43855000I-95000J0D01*
G01*
X107334000Y-43855000D01*
G75*
G02*
X107239000Y-43760000I0J95000D01*
G01*
G37*
%TD.AperFunction*%
%TA.AperFunction,SMDPad,CuDef*%
%TO.P,U1,15,P0.15_I2S_SD_D11*%
%TO.N,/SDA*%
G36*
X91961000Y-44792500D02*
G01*
X91628500Y-45125000D01*
X90824000Y-45125000D01*
X90787645Y-45117769D01*
X90756825Y-45097175D01*
X90736231Y-45066355D01*
X90729000Y-45030000D01*
X90729000Y-44270000D01*
X90736231Y-44233645D01*
X90756825Y-44202825D01*
X90787645Y-44182231D01*
X90824000Y-44175000D01*
X91628500Y-44175000D01*
X91961000Y-44507500D01*
X91961000Y-44792500D01*
G37*
%TD.AperFunction*%
%TA.AperFunction,SMDPad,CuDef*%
%TO.P,U1,16,P0.19_I2S_SCK_D12*%
%TO.N,/SCL*%
G36*
X91961000Y-47332500D02*
G01*
X91628500Y-47665000D01*
X90824000Y-47665000D01*
X90787645Y-47657769D01*
X90756825Y-47637175D01*
X90736231Y-47606355D01*
X90729000Y-47570000D01*
X90729000Y-46810000D01*
X90736231Y-46773645D01*
X90756825Y-46742825D01*
X90787645Y-46722231D01*
X90824000Y-46715000D01*
X91628500Y-46715000D01*
X91961000Y-47047500D01*
X91961000Y-47332500D01*
G37*
%TD.AperFunction*%
%TA.AperFunction,SMDPad,CuDef*%
%TO.P,U1,17,P1.01_I2S_WS_D13*%
%TO.N,/SERVO1*%
G36*
X91961000Y-49872500D02*
G01*
X91628500Y-50205000D01*
X90824000Y-50205000D01*
X90787645Y-50197769D01*
X90756825Y-50177175D01*
X90736231Y-50146355D01*
X90729000Y-50110000D01*
X90729000Y-49350000D01*
X90736231Y-49313645D01*
X90756825Y-49282825D01*
X90787645Y-49262231D01*
X90824000Y-49255000D01*
X91628500Y-49255000D01*
X91961000Y-49587500D01*
X91961000Y-49872500D01*
G37*
%TD.AperFunction*%
%TA.AperFunction,SMDPad,CuDef*%
%TO.P,U1,18,P0.09/NFC1/RX1_D14*%
%TO.N,/TXRX2*%
G36*
X91961000Y-52412500D02*
G01*
X91628500Y-52745000D01*
X90824000Y-52745000D01*
X90787645Y-52737769D01*
X90756825Y-52717175D01*
X90736231Y-52686355D01*
X90729000Y-52650000D01*
X90729000Y-51890000D01*
X90736231Y-51853645D01*
X90756825Y-51822825D01*
X90787645Y-51802231D01*
X90824000Y-51795000D01*
X91628500Y-51795000D01*
X91961000Y-52127500D01*
X91961000Y-52412500D01*
G37*
%TD.AperFunction*%
%TA.AperFunction,SMDPad,CuDef*%
%TO.P,U1,19,P0.10/NFC2/TX1_D15*%
%TO.N,/RXTX2*%
G36*
X91961000Y-54952500D02*
G01*
X91628500Y-55285000D01*
X90824000Y-55285000D01*
X90787645Y-55277769D01*
X90756825Y-55257175D01*
X90736231Y-55226355D01*
X90729000Y-55190000D01*
X90729000Y-54430000D01*
X90736231Y-54393645D01*
X90756825Y-54362825D01*
X90787645Y-54342231D01*
X90824000Y-54335000D01*
X91628500Y-54335000D01*
X91961000Y-54667500D01*
X91961000Y-54952500D01*
G37*
%TD.AperFunction*%
%TA.AperFunction,SMDPad,CuDef*%
%TO.P,U1,20,P0.31_AIN7_BAT_D16*%
%TO.N,unconnected-(U1-P0.31_AIN7_BAT_D16-Pad20)*%
G36*
X91961000Y-57492500D02*
G01*
X91628500Y-57825000D01*
X90824000Y-57825000D01*
X90787645Y-57817769D01*
X90756825Y-57797175D01*
X90736231Y-57766355D01*
X90729000Y-57730000D01*
X90729000Y-56970000D01*
X90736231Y-56933645D01*
X90756825Y-56902825D01*
X90787645Y-56882231D01*
X90824000Y-56875000D01*
X91628500Y-56875000D01*
X91961000Y-57207500D01*
X91961000Y-57492500D01*
G37*
%TD.AperFunction*%
%TA.AperFunction,SMDPad,CuDef*%
%TO.P,U1,21,P1.03_SCK1_D17*%
%TO.N,/SERVO2*%
G36*
X108039000Y-57207500D02*
G01*
X108371500Y-56875000D01*
X109176000Y-56875000D01*
X109212355Y-56882231D01*
X109243175Y-56902825D01*
X109263769Y-56933645D01*
X109271000Y-56970000D01*
X109271000Y-57730000D01*
X109263769Y-57766355D01*
X109243175Y-57797175D01*
X109212355Y-57817769D01*
X109176000Y-57825000D01*
X108371500Y-57825000D01*
X108039000Y-57492500D01*
X108039000Y-57207500D01*
G37*
%TD.AperFunction*%
%TA.AperFunction,SMDPad,CuDef*%
%TO.P,U1,22,P1.05_MISO1_D18*%
%TO.N,unconnected-(U1-P1.05_MISO1_D18-Pad22)*%
G36*
X108039000Y-54667500D02*
G01*
X108371500Y-54335000D01*
X109176000Y-54335000D01*
X109212355Y-54342231D01*
X109243175Y-54362825D01*
X109263769Y-54393645D01*
X109271000Y-54430000D01*
X109271000Y-55190000D01*
X109263769Y-55226355D01*
X109243175Y-55257175D01*
X109212355Y-55277769D01*
X109176000Y-55285000D01*
X108371500Y-55285000D01*
X108039000Y-54952500D01*
X108039000Y-54667500D01*
G37*
%TD.AperFunction*%
%TA.AperFunction,SMDPad,CuDef*%
%TO.P,U1,23,P1.07_MOSI1_D19*%
%TO.N,unconnected-(U1-P1.07_MOSI1_D19-Pad23)*%
G36*
X108039000Y-52127500D02*
G01*
X108371500Y-51795000D01*
X109176000Y-51795000D01*
X109212355Y-51802231D01*
X109243175Y-51822825D01*
X109263769Y-51853645D01*
X109271000Y-51890000D01*
X109271000Y-52650000D01*
X109263769Y-52686355D01*
X109243175Y-52717175D01*
X109212355Y-52737769D01*
X109176000Y-52745000D01*
X108371500Y-52745000D01*
X108039000Y-52412500D01*
X108039000Y-52127500D01*
G37*
%TD.AperFunction*%
D13*
%TO.P,U1,24,SWDIO*%
%TO.N,unconnected-(U1-SWDIO-Pad24)*%
X98730000Y-42427500D03*
%TO.P,U1,25,SWDCLK*%
%TO.N,unconnected-(U1-SWDCLK-Pad25)*%
X101270000Y-42427500D03*
%TO.P,U1,26,REST*%
%TO.N,unconnected-(U1-REST-Pad26)*%
X98730000Y-44967500D03*
%TO.P,U1,27,GND*%
%TO.N,unconnected-(U1-GND-Pad27)*%
X101270000Y-44967500D03*
%TO.P,U1,32,VBAT*%
%TO.N,/VBAT*%
%TA.AperFunction,ComponentPad*%
G36*
G01*
X98566012Y-55267823D02*
X99446012Y-55267823D01*
G75*
G02*
X99556012Y-55377823I0J-110000D01*
G01*
X99556012Y-57657823D01*
G75*
G02*
X99446012Y-57767823I-110000J0D01*
G01*
X98566012Y-57767823D01*
G75*
G02*
X98456012Y-57657823I0J110000D01*
G01*
X98456012Y-55377823D01*
G75*
G02*
X98566012Y-55267823I110000J0D01*
G01*
G37*
%TD.AperFunction*%
%TO.P,U1,33,GND*%
%TO.N,GND*%
%TA.AperFunction,ComponentPad*%
G36*
G01*
X100566012Y-55267823D02*
X101446012Y-55267823D01*
G75*
G02*
X101556012Y-55377823I0J-110000D01*
G01*
X101556012Y-57657823D01*
G75*
G02*
X101446012Y-57767823I-110000J0D01*
G01*
X100566012Y-57767823D01*
G75*
G02*
X100456012Y-57657823I0J110000D01*
G01*
X100456012Y-55377823D01*
G75*
G02*
X100566012Y-55267823I110000J0D01*
G01*
G37*
%TD.AperFunction*%
%TD*%
%TO.P,D1,1,DOUT*%
%TO.N,Net-(D1-DOUT)*%
%TA.AperFunction,SMDPad,CuDef*%
G36*
G01*
X124675000Y-48450000D02*
X124425000Y-48450000D01*
G75*
G02*
X124300000Y-48325000I0J125000D01*
G01*
X124300000Y-48075000D01*
G75*
G02*
X124425000Y-47950000I125000J0D01*
G01*
X124675000Y-47950000D01*
G75*
G02*
X124800000Y-48075000I0J-125000D01*
G01*
X124800000Y-48325000D01*
G75*
G02*
X124675000Y-48450000I-125000J0D01*
G01*
G37*
%TD.AperFunction*%
%TO.P,D1,2,VSS*%
%TO.N,GND*%
%TA.AperFunction,SMDPad,CuDef*%
G36*
G01*
X125575000Y-48450000D02*
X125325000Y-48450000D01*
G75*
G02*
X125200000Y-48325000I0J125000D01*
G01*
X125200000Y-48075000D01*
G75*
G02*
X125325000Y-47950000I125000J0D01*
G01*
X125575000Y-47950000D01*
G75*
G02*
X125700000Y-48075000I0J-125000D01*
G01*
X125700000Y-48325000D01*
G75*
G02*
X125575000Y-48450000I-125000J0D01*
G01*
G37*
%TD.AperFunction*%
%TO.P,D1,3,DIN*%
%TO.N,/WS2812*%
%TA.AperFunction,SMDPad,CuDef*%
G36*
G01*
X125575000Y-47550000D02*
X125325000Y-47550000D01*
G75*
G02*
X125200000Y-47425000I0J125000D01*
G01*
X125200000Y-47175000D01*
G75*
G02*
X125325000Y-47050000I125000J0D01*
G01*
X125575000Y-47050000D01*
G75*
G02*
X125700000Y-47175000I0J-125000D01*
G01*
X125700000Y-47425000D01*
G75*
G02*
X125575000Y-47550000I-125000J0D01*
G01*
G37*
%TD.AperFunction*%
%TO.P,D1,4,VDD*%
%TO.N,/VBAT*%
%TA.AperFunction,SMDPad,CuDef*%
G36*
G01*
X124675000Y-47550000D02*
X124425000Y-47550000D01*
G75*
G02*
X124300000Y-47425000I0J125000D01*
G01*
X124300000Y-47175000D01*
G75*
G02*
X124425000Y-47050000I125000J0D01*
G01*
X124675000Y-47050000D01*
G75*
G02*
X124800000Y-47175000I0J-125000D01*
G01*
X124800000Y-47425000D01*
G75*
G02*
X124675000Y-47550000I-125000J0D01*
G01*
G37*
%TD.AperFunction*%
%TD*%
%TO.P,D3,1,DOUT*%
%TO.N,Net-(D3-DOUT)*%
%TA.AperFunction,SMDPad,CuDef*%
G36*
G01*
X87675000Y-50700000D02*
X87425000Y-50700000D01*
G75*
G02*
X87300000Y-50575000I0J125000D01*
G01*
X87300000Y-50325000D01*
G75*
G02*
X87425000Y-50200000I125000J0D01*
G01*
X87675000Y-50200000D01*
G75*
G02*
X87800000Y-50325000I0J-125000D01*
G01*
X87800000Y-50575000D01*
G75*
G02*
X87675000Y-50700000I-125000J0D01*
G01*
G37*
%TD.AperFunction*%
%TO.P,D3,2,VSS*%
%TO.N,GND*%
%TA.AperFunction,SMDPad,CuDef*%
G36*
G01*
X88575000Y-50700000D02*
X88325000Y-50700000D01*
G75*
G02*
X88200000Y-50575000I0J125000D01*
G01*
X88200000Y-50325000D01*
G75*
G02*
X88325000Y-50200000I125000J0D01*
G01*
X88575000Y-50200000D01*
G75*
G02*
X88700000Y-50325000I0J-125000D01*
G01*
X88700000Y-50575000D01*
G75*
G02*
X88575000Y-50700000I-125000J0D01*
G01*
G37*
%TD.AperFunction*%
%TO.P,D3,3,DIN*%
%TO.N,Net-(D2-DOUT)*%
%TA.AperFunction,SMDPad,CuDef*%
G36*
G01*
X88575000Y-49800000D02*
X88325000Y-49800000D01*
G75*
G02*
X88200000Y-49675000I0J125000D01*
G01*
X88200000Y-49425000D01*
G75*
G02*
X88325000Y-49300000I125000J0D01*
G01*
X88575000Y-49300000D01*
G75*
G02*
X88700000Y-49425000I0J-125000D01*
G01*
X88700000Y-49675000D01*
G75*
G02*
X88575000Y-49800000I-125000J0D01*
G01*
G37*
%TD.AperFunction*%
%TO.P,D3,4,VDD*%
%TO.N,/VBAT*%
%TA.AperFunction,SMDPad,CuDef*%
G36*
G01*
X87675000Y-49800000D02*
X87425000Y-49800000D01*
G75*
G02*
X87300000Y-49675000I0J125000D01*
G01*
X87300000Y-49425000D01*
G75*
G02*
X87425000Y-49300000I125000J0D01*
G01*
X87675000Y-49300000D01*
G75*
G02*
X87800000Y-49425000I0J-125000D01*
G01*
X87800000Y-49675000D01*
G75*
G02*
X87675000Y-49800000I-125000J0D01*
G01*
G37*
%TD.AperFunction*%
%TD*%
D10*
%TO.P,SW3,1,1*%
%TO.N,/BUTTON_2*%
X79950000Y-52200000D03*
X84050000Y-52200000D03*
%TO.P,SW3,2,2*%
%TO.N,GND*%
X79950000Y-53800000D03*
X84050000Y-53800000D03*
%TD*%
%TO.P,J2,1,Pin_1*%
%TO.N,/VBAT*%
%TA.AperFunction,SMDPad,CuDef*%
G36*
G01*
X130900000Y-52100000D02*
X130350000Y-52100000D01*
G75*
G02*
X130200000Y-51950000I0J150000D01*
G01*
X130200000Y-51650000D01*
G75*
G02*
X130350000Y-51500000I150000J0D01*
G01*
X130900000Y-51500000D01*
G75*
G02*
X131050000Y-51650000I0J-150000D01*
G01*
X131050000Y-51950000D01*
G75*
G02*
X130900000Y-52100000I-150000J0D01*
G01*
G37*
%TD.AperFunction*%
%TO.P,J2,2,Pin_2*%
%TO.N,GND*%
%TA.AperFunction,SMDPad,CuDef*%
G36*
G01*
X130900000Y-50900000D02*
X130350000Y-50900000D01*
G75*
G02*
X130200000Y-50750000I0J150000D01*
G01*
X130200000Y-50450000D01*
G75*
G02*
X130350000Y-50300000I150000J0D01*
G01*
X130900000Y-50300000D01*
G75*
G02*
X131050000Y-50450000I0J-150000D01*
G01*
X131050000Y-50750000D01*
G75*
G02*
X130900000Y-50900000I-150000J0D01*
G01*
G37*
%TD.AperFunction*%
%TO.P,J2,3,Pin_3*%
%TO.N,Net-(J2-Pin_3)*%
%TA.AperFunction,SMDPad,CuDef*%
G36*
G01*
X130900000Y-49700000D02*
X130350000Y-49700000D01*
G75*
G02*
X130200000Y-49550000I0J150000D01*
G01*
X130200000Y-49250000D01*
G75*
G02*
X130350000Y-49100000I150000J0D01*
G01*
X130900000Y-49100000D01*
G75*
G02*
X131050000Y-49250000I0J-150000D01*
G01*
X131050000Y-49550000D01*
G75*
G02*
X130900000Y-49700000I-150000J0D01*
G01*
G37*
%TD.AperFunction*%
%TO.P,J2,4,Pin_4*%
%TO.N,Net-(J2-Pin_4)*%
%TA.AperFunction,SMDPad,CuDef*%
G36*
G01*
X130900000Y-48500000D02*
X130350000Y-48500000D01*
G75*
G02*
X130200000Y-48350000I0J150000D01*
G01*
X130200000Y-48050000D01*
G75*
G02*
X130350000Y-47900000I150000J0D01*
G01*
X130900000Y-47900000D01*
G75*
G02*
X131050000Y-48050000I0J-150000D01*
G01*
X131050000Y-48350000D01*
G75*
G02*
X130900000Y-48500000I-150000J0D01*
G01*
G37*
%TD.AperFunction*%
%TO.P,J2,MP,MountPin*%
%TO.N,GND*%
%TA.AperFunction,SMDPad,CuDef*%
G36*
G01*
X134625000Y-53300000D02*
X134175000Y-53300000D01*
G75*
G02*
X134000000Y-53125000I0J175000D01*
G01*
X134000000Y-52775000D01*
G75*
G02*
X134175000Y-52600000I175000J0D01*
G01*
X134625000Y-52600000D01*
G75*
G02*
X134800000Y-52775000I0J-175000D01*
G01*
X134800000Y-53125000D01*
G75*
G02*
X134625000Y-53300000I-175000J0D01*
G01*
G37*
%TD.AperFunction*%
%TA.AperFunction,SMDPad,CuDef*%
G36*
G01*
X134625000Y-47400000D02*
X134175000Y-47400000D01*
G75*
G02*
X134000000Y-47225000I0J175000D01*
G01*
X134000000Y-46875000D01*
G75*
G02*
X134175000Y-46700000I175000J0D01*
G01*
X134625000Y-46700000D01*
G75*
G02*
X134800000Y-46875000I0J-175000D01*
G01*
X134800000Y-47225000D01*
G75*
G02*
X134625000Y-47400000I-175000J0D01*
G01*
G37*
%TD.AperFunction*%
%TD*%
%TO.P,J3,1,Pin_1*%
%TO.N,Net-(J3-Pin_1)*%
%TA.AperFunction,SMDPad,CuDef*%
G36*
G01*
X130550000Y-56200000D02*
X131800000Y-56200000D01*
G75*
G02*
X131950000Y-56350000I0J-150000D01*
G01*
X131950000Y-56650000D01*
G75*
G02*
X131800000Y-56800000I-150000J0D01*
G01*
X130550000Y-56800000D01*
G75*
G02*
X130400000Y-56650000I0J150000D01*
G01*
X130400000Y-56350000D01*
G75*
G02*
X130550000Y-56200000I150000J0D01*
G01*
G37*
%TD.AperFunction*%
%TO.P,J3,2,Pin_2*%
%TO.N,GND*%
%TA.AperFunction,SMDPad,CuDef*%
G36*
G01*
X130550000Y-57200000D02*
X131800000Y-57200000D01*
G75*
G02*
X131950000Y-57350000I0J-150000D01*
G01*
X131950000Y-57650000D01*
G75*
G02*
X131800000Y-57800000I-150000J0D01*
G01*
X130550000Y-57800000D01*
G75*
G02*
X130400000Y-57650000I0J150000D01*
G01*
X130400000Y-57350000D01*
G75*
G02*
X130550000Y-57200000I150000J0D01*
G01*
G37*
%TD.AperFunction*%
%TO.P,J3,MP,MountPin*%
%TA.AperFunction,SMDPad,CuDef*%
G36*
G01*
X133050000Y-54600000D02*
X134350000Y-54600000D01*
G75*
G02*
X134600000Y-54850000I0J-250000D01*
G01*
X134600000Y-55550000D01*
G75*
G02*
X134350000Y-55800000I-250000J0D01*
G01*
X133050000Y-55800000D01*
G75*
G02*
X132800000Y-55550000I0J250000D01*
G01*
X132800000Y-54850000D01*
G75*
G02*
X133050000Y-54600000I250000J0D01*
G01*
G37*
%TD.AperFunction*%
%TA.AperFunction,SMDPad,CuDef*%
G36*
G01*
X133050000Y-58200000D02*
X134350000Y-58200000D01*
G75*
G02*
X134600000Y-58450000I0J-250000D01*
G01*
X134600000Y-59150000D01*
G75*
G02*
X134350000Y-59400000I-250000J0D01*
G01*
X133050000Y-59400000D01*
G75*
G02*
X132800000Y-59150000I0J250000D01*
G01*
X132800000Y-58450000D01*
G75*
G02*
X133050000Y-58200000I250000J0D01*
G01*
G37*
%TD.AperFunction*%
%TD*%
%TO.P,J7,1,Pin_1*%
%TO.N,/SERVO2*%
%TA.AperFunction,SMDPad,CuDef*%
G36*
G01*
X122625000Y-52150000D02*
X125975000Y-52150000D01*
G75*
G02*
X126150000Y-52325000I0J-175000D01*
G01*
X126150000Y-52675000D01*
G75*
G02*
X125975000Y-52850000I-175000J0D01*
G01*
X122625000Y-52850000D01*
G75*
G02*
X122450000Y-52675000I0J175000D01*
G01*
X122450000Y-52325000D01*
G75*
G02*
X122625000Y-52150000I175000J0D01*
G01*
G37*
%TD.AperFunction*%
%TO.P,J7,2,Pin_2*%
%TO.N,/VBAT*%
%TA.AperFunction,SMDPad,CuDef*%
G36*
G01*
X122625000Y-53650000D02*
X125975000Y-53650000D01*
G75*
G02*
X126150000Y-53825000I0J-175000D01*
G01*
X126150000Y-54175000D01*
G75*
G02*
X125975000Y-54350000I-175000J0D01*
G01*
X122625000Y-54350000D01*
G75*
G02*
X122450000Y-54175000I0J175000D01*
G01*
X122450000Y-53825000D01*
G75*
G02*
X122625000Y-53650000I175000J0D01*
G01*
G37*
%TD.AperFunction*%
%TO.P,J7,3,Pin_3*%
%TO.N,GND*%
%TA.AperFunction,SMDPad,CuDef*%
G36*
G01*
X122625000Y-55150000D02*
X125975000Y-55150000D01*
G75*
G02*
X126150000Y-55325000I0J-175000D01*
G01*
X126150000Y-55675000D01*
G75*
G02*
X125975000Y-55850000I-175000J0D01*
G01*
X122625000Y-55850000D01*
G75*
G02*
X122450000Y-55675000I0J175000D01*
G01*
X122450000Y-55325000D01*
G75*
G02*
X122625000Y-55150000I175000J0D01*
G01*
G37*
%TD.AperFunction*%
%TO.P,J7,MP,MountPin*%
%TA.AperFunction,SMDPad,CuDef*%
G36*
G01*
X125500001Y-49700000D02*
X127299999Y-49700000D01*
G75*
G02*
X127550000Y-49950001I0J-250001D01*
G01*
X127550000Y-50949999D01*
G75*
G02*
X127299999Y-51200000I-250001J0D01*
G01*
X125500001Y-51200000D01*
G75*
G02*
X125250000Y-50949999I0J250001D01*
G01*
X125250000Y-49950001D01*
G75*
G02*
X125500001Y-49700000I250001J0D01*
G01*
G37*
%TD.AperFunction*%
%TA.AperFunction,SMDPad,CuDef*%
G36*
G01*
X125500001Y-56800000D02*
X127299999Y-56800000D01*
G75*
G02*
X127550000Y-57050001I0J-250001D01*
G01*
X127550000Y-58049999D01*
G75*
G02*
X127299999Y-58300000I-250001J0D01*
G01*
X125500001Y-58300000D01*
G75*
G02*
X125250000Y-58049999I0J250001D01*
G01*
X125250000Y-57050001D01*
G75*
G02*
X125500001Y-56800000I250001J0D01*
G01*
G37*
%TD.AperFunction*%
%TD*%
%TO.P,R1,1*%
%TO.N,/TXRX2*%
%TA.AperFunction,SMDPad,CuDef*%
G36*
G01*
X80275000Y-56025000D02*
X80275000Y-55475000D01*
G75*
G02*
X80475000Y-55275000I200000J0D01*
G01*
X80875000Y-55275000D01*
G75*
G02*
X81075000Y-55475000I0J-200000D01*
G01*
X81075000Y-56025000D01*
G75*
G02*
X80875000Y-56225000I-200000J0D01*
G01*
X80475000Y-56225000D01*
G75*
G02*
X80275000Y-56025000I0J200000D01*
G01*
G37*
%TD.AperFunction*%
%TO.P,R1,2*%
%TO.N,Net-(J1-Pin_4)*%
%TA.AperFunction,SMDPad,CuDef*%
G36*
G01*
X81925000Y-56025000D02*
X81925000Y-55475000D01*
G75*
G02*
X82125000Y-55275000I200000J0D01*
G01*
X82525000Y-55275000D01*
G75*
G02*
X82725000Y-55475000I0J-200000D01*
G01*
X82725000Y-56025000D01*
G75*
G02*
X82525000Y-56225000I-200000J0D01*
G01*
X82125000Y-56225000D01*
G75*
G02*
X81925000Y-56025000I0J200000D01*
G01*
G37*
%TD.AperFunction*%
%TD*%
D14*
%TO.P,SW1,*%
%TO.N,*%
X96350000Y-67220000D03*
X96350000Y-69430000D03*
X103650000Y-67220000D03*
X103650000Y-69430000D03*
D15*
%TO.P,SW1,1,A*%
%TO.N,/VBAT*%
X97750000Y-66570000D03*
%TO.P,SW1,2,B*%
%TO.N,Net-(J3-Pin_1)*%
X100750000Y-66570000D03*
%TO.P,SW1,3,C*%
%TO.N,unconnected-(SW1-C-Pad3)*%
X102250000Y-66570000D03*
%TD*%
%TO.P,J1,1,Pin_1*%
%TO.N,/VBAT*%
%TA.AperFunction,SMDPad,CuDef*%
G36*
G01*
X69100000Y-47900000D02*
X69650000Y-47900000D01*
G75*
G02*
X69800000Y-48050000I0J-150000D01*
G01*
X69800000Y-48350000D01*
G75*
G02*
X69650000Y-48500000I-150000J0D01*
G01*
X69100000Y-48500000D01*
G75*
G02*
X68950000Y-48350000I0J150000D01*
G01*
X68950000Y-48050000D01*
G75*
G02*
X69100000Y-47900000I150000J0D01*
G01*
G37*
%TD.AperFunction*%
%TO.P,J1,2,Pin_2*%
%TO.N,GND*%
%TA.AperFunction,SMDPad,CuDef*%
G36*
G01*
X69100000Y-49100000D02*
X69650000Y-49100000D01*
G75*
G02*
X69800000Y-49250000I0J-150000D01*
G01*
X69800000Y-49550000D01*
G75*
G02*
X69650000Y-49700000I-150000J0D01*
G01*
X69100000Y-49700000D01*
G75*
G02*
X68950000Y-49550000I0J150000D01*
G01*
X68950000Y-49250000D01*
G75*
G02*
X69100000Y-49100000I150000J0D01*
G01*
G37*
%TD.AperFunction*%
%TO.P,J1,3,Pin_3*%
%TO.N,Net-(J1-Pin_3)*%
%TA.AperFunction,SMDPad,CuDef*%
G36*
G01*
X69100000Y-50300000D02*
X69650000Y-50300000D01*
G75*
G02*
X69800000Y-50450000I0J-150000D01*
G01*
X69800000Y-50750000D01*
G75*
G02*
X69650000Y-50900000I-150000J0D01*
G01*
X69100000Y-50900000D01*
G75*
G02*
X68950000Y-50750000I0J150000D01*
G01*
X68950000Y-50450000D01*
G75*
G02*
X69100000Y-50300000I150000J0D01*
G01*
G37*
%TD.AperFunction*%
%TO.P,J1,4,Pin_4*%
%TO.N,Net-(J1-Pin_4)*%
%TA.AperFunction,SMDPad,CuDef*%
G36*
G01*
X69100000Y-51500000D02*
X69650000Y-51500000D01*
G75*
G02*
X69800000Y-51650000I0J-150000D01*
G01*
X69800000Y-51950000D01*
G75*
G02*
X69650000Y-52100000I-150000J0D01*
G01*
X69100000Y-52100000D01*
G75*
G02*
X68950000Y-51950000I0J150000D01*
G01*
X68950000Y-51650000D01*
G75*
G02*
X69100000Y-51500000I150000J0D01*
G01*
G37*
%TD.AperFunction*%
%TO.P,J1,MP,MountPin*%
%TO.N,GND*%
%TA.AperFunction,SMDPad,CuDef*%
G36*
G01*
X65375000Y-46700000D02*
X65825000Y-46700000D01*
G75*
G02*
X66000000Y-46875000I0J-175000D01*
G01*
X66000000Y-47225000D01*
G75*
G02*
X65825000Y-47400000I-175000J0D01*
G01*
X65375000Y-47400000D01*
G75*
G02*
X65200000Y-47225000I0J175000D01*
G01*
X65200000Y-46875000D01*
G75*
G02*
X65375000Y-46700000I175000J0D01*
G01*
G37*
%TD.AperFunction*%
%TA.AperFunction,SMDPad,CuDef*%
G36*
G01*
X65375000Y-52600000D02*
X65825000Y-52600000D01*
G75*
G02*
X66000000Y-52775000I0J-175000D01*
G01*
X66000000Y-53125000D01*
G75*
G02*
X65825000Y-53300000I-175000J0D01*
G01*
X65375000Y-53300000D01*
G75*
G02*
X65200000Y-53125000I0J175000D01*
G01*
X65200000Y-52775000D01*
G75*
G02*
X65375000Y-52600000I175000J0D01*
G01*
G37*
%TD.AperFunction*%
%TD*%
D16*
%TO.N,GND*%
X76750000Y-57250000D03*
X77000000Y-45000000D03*
X78400000Y-60200000D03*
X127250000Y-55250000D03*
X122750000Y-58250000D03*
X113000000Y-57000000D03*
X127000000Y-45000000D03*
X73000000Y-45000000D03*
X128000000Y-55250000D03*
X75000000Y-45000000D03*
X72500000Y-53500000D03*
X115000000Y-55000000D03*
X71500000Y-52500000D03*
X128500000Y-58000000D03*
X114000000Y-56000000D03*
X78250000Y-50500000D03*
X129000000Y-57500000D03*
X77000000Y-47000000D03*
X126500000Y-59000000D03*
X78400000Y-58200000D03*
X123500000Y-57500000D03*
X114200000Y-50200000D03*
X74400000Y-60200000D03*
X128000000Y-46000000D03*
X73000000Y-52500000D03*
X76400000Y-58200000D03*
X115000000Y-50200000D03*
X125900000Y-48000000D03*
X76000000Y-48750000D03*
X123000000Y-47000000D03*
X85500000Y-53750000D03*
X69000000Y-55500000D03*
X127000000Y-58500000D03*
X128000000Y-57500000D03*
X128750000Y-55250000D03*
X78750000Y-54000000D03*
X122750000Y-56750000D03*
X123500000Y-58250000D03*
X71000000Y-49500000D03*
X113400000Y-50200000D03*
X123500000Y-51250000D03*
X115800000Y-50200000D03*
X72500000Y-51500000D03*
X125000000Y-45000000D03*
X76400000Y-60200000D03*
X115000000Y-57000000D03*
X124000000Y-46000000D03*
X122000000Y-59000000D03*
X126000000Y-46000000D03*
X73000000Y-47000000D03*
X71000000Y-51500000D03*
X123500000Y-56750000D03*
X123000000Y-45000000D03*
X70500000Y-56500000D03*
X123500000Y-59000000D03*
X72000000Y-46000000D03*
X74000000Y-46000000D03*
X128000000Y-58500000D03*
X76000000Y-46000000D03*
X122750000Y-59000000D03*
X113000000Y-55000000D03*
X129500000Y-58000000D03*
X125000000Y-46500000D03*
X75000000Y-46250000D03*
X122750000Y-57500000D03*
X72000000Y-50500000D03*
X77400000Y-59200000D03*
X127000000Y-47000000D03*
X127500000Y-58000000D03*
X130000000Y-57500000D03*
%TO.N,/VBAT*%
X93400000Y-57400000D03*
X93000000Y-67500000D03*
X87000000Y-48500000D03*
%TO.N,Net-(D2-DOUT)*%
X106000000Y-50300000D03*
X88500000Y-48500000D03*
%TO.N,+3V3*%
X94200000Y-52200000D03*
%TO.N,/INT*%
X96180000Y-56080000D03*
%TO.N,/SDA*%
X95000000Y-48600000D03*
%TO.N,/SCL*%
X95600000Y-49200000D03*
%TO.N,/SHUT*%
X96100000Y-54000000D03*
%TO.N,/BUTTON_4*%
X110300000Y-51850000D03*
X93500000Y-51000000D03*
%TD*%
D17*
%TO.N,Net-(D1-DOUT)*%
X124550000Y-48200000D02*
X124050000Y-48200000D01*
X122700000Y-49550000D02*
X112450000Y-49550000D01*
X124050000Y-48200000D02*
X122700000Y-49550000D01*
%TO.N,/WS2812*%
X126050000Y-47300000D02*
X125450000Y-47300000D01*
X124244082Y-48750000D02*
X124245082Y-48751000D01*
X108255000Y-51000000D02*
X116750000Y-51000000D01*
X124067100Y-48750000D02*
X124244082Y-48750000D01*
X126000000Y-48750000D02*
X126500000Y-48250000D01*
X126500000Y-47750000D02*
X126050000Y-47300000D01*
X126500000Y-48250000D02*
X126500000Y-47750000D01*
X124245082Y-48751000D02*
X124854918Y-48751000D01*
X124854918Y-48751000D02*
X124855918Y-48750000D01*
X122866100Y-49951000D02*
X124067100Y-48750000D01*
X124855918Y-48750000D02*
X126000000Y-48750000D01*
X116750000Y-51000000D02*
X117799000Y-49951000D01*
X117799000Y-49951000D02*
X122866100Y-49951000D01*
D18*
%TO.N,GND*%
X125900000Y-48000000D02*
X125700000Y-48200000D01*
X113400000Y-50200000D02*
X115800000Y-50200000D01*
X88699999Y-50450000D02*
X89500000Y-49649999D01*
D19*
X123533248Y-56266752D02*
X123533248Y-58216752D01*
D18*
X88450000Y-50450000D02*
X88699999Y-50450000D01*
X89500000Y-49649999D02*
X89500000Y-49000000D01*
D19*
X124300000Y-55500000D02*
X123533248Y-56266752D01*
D18*
X88450000Y-50450000D02*
X88450000Y-50699999D01*
X113150000Y-50450000D02*
X113400000Y-50200000D01*
X87831999Y-51318000D02*
X87000000Y-51318000D01*
X133700000Y-58800000D02*
X133700000Y-55200000D01*
X125700000Y-48200000D02*
X125450000Y-48200000D01*
D19*
X123533248Y-58216752D02*
X122750000Y-59000000D01*
D18*
X112450000Y-50450000D02*
X113150000Y-50450000D01*
X75450000Y-48200000D02*
X76000000Y-48750000D01*
D19*
X124300000Y-55500000D02*
X124550000Y-55250000D01*
X124550000Y-55250000D02*
X128750000Y-55250000D01*
D18*
X88450000Y-50699999D02*
X87831999Y-51318000D01*
%TO.N,/VBAT*%
X77440146Y-54000000D02*
X76386925Y-54000000D01*
X74100000Y-47300000D02*
X74550000Y-47300000D01*
X93000000Y-66000000D02*
X93000000Y-67500000D01*
X114163017Y-65336983D02*
X106632023Y-68500000D01*
X128722148Y-59222148D02*
X114163017Y-65336983D01*
X68391276Y-59891276D02*
X85844775Y-66000000D01*
X122401000Y-48849000D02*
X123950000Y-47300000D01*
X132500000Y-58000000D02*
X131500000Y-59000000D01*
X106632023Y-68500000D02*
X102674917Y-68500000D01*
X130625000Y-51800000D02*
X128425000Y-54000000D01*
X130625000Y-51800000D02*
X130625000Y-54320900D01*
X97500000Y-57500000D02*
X98023835Y-57500000D01*
X112001001Y-48849000D02*
X122401000Y-48849000D01*
X75749000Y-49700708D02*
X75749000Y-51061075D01*
X67946900Y-49203100D02*
X67946900Y-55749000D01*
X98023835Y-57500000D02*
X99006012Y-56517823D01*
X69375000Y-48200000D02*
X73200000Y-48200000D01*
X67651000Y-59151000D02*
X68391276Y-59891276D01*
X67946900Y-55749000D02*
X67599000Y-56096900D01*
X111550000Y-49300001D02*
X112001001Y-48849000D01*
X74249000Y-49249000D02*
X75297292Y-49249000D01*
X73200000Y-48200000D02*
X74100000Y-47300000D01*
X97500000Y-57500000D02*
X105450000Y-49550000D01*
X78501000Y-52060854D02*
X78501000Y-52939146D01*
X132500000Y-56195900D02*
X132500000Y-58000000D01*
X75297292Y-49249000D02*
X75749000Y-49700708D01*
X102674917Y-68500000D02*
X101893917Y-69281000D01*
X93000000Y-66000000D02*
X97180000Y-66000000D01*
X98395083Y-66570000D02*
X97750000Y-66570000D01*
X67599000Y-58100708D02*
X67651000Y-58152708D01*
X128944296Y-59000000D02*
X128722148Y-59222148D01*
X111550000Y-49550000D02*
X111550000Y-49300001D01*
X123950000Y-47300000D02*
X124550000Y-47300000D01*
X87000000Y-49000000D02*
X87550000Y-49550000D01*
X105450000Y-49550000D02*
X111550000Y-49550000D01*
X73200000Y-48200000D02*
X74249000Y-49249000D01*
X93400000Y-57400000D02*
X93500000Y-57500000D01*
X93500000Y-57500000D02*
X97500000Y-57500000D01*
X114163017Y-65336983D02*
X114086786Y-65369000D01*
X101106083Y-69281000D02*
X98395083Y-66570000D01*
X68950000Y-48200000D02*
X67946900Y-49203100D01*
X78139146Y-51699000D02*
X78501000Y-52060854D01*
X85844775Y-66000000D02*
X93000000Y-66000000D01*
X101893917Y-69281000D02*
X101106083Y-69281000D01*
X69375000Y-48200000D02*
X68950000Y-48200000D01*
X76386925Y-51699000D02*
X78139146Y-51699000D01*
X75749000Y-51061075D02*
X76386925Y-51699000D01*
X97180000Y-66000000D02*
X97750000Y-66570000D01*
X130625000Y-54320900D02*
X132500000Y-56195900D01*
X78501000Y-52939146D02*
X77440146Y-54000000D01*
X67651000Y-58152708D02*
X67651000Y-59151000D01*
X67599000Y-56096900D02*
X67599000Y-58100708D01*
X87000000Y-48500000D02*
X87000000Y-49000000D01*
X131500000Y-59000000D02*
X128944296Y-59000000D01*
X128425000Y-54000000D02*
X123800000Y-54000000D01*
D17*
%TO.N,Net-(D2-DOUT)*%
X106076000Y-50224000D02*
X111324000Y-50224000D01*
X88500000Y-49500000D02*
X88450000Y-49550000D01*
X106000000Y-50300000D02*
X106076000Y-50224000D01*
X111324000Y-50224000D02*
X111550000Y-50450000D01*
X88500000Y-48500000D02*
X88500000Y-49500000D01*
%TO.N,Net-(D3-DOUT)*%
X78550000Y-49550000D02*
X77700000Y-49550000D01*
X87550000Y-50450000D02*
X87100000Y-50000000D01*
X77700000Y-49550000D02*
X75450000Y-47300000D01*
X87100000Y-50000000D02*
X79000000Y-50000000D01*
X79000000Y-50000000D02*
X78550000Y-49550000D01*
%TO.N,/RXTX2*%
X85000000Y-57500000D02*
X82325000Y-57500000D01*
X87690000Y-54810000D02*
X85000000Y-57500000D01*
X91345000Y-54810000D02*
X87690000Y-54810000D01*
D20*
%TO.N,/TXRX2*%
X81476000Y-54949000D02*
X82949000Y-54949000D01*
X82949000Y-54949000D02*
X84000000Y-56000000D01*
X80675000Y-55750000D02*
X81476000Y-54949000D01*
X85625000Y-56000000D02*
X89355000Y-52270000D01*
X84000000Y-56000000D02*
X85625000Y-56000000D01*
X89355000Y-52270000D02*
X91345000Y-52270000D01*
D17*
%TO.N,/TXRX1*%
X116305000Y-58620000D02*
X116675000Y-58250000D01*
X108255000Y-58620000D02*
X116305000Y-58620000D01*
%TO.N,/RXTX1*%
X92521000Y-59396000D02*
X91745000Y-58620000D01*
X118325000Y-60000000D02*
X118037500Y-60000000D01*
X117261500Y-59224000D02*
X115372000Y-59224000D01*
X115200000Y-59396000D02*
X92521000Y-59396000D01*
X115372000Y-59224000D02*
X115200000Y-59396000D01*
X118037500Y-60000000D02*
X117261500Y-59224000D01*
D18*
%TO.N,Net-(J3-Pin_1)*%
X68825000Y-57500000D02*
X69106277Y-57500000D01*
X128500000Y-56500000D02*
X128349000Y-56349000D01*
X100750000Y-66068000D02*
X100750000Y-66570000D01*
X124484248Y-57067460D02*
X124484248Y-59734248D01*
X69106277Y-57500000D02*
X72027553Y-60421276D01*
X101600000Y-65000000D02*
X100800000Y-65800000D01*
X85963907Y-65299000D02*
X98299000Y-65299000D01*
X100800000Y-65800000D02*
X100800000Y-66018000D01*
X124484248Y-59734248D02*
X123609248Y-60609248D01*
X72027553Y-60421276D02*
X85963907Y-65299000D01*
X99570000Y-66570000D02*
X100750000Y-66570000D01*
X113155077Y-65000000D02*
X101600000Y-65000000D01*
X98299000Y-65299000D02*
X99570000Y-66570000D01*
X123609248Y-60609248D02*
X113155077Y-65000000D01*
X100800000Y-66018000D02*
X100750000Y-66068000D01*
X128349000Y-56349000D02*
X125202708Y-56349000D01*
X125202708Y-56349000D02*
X124484248Y-57067460D01*
X131175000Y-56500000D02*
X128500000Y-56500000D01*
D21*
%TO.N,+3V3*%
X105619346Y-48460000D02*
X108255000Y-48460000D01*
X89325000Y-63475000D02*
X89000000Y-63800000D01*
X101879346Y-52200000D02*
X105619346Y-48460000D01*
D18*
X89025000Y-63175000D02*
X89325000Y-63475000D01*
D21*
X93675000Y-63475000D02*
X89325000Y-63475000D01*
D18*
X89025000Y-62000000D02*
X89025000Y-63175000D01*
D21*
X94200000Y-52200000D02*
X101879346Y-52200000D01*
D17*
%TO.N,/INT*%
X96180000Y-56080000D02*
X91745000Y-56080000D01*
%TO.N,/SDA*%
X95000000Y-48600000D02*
X95000000Y-46500000D01*
D20*
X96479000Y-61199000D02*
X98755000Y-63475000D01*
X87375000Y-62000000D02*
X88176000Y-61199000D01*
D17*
X95000000Y-46500000D02*
X93150000Y-44650000D01*
D20*
X88176000Y-61199000D02*
X96479000Y-61199000D01*
D17*
X93150000Y-44650000D02*
X91345000Y-44650000D01*
D20*
%TO.N,/SCL*%
X87350000Y-63800000D02*
X86649000Y-63099000D01*
D17*
X92390000Y-47190000D02*
X91345000Y-47190000D01*
X95600000Y-49200000D02*
X94400000Y-49200000D01*
X94400000Y-49200000D02*
X92390000Y-47190000D01*
D20*
X86649000Y-63099000D02*
X86649000Y-61501582D01*
X87402582Y-60748000D02*
X98568000Y-60748000D01*
X86649000Y-61501582D02*
X87402582Y-60748000D01*
X98568000Y-60748000D02*
X101295000Y-63475000D01*
D17*
%TO.N,/SHUT*%
X95500000Y-54000000D02*
X95040000Y-53540000D01*
X95040000Y-53540000D02*
X91745000Y-53540000D01*
X96100000Y-54000000D02*
X95500000Y-54000000D01*
%TO.N,/BUTTON_1*%
X85800000Y-46200000D02*
X88620000Y-43380000D01*
X79950000Y-46200000D02*
X85800000Y-46200000D01*
X88620000Y-43380000D02*
X91745000Y-43380000D01*
%TO.N,/BUTTON_2*%
X90729000Y-45920000D02*
X91745000Y-45920000D01*
X88258959Y-51869000D02*
X90428000Y-49699959D01*
X90428000Y-49699959D02*
X90428000Y-46221000D01*
X79950000Y-52200000D02*
X84050000Y-52200000D01*
X90428000Y-46221000D02*
X90729000Y-45920000D01*
X84381000Y-51869000D02*
X88258959Y-51869000D01*
X84050000Y-52200000D02*
X84381000Y-51869000D01*
%TO.N,/BUTTON_3*%
X115950000Y-46200000D02*
X120050000Y-46200000D01*
X93085000Y-49800000D02*
X100200000Y-49800000D01*
X102800000Y-47200000D02*
X114950000Y-47200000D01*
X114950000Y-47200000D02*
X115950000Y-46200000D01*
X100200000Y-49800000D02*
X102800000Y-47200000D01*
X91745000Y-48460000D02*
X93085000Y-49800000D01*
%TO.N,/BUTTON_4*%
X110800000Y-52200000D02*
X115900000Y-52200000D01*
X110300000Y-51850000D02*
X110350000Y-51800000D01*
X115900000Y-52200000D02*
X120000000Y-52200000D01*
X110400000Y-51800000D02*
X110800000Y-52200000D01*
X91745000Y-51000000D02*
X93500000Y-51000000D01*
X110350000Y-51800000D02*
X110400000Y-51800000D01*
D20*
%TO.N,/SERVO1*%
X82887810Y-54250000D02*
X81102000Y-54250000D01*
X81102000Y-54250000D02*
X80726000Y-54626000D01*
X91345000Y-49730000D02*
X91000413Y-49730000D01*
X80726000Y-54626000D02*
X79874000Y-54626000D01*
X86104413Y-54626000D02*
X83263810Y-54626000D01*
X91000413Y-49730000D02*
X86104413Y-54626000D01*
X83263810Y-54626000D02*
X82887810Y-54250000D01*
X79000000Y-55500000D02*
X76200000Y-55500000D01*
X79874000Y-54626000D02*
X79000000Y-55500000D01*
%TO.N,Net-(J1-Pin_3)*%
X80675000Y-57500000D02*
X78000000Y-57500000D01*
X68624000Y-51351000D02*
X69375000Y-50600000D01*
X76500000Y-59000000D02*
X73328486Y-59000000D01*
X78000000Y-57500000D02*
X76500000Y-59000000D01*
X73328486Y-59000000D02*
X71861339Y-57532853D01*
X71861339Y-55388661D02*
X68624000Y-52151322D01*
X68624000Y-52151322D02*
X68624000Y-51351000D01*
X71861339Y-57532853D02*
X71861339Y-55388661D01*
%TO.N,Net-(J1-Pin_4)*%
X73825000Y-56250000D02*
X79950582Y-56250000D01*
X80251582Y-56551000D02*
X81098418Y-56551000D01*
X81825000Y-56250000D02*
X82325000Y-55750000D01*
X69375000Y-51800000D02*
X73825000Y-56250000D01*
X81098418Y-56551000D02*
X81399418Y-56250000D01*
X81399418Y-56250000D02*
X81825000Y-56250000D01*
X79950582Y-56250000D02*
X80251582Y-56551000D01*
%TO.N,Net-(J2-Pin_4)*%
X129962190Y-48200000D02*
X130625000Y-48200000D01*
X118325000Y-57925000D02*
X120776000Y-55474000D01*
X123102454Y-50500000D02*
X124250000Y-49352454D01*
X118325000Y-58250000D02*
X118325000Y-57925000D01*
X124250000Y-49352454D02*
X128809736Y-49352454D01*
D17*
X130000000Y-48200000D02*
X130625000Y-48200000D01*
D20*
X128809736Y-49352454D02*
X129962190Y-48200000D01*
X120776000Y-52250000D02*
X122526000Y-50500000D01*
X120776000Y-55474000D02*
X120776000Y-52250000D01*
X122526000Y-50500000D02*
X123102454Y-50500000D01*
%TO.N,Net-(J2-Pin_3)*%
X117476000Y-60801000D02*
X116675000Y-60000000D01*
X119501582Y-60498418D02*
X119051000Y-60498418D01*
X122000000Y-58000000D02*
X119501582Y-60498418D01*
X130625000Y-49400000D02*
X126701000Y-53324000D01*
X126701000Y-53324000D02*
X122412630Y-53324000D01*
X122412630Y-53324000D02*
X122000000Y-53736630D01*
X122000000Y-53736630D02*
X122000000Y-58000000D01*
X119051000Y-60498418D02*
X118748418Y-60801000D01*
X118748418Y-60801000D02*
X117476000Y-60801000D01*
D17*
%TO.N,/SERVO2*%
X121202000Y-56562064D02*
X118691364Y-59072700D01*
X117376000Y-57761936D02*
X116863007Y-57248943D01*
X115248943Y-57601000D02*
X108906000Y-57601000D01*
X117376000Y-58771400D02*
X117376000Y-57761936D01*
X108906000Y-57601000D02*
X108655000Y-57350000D01*
X124300000Y-52500000D02*
X122250000Y-52500000D01*
X117677300Y-59072700D02*
X117376000Y-58771400D01*
X118691364Y-59072700D02*
X117677300Y-59072700D01*
X121202000Y-53548000D02*
X121202000Y-56562064D01*
X122250000Y-52500000D02*
X121202000Y-53548000D01*
X115601000Y-57248943D02*
X115248943Y-57601000D01*
X116863007Y-57248943D02*
X115601000Y-57248943D01*
%TD*%
%TA.AperFunction,Conductor*%
%TO.N,GND*%
G36*
X68902603Y-53314961D02*
G01*
X68909081Y-53320993D01*
X71199520Y-55611432D01*
X71233005Y-55672755D01*
X71235839Y-55699113D01*
X71235839Y-57471246D01*
X71235839Y-57594460D01*
X71235839Y-57594462D01*
X71235838Y-57594462D01*
X71243025Y-57630592D01*
X71243030Y-57630615D01*
X71243604Y-57633497D01*
X71259876Y-57715305D01*
X71267017Y-57732544D01*
X71270546Y-57741065D01*
X71270547Y-57741067D01*
X71307027Y-57829139D01*
X71307027Y-57829140D01*
X71309650Y-57833065D01*
X71339952Y-57878413D01*
X71339953Y-57878417D01*
X71339955Y-57878417D01*
X71375482Y-57931588D01*
X71466925Y-58023031D01*
X71466947Y-58023051D01*
X72839502Y-59395606D01*
X72839531Y-59395637D01*
X72929749Y-59485855D01*
X72929753Y-59485858D01*
X73032193Y-59554307D01*
X73032202Y-59554312D01*
X73053225Y-59563020D01*
X73146034Y-59601463D01*
X73206457Y-59613481D01*
X73266879Y-59625500D01*
X76561607Y-59625500D01*
X76622029Y-59613481D01*
X76682452Y-59601463D01*
X76727144Y-59582951D01*
X76796286Y-59554312D01*
X76848414Y-59519480D01*
X76898733Y-59485858D01*
X76985858Y-59398733D01*
X76985858Y-59398731D01*
X76996066Y-59388524D01*
X76996067Y-59388521D01*
X78222772Y-58161819D01*
X78284095Y-58128334D01*
X78310453Y-58125500D01*
X79798398Y-58125500D01*
X79865437Y-58145185D01*
X79904514Y-58185349D01*
X79919528Y-58210185D01*
X79919531Y-58210189D01*
X80039811Y-58330469D01*
X80039813Y-58330470D01*
X80039815Y-58330472D01*
X80185394Y-58418478D01*
X80347804Y-58469086D01*
X80418384Y-58475500D01*
X80418387Y-58475500D01*
X80931613Y-58475500D01*
X80931616Y-58475500D01*
X81002196Y-58469086D01*
X81164606Y-58418478D01*
X81310185Y-58330472D01*
X81344379Y-58296278D01*
X81412319Y-58228339D01*
X81473642Y-58194854D01*
X81543334Y-58199838D01*
X81587681Y-58228339D01*
X81689811Y-58330469D01*
X81689813Y-58330470D01*
X81689815Y-58330472D01*
X81835394Y-58418478D01*
X81997804Y-58469086D01*
X82068384Y-58475500D01*
X82068387Y-58475500D01*
X82581613Y-58475500D01*
X82581616Y-58475500D01*
X82652196Y-58469086D01*
X82814606Y-58418478D01*
X82960185Y-58330472D01*
X83080472Y-58210185D01*
X83110598Y-58160349D01*
X83162126Y-58113162D01*
X83216715Y-58100500D01*
X84913331Y-58100500D01*
X84913347Y-58100501D01*
X84920943Y-58100501D01*
X85079054Y-58100501D01*
X85079057Y-58100501D01*
X85231785Y-58059577D01*
X85282459Y-58030320D01*
X85368716Y-57980520D01*
X85480520Y-57868716D01*
X85480520Y-57868714D01*
X85490724Y-57858511D01*
X85490727Y-57858506D01*
X87902416Y-55446819D01*
X87963739Y-55413334D01*
X87990097Y-55410500D01*
X90120080Y-55410500D01*
X90187119Y-55430185D01*
X90232874Y-55482989D01*
X90243018Y-55550683D01*
X90230240Y-55647751D01*
X90228500Y-55660965D01*
X90228501Y-56499036D01*
X90243825Y-56615453D01*
X90243826Y-56615456D01*
X90265403Y-56667549D01*
X90272870Y-56737019D01*
X90265403Y-56762451D01*
X90243827Y-56814541D01*
X90228500Y-56930964D01*
X90228500Y-57769037D01*
X90243825Y-57885453D01*
X90243826Y-57885456D01*
X90265403Y-57937549D01*
X90272870Y-58007019D01*
X90265403Y-58032451D01*
X90243827Y-58084541D01*
X90228500Y-58200964D01*
X90228500Y-59039037D01*
X90243824Y-59155448D01*
X90243828Y-59155460D01*
X90303829Y-59300318D01*
X90303831Y-59300321D01*
X90351557Y-59362518D01*
X90399284Y-59424716D01*
X90467272Y-59476885D01*
X90523678Y-59520168D01*
X90523681Y-59520170D01*
X90595283Y-59549828D01*
X90668543Y-59580173D01*
X90784965Y-59595500D01*
X91819901Y-59595499D01*
X91886940Y-59615183D01*
X91907582Y-59631818D01*
X92152284Y-59876520D01*
X92177559Y-59891112D01*
X92225775Y-59941679D01*
X92238999Y-60010286D01*
X92213031Y-60075151D01*
X92156118Y-60115680D01*
X92115560Y-60122500D01*
X87464189Y-60122500D01*
X87340975Y-60122500D01*
X87299087Y-60130832D01*
X87299086Y-60130831D01*
X87220136Y-60146535D01*
X87220123Y-60146539D01*
X87198913Y-60155325D01*
X87172979Y-60166067D01*
X87163506Y-60169991D01*
X87106295Y-60193688D01*
X87096139Y-60200475D01*
X87096031Y-60200547D01*
X87003850Y-60262140D01*
X86960287Y-60305703D01*
X86916724Y-60349267D01*
X86252715Y-61013275D01*
X86252706Y-61013284D01*
X86250270Y-61015721D01*
X86250267Y-61015724D01*
X86163142Y-61102849D01*
X86140060Y-61137394D01*
X86135207Y-61144655D01*
X86135203Y-61144661D01*
X86094690Y-61205291D01*
X86094685Y-61205300D01*
X86047540Y-61319120D01*
X86047535Y-61319136D01*
X86030961Y-61402464D01*
X86023500Y-61439971D01*
X86023500Y-63160611D01*
X86047535Y-63281444D01*
X86047540Y-63281461D01*
X86094685Y-63395280D01*
X86094687Y-63395283D01*
X86094688Y-63395286D01*
X86128915Y-63446509D01*
X86163142Y-63497733D01*
X86250267Y-63584858D01*
X86250269Y-63584859D01*
X86260232Y-63594822D01*
X86413181Y-63747771D01*
X86446666Y-63809094D01*
X86449500Y-63835452D01*
X86449500Y-64131613D01*
X86455913Y-64202192D01*
X86455913Y-64202194D01*
X86455914Y-64202196D01*
X86506522Y-64364606D01*
X86506523Y-64364608D01*
X86506524Y-64364610D01*
X86509600Y-64371445D01*
X86507165Y-64372540D01*
X86521787Y-64427887D01*
X86500278Y-64494364D01*
X86446244Y-64538659D01*
X86397833Y-64548500D01*
X86112524Y-64548500D01*
X86071561Y-64541538D01*
X72463840Y-59778835D01*
X72417122Y-59749478D01*
X70136819Y-57469174D01*
X70103334Y-57407851D01*
X70100500Y-57381493D01*
X70100500Y-57284313D01*
X70100499Y-57284298D01*
X70097839Y-57250500D01*
X70097598Y-57247431D01*
X70096740Y-57244478D01*
X70051745Y-57089606D01*
X70051745Y-57089605D01*
X70051744Y-57089604D01*
X70051744Y-57089602D01*
X70035791Y-57062628D01*
X70018611Y-56994905D01*
X70035794Y-56936386D01*
X70051281Y-56910199D01*
X70097100Y-56752486D01*
X70097295Y-56750001D01*
X70097295Y-56750000D01*
X69734050Y-56750000D01*
X69699455Y-56745076D01*
X69552573Y-56702402D01*
X69552567Y-56702401D01*
X69515701Y-56699500D01*
X69515694Y-56699500D01*
X68949000Y-56699500D01*
X68881961Y-56679815D01*
X68836206Y-56627011D01*
X68825000Y-56575500D01*
X68825000Y-56500000D01*
X68699000Y-56500000D01*
X68690314Y-56497449D01*
X68681353Y-56498738D01*
X68657312Y-56487759D01*
X68631961Y-56480315D01*
X68626033Y-56473474D01*
X68617797Y-56469713D01*
X68603507Y-56447478D01*
X68586206Y-56427511D01*
X68583918Y-56416996D01*
X68580023Y-56410935D01*
X68575000Y-56376000D01*
X68575000Y-56250000D01*
X69075000Y-56250000D01*
X70097295Y-56250000D01*
X70097295Y-56249998D01*
X70097100Y-56247513D01*
X70051281Y-56089801D01*
X69967685Y-55948447D01*
X69967678Y-55948438D01*
X69851561Y-55832321D01*
X69851552Y-55832314D01*
X69710196Y-55748717D01*
X69710193Y-55748716D01*
X69552495Y-55702900D01*
X69552489Y-55702899D01*
X69515649Y-55700000D01*
X69075000Y-55700000D01*
X69075000Y-56250000D01*
X68575000Y-56250000D01*
X68575000Y-56197460D01*
X68594685Y-56130421D01*
X68595898Y-56128569D01*
X68609830Y-56107718D01*
X68611984Y-56104495D01*
X68668558Y-55967913D01*
X68692710Y-55846498D01*
X68697400Y-55822920D01*
X68697400Y-53408674D01*
X68717085Y-53341635D01*
X68769889Y-53295880D01*
X68839047Y-53285936D01*
X68902603Y-53314961D01*
G37*
%TD.AperFunction*%
%TA.AperFunction,Conductor*%
G36*
X97330270Y-64236717D02*
G01*
X97330270Y-64236716D01*
X97369622Y-64182555D01*
X97374232Y-64173507D01*
X97422205Y-64122709D01*
X97490025Y-64105912D01*
X97556161Y-64128447D01*
X97595204Y-64173504D01*
X97599949Y-64182817D01*
X97722587Y-64351615D01*
X97746067Y-64417421D01*
X97730241Y-64485475D01*
X97680135Y-64534170D01*
X97622269Y-64548500D01*
X96986308Y-64548500D01*
X96919269Y-64528815D01*
X96898627Y-64512181D01*
X96344408Y-63957962D01*
X96407993Y-63940925D01*
X96522007Y-63875099D01*
X96615099Y-63782007D01*
X96680925Y-63667993D01*
X96697962Y-63604408D01*
X97330270Y-64236717D01*
G37*
%TD.AperFunction*%
%TA.AperFunction,Conductor*%
G36*
X123862224Y-56356237D02*
G01*
X123884313Y-56357817D01*
X123895096Y-56365889D01*
X123908018Y-56369684D01*
X123922517Y-56386417D01*
X123940246Y-56399689D01*
X123944953Y-56412309D01*
X123953773Y-56422488D01*
X123956924Y-56444405D01*
X123964663Y-56465153D01*
X123961800Y-56478313D01*
X123963717Y-56491646D01*
X123954517Y-56511789D01*
X123949811Y-56533426D01*
X123936542Y-56551151D01*
X123934692Y-56555202D01*
X123928660Y-56561680D01*
X123901296Y-56589043D01*
X123883648Y-56615457D01*
X123861609Y-56648442D01*
X123861608Y-56648443D01*
X123819167Y-56711959D01*
X123819160Y-56711971D01*
X123762591Y-56848542D01*
X123762588Y-56848552D01*
X123733748Y-56993539D01*
X123733748Y-59372017D01*
X123714063Y-59439056D01*
X123697429Y-59459698D01*
X123199980Y-59957146D01*
X123160316Y-59983791D01*
X113026903Y-64239826D01*
X112978886Y-64249500D01*
X107698424Y-64249500D01*
X107631385Y-64229815D01*
X107585630Y-64177011D01*
X107575686Y-64107853D01*
X107587939Y-64069206D01*
X107626554Y-63993417D01*
X107626557Y-63993412D01*
X107692246Y-63791243D01*
X107725500Y-63581287D01*
X107725500Y-63368713D01*
X107692246Y-63158757D01*
X107626557Y-62956588D01*
X107530051Y-62767184D01*
X107530049Y-62767181D01*
X107530048Y-62767179D01*
X107405109Y-62595213D01*
X107254786Y-62444890D01*
X107082820Y-62319951D01*
X106893414Y-62223444D01*
X106893413Y-62223443D01*
X106893412Y-62223443D01*
X106691243Y-62157754D01*
X106691241Y-62157753D01*
X106691240Y-62157753D01*
X106529957Y-62132208D01*
X106481287Y-62124500D01*
X106268713Y-62124500D01*
X106220042Y-62132208D01*
X106058760Y-62157753D01*
X105856585Y-62223444D01*
X105667179Y-62319951D01*
X105495213Y-62444890D01*
X105344890Y-62595213D01*
X105219949Y-62767182D01*
X105215484Y-62775946D01*
X105167509Y-62826742D01*
X105099688Y-62843536D01*
X105033553Y-62820998D01*
X104994516Y-62775946D01*
X104990050Y-62767182D01*
X104865109Y-62595213D01*
X104714786Y-62444890D01*
X104542820Y-62319951D01*
X104353414Y-62223444D01*
X104353413Y-62223443D01*
X104353412Y-62223443D01*
X104151243Y-62157754D01*
X104151241Y-62157753D01*
X104151240Y-62157753D01*
X103989957Y-62132208D01*
X103941287Y-62124500D01*
X103728713Y-62124500D01*
X103680042Y-62132208D01*
X103518760Y-62157753D01*
X103316585Y-62223444D01*
X103127179Y-62319951D01*
X102955213Y-62444890D01*
X102804890Y-62595213D01*
X102679949Y-62767182D01*
X102675484Y-62775946D01*
X102627509Y-62826742D01*
X102559688Y-62843536D01*
X102493553Y-62820998D01*
X102454516Y-62775946D01*
X102450050Y-62767182D01*
X102325109Y-62595213D01*
X102174786Y-62444890D01*
X102002820Y-62319951D01*
X101813414Y-62223444D01*
X101813413Y-62223443D01*
X101813412Y-62223443D01*
X101611243Y-62157754D01*
X101611241Y-62157753D01*
X101611240Y-62157753D01*
X101449957Y-62132208D01*
X101401287Y-62124500D01*
X101188713Y-62124500D01*
X101148255Y-62130908D01*
X100978753Y-62157754D01*
X100963160Y-62162821D01*
X100893319Y-62164816D01*
X100837162Y-62132571D01*
X99064021Y-60359431D01*
X99053859Y-60349269D01*
X99053858Y-60349267D01*
X98966733Y-60262142D01*
X98915509Y-60227915D01*
X98902555Y-60219259D01*
X98896656Y-60214138D01*
X98881844Y-60191043D01*
X98864250Y-60169991D01*
X98863253Y-60162056D01*
X98858936Y-60155325D01*
X98858961Y-60127890D01*
X98855541Y-60100666D01*
X98858992Y-60093451D01*
X98859000Y-60085455D01*
X98873854Y-60062387D01*
X98885696Y-60037638D01*
X98892499Y-60033435D01*
X98896829Y-60026712D01*
X98921797Y-60015337D01*
X98945138Y-60000919D01*
X98956933Y-59999330D01*
X98960411Y-59997746D01*
X98964404Y-59998323D01*
X98977945Y-59996500D01*
X115113331Y-59996500D01*
X115113347Y-59996501D01*
X115120943Y-59996501D01*
X115279054Y-59996501D01*
X115279057Y-59996501D01*
X115431785Y-59955577D01*
X115491772Y-59920943D01*
X115568716Y-59876520D01*
X115573624Y-59871611D01*
X115586518Y-59863845D01*
X115613836Y-59856677D01*
X115640179Y-59846493D01*
X115647183Y-59847929D01*
X115654100Y-59846115D01*
X115680954Y-59854854D01*
X115708624Y-59860529D01*
X115713740Y-59865525D01*
X115720540Y-59867738D01*
X115738408Y-59889611D01*
X115758615Y-59909342D01*
X115760541Y-59916705D01*
X115764742Y-59921848D01*
X115766956Y-59941227D01*
X115774500Y-59970063D01*
X115774500Y-60331613D01*
X115780913Y-60402192D01*
X115831522Y-60564606D01*
X115919530Y-60710188D01*
X116039811Y-60830469D01*
X116039813Y-60830470D01*
X116039815Y-60830472D01*
X116185394Y-60918478D01*
X116347804Y-60969086D01*
X116418384Y-60975500D01*
X116714548Y-60975500D01*
X116781587Y-60995185D01*
X116802229Y-61011819D01*
X116990139Y-61199729D01*
X116990142Y-61199733D01*
X117077267Y-61286858D01*
X117125565Y-61319130D01*
X117132313Y-61323639D01*
X117132320Y-61323645D01*
X117170588Y-61349214D01*
X117179714Y-61355312D01*
X117242823Y-61381452D01*
X117293548Y-61402463D01*
X117353971Y-61414481D01*
X117414393Y-61426500D01*
X118810025Y-61426500D01*
X118870447Y-61414481D01*
X118930870Y-61402463D01*
X118981595Y-61381452D01*
X119044704Y-61355312D01*
X119098853Y-61319130D01*
X119147151Y-61286858D01*
X119234276Y-61199733D01*
X119234276Y-61199731D01*
X119244484Y-61189524D01*
X119244489Y-61189518D01*
X119273775Y-61160234D01*
X119335099Y-61126751D01*
X119361453Y-61123918D01*
X119563190Y-61123918D01*
X119563190Y-61123917D01*
X119669112Y-61102849D01*
X119684034Y-61099881D01*
X119728356Y-61081522D01*
X119797868Y-61052730D01*
X119870456Y-61004227D01*
X119900315Y-60984276D01*
X119987440Y-60897151D01*
X119987440Y-60897149D01*
X119997648Y-60886942D01*
X119997649Y-60886939D01*
X122485858Y-58398733D01*
X122554312Y-58296285D01*
X122583166Y-58226625D01*
X122601463Y-58182452D01*
X122606332Y-58157967D01*
X122610010Y-58139484D01*
X122610010Y-58139481D01*
X122625501Y-58061606D01*
X122625501Y-57938393D01*
X122625501Y-57933283D01*
X122625500Y-57933257D01*
X122625500Y-56473999D01*
X122645185Y-56406960D01*
X122697989Y-56361205D01*
X122749500Y-56349999D01*
X123840979Y-56349999D01*
X123862224Y-56356237D01*
G37*
%TD.AperFunction*%
%TA.AperFunction,Conductor*%
G36*
X96235587Y-61844185D02*
G01*
X96256229Y-61860819D01*
X96308729Y-61913319D01*
X96342214Y-61974642D01*
X96337230Y-62044334D01*
X96295358Y-62100267D01*
X96229894Y-62124684D01*
X96221048Y-62125000D01*
X96108754Y-62125000D01*
X95898872Y-62158242D01*
X95898869Y-62158242D01*
X95696782Y-62223904D01*
X95507439Y-62320380D01*
X95453282Y-62359727D01*
X95453282Y-62359728D01*
X96085591Y-62992037D01*
X96022007Y-63009075D01*
X95907993Y-63074901D01*
X95814901Y-63167993D01*
X95749075Y-63282007D01*
X95732037Y-63345591D01*
X95061818Y-62675372D01*
X95028333Y-62614049D01*
X95025499Y-62587691D01*
X95025499Y-62577129D01*
X95025498Y-62577123D01*
X95025497Y-62577116D01*
X95019091Y-62517517D01*
X94968796Y-62382669D01*
X94968795Y-62382668D01*
X94968793Y-62382664D01*
X94882547Y-62267455D01*
X94882544Y-62267452D01*
X94767335Y-62181206D01*
X94767328Y-62181202D01*
X94632482Y-62130908D01*
X94632483Y-62130908D01*
X94572883Y-62124501D01*
X94572881Y-62124500D01*
X94572873Y-62124500D01*
X94572864Y-62124500D01*
X92777129Y-62124500D01*
X92777123Y-62124501D01*
X92717516Y-62130908D01*
X92582671Y-62181202D01*
X92582664Y-62181206D01*
X92467455Y-62267452D01*
X92467452Y-62267455D01*
X92381206Y-62382664D01*
X92381202Y-62382671D01*
X92330908Y-62517517D01*
X92325846Y-62564606D01*
X92324501Y-62577123D01*
X92324500Y-62577135D01*
X92324500Y-62650500D01*
X92304815Y-62717539D01*
X92252011Y-62763294D01*
X92200500Y-62774500D01*
X89961450Y-62774500D01*
X89894411Y-62754815D01*
X89848656Y-62702011D01*
X89838712Y-62632853D01*
X89855333Y-62586350D01*
X89868478Y-62564606D01*
X89919086Y-62402196D01*
X89925500Y-62331616D01*
X89925500Y-61948500D01*
X89945185Y-61881461D01*
X89997989Y-61835706D01*
X90049500Y-61824500D01*
X96168548Y-61824500D01*
X96235587Y-61844185D01*
G37*
%TD.AperFunction*%
%TA.AperFunction,Conductor*%
G36*
X128221445Y-57196953D02*
G01*
X128281087Y-57221658D01*
X128281091Y-57221658D01*
X128281092Y-57221659D01*
X128426079Y-57250500D01*
X128426082Y-57250500D01*
X130267672Y-57250500D01*
X130302267Y-57255424D01*
X130447426Y-57297597D01*
X130447429Y-57297597D01*
X130447431Y-57297598D01*
X130484306Y-57300500D01*
X131051000Y-57300500D01*
X131059685Y-57303050D01*
X131068647Y-57301762D01*
X131092687Y-57312740D01*
X131118039Y-57320185D01*
X131123966Y-57327025D01*
X131132203Y-57330787D01*
X131146492Y-57353021D01*
X131163794Y-57372989D01*
X131166081Y-57383503D01*
X131169977Y-57389565D01*
X131175000Y-57424500D01*
X131175000Y-57626000D01*
X131155315Y-57693039D01*
X131102511Y-57738794D01*
X131051000Y-57750000D01*
X129902705Y-57750000D01*
X129902704Y-57750001D01*
X129902899Y-57752486D01*
X129948718Y-57910198D01*
X130036288Y-58058271D01*
X130034566Y-58059288D01*
X130056257Y-58114545D01*
X130042572Y-58183062D01*
X129994017Y-58233303D01*
X129932742Y-58249500D01*
X128870372Y-58249500D01*
X128841538Y-58255234D01*
X128841539Y-58255235D01*
X128725389Y-58278339D01*
X128725385Y-58278340D01*
X128665249Y-58303249D01*
X128665237Y-58303254D01*
X128660672Y-58305146D01*
X128588801Y-58334916D01*
X128547613Y-58362437D01*
X128541604Y-58366451D01*
X128541600Y-58366454D01*
X128465880Y-58417048D01*
X128312880Y-58570047D01*
X128306249Y-58574501D01*
X128303480Y-58578532D01*
X128273216Y-58596691D01*
X128050525Y-58690221D01*
X127981093Y-58698032D01*
X127918460Y-58667065D01*
X127882512Y-58607153D01*
X127884662Y-58537316D01*
X127896970Y-58510797D01*
X127984355Y-58369125D01*
X127984358Y-58369118D01*
X128039505Y-58202696D01*
X128039506Y-58202689D01*
X128049999Y-58099985D01*
X128050000Y-58099972D01*
X128050000Y-57800000D01*
X126650000Y-57800000D01*
X126650000Y-58800000D01*
X127173689Y-58800000D01*
X127240728Y-58819685D01*
X127286483Y-58872489D01*
X127296427Y-58941647D01*
X127267402Y-59005203D01*
X127221706Y-59038325D01*
X126597908Y-59300321D01*
X125406765Y-59800601D01*
X125337333Y-59808412D01*
X125274701Y-59777445D01*
X125238752Y-59717533D01*
X125234748Y-59686275D01*
X125234748Y-58915320D01*
X125254433Y-58848281D01*
X125307237Y-58802526D01*
X125371352Y-58791962D01*
X125450017Y-58799999D01*
X125450027Y-58800000D01*
X126150000Y-58800000D01*
X126150000Y-57674000D01*
X126169685Y-57606961D01*
X126222489Y-57561206D01*
X126274000Y-57550000D01*
X126400000Y-57550000D01*
X126400000Y-57424000D01*
X126419685Y-57356961D01*
X126472489Y-57311206D01*
X126524000Y-57300000D01*
X128050000Y-57300000D01*
X128054787Y-57295212D01*
X128069685Y-57244478D01*
X128122489Y-57198723D01*
X128191647Y-57188779D01*
X128221445Y-57196953D01*
G37*
%TD.AperFunction*%
%TA.AperFunction,Conductor*%
G36*
X114867772Y-40750624D02*
G01*
X114874247Y-40750913D01*
X114926437Y-40753249D01*
X114937442Y-40754236D01*
X114992886Y-40761721D01*
X115003790Y-40763694D01*
X115025539Y-40768640D01*
X115061088Y-40776726D01*
X115066386Y-40778056D01*
X115106328Y-40789040D01*
X115106328Y-40789039D01*
X115165519Y-40805317D01*
X115165525Y-40805318D01*
X133518125Y-45852284D01*
X133997481Y-45984107D01*
X134056902Y-46020862D01*
X134087018Y-46083909D01*
X134078267Y-46153228D01*
X134033429Y-46206813D01*
X134001493Y-46222053D01*
X133895937Y-46254945D01*
X133895935Y-46254946D01*
X133755662Y-46339743D01*
X133755657Y-46339747D01*
X133639747Y-46455657D01*
X133639743Y-46455662D01*
X133554947Y-46595934D01*
X133506178Y-46752441D01*
X133501857Y-46799999D01*
X133501857Y-46800000D01*
X134276000Y-46800000D01*
X134343039Y-46819685D01*
X134388794Y-46872489D01*
X134400000Y-46924000D01*
X134400000Y-47050000D01*
X134526000Y-47050000D01*
X134593039Y-47069685D01*
X134638794Y-47122489D01*
X134650000Y-47174000D01*
X134650000Y-47899999D01*
X134660184Y-47910183D01*
X134692539Y-47919684D01*
X134738294Y-47972488D01*
X134749500Y-48023999D01*
X134749500Y-51976000D01*
X134729815Y-52043039D01*
X134677011Y-52088794D01*
X134656811Y-52093188D01*
X134650000Y-52100000D01*
X134650000Y-53799999D01*
X134658083Y-53808082D01*
X134667187Y-53812239D01*
X134692539Y-53819684D01*
X134698466Y-53826524D01*
X134706703Y-53830286D01*
X134720992Y-53852520D01*
X134738294Y-53872488D01*
X134740581Y-53883002D01*
X134744477Y-53889064D01*
X134749500Y-53923997D01*
X134749500Y-54020556D01*
X134729815Y-54087595D01*
X134677011Y-54133350D01*
X134607853Y-54143294D01*
X134586497Y-54138262D01*
X134502701Y-54110495D01*
X134502690Y-54110493D01*
X134399986Y-54100000D01*
X133950000Y-54100000D01*
X133950000Y-56299999D01*
X134399972Y-56299999D01*
X134399986Y-56299998D01*
X134502695Y-56289506D01*
X134586495Y-56261737D01*
X134656324Y-56259335D01*
X134716366Y-56295066D01*
X134747559Y-56357587D01*
X134749500Y-56379443D01*
X134749500Y-57620556D01*
X134729815Y-57687595D01*
X134677011Y-57733350D01*
X134607853Y-57743294D01*
X134586497Y-57738262D01*
X134502701Y-57710495D01*
X134502690Y-57710493D01*
X134399986Y-57700000D01*
X133950000Y-57700000D01*
X133950000Y-58676000D01*
X133930315Y-58743039D01*
X133877511Y-58788794D01*
X133826000Y-58800000D01*
X133574000Y-58800000D01*
X133506961Y-58780315D01*
X133461206Y-58727511D01*
X133450000Y-58676000D01*
X133450000Y-57700000D01*
X133374500Y-57700000D01*
X133307461Y-57680315D01*
X133261706Y-57627511D01*
X133250500Y-57576000D01*
X133250500Y-56423999D01*
X133270185Y-56356960D01*
X133322989Y-56311205D01*
X133374500Y-56299999D01*
X133450000Y-56299999D01*
X133450000Y-54100000D01*
X133000028Y-54100000D01*
X133000012Y-54100001D01*
X132897302Y-54110494D01*
X132730880Y-54165641D01*
X132730875Y-54165643D01*
X132581654Y-54257684D01*
X132457684Y-54381654D01*
X132365643Y-54530875D01*
X132365642Y-54530878D01*
X132312072Y-54692541D01*
X132272299Y-54749985D01*
X132207783Y-54776808D01*
X132139007Y-54764493D01*
X132106685Y-54741217D01*
X131411819Y-54046351D01*
X131378334Y-53985028D01*
X131375500Y-53958670D01*
X131375500Y-53200000D01*
X133501857Y-53200000D01*
X133506178Y-53247558D01*
X133554947Y-53404065D01*
X133639743Y-53544337D01*
X133639747Y-53544342D01*
X133755657Y-53660252D01*
X133755662Y-53660256D01*
X133895934Y-53745052D01*
X134052436Y-53793820D01*
X134120434Y-53799999D01*
X134150000Y-53799998D01*
X134150000Y-53200000D01*
X133501857Y-53200000D01*
X131375500Y-53200000D01*
X131375500Y-52699999D01*
X133501857Y-52699999D01*
X133501857Y-52700000D01*
X134150000Y-52700000D01*
X134150000Y-52099999D01*
X134120445Y-52100000D01*
X134120440Y-52100001D01*
X134052438Y-52106178D01*
X134052427Y-52106181D01*
X133895939Y-52154944D01*
X133895935Y-52154946D01*
X133755662Y-52239743D01*
X133755657Y-52239747D01*
X133639747Y-52355657D01*
X133639743Y-52355662D01*
X133554947Y-52495934D01*
X133506178Y-52652441D01*
X133501857Y-52699999D01*
X131375500Y-52699999D01*
X131375500Y-52445808D01*
X131395185Y-52378769D01*
X131411817Y-52358128D01*
X131418081Y-52351865D01*
X131501744Y-52210398D01*
X131547598Y-52052569D01*
X131550500Y-52015694D01*
X131550500Y-51584306D01*
X131547598Y-51547431D01*
X131545291Y-51539491D01*
X131501745Y-51389606D01*
X131501744Y-51389603D01*
X131501744Y-51389602D01*
X131426652Y-51262629D01*
X131409470Y-51194906D01*
X131426653Y-51136388D01*
X131501281Y-51010198D01*
X131547100Y-50852486D01*
X131547295Y-50850001D01*
X131547295Y-50850000D01*
X130749000Y-50850000D01*
X130681961Y-50830315D01*
X130636206Y-50777511D01*
X130625000Y-50726000D01*
X130625000Y-50474000D01*
X130644685Y-50406961D01*
X130697489Y-50361206D01*
X130749000Y-50350000D01*
X131547295Y-50350000D01*
X131547295Y-50349998D01*
X131547100Y-50347513D01*
X131501281Y-50189801D01*
X131426653Y-50063611D01*
X131409470Y-49995887D01*
X131426652Y-49937371D01*
X131501744Y-49810398D01*
X131547598Y-49652569D01*
X131550500Y-49615694D01*
X131550500Y-49184306D01*
X131547598Y-49147431D01*
X131542296Y-49129182D01*
X131504067Y-48997598D01*
X131501744Y-48989602D01*
X131426942Y-48863119D01*
X131409760Y-48795397D01*
X131426942Y-48736881D01*
X131501744Y-48610398D01*
X131547598Y-48452569D01*
X131550500Y-48415694D01*
X131550500Y-47984306D01*
X131547598Y-47947431D01*
X131540948Y-47924543D01*
X131510399Y-47819393D01*
X131501744Y-47789602D01*
X131418081Y-47648135D01*
X131418079Y-47648133D01*
X131418076Y-47648129D01*
X131301870Y-47531923D01*
X131301862Y-47531917D01*
X131176113Y-47457550D01*
X131160398Y-47448256D01*
X131160397Y-47448255D01*
X131160396Y-47448255D01*
X131160393Y-47448254D01*
X131002573Y-47402402D01*
X131002567Y-47402401D01*
X130965701Y-47399500D01*
X130965694Y-47399500D01*
X130284306Y-47399500D01*
X130284298Y-47399500D01*
X130247432Y-47402401D01*
X130247426Y-47402402D01*
X130089606Y-47448254D01*
X130089603Y-47448255D01*
X129948137Y-47531917D01*
X129948127Y-47531924D01*
X129933383Y-47546669D01*
X129916789Y-47555729D01*
X129903181Y-47568861D01*
X129873677Y-47579269D01*
X129872059Y-47580153D01*
X129869897Y-47580603D01*
X129853668Y-47583831D01*
X129840161Y-47586518D01*
X129779738Y-47598537D01*
X129779736Y-47598537D01*
X129779735Y-47598538D01*
X129779733Y-47598538D01*
X129754395Y-47609034D01*
X129665908Y-47645685D01*
X129665907Y-47645686D01*
X129621453Y-47675390D01*
X129563458Y-47714140D01*
X129519895Y-47757703D01*
X129476332Y-47801267D01*
X129476329Y-47801270D01*
X128586965Y-48690635D01*
X128525642Y-48724120D01*
X128499284Y-48726954D01*
X127132803Y-48726954D01*
X127065764Y-48707269D01*
X127020009Y-48654465D01*
X127010065Y-48585307D01*
X127025415Y-48540955D01*
X127033274Y-48527342D01*
X127059577Y-48481784D01*
X127100501Y-48329057D01*
X127100501Y-48170942D01*
X127100501Y-48163347D01*
X127100500Y-48163329D01*
X127100500Y-47670945D01*
X127100500Y-47670943D01*
X127099903Y-47668716D01*
X127059577Y-47518215D01*
X127024552Y-47457550D01*
X126980520Y-47381284D01*
X126899236Y-47300000D01*
X133501857Y-47300000D01*
X133506178Y-47347558D01*
X133554947Y-47504065D01*
X133639743Y-47644337D01*
X133639747Y-47644342D01*
X133755657Y-47760252D01*
X133755662Y-47760256D01*
X133895934Y-47845052D01*
X134052436Y-47893820D01*
X134120434Y-47899999D01*
X134150000Y-47899998D01*
X134150000Y-47300000D01*
X133501857Y-47300000D01*
X126899236Y-47300000D01*
X126868716Y-47269480D01*
X126868715Y-47269479D01*
X126864385Y-47265149D01*
X126864374Y-47265139D01*
X126537590Y-46938355D01*
X126537588Y-46938352D01*
X126418717Y-46819481D01*
X126418716Y-46819480D01*
X126319380Y-46762129D01*
X126319379Y-46762128D01*
X126281783Y-46740422D01*
X126223163Y-46724715D01*
X126129057Y-46699499D01*
X126129054Y-46699499D01*
X126033100Y-46699499D01*
X125968325Y-46680478D01*
X125968135Y-46680801D01*
X125966865Y-46680050D01*
X125966061Y-46679814D01*
X125963987Y-46678348D01*
X125825390Y-46596382D01*
X125825385Y-46596380D01*
X125673633Y-46552292D01*
X125673620Y-46552290D01*
X125638163Y-46549500D01*
X125261849Y-46549500D01*
X125261824Y-46549501D01*
X125226372Y-46552291D01*
X125074614Y-46596380D01*
X125074608Y-46596382D01*
X125063118Y-46603178D01*
X124995393Y-46620358D01*
X124936882Y-46603178D01*
X124925391Y-46596382D01*
X124925385Y-46596380D01*
X124773633Y-46552292D01*
X124773620Y-46552290D01*
X124738170Y-46549500D01*
X124738163Y-46549500D01*
X124623919Y-46549500D01*
X124623918Y-46549500D01*
X123876082Y-46549500D01*
X123876080Y-46549500D01*
X123731092Y-46578340D01*
X123731086Y-46578342D01*
X123594508Y-46634914D01*
X123594496Y-46634921D01*
X123545269Y-46667813D01*
X123471588Y-46717044D01*
X123471580Y-46717050D01*
X122126451Y-48062181D01*
X122065128Y-48095666D01*
X122038770Y-48098500D01*
X121099862Y-48098500D01*
X121032823Y-48078815D01*
X121012181Y-48062181D01*
X121000000Y-48050000D01*
X119100000Y-48050000D01*
X119087819Y-48062181D01*
X119026496Y-48095666D01*
X119000138Y-48098500D01*
X116999862Y-48098500D01*
X116932823Y-48078815D01*
X116912181Y-48062181D01*
X116900000Y-48050000D01*
X116074000Y-48050000D01*
X116006961Y-48030315D01*
X115961206Y-47977511D01*
X115950000Y-47926000D01*
X115950000Y-47674000D01*
X115969685Y-47606961D01*
X116022489Y-47561206D01*
X116074000Y-47550000D01*
X116900000Y-47550000D01*
X116900000Y-47252172D01*
X116899999Y-47252155D01*
X116893598Y-47192627D01*
X116893597Y-47192623D01*
X116840253Y-47049602D01*
X116841767Y-47049037D01*
X116836882Y-47025083D01*
X116829616Y-46991674D01*
X116829853Y-46990615D01*
X116829742Y-46990069D01*
X116830664Y-46987000D01*
X116837693Y-46955683D01*
X116841878Y-46944892D01*
X116843796Y-46942331D01*
X116866893Y-46880403D01*
X116867183Y-46879657D01*
X116887993Y-46852598D01*
X116908479Y-46825233D01*
X116909266Y-46824939D01*
X116909779Y-46824273D01*
X116941939Y-46812752D01*
X116973943Y-46800816D01*
X116975409Y-46800763D01*
X116975556Y-46800711D01*
X116975733Y-46800752D01*
X116982790Y-46800500D01*
X119017209Y-46800500D01*
X119084248Y-46820185D01*
X119130003Y-46872989D01*
X119133391Y-46881167D01*
X119159303Y-46950641D01*
X119157733Y-46951226D01*
X119170383Y-47009367D01*
X119158687Y-47049206D01*
X119159746Y-47049601D01*
X119106403Y-47192620D01*
X119106401Y-47192627D01*
X119100000Y-47252155D01*
X119100000Y-47550000D01*
X121000000Y-47550000D01*
X121000000Y-47252172D01*
X120999999Y-47252155D01*
X120993598Y-47192627D01*
X120993597Y-47192623D01*
X120940253Y-47049602D01*
X120942067Y-47048925D01*
X120929616Y-46991674D01*
X120941570Y-46950966D01*
X120940696Y-46950640D01*
X120943794Y-46942333D01*
X120943796Y-46942331D01*
X120994091Y-46807483D01*
X121000500Y-46747873D01*
X121000499Y-45652128D01*
X120994091Y-45592517D01*
X120992011Y-45586941D01*
X120943797Y-45457671D01*
X120943793Y-45457664D01*
X120857547Y-45342455D01*
X120857544Y-45342452D01*
X120742335Y-45256206D01*
X120742328Y-45256202D01*
X120607482Y-45205908D01*
X120607483Y-45205908D01*
X120547883Y-45199501D01*
X120547881Y-45199500D01*
X120547873Y-45199500D01*
X120547864Y-45199500D01*
X119552129Y-45199500D01*
X119552123Y-45199501D01*
X119492516Y-45205908D01*
X119357671Y-45256202D01*
X119357664Y-45256206D01*
X119242455Y-45342452D01*
X119242452Y-45342455D01*
X119156206Y-45457664D01*
X119156202Y-45457671D01*
X119133391Y-45518833D01*
X119091520Y-45574767D01*
X119026056Y-45599184D01*
X119017209Y-45599500D01*
X116982791Y-45599500D01*
X116915752Y-45579815D01*
X116869997Y-45527011D01*
X116866609Y-45518833D01*
X116843797Y-45457671D01*
X116843793Y-45457664D01*
X116757547Y-45342455D01*
X116757544Y-45342452D01*
X116642335Y-45256206D01*
X116642328Y-45256202D01*
X116507482Y-45205908D01*
X116507483Y-45205908D01*
X116447883Y-45199501D01*
X116447881Y-45199500D01*
X116447873Y-45199500D01*
X116447864Y-45199500D01*
X115452129Y-45199500D01*
X115452123Y-45199501D01*
X115392516Y-45205908D01*
X115257671Y-45256202D01*
X115257664Y-45256206D01*
X115142455Y-45342452D01*
X115142452Y-45342455D01*
X115056206Y-45457664D01*
X115056202Y-45457671D01*
X115005908Y-45592517D01*
X114999501Y-45652116D01*
X114999501Y-45652123D01*
X114999500Y-45652135D01*
X114999500Y-46249900D01*
X114979815Y-46316939D01*
X114963182Y-46337581D01*
X114737584Y-46563181D01*
X114676261Y-46596666D01*
X114649902Y-46599500D01*
X109878099Y-46599500D01*
X109811060Y-46579815D01*
X109765305Y-46527011D01*
X109755160Y-46459315D01*
X109770998Y-46339007D01*
X109770999Y-46338990D01*
X109770999Y-45501001D01*
X109755686Y-45384681D01*
X109755684Y-45384673D01*
X109695731Y-45239933D01*
X109600358Y-45115641D01*
X109494294Y-45034255D01*
X108519456Y-46009094D01*
X108458133Y-46042579D01*
X108388441Y-46037595D01*
X108344094Y-46009094D01*
X108255000Y-45920000D01*
X108165905Y-46009095D01*
X108104582Y-46042580D01*
X108034890Y-46037596D01*
X107990543Y-46009095D01*
X107015704Y-45034256D01*
X106909639Y-45115642D01*
X106814268Y-45239933D01*
X106754315Y-45384673D01*
X106754315Y-45384674D01*
X106739000Y-45500995D01*
X106739000Y-46338999D01*
X106754839Y-46459317D01*
X106744072Y-46528352D01*
X106697692Y-46580607D01*
X106631900Y-46599500D01*
X102720942Y-46599500D01*
X102568214Y-46640423D01*
X102568213Y-46640423D01*
X102543757Y-46654542D01*
X102543758Y-46654543D01*
X102431287Y-46719477D01*
X102431282Y-46719481D01*
X102374593Y-46776171D01*
X102319480Y-46831284D01*
X102319478Y-46831286D01*
X101138584Y-48012181D01*
X99987584Y-49163181D01*
X99926261Y-49196666D01*
X99899903Y-49199500D01*
X96517848Y-49199500D01*
X96450809Y-49179815D01*
X96405054Y-49127011D01*
X96396231Y-49099692D01*
X96369738Y-48966508D01*
X96369737Y-48966507D01*
X96369737Y-48966503D01*
X96363624Y-48951744D01*
X96309397Y-48820827D01*
X96309390Y-48820814D01*
X96221789Y-48689711D01*
X96221786Y-48689707D01*
X96110292Y-48578213D01*
X96110288Y-48578210D01*
X95979185Y-48490609D01*
X95979172Y-48490602D01*
X95835864Y-48431243D01*
X95781460Y-48387402D01*
X95768761Y-48364147D01*
X95709394Y-48220821D01*
X95709392Y-48220818D01*
X95709390Y-48220814D01*
X95621398Y-48089125D01*
X95600520Y-48022447D01*
X95600500Y-48020234D01*
X95600500Y-46420945D01*
X95600500Y-46420943D01*
X95559577Y-46268216D01*
X95559577Y-46268215D01*
X95532925Y-46222053D01*
X95528564Y-46214499D01*
X95528564Y-46214498D01*
X95480524Y-46131290D01*
X95480521Y-46131286D01*
X95480520Y-46131284D01*
X95368716Y-46019480D01*
X95368715Y-46019479D01*
X95364385Y-46015149D01*
X95364374Y-46015139D01*
X93637590Y-44288355D01*
X93637588Y-44288352D01*
X93518717Y-44169481D01*
X93518716Y-44169480D01*
X93502059Y-44159863D01*
X93438674Y-44123268D01*
X93438670Y-44123266D01*
X93431904Y-44119360D01*
X93381785Y-44090423D01*
X93322918Y-44074649D01*
X93315139Y-44071382D01*
X93294323Y-44054437D01*
X93271402Y-44040466D01*
X93267636Y-44032713D01*
X93260953Y-44027273D01*
X93252603Y-44001765D01*
X93240874Y-43977619D01*
X93241860Y-43968949D01*
X93239216Y-43960870D01*
X93245545Y-43936571D01*
X93246966Y-43924084D01*
X93244069Y-43923308D01*
X93246171Y-43915460D01*
X93246173Y-43915457D01*
X93261500Y-43799035D01*
X93261499Y-42960966D01*
X93261499Y-42960964D01*
X93261499Y-42960962D01*
X93246175Y-42844551D01*
X93246173Y-42844544D01*
X93246173Y-42844543D01*
X93210060Y-42757358D01*
X93186170Y-42699681D01*
X93186168Y-42699678D01*
X93152913Y-42656340D01*
X93090716Y-42575284D01*
X92966320Y-42479831D01*
X92844337Y-42429304D01*
X92821460Y-42419828D01*
X92821455Y-42419826D01*
X92705035Y-42404500D01*
X90784962Y-42404500D01*
X90668551Y-42419824D01*
X90668539Y-42419828D01*
X90523681Y-42479829D01*
X90523678Y-42479831D01*
X90399284Y-42575284D01*
X90303831Y-42699678D01*
X90303831Y-42699679D01*
X90302474Y-42702956D01*
X90300589Y-42705294D01*
X90299767Y-42706719D01*
X90299544Y-42706590D01*
X90258631Y-42757358D01*
X90192336Y-42779421D01*
X90187914Y-42779500D01*
X88699057Y-42779500D01*
X88540942Y-42779500D01*
X88388215Y-42820423D01*
X88388214Y-42820423D01*
X88388212Y-42820424D01*
X88388209Y-42820425D01*
X88338096Y-42849359D01*
X88338095Y-42849360D01*
X88294689Y-42874420D01*
X88251285Y-42899479D01*
X88251282Y-42899481D01*
X88189802Y-42960962D01*
X88139480Y-43011284D01*
X88139478Y-43011286D01*
X86862410Y-44288355D01*
X85587584Y-45563181D01*
X85526261Y-45596666D01*
X85499903Y-45599500D01*
X85082791Y-45599500D01*
X85015752Y-45579815D01*
X84969997Y-45527011D01*
X84966609Y-45518833D01*
X84943797Y-45457671D01*
X84943793Y-45457664D01*
X84857547Y-45342455D01*
X84857544Y-45342452D01*
X84742335Y-45256206D01*
X84742328Y-45256202D01*
X84607482Y-45205908D01*
X84607483Y-45205908D01*
X84547883Y-45199501D01*
X84547881Y-45199500D01*
X84547873Y-45199500D01*
X84547864Y-45199500D01*
X83552129Y-45199500D01*
X83552123Y-45199501D01*
X83492516Y-45205908D01*
X83357671Y-45256202D01*
X83357664Y-45256206D01*
X83242455Y-45342452D01*
X83242452Y-45342455D01*
X83156206Y-45457664D01*
X83156202Y-45457671D01*
X83133391Y-45518833D01*
X83091520Y-45574767D01*
X83026056Y-45599184D01*
X83017209Y-45599500D01*
X80982791Y-45599500D01*
X80915752Y-45579815D01*
X80869997Y-45527011D01*
X80866609Y-45518833D01*
X80843797Y-45457671D01*
X80843793Y-45457664D01*
X80757547Y-45342455D01*
X80757544Y-45342452D01*
X80642335Y-45256206D01*
X80642328Y-45256202D01*
X80507482Y-45205908D01*
X80507483Y-45205908D01*
X80447883Y-45199501D01*
X80447881Y-45199500D01*
X80447873Y-45199500D01*
X80447864Y-45199500D01*
X79452129Y-45199500D01*
X79452123Y-45199501D01*
X79392516Y-45205908D01*
X79257671Y-45256202D01*
X79257664Y-45256206D01*
X79142455Y-45342452D01*
X79142452Y-45342455D01*
X79056206Y-45457664D01*
X79056202Y-45457671D01*
X79005908Y-45592517D01*
X78999501Y-45652116D01*
X78999501Y-45652123D01*
X78999500Y-45652135D01*
X78999500Y-46747870D01*
X78999501Y-46747876D01*
X79005908Y-46807483D01*
X79059303Y-46950641D01*
X79057733Y-46951226D01*
X79070383Y-47009367D01*
X79058687Y-47049206D01*
X79059746Y-47049601D01*
X79006403Y-47192620D01*
X79006401Y-47192627D01*
X79000000Y-47252155D01*
X79000000Y-47550000D01*
X80900000Y-47550000D01*
X80900000Y-47252172D01*
X80899999Y-47252155D01*
X80893598Y-47192627D01*
X80893597Y-47192623D01*
X80840253Y-47049602D01*
X80841767Y-47049037D01*
X80836882Y-47025083D01*
X80829616Y-46991674D01*
X80829853Y-46990615D01*
X80829742Y-46990069D01*
X80830664Y-46987000D01*
X80837693Y-46955683D01*
X80841878Y-46944892D01*
X80843796Y-46942331D01*
X80866893Y-46880403D01*
X80867183Y-46879657D01*
X80887993Y-46852598D01*
X80908479Y-46825233D01*
X80909266Y-46824939D01*
X80909779Y-46824273D01*
X80941939Y-46812752D01*
X80973943Y-46800816D01*
X80975409Y-46800763D01*
X80975556Y-46800711D01*
X80975733Y-46800752D01*
X80982790Y-46800500D01*
X83017209Y-46800500D01*
X83084248Y-46820185D01*
X83130003Y-46872989D01*
X83133391Y-46881167D01*
X83159303Y-46950641D01*
X83157733Y-46951226D01*
X83170383Y-47009367D01*
X83158687Y-47049206D01*
X83159746Y-47049601D01*
X83106403Y-47192620D01*
X83106401Y-47192627D01*
X83100000Y-47252155D01*
X83100000Y-47550000D01*
X85000000Y-47550000D01*
X85000000Y-47252172D01*
X84999999Y-47252155D01*
X84993598Y-47192627D01*
X84993597Y-47192623D01*
X84940253Y-47049602D01*
X84941767Y-47049037D01*
X84936882Y-47025083D01*
X84929616Y-46991674D01*
X84929853Y-46990615D01*
X84929742Y-46990069D01*
X84930664Y-46987000D01*
X84937693Y-46955683D01*
X84941878Y-46944892D01*
X84943796Y-46942331D01*
X84966893Y-46880403D01*
X84967183Y-46879657D01*
X84987993Y-46852598D01*
X85008479Y-46825233D01*
X85009266Y-46824939D01*
X85009779Y-46824273D01*
X85041939Y-46812752D01*
X85073943Y-46800816D01*
X85075409Y-46800763D01*
X85075556Y-46800711D01*
X85075733Y-46800752D01*
X85082790Y-46800500D01*
X85713331Y-46800500D01*
X85713347Y-46800501D01*
X85720943Y-46800501D01*
X85879054Y-46800501D01*
X85879057Y-46800501D01*
X86031785Y-46759577D01*
X86081904Y-46730639D01*
X86168716Y-46680520D01*
X86280520Y-46568716D01*
X86280520Y-46568714D01*
X86290728Y-46558507D01*
X86290729Y-46558504D01*
X88832416Y-44016819D01*
X88893739Y-43983334D01*
X88920097Y-43980500D01*
X90120080Y-43980500D01*
X90187119Y-44000185D01*
X90232874Y-44052989D01*
X90243018Y-44120683D01*
X90234589Y-44184715D01*
X90228500Y-44230965D01*
X90228500Y-45069037D01*
X90243825Y-45185453D01*
X90243826Y-45185456D01*
X90265403Y-45237549D01*
X90272870Y-45307019D01*
X90272496Y-45309000D01*
X90270112Y-45321083D01*
X90243827Y-45384543D01*
X90228500Y-45500965D01*
X90228500Y-45532015D01*
X90226155Y-45543902D01*
X90215382Y-45564576D01*
X90208815Y-45586941D01*
X90194420Y-45604804D01*
X90193868Y-45605864D01*
X90193308Y-45606183D01*
X90192181Y-45607583D01*
X89947481Y-45852282D01*
X89947479Y-45852285D01*
X89912783Y-45912382D01*
X89912782Y-45912384D01*
X89868423Y-45989214D01*
X89861474Y-46015149D01*
X89827499Y-46141943D01*
X89827499Y-46141945D01*
X89827499Y-46310046D01*
X89827500Y-46310059D01*
X89827500Y-49399861D01*
X89807815Y-49466900D01*
X89791181Y-49487542D01*
X89409120Y-49869602D01*
X89347797Y-49903087D01*
X89278105Y-49898103D01*
X89222172Y-49856231D01*
X89197755Y-49790767D01*
X89197820Y-49772204D01*
X89200500Y-49738163D01*
X89200499Y-49361838D01*
X89197709Y-49326373D01*
X89153618Y-49174610D01*
X89137541Y-49147426D01*
X89126833Y-49129319D01*
X89109650Y-49061595D01*
X89130463Y-48997307D01*
X89131699Y-48995457D01*
X89209394Y-48879179D01*
X89269737Y-48733497D01*
X89300500Y-48578842D01*
X89300500Y-48421158D01*
X89300500Y-48421155D01*
X89300499Y-48421153D01*
X89269738Y-48266510D01*
X89269737Y-48266503D01*
X89227009Y-48163347D01*
X89209397Y-48120827D01*
X89209390Y-48120814D01*
X89121789Y-47989711D01*
X89121786Y-47989707D01*
X89010292Y-47878213D01*
X89010288Y-47878210D01*
X88879185Y-47790609D01*
X88879172Y-47790602D01*
X88733501Y-47730264D01*
X88733489Y-47730261D01*
X88578845Y-47699500D01*
X88578842Y-47699500D01*
X88421158Y-47699500D01*
X88421155Y-47699500D01*
X88266510Y-47730261D01*
X88266498Y-47730264D01*
X88120827Y-47790602D01*
X88120814Y-47790609D01*
X87989711Y-47878210D01*
X87989707Y-47878213D01*
X87878213Y-47989707D01*
X87853102Y-48027289D01*
X87799489Y-48072093D01*
X87730164Y-48080800D01*
X87667137Y-48050645D01*
X87646898Y-48027289D01*
X87636803Y-48012181D01*
X87621789Y-47989711D01*
X87621788Y-47989710D01*
X87621786Y-47989707D01*
X87510292Y-47878213D01*
X87510288Y-47878210D01*
X87379185Y-47790609D01*
X87379172Y-47790602D01*
X87233501Y-47730264D01*
X87233489Y-47730261D01*
X87078845Y-47699500D01*
X87078842Y-47699500D01*
X86921158Y-47699500D01*
X86921155Y-47699500D01*
X86766510Y-47730261D01*
X86766498Y-47730264D01*
X86620827Y-47790602D01*
X86620814Y-47790609D01*
X86489711Y-47878210D01*
X86489707Y-47878213D01*
X86378213Y-47989707D01*
X86378210Y-47989711D01*
X86290609Y-48120814D01*
X86290602Y-48120827D01*
X86230264Y-48266498D01*
X86230261Y-48266510D01*
X86199500Y-48421153D01*
X86199500Y-48578846D01*
X86230261Y-48733489D01*
X86230263Y-48733497D01*
X86240061Y-48757151D01*
X86249500Y-48804604D01*
X86249500Y-49073918D01*
X86249500Y-49073920D01*
X86249499Y-49073920D01*
X86278340Y-49218907D01*
X86278342Y-49218913D01*
X86282125Y-49228045D01*
X86289595Y-49297514D01*
X86258322Y-49359994D01*
X86198234Y-49395648D01*
X86167565Y-49399500D01*
X79300097Y-49399500D01*
X79270656Y-49390855D01*
X79240670Y-49384332D01*
X79235654Y-49380577D01*
X79233058Y-49379815D01*
X79212416Y-49363181D01*
X79037590Y-49188355D01*
X79037588Y-49188352D01*
X78918717Y-49069481D01*
X78918709Y-49069475D01*
X78823781Y-49014669D01*
X78823779Y-49014668D01*
X78781790Y-48990425D01*
X78781789Y-48990424D01*
X78758512Y-48984187D01*
X78629057Y-48949499D01*
X78470943Y-48949499D01*
X78463347Y-48949499D01*
X78463331Y-48949500D01*
X78000098Y-48949500D01*
X77933059Y-48929815D01*
X77912417Y-48913181D01*
X77347080Y-48347844D01*
X79000000Y-48347844D01*
X79006401Y-48407372D01*
X79006403Y-48407379D01*
X79056645Y-48542086D01*
X79056649Y-48542093D01*
X79142809Y-48657187D01*
X79142812Y-48657190D01*
X79257906Y-48743350D01*
X79257913Y-48743354D01*
X79392620Y-48793596D01*
X79392627Y-48793598D01*
X79452155Y-48799999D01*
X79452172Y-48800000D01*
X79700000Y-48800000D01*
X80200000Y-48800000D01*
X80447828Y-48800000D01*
X80447844Y-48799999D01*
X80507372Y-48793598D01*
X80507379Y-48793596D01*
X80642086Y-48743354D01*
X80642093Y-48743350D01*
X80757187Y-48657190D01*
X80757190Y-48657187D01*
X80843350Y-48542093D01*
X80843354Y-48542086D01*
X80893596Y-48407379D01*
X80893598Y-48407372D01*
X80899999Y-48347844D01*
X83100000Y-48347844D01*
X83106401Y-48407372D01*
X83106403Y-48407379D01*
X83156645Y-48542086D01*
X83156649Y-48542093D01*
X83242809Y-48657187D01*
X83242812Y-48657190D01*
X83357906Y-48743350D01*
X83357913Y-48743354D01*
X83492620Y-48793596D01*
X83492627Y-48793598D01*
X83552155Y-48799999D01*
X83552172Y-48800000D01*
X83800000Y-48800000D01*
X84300000Y-48800000D01*
X84547828Y-48800000D01*
X84547844Y-48799999D01*
X84607372Y-48793598D01*
X84607379Y-48793596D01*
X84742086Y-48743354D01*
X84742093Y-48743350D01*
X84857187Y-48657190D01*
X84857190Y-48657187D01*
X84943350Y-48542093D01*
X84943354Y-48542086D01*
X84993596Y-48407379D01*
X84993598Y-48407372D01*
X84999999Y-48347844D01*
X85000000Y-48347827D01*
X85000000Y-48050000D01*
X84300000Y-48050000D01*
X84300000Y-48800000D01*
X83800000Y-48800000D01*
X83800000Y-48050000D01*
X83100000Y-48050000D01*
X83100000Y-48347844D01*
X80899999Y-48347844D01*
X80900000Y-48347827D01*
X80900000Y-48050000D01*
X80200000Y-48050000D01*
X80200000Y-48800000D01*
X79700000Y-48800000D01*
X79700000Y-48050000D01*
X79000000Y-48050000D01*
X79000000Y-48347844D01*
X77347080Y-48347844D01*
X76236818Y-47237582D01*
X76203333Y-47176259D01*
X76200499Y-47149901D01*
X76200499Y-47111849D01*
X76200498Y-47111824D01*
X76200115Y-47106961D01*
X76197709Y-47076373D01*
X76153618Y-46924610D01*
X76091852Y-46820169D01*
X76073172Y-46788583D01*
X76073165Y-46788574D01*
X75961425Y-46676834D01*
X75961416Y-46676827D01*
X75825390Y-46596382D01*
X75825385Y-46596380D01*
X75673633Y-46552292D01*
X75673620Y-46552290D01*
X75638163Y-46549500D01*
X75261849Y-46549500D01*
X75261824Y-46549501D01*
X75226372Y-46552291D01*
X75074614Y-46596380D01*
X75074608Y-46596382D01*
X75063118Y-46603178D01*
X74995393Y-46620358D01*
X74936882Y-46603178D01*
X74925391Y-46596382D01*
X74925385Y-46596380D01*
X74773633Y-46552292D01*
X74773620Y-46552290D01*
X74738170Y-46549500D01*
X74738163Y-46549500D01*
X74623919Y-46549500D01*
X74623918Y-46549500D01*
X74173917Y-46549500D01*
X74026082Y-46549500D01*
X74026080Y-46549500D01*
X73881092Y-46578340D01*
X73881082Y-46578343D01*
X73744511Y-46634912D01*
X73744498Y-46634919D01*
X73621584Y-46717048D01*
X73621580Y-46717051D01*
X72925451Y-47413181D01*
X72864128Y-47446666D01*
X72837770Y-47449500D01*
X69932328Y-47449500D01*
X69897733Y-47444576D01*
X69752573Y-47402402D01*
X69752567Y-47402401D01*
X69715701Y-47399500D01*
X69715694Y-47399500D01*
X69034306Y-47399500D01*
X69034298Y-47399500D01*
X68997432Y-47402401D01*
X68997426Y-47402402D01*
X68839607Y-47448254D01*
X68839594Y-47448259D01*
X68836130Y-47450308D01*
X68797212Y-47465187D01*
X68731094Y-47478339D01*
X68731090Y-47478340D01*
X68731088Y-47478341D01*
X68651080Y-47511481D01*
X68651078Y-47511481D01*
X68594506Y-47534915D01*
X68531776Y-47576830D01*
X68471582Y-47617049D01*
X68471579Y-47617052D01*
X67363949Y-48724681D01*
X67363945Y-48724685D01*
X67323427Y-48785329D01*
X67323426Y-48785331D01*
X67281814Y-48847607D01*
X67225243Y-48984182D01*
X67225240Y-48984192D01*
X67196400Y-49129179D01*
X67196400Y-53982753D01*
X67176715Y-54049792D01*
X67123911Y-54095547D01*
X67059798Y-54106111D01*
X66999988Y-54100000D01*
X66550000Y-54100000D01*
X66550000Y-56299999D01*
X66724500Y-56299999D01*
X66791539Y-56319684D01*
X66837294Y-56372488D01*
X66848500Y-56423999D01*
X66848500Y-57576000D01*
X66828815Y-57643039D01*
X66776011Y-57688794D01*
X66724500Y-57700000D01*
X66550000Y-57700000D01*
X66550000Y-58676000D01*
X66530315Y-58743039D01*
X66477511Y-58788794D01*
X66426000Y-58800000D01*
X66174000Y-58800000D01*
X66106961Y-58780315D01*
X66061206Y-58727511D01*
X66050000Y-58676000D01*
X66050000Y-57700000D01*
X65600028Y-57700000D01*
X65600012Y-57700001D01*
X65497302Y-57710494D01*
X65413504Y-57738262D01*
X65343675Y-57740664D01*
X65283633Y-57704932D01*
X65252441Y-57642411D01*
X65250500Y-57620556D01*
X65250500Y-56379443D01*
X65270185Y-56312404D01*
X65322989Y-56266649D01*
X65392147Y-56256705D01*
X65413504Y-56261737D01*
X65497302Y-56289505D01*
X65497309Y-56289506D01*
X65600019Y-56299999D01*
X66049999Y-56299999D01*
X66050000Y-56299998D01*
X66050000Y-54100000D01*
X65600028Y-54100000D01*
X65600012Y-54100001D01*
X65497302Y-54110494D01*
X65413504Y-54138262D01*
X65385039Y-54139241D01*
X65356853Y-54143294D01*
X65350574Y-54140426D01*
X65343675Y-54140664D01*
X65319199Y-54126098D01*
X65293297Y-54114269D01*
X65289565Y-54108462D01*
X65283633Y-54104932D01*
X65270918Y-54079446D01*
X65255523Y-54055491D01*
X65254128Y-54045793D01*
X65252441Y-54042411D01*
X65250500Y-54020556D01*
X65250500Y-53923997D01*
X65270185Y-53856958D01*
X65322989Y-53811203D01*
X65343191Y-53806808D01*
X65350000Y-53799999D01*
X65850000Y-53799999D01*
X65879565Y-53799999D01*
X65947561Y-53793821D01*
X65947572Y-53793818D01*
X66104060Y-53745055D01*
X66104064Y-53745053D01*
X66244337Y-53660256D01*
X66244342Y-53660252D01*
X66360252Y-53544342D01*
X66360256Y-53544337D01*
X66445052Y-53404065D01*
X66493821Y-53247558D01*
X66498142Y-53200000D01*
X65850000Y-53200000D01*
X65850000Y-53799999D01*
X65350000Y-53799999D01*
X65350000Y-52700000D01*
X65850000Y-52700000D01*
X66498143Y-52700000D01*
X66498142Y-52699999D01*
X66493821Y-52652441D01*
X66445052Y-52495934D01*
X66360256Y-52355662D01*
X66360252Y-52355657D01*
X66244342Y-52239747D01*
X66244337Y-52239743D01*
X66104065Y-52154947D01*
X65947562Y-52106179D01*
X65879556Y-52100000D01*
X65850000Y-52100000D01*
X65850000Y-52700000D01*
X65350000Y-52700000D01*
X65350000Y-52111640D01*
X65301385Y-52076149D01*
X65282261Y-52051231D01*
X65261706Y-52027509D01*
X65260776Y-52023236D01*
X65258846Y-52020721D01*
X65257983Y-52010395D01*
X65250500Y-51975998D01*
X65250500Y-48023997D01*
X65270185Y-47956958D01*
X65322989Y-47911203D01*
X65343191Y-47906808D01*
X65350000Y-47899999D01*
X65850000Y-47899999D01*
X65879565Y-47899999D01*
X65947561Y-47893821D01*
X65947572Y-47893818D01*
X66104060Y-47845055D01*
X66104064Y-47845053D01*
X66244337Y-47760256D01*
X66244342Y-47760252D01*
X66360252Y-47644342D01*
X66360256Y-47644337D01*
X66445052Y-47504065D01*
X66493821Y-47347558D01*
X66498142Y-47300000D01*
X65850000Y-47300000D01*
X65850000Y-47899999D01*
X65350000Y-47899999D01*
X65350000Y-47174000D01*
X65369685Y-47106961D01*
X65422489Y-47061206D01*
X65474000Y-47050000D01*
X65600000Y-47050000D01*
X65600000Y-46924000D01*
X65619685Y-46856961D01*
X65672489Y-46811206D01*
X65724000Y-46800000D01*
X66498143Y-46800000D01*
X66498142Y-46799999D01*
X66493821Y-46752441D01*
X66445052Y-46595934D01*
X66360256Y-46455662D01*
X66360252Y-46455657D01*
X66244342Y-46339747D01*
X66244337Y-46339743D01*
X66104064Y-46254946D01*
X66104060Y-46254944D01*
X65998506Y-46222053D01*
X65940358Y-46183316D01*
X65912384Y-46119291D01*
X65923466Y-46050305D01*
X65970084Y-45998262D01*
X66002513Y-45984108D01*
X79322130Y-42321213D01*
X97379500Y-42321213D01*
X97379500Y-42533786D01*
X97412753Y-42743739D01*
X97412753Y-42743741D01*
X97412754Y-42743743D01*
X97469564Y-42918586D01*
X97478444Y-42945914D01*
X97574951Y-43135320D01*
X97699890Y-43307286D01*
X97850213Y-43457609D01*
X98022182Y-43582550D01*
X98030946Y-43587016D01*
X98081742Y-43634991D01*
X98098536Y-43702812D01*
X98075998Y-43768947D01*
X98030946Y-43807984D01*
X98022182Y-43812449D01*
X97850213Y-43937390D01*
X97699890Y-44087713D01*
X97574951Y-44259679D01*
X97478444Y-44449085D01*
X97412753Y-44651260D01*
X97379500Y-44861213D01*
X97379500Y-45073786D01*
X97408392Y-45256206D01*
X97412754Y-45283743D01*
X97469266Y-45457669D01*
X97478444Y-45485914D01*
X97574951Y-45675320D01*
X97699890Y-45847286D01*
X97850213Y-45997609D01*
X98022179Y-46122548D01*
X98022181Y-46122549D01*
X98022184Y-46122551D01*
X98211588Y-46219057D01*
X98413757Y-46284746D01*
X98623713Y-46318000D01*
X98623714Y-46318000D01*
X98836286Y-46318000D01*
X98836287Y-46318000D01*
X99046243Y-46284746D01*
X99248412Y-46219057D01*
X99437816Y-46122551D01*
X99537255Y-46050305D01*
X99609786Y-45997609D01*
X99609788Y-45997606D01*
X99609792Y-45997604D01*
X99760104Y-45847292D01*
X99760106Y-45847288D01*
X99760109Y-45847286D01*
X99885048Y-45675320D01*
X99885047Y-45675320D01*
X99885051Y-45675316D01*
X99889514Y-45666554D01*
X99937488Y-45615759D01*
X100005308Y-45598963D01*
X100071444Y-45621499D01*
X100110484Y-45666554D01*
X100114591Y-45674615D01*
X100114951Y-45675320D01*
X100239890Y-45847286D01*
X100390213Y-45997609D01*
X100562179Y-46122548D01*
X100562181Y-46122549D01*
X100562184Y-46122551D01*
X100751588Y-46219057D01*
X100953757Y-46284746D01*
X101163713Y-46318000D01*
X101163714Y-46318000D01*
X101376286Y-46318000D01*
X101376287Y-46318000D01*
X101586243Y-46284746D01*
X101788412Y-46219057D01*
X101977816Y-46122551D01*
X102077255Y-46050305D01*
X102149786Y-45997609D01*
X102149788Y-45997606D01*
X102149792Y-45997604D01*
X102300104Y-45847292D01*
X102300106Y-45847288D01*
X102300109Y-45847286D01*
X102425048Y-45675320D01*
X102425047Y-45675320D01*
X102425051Y-45675316D01*
X102521557Y-45485912D01*
X102587246Y-45283743D01*
X102620500Y-45073787D01*
X102620500Y-44945000D01*
X107633551Y-44945000D01*
X108255000Y-45566448D01*
X108255001Y-45566448D01*
X108876447Y-44945000D01*
X107633551Y-44945000D01*
X102620500Y-44945000D01*
X102620500Y-44861213D01*
X102587246Y-44651257D01*
X102521557Y-44449088D01*
X102425051Y-44259684D01*
X102425049Y-44259681D01*
X102425048Y-44259679D01*
X102300109Y-44087713D01*
X102149786Y-43937390D01*
X101977820Y-43812451D01*
X101977115Y-43812091D01*
X101969054Y-43807985D01*
X101918259Y-43760012D01*
X101901463Y-43692192D01*
X101923999Y-43626056D01*
X101969054Y-43587015D01*
X101977816Y-43582551D01*
X101999789Y-43566586D01*
X102149786Y-43457609D01*
X102149788Y-43457606D01*
X102149792Y-43457604D01*
X102300104Y-43307292D01*
X102300106Y-43307288D01*
X102300109Y-43307286D01*
X102425048Y-43135320D01*
X102425047Y-43135320D01*
X102425051Y-43135316D01*
X102513888Y-42960964D01*
X106738500Y-42960964D01*
X106738500Y-43799037D01*
X106753824Y-43915448D01*
X106753828Y-43915460D01*
X106813829Y-44060318D01*
X106813831Y-44060321D01*
X106836930Y-44090423D01*
X106909284Y-44184716D01*
X106990340Y-44246913D01*
X107033678Y-44280168D01*
X107033681Y-44280170D01*
X107125028Y-44318006D01*
X107178543Y-44340173D01*
X107294965Y-44355500D01*
X109215034Y-44355499D01*
X109215037Y-44355499D01*
X109331448Y-44340175D01*
X109331452Y-44340173D01*
X109331457Y-44340173D01*
X109456557Y-44288355D01*
X109476318Y-44280170D01*
X109476321Y-44280168D01*
X109600716Y-44184716D01*
X109696169Y-44060320D01*
X109756173Y-43915457D01*
X109771500Y-43799035D01*
X109771499Y-42960966D01*
X109771499Y-42960964D01*
X109771499Y-42960962D01*
X109756175Y-42844551D01*
X109756173Y-42844544D01*
X109756173Y-42844543D01*
X109720060Y-42757358D01*
X109696170Y-42699681D01*
X109696168Y-42699678D01*
X109662913Y-42656340D01*
X109600716Y-42575284D01*
X109538518Y-42527557D01*
X109476321Y-42479831D01*
X109476318Y-42479829D01*
X109331460Y-42419828D01*
X109331455Y-42419826D01*
X109215035Y-42404500D01*
X107294962Y-42404500D01*
X107178551Y-42419824D01*
X107178539Y-42419828D01*
X107033681Y-42479829D01*
X107033678Y-42479831D01*
X106909284Y-42575284D01*
X106813831Y-42699678D01*
X106813829Y-42699681D01*
X106753828Y-42844539D01*
X106753826Y-42844544D01*
X106738500Y-42960964D01*
X102513888Y-42960964D01*
X102521557Y-42945912D01*
X102587246Y-42743743D01*
X102620500Y-42533787D01*
X102620500Y-42321213D01*
X102587246Y-42111257D01*
X102521557Y-41909088D01*
X102425051Y-41719684D01*
X102425049Y-41719681D01*
X102425048Y-41719679D01*
X102300109Y-41547713D01*
X102149786Y-41397390D01*
X101977820Y-41272451D01*
X101788414Y-41175944D01*
X101788413Y-41175943D01*
X101788412Y-41175943D01*
X101586243Y-41110254D01*
X101586241Y-41110253D01*
X101586240Y-41110253D01*
X101424957Y-41084708D01*
X101376287Y-41077000D01*
X101163713Y-41077000D01*
X101115042Y-41084708D01*
X100953760Y-41110253D01*
X100751585Y-41175944D01*
X100562179Y-41272451D01*
X100390213Y-41397390D01*
X100239890Y-41547713D01*
X100114949Y-41719682D01*
X100110484Y-41728446D01*
X100062509Y-41779242D01*
X99994688Y-41796036D01*
X99928553Y-41773498D01*
X99889516Y-41728446D01*
X99885050Y-41719682D01*
X99760109Y-41547713D01*
X99609786Y-41397390D01*
X99437820Y-41272451D01*
X99248414Y-41175944D01*
X99248413Y-41175943D01*
X99248412Y-41175943D01*
X99046243Y-41110254D01*
X99046241Y-41110253D01*
X99046240Y-41110253D01*
X98884957Y-41084708D01*
X98836287Y-41077000D01*
X98623713Y-41077000D01*
X98575042Y-41084708D01*
X98413760Y-41110253D01*
X98211585Y-41175944D01*
X98022179Y-41272451D01*
X97850213Y-41397390D01*
X97699890Y-41547713D01*
X97574951Y-41719679D01*
X97478444Y-41909085D01*
X97412753Y-42111260D01*
X97379500Y-42321213D01*
X79322130Y-42321213D01*
X84893671Y-40789039D01*
X84893672Y-40789040D01*
X84933643Y-40778047D01*
X84938923Y-40776722D01*
X84996209Y-40763692D01*
X85007109Y-40761721D01*
X85062558Y-40754235D01*
X85073562Y-40753248D01*
X85123390Y-40751018D01*
X85132207Y-40750624D01*
X85137749Y-40750500D01*
X99950172Y-40750500D01*
X114862229Y-40750500D01*
X114867772Y-40750624D01*
G37*
%TD.AperFunction*%
%TA.AperFunction,Conductor*%
G36*
X105357978Y-50805903D02*
G01*
X105402325Y-50834404D01*
X105489707Y-50921786D01*
X105489711Y-50921789D01*
X105620814Y-51009390D01*
X105620827Y-51009397D01*
X105729263Y-51054312D01*
X105766503Y-51069737D01*
X105921153Y-51100499D01*
X105921156Y-51100500D01*
X105921158Y-51100500D01*
X106078844Y-51100500D01*
X106078845Y-51100499D01*
X106233497Y-51069737D01*
X106379179Y-51009394D01*
X106510289Y-50921789D01*
X106526817Y-50905261D01*
X106588139Y-50871774D01*
X106657831Y-50876757D01*
X106713765Y-50918627D01*
X106738184Y-50984091D01*
X106738500Y-50992940D01*
X106738500Y-51419037D01*
X106753824Y-51535448D01*
X106753828Y-51535460D01*
X106813829Y-51680318D01*
X106813831Y-51680321D01*
X106841595Y-51716503D01*
X106909284Y-51804716D01*
X106990340Y-51866913D01*
X107033678Y-51900168D01*
X107033681Y-51900170D01*
X107125028Y-51938006D01*
X107178543Y-51960173D01*
X107294965Y-51975500D01*
X107414500Y-51975499D01*
X107481539Y-51995183D01*
X107527294Y-52047987D01*
X107538500Y-52099499D01*
X107538500Y-52440500D01*
X107518815Y-52507539D01*
X107466011Y-52553294D01*
X107414501Y-52564500D01*
X107294963Y-52564500D01*
X107178551Y-52579824D01*
X107178539Y-52579828D01*
X107033681Y-52639829D01*
X107033678Y-52639831D01*
X106909284Y-52735284D01*
X106813831Y-52859678D01*
X106813829Y-52859681D01*
X106753828Y-53004539D01*
X106753826Y-53004544D01*
X106738500Y-53120964D01*
X106738500Y-53959037D01*
X106753824Y-54075448D01*
X106753828Y-54075460D01*
X106813829Y-54220318D01*
X106813831Y-54220321D01*
X106855438Y-54274543D01*
X106909284Y-54344716D01*
X106990340Y-54406913D01*
X107033678Y-54440168D01*
X107033681Y-54440170D01*
X107125028Y-54478006D01*
X107178543Y-54500173D01*
X107294965Y-54515500D01*
X107414500Y-54515499D01*
X107481539Y-54535183D01*
X107527294Y-54587987D01*
X107538500Y-54639499D01*
X107538500Y-54980500D01*
X107518815Y-55047539D01*
X107466011Y-55093294D01*
X107414501Y-55104500D01*
X107294963Y-55104500D01*
X107178551Y-55119824D01*
X107178539Y-55119828D01*
X107033681Y-55179829D01*
X107033678Y-55179831D01*
X106909284Y-55275284D01*
X106813831Y-55399678D01*
X106813829Y-55399681D01*
X106753828Y-55544539D01*
X106753826Y-55544544D01*
X106738500Y-55660964D01*
X106738501Y-56499036D01*
X106753824Y-56615448D01*
X106753828Y-56615460D01*
X106813829Y-56760318D01*
X106813831Y-56760321D01*
X106851129Y-56808927D01*
X106909284Y-56884716D01*
X106969558Y-56930966D01*
X107033678Y-56980168D01*
X107033681Y-56980170D01*
X107115701Y-57014143D01*
X107178543Y-57040173D01*
X107294965Y-57055500D01*
X107414500Y-57055499D01*
X107481539Y-57075183D01*
X107527294Y-57127987D01*
X107538500Y-57179499D01*
X107538500Y-57520500D01*
X107518815Y-57587539D01*
X107466011Y-57633294D01*
X107414501Y-57644500D01*
X107294963Y-57644500D01*
X107178551Y-57659824D01*
X107178539Y-57659828D01*
X107033681Y-57719829D01*
X107033678Y-57719831D01*
X106909284Y-57815284D01*
X106813831Y-57939678D01*
X106813829Y-57939681D01*
X106753828Y-58084539D01*
X106753826Y-58084544D01*
X106738648Y-58199838D01*
X106738500Y-58200965D01*
X106738500Y-58478415D01*
X106738501Y-58671500D01*
X106718817Y-58738539D01*
X106666013Y-58784294D01*
X106614501Y-58795500D01*
X93385500Y-58795500D01*
X93318461Y-58775815D01*
X93272706Y-58723011D01*
X93261500Y-58671500D01*
X93261499Y-58537142D01*
X93261499Y-58368856D01*
X93281183Y-58301818D01*
X93333987Y-58256063D01*
X93403146Y-58246119D01*
X93409691Y-58247240D01*
X93426079Y-58250500D01*
X93426082Y-58250500D01*
X98097755Y-58250500D01*
X98186468Y-58232853D01*
X98242748Y-58221658D01*
X98242762Y-58221651D01*
X98244561Y-58221107D01*
X98245565Y-58221097D01*
X98248722Y-58220470D01*
X98248841Y-58221068D01*
X98314428Y-58220476D01*
X98315164Y-58220688D01*
X98469745Y-58265598D01*
X98469748Y-58265598D01*
X98469750Y-58265599D01*
X98504362Y-58268323D01*
X98504370Y-58268323D01*
X99507654Y-58268323D01*
X99507662Y-58268323D01*
X99542274Y-58265599D01*
X99542276Y-58265598D01*
X99542278Y-58265598D01*
X99581335Y-58254250D01*
X99690398Y-58222565D01*
X99823166Y-58144046D01*
X99918685Y-58048526D01*
X99980006Y-58015043D01*
X100049698Y-58020027D01*
X100094046Y-58048528D01*
X100189161Y-58143643D01*
X100189170Y-58143650D01*
X100321825Y-58222102D01*
X100469829Y-58265100D01*
X100469834Y-58265101D01*
X100504408Y-58267822D01*
X100504420Y-58267823D01*
X101507604Y-58267823D01*
X101507615Y-58267822D01*
X101542189Y-58265101D01*
X101542194Y-58265100D01*
X101690198Y-58222102D01*
X101822853Y-58143650D01*
X101822862Y-58143643D01*
X101931832Y-58034673D01*
X101931839Y-58034664D01*
X102010291Y-57902009D01*
X102021947Y-57861885D01*
X101973212Y-57833065D01*
X101948649Y-57814012D01*
X101281901Y-57147264D01*
X101306087Y-57123078D01*
X101355456Y-57037568D01*
X101381012Y-56942193D01*
X101381012Y-56539271D01*
X102056011Y-57214271D01*
X102056012Y-57214270D01*
X102056012Y-55821375D01*
X102056011Y-55821374D01*
X101381012Y-56496373D01*
X101381012Y-56093453D01*
X101355456Y-55998078D01*
X101306087Y-55912568D01*
X101281900Y-55888381D01*
X101948650Y-55221632D01*
X101973211Y-55202580D01*
X102021947Y-55173758D01*
X102010291Y-55133636D01*
X101931839Y-55000981D01*
X101931832Y-55000972D01*
X101822862Y-54892002D01*
X101822853Y-54891995D01*
X101690198Y-54813543D01*
X101690193Y-54813541D01*
X101548759Y-54772451D01*
X101489873Y-54734845D01*
X101460667Y-54671373D01*
X101470413Y-54602186D01*
X101495671Y-54565696D01*
X105226963Y-50834403D01*
X105288286Y-50800919D01*
X105357978Y-50805903D01*
G37*
%TD.AperFunction*%
%TA.AperFunction,Conductor*%
G36*
X77507585Y-56895185D02*
G01*
X77553340Y-56947989D01*
X77563284Y-57017147D01*
X77534259Y-57080703D01*
X77528227Y-57087181D01*
X76277229Y-58338181D01*
X76215906Y-58371666D01*
X76189548Y-58374500D01*
X75854295Y-58374500D01*
X75787256Y-58354815D01*
X75741501Y-58302011D01*
X75731557Y-58232853D01*
X75736590Y-58211494D01*
X75739504Y-58202698D01*
X75739506Y-58202689D01*
X75749999Y-58099985D01*
X75750000Y-58099972D01*
X75750000Y-57800000D01*
X74224000Y-57800000D01*
X74156961Y-57780315D01*
X74111206Y-57727511D01*
X74100000Y-57676000D01*
X74100000Y-57424000D01*
X74119685Y-57356961D01*
X74172489Y-57311206D01*
X74224000Y-57300000D01*
X75750000Y-57300000D01*
X75750000Y-56999500D01*
X75769685Y-56932461D01*
X75822489Y-56886706D01*
X75874000Y-56875500D01*
X77440546Y-56875500D01*
X77507585Y-56895185D01*
G37*
%TD.AperFunction*%
%TA.AperFunction,Conductor*%
G36*
X109911710Y-52560586D02*
G01*
X109913134Y-52560382D01*
X109942951Y-52568561D01*
X110063007Y-52618289D01*
X110066503Y-52619737D01*
X110221153Y-52650499D01*
X110221156Y-52650500D01*
X110350069Y-52650500D01*
X110417108Y-52670185D01*
X110425557Y-52676125D01*
X110431281Y-52680517D01*
X110431284Y-52680520D01*
X110431287Y-52680521D01*
X110431290Y-52680524D01*
X110513209Y-52727819D01*
X110568216Y-52759577D01*
X110653811Y-52782512D01*
X110720942Y-52800500D01*
X110720943Y-52800500D01*
X114867209Y-52800500D01*
X114887702Y-52806517D01*
X114909025Y-52807764D01*
X114920557Y-52816165D01*
X114934248Y-52820185D01*
X114948233Y-52836325D01*
X114965500Y-52848903D01*
X114976817Y-52869313D01*
X114980003Y-52872989D01*
X114982816Y-52879657D01*
X114983131Y-52880470D01*
X115006204Y-52942331D01*
X115008119Y-52944889D01*
X115012306Y-52955683D01*
X115014599Y-52982786D01*
X115020383Y-53009367D01*
X115017640Y-53018710D01*
X115018198Y-53025303D01*
X115012598Y-53035883D01*
X115008687Y-53049206D01*
X115009746Y-53049601D01*
X114956403Y-53192620D01*
X114956401Y-53192627D01*
X114950000Y-53252155D01*
X114950000Y-53550000D01*
X116850000Y-53550000D01*
X116850000Y-53252172D01*
X116849999Y-53252155D01*
X116843598Y-53192627D01*
X116843597Y-53192623D01*
X116790253Y-53049602D01*
X116791767Y-53049037D01*
X116786882Y-53025083D01*
X116779616Y-52991674D01*
X116779853Y-52990615D01*
X116779742Y-52990069D01*
X116780664Y-52987000D01*
X116787693Y-52955683D01*
X116791878Y-52944892D01*
X116793796Y-52942331D01*
X116816893Y-52880403D01*
X116817183Y-52879657D01*
X116837993Y-52852598D01*
X116858479Y-52825233D01*
X116859266Y-52824939D01*
X116859779Y-52824273D01*
X116891939Y-52812752D01*
X116923943Y-52800816D01*
X116925409Y-52800763D01*
X116925556Y-52800711D01*
X116925733Y-52800752D01*
X116932790Y-52800500D01*
X118967209Y-52800500D01*
X119034248Y-52820185D01*
X119080003Y-52872989D01*
X119083391Y-52881167D01*
X119109303Y-52950641D01*
X119107733Y-52951226D01*
X119120383Y-53009367D01*
X119108687Y-53049206D01*
X119109746Y-53049601D01*
X119056403Y-53192620D01*
X119056401Y-53192627D01*
X119050000Y-53252155D01*
X119050000Y-53550000D01*
X119876000Y-53550000D01*
X119943039Y-53569685D01*
X119988794Y-53622489D01*
X120000000Y-53674000D01*
X120000000Y-53800000D01*
X120026500Y-53800000D01*
X120093539Y-53819685D01*
X120139294Y-53872489D01*
X120150500Y-53924000D01*
X120150500Y-55163547D01*
X120130815Y-55230586D01*
X120114181Y-55251228D01*
X118124908Y-57240501D01*
X118066230Y-57273380D01*
X118057440Y-57275494D01*
X117997804Y-57280914D01*
X117872129Y-57320075D01*
X117868139Y-57321035D01*
X117837173Y-57319500D01*
X117806165Y-57320011D01*
X117802322Y-57317773D01*
X117798355Y-57317577D01*
X117782433Y-57306193D01*
X117751455Y-57288156D01*
X117562799Y-57099500D01*
X117343528Y-56880228D01*
X117343527Y-56880227D01*
X117231723Y-56768423D01*
X117122738Y-56705501D01*
X117122737Y-56705500D01*
X117096940Y-56690606D01*
X117094792Y-56689366D01*
X117094791Y-56689365D01*
X117094790Y-56689365D01*
X117036073Y-56673632D01*
X116942064Y-56648442D01*
X116783950Y-56648442D01*
X116776354Y-56648442D01*
X116776338Y-56648443D01*
X115687670Y-56648443D01*
X115687654Y-56648442D01*
X115680058Y-56648442D01*
X115521943Y-56648442D01*
X115402303Y-56680500D01*
X115369211Y-56689367D01*
X115232287Y-56768421D01*
X115232281Y-56768425D01*
X115036527Y-56964181D01*
X114975204Y-56997666D01*
X114948846Y-57000500D01*
X109889399Y-57000500D01*
X109861673Y-56992358D01*
X109833264Y-56987066D01*
X109828559Y-56982635D01*
X109822360Y-56980815D01*
X109803438Y-56958978D01*
X109782399Y-56939165D01*
X109779863Y-56931771D01*
X109776605Y-56928011D01*
X109769078Y-56906481D01*
X109767377Y-56899655D01*
X109756173Y-56814543D01*
X109731065Y-56753927D01*
X109728836Y-56744981D01*
X109729915Y-56718920D01*
X109727127Y-56692984D01*
X109731624Y-56677666D01*
X109731728Y-56675171D01*
X109732809Y-56673632D01*
X109734594Y-56667552D01*
X109756173Y-56615457D01*
X109771500Y-56499035D01*
X109771499Y-55660966D01*
X109771499Y-55660964D01*
X109771499Y-55660962D01*
X109756175Y-55544551D01*
X109756173Y-55544547D01*
X109756173Y-55544543D01*
X109734595Y-55492450D01*
X109727127Y-55422984D01*
X109734594Y-55397552D01*
X109756173Y-55345457D01*
X109771500Y-55229035D01*
X109771499Y-54390966D01*
X109771499Y-54390962D01*
X109765823Y-54347844D01*
X114950000Y-54347844D01*
X114956401Y-54407372D01*
X114956403Y-54407379D01*
X115006645Y-54542086D01*
X115006649Y-54542093D01*
X115092809Y-54657187D01*
X115092812Y-54657190D01*
X115207906Y-54743350D01*
X115207913Y-54743354D01*
X115342620Y-54793596D01*
X115342627Y-54793598D01*
X115402155Y-54799999D01*
X115402172Y-54800000D01*
X115650000Y-54800000D01*
X116150000Y-54800000D01*
X116397828Y-54800000D01*
X116397844Y-54799999D01*
X116457372Y-54793598D01*
X116457379Y-54793596D01*
X116592086Y-54743354D01*
X116592093Y-54743350D01*
X116707187Y-54657190D01*
X116707190Y-54657187D01*
X116793350Y-54542093D01*
X116793354Y-54542086D01*
X116843596Y-54407379D01*
X116843598Y-54407372D01*
X116849999Y-54347844D01*
X119050000Y-54347844D01*
X119056401Y-54407372D01*
X119056403Y-54407379D01*
X119106645Y-54542086D01*
X119106649Y-54542093D01*
X119192809Y-54657187D01*
X119192812Y-54657190D01*
X119307906Y-54743350D01*
X119307913Y-54743354D01*
X119442620Y-54793596D01*
X119442627Y-54793598D01*
X119502155Y-54799999D01*
X119502172Y-54800000D01*
X119750000Y-54800000D01*
X119750000Y-54050000D01*
X119050000Y-54050000D01*
X119050000Y-54347844D01*
X116849999Y-54347844D01*
X116850000Y-54347827D01*
X116850000Y-54050000D01*
X116150000Y-54050000D01*
X116150000Y-54800000D01*
X115650000Y-54800000D01*
X115650000Y-54050000D01*
X114950000Y-54050000D01*
X114950000Y-54347844D01*
X109765823Y-54347844D01*
X109756175Y-54274551D01*
X109756173Y-54274547D01*
X109756173Y-54274543D01*
X109734595Y-54222450D01*
X109727127Y-54152984D01*
X109728561Y-54146144D01*
X109730841Y-54136612D01*
X109756173Y-54075457D01*
X109771500Y-53959035D01*
X109771499Y-53120966D01*
X109771499Y-53120964D01*
X109771499Y-53120962D01*
X109756175Y-53004551D01*
X109756173Y-53004547D01*
X109756173Y-53004543D01*
X109734595Y-52952450D01*
X109727127Y-52882984D01*
X109734594Y-52857552D01*
X109756173Y-52805457D01*
X109771500Y-52689035D01*
X109771499Y-52683130D01*
X109780741Y-52651647D01*
X109788857Y-52619849D01*
X109790532Y-52618289D01*
X109791177Y-52616093D01*
X109815972Y-52594603D01*
X109839994Y-52572238D01*
X109842246Y-52571831D01*
X109843976Y-52570333D01*
X109876448Y-52565660D01*
X109908753Y-52559832D01*
X109911710Y-52560586D01*
G37*
%TD.AperFunction*%
%TA.AperFunction,Conductor*%
G36*
X129793833Y-53795048D02*
G01*
X129849767Y-53836920D01*
X129874184Y-53902384D01*
X129874500Y-53911230D01*
X129874500Y-54394818D01*
X129874500Y-54394820D01*
X129874499Y-54394820D01*
X129903340Y-54539807D01*
X129903343Y-54539817D01*
X129959913Y-54676390D01*
X129959914Y-54676391D01*
X129959916Y-54676395D01*
X129967406Y-54687604D01*
X129967407Y-54687607D01*
X130042046Y-54799314D01*
X130042052Y-54799321D01*
X130730551Y-55487819D01*
X130764036Y-55549142D01*
X130759052Y-55618833D01*
X130717181Y-55674767D01*
X130651716Y-55699184D01*
X130642870Y-55699500D01*
X130484298Y-55699500D01*
X130447432Y-55702401D01*
X130447426Y-55702402D01*
X130302267Y-55744576D01*
X130267672Y-55749500D01*
X128840263Y-55749500D01*
X128822118Y-55744172D01*
X128803212Y-55743835D01*
X128774993Y-55730334D01*
X128773224Y-55729815D01*
X128771374Y-55728603D01*
X128743786Y-55710170D01*
X128743785Y-55710169D01*
X128704492Y-55683914D01*
X128704490Y-55683913D01*
X128567917Y-55627343D01*
X128567907Y-55627340D01*
X128422920Y-55598500D01*
X128422918Y-55598500D01*
X125128790Y-55598500D01*
X125128788Y-55598500D01*
X124983800Y-55627340D01*
X124983790Y-55627343D01*
X124847217Y-55683913D01*
X124847215Y-55683914D01*
X124807923Y-55710169D01*
X124807921Y-55710170D01*
X124779585Y-55729103D01*
X124712908Y-55749980D01*
X124710696Y-55750000D01*
X124424000Y-55750000D01*
X124356961Y-55730315D01*
X124311206Y-55677511D01*
X124300000Y-55626000D01*
X124300000Y-55374000D01*
X124319685Y-55306961D01*
X124372489Y-55261206D01*
X124424000Y-55250000D01*
X126648143Y-55250000D01*
X126648142Y-55249999D01*
X126643821Y-55202441D01*
X126595052Y-55045934D01*
X126530197Y-54938649D01*
X126512361Y-54871095D01*
X126533879Y-54804621D01*
X126587920Y-54760334D01*
X126636314Y-54750500D01*
X128498920Y-54750500D01*
X128596929Y-54731004D01*
X128643913Y-54721658D01*
X128780495Y-54665084D01*
X128845291Y-54621789D01*
X128845294Y-54621786D01*
X128845296Y-54621786D01*
X128895880Y-54587987D01*
X128903416Y-54582952D01*
X129662819Y-53823549D01*
X129724142Y-53790064D01*
X129793833Y-53795048D01*
G37*
%TD.AperFunction*%
%TA.AperFunction,Conductor*%
G36*
X72904809Y-48970185D02*
G01*
X72925451Y-48986819D01*
X72981631Y-49042999D01*
X73015116Y-49104322D01*
X73010132Y-49174014D01*
X72968260Y-49229947D01*
X72932955Y-49248386D01*
X72880879Y-49265642D01*
X72880876Y-49265643D01*
X72731655Y-49357684D01*
X72607684Y-49481655D01*
X72515643Y-49630876D01*
X72515641Y-49630881D01*
X72460494Y-49797303D01*
X72460493Y-49797310D01*
X72450000Y-49900014D01*
X72450000Y-50200000D01*
X73976000Y-50200000D01*
X74043039Y-50219685D01*
X74088794Y-50272489D01*
X74100000Y-50324000D01*
X74100000Y-50576000D01*
X74080315Y-50643039D01*
X74027511Y-50688794D01*
X73976000Y-50700000D01*
X72450000Y-50700000D01*
X72450000Y-50999985D01*
X72460493Y-51102689D01*
X72460494Y-51102696D01*
X72515641Y-51269118D01*
X72515643Y-51269123D01*
X72607684Y-51418344D01*
X72731655Y-51542315D01*
X72880876Y-51634356D01*
X72880881Y-51634358D01*
X73047303Y-51689505D01*
X73047310Y-51689506D01*
X73150014Y-51699999D01*
X73150027Y-51700000D01*
X73896199Y-51700000D01*
X73963238Y-51719685D01*
X74008993Y-51772489D01*
X74018937Y-51841647D01*
X73993805Y-51900479D01*
X73989744Y-51905661D01*
X73904947Y-52045934D01*
X73856178Y-52202441D01*
X73851857Y-52249999D01*
X73851857Y-52250000D01*
X75825208Y-52250000D01*
X75892247Y-52269685D01*
X75903871Y-52278145D01*
X75908509Y-52281951D01*
X76031423Y-52364080D01*
X76031436Y-52364087D01*
X76123452Y-52402201D01*
X76139016Y-52414743D01*
X76157203Y-52423049D01*
X76165667Y-52436219D01*
X76177856Y-52446042D01*
X76184168Y-52465009D01*
X76194977Y-52481827D01*
X76198939Y-52509387D01*
X76199921Y-52512336D01*
X76200000Y-52516762D01*
X76200000Y-52626000D01*
X76180315Y-52693039D01*
X76127511Y-52738794D01*
X76076000Y-52750000D01*
X73851857Y-52750000D01*
X73856178Y-52797558D01*
X73904947Y-52954065D01*
X73989743Y-53094337D01*
X73989747Y-53094342D01*
X74057370Y-53161965D01*
X74090855Y-53223288D01*
X74085871Y-53292980D01*
X74057371Y-53337326D01*
X73989352Y-53405346D01*
X73989348Y-53405351D01*
X73904488Y-53545727D01*
X73904485Y-53545736D01*
X73857758Y-53695689D01*
X73855685Y-53702343D01*
X73849500Y-53770406D01*
X73849500Y-54229594D01*
X73855685Y-54297657D01*
X73855686Y-54297662D01*
X73855687Y-54297664D01*
X73904485Y-54454263D01*
X73904488Y-54454272D01*
X73989348Y-54594648D01*
X73989350Y-54594650D01*
X73989352Y-54594653D01*
X74034198Y-54639499D01*
X74057018Y-54662319D01*
X74090502Y-54723643D01*
X74085517Y-54793334D01*
X74057018Y-54837681D01*
X73989348Y-54905351D01*
X73904488Y-55045727D01*
X73904486Y-55045734D01*
X73870677Y-55154230D01*
X73831939Y-55212377D01*
X73767914Y-55240351D01*
X73698929Y-55229269D01*
X73664611Y-55205020D01*
X70336819Y-51877228D01*
X70303334Y-51815905D01*
X70300500Y-51789547D01*
X70300500Y-51584313D01*
X70300499Y-51584298D01*
X70300146Y-51579815D01*
X70297598Y-51547431D01*
X70295291Y-51539491D01*
X70251745Y-51389606D01*
X70251744Y-51389603D01*
X70251744Y-51389602D01*
X70176942Y-51263119D01*
X70159760Y-51195397D01*
X70176942Y-51136881D01*
X70251744Y-51010398D01*
X70297598Y-50852569D01*
X70300500Y-50815694D01*
X70300500Y-50384306D01*
X70297598Y-50347431D01*
X70291665Y-50327011D01*
X70258487Y-50212810D01*
X70251744Y-50189602D01*
X70176652Y-50062629D01*
X70159470Y-49994906D01*
X70176653Y-49936388D01*
X70251281Y-49810198D01*
X70297100Y-49652486D01*
X70297295Y-49650001D01*
X70297295Y-49650000D01*
X69499000Y-49650000D01*
X69431961Y-49630315D01*
X69386206Y-49577511D01*
X69375000Y-49526000D01*
X69375000Y-49274000D01*
X69394685Y-49206961D01*
X69447489Y-49161206D01*
X69499000Y-49150000D01*
X70297295Y-49150000D01*
X70297295Y-49149998D01*
X70297100Y-49147513D01*
X70285939Y-49109095D01*
X70286139Y-49039225D01*
X70324082Y-48980555D01*
X70387720Y-48951712D01*
X70405016Y-48950500D01*
X72837770Y-48950500D01*
X72904809Y-48970185D01*
G37*
%TD.AperFunction*%
%TA.AperFunction,Conductor*%
G36*
X79893039Y-53569685D02*
G01*
X79938794Y-53622489D01*
X79950000Y-53674000D01*
X79950000Y-53876499D01*
X79930315Y-53943538D01*
X79877511Y-53989293D01*
X79845808Y-53998907D01*
X79835970Y-54000499D01*
X79812394Y-54000499D01*
X79711743Y-54020520D01*
X79709558Y-54020954D01*
X79709537Y-54020958D01*
X79691553Y-54024535D01*
X79691537Y-54024540D01*
X79652860Y-54040561D01*
X79605408Y-54050000D01*
X79000000Y-54050000D01*
X79000000Y-54347844D01*
X79006401Y-54407372D01*
X79006402Y-54407376D01*
X79033328Y-54479566D01*
X79038312Y-54549258D01*
X79004828Y-54610581D01*
X78944037Y-54671373D01*
X78777227Y-54838182D01*
X78715907Y-54871666D01*
X78689548Y-54874500D01*
X78431163Y-54874500D01*
X78401722Y-54865855D01*
X78371736Y-54859332D01*
X78366720Y-54855577D01*
X78364124Y-54854815D01*
X78343482Y-54838181D01*
X78342982Y-54837681D01*
X78309497Y-54776358D01*
X78314481Y-54706666D01*
X78342982Y-54662319D01*
X78365802Y-54639499D01*
X78410648Y-54594653D01*
X78442206Y-54542450D01*
X78495511Y-54454272D01*
X78495514Y-54454263D01*
X78510126Y-54407372D01*
X78544315Y-54297657D01*
X78550500Y-54229594D01*
X78550500Y-54002375D01*
X78570185Y-53935336D01*
X78586819Y-53914694D01*
X78915194Y-53586319D01*
X78976517Y-53552834D01*
X79002875Y-53550000D01*
X79826000Y-53550000D01*
X79893039Y-53569685D01*
G37*
%TD.AperFunction*%
%TA.AperFunction,Conductor*%
G36*
X87144000Y-52489185D02*
G01*
X87189755Y-52541989D01*
X87199699Y-52611147D01*
X87170674Y-52674703D01*
X87164642Y-52681181D01*
X85881642Y-53964181D01*
X85820319Y-53997666D01*
X85793961Y-54000500D01*
X84174000Y-54000500D01*
X84165314Y-53997949D01*
X84156353Y-53999238D01*
X84132312Y-53988259D01*
X84106961Y-53980815D01*
X84101033Y-53973974D01*
X84092797Y-53970213D01*
X84078507Y-53947978D01*
X84061206Y-53928011D01*
X84058918Y-53917496D01*
X84055023Y-53911435D01*
X84050000Y-53876500D01*
X84050000Y-53674000D01*
X84069685Y-53606961D01*
X84122489Y-53561206D01*
X84174000Y-53550000D01*
X85000000Y-53550000D01*
X85000000Y-53252172D01*
X84999999Y-53252155D01*
X84993598Y-53192627D01*
X84993597Y-53192623D01*
X84940253Y-53049602D01*
X84942067Y-53048925D01*
X84929616Y-52991674D01*
X84941570Y-52950966D01*
X84940696Y-52950640D01*
X84943794Y-52942333D01*
X84943796Y-52942331D01*
X84994091Y-52807483D01*
X85000500Y-52747873D01*
X85000500Y-52593500D01*
X85020185Y-52526461D01*
X85072989Y-52480706D01*
X85124500Y-52469500D01*
X87076961Y-52469500D01*
X87144000Y-52489185D01*
G37*
%TD.AperFunction*%
%TA.AperFunction,Conductor*%
G36*
X124693039Y-49997639D02*
G01*
X124738794Y-50050443D01*
X124750000Y-50101954D01*
X124750000Y-50200000D01*
X128050000Y-50200000D01*
X128050000Y-50101954D01*
X128069685Y-50034915D01*
X128122489Y-49989160D01*
X128174000Y-49977954D01*
X128863094Y-49977954D01*
X128930133Y-49997639D01*
X128975888Y-50050443D01*
X128985832Y-50119601D01*
X128956807Y-50183157D01*
X128950775Y-50189635D01*
X128261681Y-50878728D01*
X128200358Y-50912213D01*
X128130666Y-50907229D01*
X128074733Y-50865357D01*
X128050316Y-50799893D01*
X128050000Y-50791047D01*
X128050000Y-50700000D01*
X124750000Y-50700000D01*
X124750000Y-50999985D01*
X124760493Y-51102689D01*
X124760494Y-51102696D01*
X124815641Y-51269118D01*
X124815643Y-51269123D01*
X124907684Y-51418344D01*
X124927159Y-51437819D01*
X124960644Y-51499142D01*
X124955660Y-51568834D01*
X124913788Y-51624767D01*
X124848324Y-51649184D01*
X124839478Y-51649500D01*
X122570405Y-51649500D01*
X122567609Y-51649627D01*
X122567603Y-51649500D01*
X122567596Y-51649500D01*
X122567596Y-51649340D01*
X122567567Y-51648706D01*
X122502668Y-51635874D01*
X122452334Y-51587415D01*
X122436188Y-51519436D01*
X122459358Y-51453520D01*
X122472333Y-51438256D01*
X122748771Y-51161819D01*
X122810094Y-51128334D01*
X122836452Y-51125500D01*
X123164061Y-51125500D01*
X123224483Y-51113481D01*
X123284906Y-51101463D01*
X123336087Y-51080263D01*
X123398740Y-51054312D01*
X123465689Y-51009577D01*
X123501187Y-50985858D01*
X123588312Y-50898733D01*
X123588313Y-50898731D01*
X123595379Y-50891665D01*
X123595381Y-50891661D01*
X124472771Y-50014273D01*
X124499698Y-49999569D01*
X124525517Y-49982977D01*
X124531717Y-49982085D01*
X124534094Y-49980788D01*
X124560452Y-49977954D01*
X124626000Y-49977954D01*
X124693039Y-49997639D01*
G37*
%TD.AperFunction*%
%TA.AperFunction,Conductor*%
G36*
X76655937Y-49361421D02*
G01*
X76682258Y-49381494D01*
X77331284Y-50030520D01*
X77331286Y-50030521D01*
X77331290Y-50030524D01*
X77396342Y-50068081D01*
X77468216Y-50109577D01*
X77620943Y-50150501D01*
X77620945Y-50150501D01*
X77786654Y-50150501D01*
X77786670Y-50150500D01*
X78249903Y-50150500D01*
X78316942Y-50170185D01*
X78337584Y-50186819D01*
X78515139Y-50364374D01*
X78515149Y-50364385D01*
X78519479Y-50368715D01*
X78519480Y-50368716D01*
X78631284Y-50480520D01*
X78631286Y-50480521D01*
X78631290Y-50480524D01*
X78715352Y-50529057D01*
X78715353Y-50529057D01*
X78768215Y-50559577D01*
X78920943Y-50600500D01*
X79079057Y-50600500D01*
X86687944Y-50600500D01*
X86754983Y-50620185D01*
X86800738Y-50672989D01*
X86807020Y-50689905D01*
X86846380Y-50825385D01*
X86846382Y-50825390D01*
X86926827Y-50961416D01*
X86926834Y-50961425D01*
X87022228Y-51056819D01*
X87055713Y-51118142D01*
X87050729Y-51187834D01*
X87008857Y-51243767D01*
X86943393Y-51268184D01*
X86934547Y-51268500D01*
X84796499Y-51268500D01*
X84751495Y-51257011D01*
X84750641Y-51259303D01*
X84607482Y-51205908D01*
X84607483Y-51205908D01*
X84547883Y-51199501D01*
X84547881Y-51199500D01*
X84547873Y-51199500D01*
X84547864Y-51199500D01*
X83552129Y-51199500D01*
X83552123Y-51199501D01*
X83492516Y-51205908D01*
X83357671Y-51256202D01*
X83357664Y-51256206D01*
X83242455Y-51342452D01*
X83242452Y-51342455D01*
X83156206Y-51457664D01*
X83156202Y-51457671D01*
X83133391Y-51518833D01*
X83091520Y-51574767D01*
X83026056Y-51599184D01*
X83017209Y-51599500D01*
X80982791Y-51599500D01*
X80915752Y-51579815D01*
X80869997Y-51527011D01*
X80866609Y-51518833D01*
X80843797Y-51457671D01*
X80843793Y-51457664D01*
X80757547Y-51342455D01*
X80757544Y-51342452D01*
X80642335Y-51256206D01*
X80642328Y-51256202D01*
X80507482Y-51205908D01*
X80507483Y-51205908D01*
X80447883Y-51199501D01*
X80447881Y-51199500D01*
X80447873Y-51199500D01*
X80447864Y-51199500D01*
X79452129Y-51199500D01*
X79452123Y-51199501D01*
X79392516Y-51205908D01*
X79257671Y-51256202D01*
X79257664Y-51256206D01*
X79142455Y-51342452D01*
X79100426Y-51398596D01*
X79044492Y-51440466D01*
X78974801Y-51445450D01*
X78913479Y-51411965D01*
X78617563Y-51116049D01*
X78597578Y-51102696D01*
X78525767Y-51054714D01*
X78494641Y-51033916D01*
X78494639Y-51033915D01*
X78494636Y-51033913D01*
X78358063Y-50977343D01*
X78358053Y-50977340D01*
X78213066Y-50948500D01*
X78213064Y-50948500D01*
X76749154Y-50948500D01*
X76719713Y-50939855D01*
X76689727Y-50933332D01*
X76684711Y-50929577D01*
X76682115Y-50928815D01*
X76661478Y-50912185D01*
X76535817Y-50786524D01*
X76502334Y-50725203D01*
X76499500Y-50698845D01*
X76499500Y-49626788D01*
X76490005Y-49579058D01*
X76490005Y-49579056D01*
X76484010Y-49548917D01*
X76472960Y-49493364D01*
X76479187Y-49423775D01*
X76522050Y-49368597D01*
X76587940Y-49345353D01*
X76655937Y-49361421D01*
G37*
%TD.AperFunction*%
%TA.AperFunction,Conductor*%
G36*
X116472148Y-50156738D02*
G01*
X116494237Y-50158318D01*
X116505020Y-50166390D01*
X116517942Y-50170185D01*
X116532441Y-50186918D01*
X116550170Y-50200190D01*
X116554877Y-50212810D01*
X116563697Y-50222989D01*
X116566848Y-50244906D01*
X116574587Y-50265654D01*
X116571724Y-50278814D01*
X116573641Y-50292147D01*
X116564441Y-50312290D01*
X116559735Y-50333927D01*
X116546466Y-50351652D01*
X116544616Y-50355703D01*
X116538584Y-50362181D01*
X116537584Y-50363181D01*
X116476261Y-50396666D01*
X116449903Y-50399500D01*
X113324000Y-50399500D01*
X113256961Y-50379815D01*
X113211206Y-50327011D01*
X113200000Y-50275500D01*
X113200000Y-50274500D01*
X113219685Y-50207461D01*
X113272489Y-50161706D01*
X113324000Y-50150500D01*
X116450903Y-50150500D01*
X116472148Y-50156738D01*
G37*
%TD.AperFunction*%
%TD*%
M02*
